%TF.GenerationSoftware,KiCad,Pcbnew,7.0.7*%
%TF.CreationDate,2024-01-22T13:38:31-08:00*%
%TF.ProjectId,ProgrammaGull_Sandpiper,50726f67-7261-46d6-9d61-47756c6c5f53,rev?*%
%TF.SameCoordinates,Original*%
%TF.FileFunction,Copper,L1,Top*%
%TF.FilePolarity,Positive*%
%FSLAX46Y46*%
G04 Gerber Fmt 4.6, Leading zero omitted, Abs format (unit mm)*
G04 Created by KiCad (PCBNEW 7.0.7) date 2024-01-22 13:38:31*
%MOMM*%
%LPD*%
G01*
G04 APERTURE LIST*
G04 Aperture macros list*
%AMRoundRect*
0 Rectangle with rounded corners*
0 $1 Rounding radius*
0 $2 $3 $4 $5 $6 $7 $8 $9 X,Y pos of 4 corners*
0 Add a 4 corners polygon primitive as box body*
4,1,4,$2,$3,$4,$5,$6,$7,$8,$9,$2,$3,0*
0 Add four circle primitives for the rounded corners*
1,1,$1+$1,$2,$3*
1,1,$1+$1,$4,$5*
1,1,$1+$1,$6,$7*
1,1,$1+$1,$8,$9*
0 Add four rect primitives between the rounded corners*
20,1,$1+$1,$2,$3,$4,$5,0*
20,1,$1+$1,$4,$5,$6,$7,0*
20,1,$1+$1,$6,$7,$8,$9,0*
20,1,$1+$1,$8,$9,$2,$3,0*%
G04 Aperture macros list end*
%ADD10C,0.300000*%
%TA.AperFunction,NonConductor*%
%ADD11C,0.300000*%
%TD*%
%ADD12C,0.400000*%
%TA.AperFunction,NonConductor*%
%ADD13C,0.400000*%
%TD*%
%TA.AperFunction,ComponentPad*%
%ADD14C,1.524000*%
%TD*%
%TA.AperFunction,ComponentPad*%
%ADD15O,2.500000X1.524000*%
%TD*%
%TA.AperFunction,SMDPad,CuDef*%
%ADD16R,1.350000X1.100000*%
%TD*%
%TA.AperFunction,SMDPad,CuDef*%
%ADD17RoundRect,0.200000X-0.275000X0.200000X-0.275000X-0.200000X0.275000X-0.200000X0.275000X0.200000X0*%
%TD*%
%TA.AperFunction,SMDPad,CuDef*%
%ADD18RoundRect,0.200000X0.275000X-0.200000X0.275000X0.200000X-0.275000X0.200000X-0.275000X-0.200000X0*%
%TD*%
%TA.AperFunction,SMDPad,CuDef*%
%ADD19RoundRect,0.200000X0.200000X0.275000X-0.200000X0.275000X-0.200000X-0.275000X0.200000X-0.275000X0*%
%TD*%
%TA.AperFunction,SMDPad,CuDef*%
%ADD20RoundRect,0.048000X-0.152000X0.427000X-0.152000X-0.427000X0.152000X-0.427000X0.152000X0.427000X0*%
%TD*%
%TA.AperFunction,SMDPad,CuDef*%
%ADD21RoundRect,0.135000X0.135000X0.185000X-0.135000X0.185000X-0.135000X-0.185000X0.135000X-0.185000X0*%
%TD*%
%TA.AperFunction,SMDPad,CuDef*%
%ADD22RoundRect,0.225000X0.250000X-0.225000X0.250000X0.225000X-0.250000X0.225000X-0.250000X-0.225000X0*%
%TD*%
%TA.AperFunction,SMDPad,CuDef*%
%ADD23RoundRect,0.225000X-0.250000X0.225000X-0.250000X-0.225000X0.250000X-0.225000X0.250000X0.225000X0*%
%TD*%
%TA.AperFunction,SMDPad,CuDef*%
%ADD24RoundRect,0.250000X-0.475000X0.250000X-0.475000X-0.250000X0.475000X-0.250000X0.475000X0.250000X0*%
%TD*%
%TA.AperFunction,SMDPad,CuDef*%
%ADD25RoundRect,0.150000X0.150000X-0.587500X0.150000X0.587500X-0.150000X0.587500X-0.150000X-0.587500X0*%
%TD*%
%TA.AperFunction,SMDPad,CuDef*%
%ADD26R,0.600000X1.150000*%
%TD*%
%TA.AperFunction,SMDPad,CuDef*%
%ADD27R,0.300000X1.150000*%
%TD*%
%TA.AperFunction,ComponentPad*%
%ADD28O,1.000000X2.100000*%
%TD*%
%TA.AperFunction,ComponentPad*%
%ADD29O,1.000000X1.800000*%
%TD*%
%TA.AperFunction,SMDPad,CuDef*%
%ADD30RoundRect,0.225000X-0.225000X-0.250000X0.225000X-0.250000X0.225000X0.250000X-0.225000X0.250000X0*%
%TD*%
%TA.AperFunction,SMDPad,CuDef*%
%ADD31RoundRect,0.135000X-0.226274X-0.035355X-0.035355X-0.226274X0.226274X0.035355X0.035355X0.226274X0*%
%TD*%
%TA.AperFunction,SMDPad,CuDef*%
%ADD32RoundRect,0.200000X-0.200000X-0.275000X0.200000X-0.275000X0.200000X0.275000X-0.200000X0.275000X0*%
%TD*%
%TA.AperFunction,SMDPad,CuDef*%
%ADD33R,1.100000X1.350000*%
%TD*%
%TA.AperFunction,SMDPad,CuDef*%
%ADD34RoundRect,0.062500X-0.350000X0.062500X-0.350000X-0.062500X0.350000X-0.062500X0.350000X0.062500X0*%
%TD*%
%TA.AperFunction,SMDPad,CuDef*%
%ADD35RoundRect,0.062500X-0.062500X0.350000X-0.062500X-0.350000X0.062500X-0.350000X0.062500X0.350000X0*%
%TD*%
%TA.AperFunction,SMDPad,CuDef*%
%ADD36R,2.000000X1.000000*%
%TD*%
%TA.AperFunction,SMDPad,CuDef*%
%ADD37RoundRect,0.100000X-0.637500X-0.100000X0.637500X-0.100000X0.637500X0.100000X-0.637500X0.100000X0*%
%TD*%
%TA.AperFunction,SMDPad,CuDef*%
%ADD38RoundRect,0.243750X0.456250X-0.243750X0.456250X0.243750X-0.456250X0.243750X-0.456250X-0.243750X0*%
%TD*%
%TA.AperFunction,SMDPad,CuDef*%
%ADD39RoundRect,0.135000X-0.135000X-0.185000X0.135000X-0.185000X0.135000X0.185000X-0.135000X0.185000X0*%
%TD*%
%TA.AperFunction,SMDPad,CuDef*%
%ADD40RoundRect,0.150000X-0.512500X-0.150000X0.512500X-0.150000X0.512500X0.150000X-0.512500X0.150000X0*%
%TD*%
%TA.AperFunction,SMDPad,CuDef*%
%ADD41RoundRect,0.250000X0.250000X0.475000X-0.250000X0.475000X-0.250000X-0.475000X0.250000X-0.475000X0*%
%TD*%
%TA.AperFunction,SMDPad,CuDef*%
%ADD42RoundRect,0.250000X0.475000X-0.250000X0.475000X0.250000X-0.475000X0.250000X-0.475000X-0.250000X0*%
%TD*%
%TA.AperFunction,SMDPad,CuDef*%
%ADD43RoundRect,0.075000X0.075000X-0.650000X0.075000X0.650000X-0.075000X0.650000X-0.075000X-0.650000X0*%
%TD*%
%TA.AperFunction,ComponentPad*%
%ADD44O,1.700000X1.700000*%
%TD*%
%TA.AperFunction,ComponentPad*%
%ADD45R,1.700000X1.700000*%
%TD*%
%TA.AperFunction,SMDPad,CuDef*%
%ADD46RoundRect,0.225000X0.225000X0.250000X-0.225000X0.250000X-0.225000X-0.250000X0.225000X-0.250000X0*%
%TD*%
%TA.AperFunction,SMDPad,CuDef*%
%ADD47RoundRect,0.243750X-0.243750X-0.456250X0.243750X-0.456250X0.243750X0.456250X-0.243750X0.456250X0*%
%TD*%
%TA.AperFunction,SMDPad,CuDef*%
%ADD48RoundRect,0.062500X-0.062500X0.375000X-0.062500X-0.375000X0.062500X-0.375000X0.062500X0.375000X0*%
%TD*%
%TA.AperFunction,SMDPad,CuDef*%
%ADD49RoundRect,0.062500X-0.375000X0.062500X-0.375000X-0.062500X0.375000X-0.062500X0.375000X0.062500X0*%
%TD*%
%TA.AperFunction,SMDPad,CuDef*%
%ADD50R,5.600000X5.600000*%
%TD*%
%TA.AperFunction,SMDPad,CuDef*%
%ADD51RoundRect,0.135000X-0.185000X0.135000X-0.185000X-0.135000X0.185000X-0.135000X0.185000X0.135000X0*%
%TD*%
%TA.AperFunction,SMDPad,CuDef*%
%ADD52RoundRect,0.225000X0.225000X0.375000X-0.225000X0.375000X-0.225000X-0.375000X0.225000X-0.375000X0*%
%TD*%
%TA.AperFunction,SMDPad,CuDef*%
%ADD53RoundRect,0.062500X0.350000X-0.062500X0.350000X0.062500X-0.350000X0.062500X-0.350000X-0.062500X0*%
%TD*%
%TA.AperFunction,SMDPad,CuDef*%
%ADD54RoundRect,0.062500X0.062500X-0.350000X0.062500X0.350000X-0.062500X0.350000X-0.062500X-0.350000X0*%
%TD*%
%TA.AperFunction,SMDPad,CuDef*%
%ADD55R,1.500000X2.000000*%
%TD*%
%TA.AperFunction,SMDPad,CuDef*%
%ADD56R,3.800000X2.000000*%
%TD*%
%TA.AperFunction,SMDPad,CuDef*%
%ADD57RoundRect,0.218750X0.256250X-0.218750X0.256250X0.218750X-0.256250X0.218750X-0.256250X-0.218750X0*%
%TD*%
%TA.AperFunction,SMDPad,CuDef*%
%ADD58R,0.900000X1.100000*%
%TD*%
%TA.AperFunction,SMDPad,CuDef*%
%ADD59RoundRect,0.150000X0.150000X-0.512500X0.150000X0.512500X-0.150000X0.512500X-0.150000X-0.512500X0*%
%TD*%
%TA.AperFunction,SMDPad,CuDef*%
%ADD60RoundRect,0.062500X-0.062500X0.337500X-0.062500X-0.337500X0.062500X-0.337500X0.062500X0.337500X0*%
%TD*%
%TA.AperFunction,SMDPad,CuDef*%
%ADD61RoundRect,0.062500X-0.337500X0.062500X-0.337500X-0.062500X0.337500X-0.062500X0.337500X0.062500X0*%
%TD*%
%TA.AperFunction,SMDPad,CuDef*%
%ADD62R,4.350000X4.350000*%
%TD*%
%TA.AperFunction,SMDPad,CuDef*%
%ADD63RoundRect,0.150000X0.150000X-0.650000X0.150000X0.650000X-0.150000X0.650000X-0.150000X-0.650000X0*%
%TD*%
%TA.AperFunction,SMDPad,CuDef*%
%ADD64R,1.000000X0.800000*%
%TD*%
%TA.AperFunction,ComponentPad*%
%ADD65R,2.000000X2.000000*%
%TD*%
%TA.AperFunction,ComponentPad*%
%ADD66C,2.000000*%
%TD*%
%TA.AperFunction,ComponentPad*%
%ADD67R,2.000000X3.200000*%
%TD*%
%TA.AperFunction,ViaPad*%
%ADD68C,0.550000*%
%TD*%
%TA.AperFunction,ViaPad*%
%ADD69C,0.800000*%
%TD*%
%TA.AperFunction,ViaPad*%
%ADD70C,0.450000*%
%TD*%
%TA.AperFunction,Conductor*%
%ADD71C,0.500000*%
%TD*%
%TA.AperFunction,Conductor*%
%ADD72C,0.250000*%
%TD*%
%TA.AperFunction,Conductor*%
%ADD73C,0.350000*%
%TD*%
%TA.AperFunction,Conductor*%
%ADD74C,0.450000*%
%TD*%
%TA.AperFunction,Conductor*%
%ADD75C,0.200000*%
%TD*%
G04 APERTURE END LIST*
D10*
D11*
X27303082Y-70389400D02*
X27517368Y-70460828D01*
X27517368Y-70460828D02*
X27874510Y-70460828D01*
X27874510Y-70460828D02*
X28017368Y-70389400D01*
X28017368Y-70389400D02*
X28088796Y-70317971D01*
X28088796Y-70317971D02*
X28160225Y-70175114D01*
X28160225Y-70175114D02*
X28160225Y-70032257D01*
X28160225Y-70032257D02*
X28088796Y-69889400D01*
X28088796Y-69889400D02*
X28017368Y-69817971D01*
X28017368Y-69817971D02*
X27874510Y-69746542D01*
X27874510Y-69746542D02*
X27588796Y-69675114D01*
X27588796Y-69675114D02*
X27445939Y-69603685D01*
X27445939Y-69603685D02*
X27374510Y-69532257D01*
X27374510Y-69532257D02*
X27303082Y-69389400D01*
X27303082Y-69389400D02*
X27303082Y-69246542D01*
X27303082Y-69246542D02*
X27374510Y-69103685D01*
X27374510Y-69103685D02*
X27445939Y-69032257D01*
X27445939Y-69032257D02*
X27588796Y-68960828D01*
X27588796Y-68960828D02*
X27945939Y-68960828D01*
X27945939Y-68960828D02*
X28160225Y-69032257D01*
X29445939Y-70460828D02*
X29445939Y-69675114D01*
X29445939Y-69675114D02*
X29374510Y-69532257D01*
X29374510Y-69532257D02*
X29231653Y-69460828D01*
X29231653Y-69460828D02*
X28945939Y-69460828D01*
X28945939Y-69460828D02*
X28803081Y-69532257D01*
X29445939Y-70389400D02*
X29303081Y-70460828D01*
X29303081Y-70460828D02*
X28945939Y-70460828D01*
X28945939Y-70460828D02*
X28803081Y-70389400D01*
X28803081Y-70389400D02*
X28731653Y-70246542D01*
X28731653Y-70246542D02*
X28731653Y-70103685D01*
X28731653Y-70103685D02*
X28803081Y-69960828D01*
X28803081Y-69960828D02*
X28945939Y-69889400D01*
X28945939Y-69889400D02*
X29303081Y-69889400D01*
X29303081Y-69889400D02*
X29445939Y-69817971D01*
X30160224Y-69460828D02*
X30160224Y-70460828D01*
X30160224Y-69603685D02*
X30231653Y-69532257D01*
X30231653Y-69532257D02*
X30374510Y-69460828D01*
X30374510Y-69460828D02*
X30588796Y-69460828D01*
X30588796Y-69460828D02*
X30731653Y-69532257D01*
X30731653Y-69532257D02*
X30803082Y-69675114D01*
X30803082Y-69675114D02*
X30803082Y-70460828D01*
X32160225Y-70460828D02*
X32160225Y-68960828D01*
X32160225Y-70389400D02*
X32017367Y-70460828D01*
X32017367Y-70460828D02*
X31731653Y-70460828D01*
X31731653Y-70460828D02*
X31588796Y-70389400D01*
X31588796Y-70389400D02*
X31517367Y-70317971D01*
X31517367Y-70317971D02*
X31445939Y-70175114D01*
X31445939Y-70175114D02*
X31445939Y-69746542D01*
X31445939Y-69746542D02*
X31517367Y-69603685D01*
X31517367Y-69603685D02*
X31588796Y-69532257D01*
X31588796Y-69532257D02*
X31731653Y-69460828D01*
X31731653Y-69460828D02*
X32017367Y-69460828D01*
X32017367Y-69460828D02*
X32160225Y-69532257D01*
X32874510Y-69460828D02*
X32874510Y-70960828D01*
X32874510Y-69532257D02*
X33017368Y-69460828D01*
X33017368Y-69460828D02*
X33303082Y-69460828D01*
X33303082Y-69460828D02*
X33445939Y-69532257D01*
X33445939Y-69532257D02*
X33517368Y-69603685D01*
X33517368Y-69603685D02*
X33588796Y-69746542D01*
X33588796Y-69746542D02*
X33588796Y-70175114D01*
X33588796Y-70175114D02*
X33517368Y-70317971D01*
X33517368Y-70317971D02*
X33445939Y-70389400D01*
X33445939Y-70389400D02*
X33303082Y-70460828D01*
X33303082Y-70460828D02*
X33017368Y-70460828D01*
X33017368Y-70460828D02*
X32874510Y-70389400D01*
X34231653Y-70460828D02*
X34231653Y-69460828D01*
X34231653Y-68960828D02*
X34160225Y-69032257D01*
X34160225Y-69032257D02*
X34231653Y-69103685D01*
X34231653Y-69103685D02*
X34303082Y-69032257D01*
X34303082Y-69032257D02*
X34231653Y-68960828D01*
X34231653Y-68960828D02*
X34231653Y-69103685D01*
X34945939Y-69460828D02*
X34945939Y-70960828D01*
X34945939Y-69532257D02*
X35088797Y-69460828D01*
X35088797Y-69460828D02*
X35374511Y-69460828D01*
X35374511Y-69460828D02*
X35517368Y-69532257D01*
X35517368Y-69532257D02*
X35588797Y-69603685D01*
X35588797Y-69603685D02*
X35660225Y-69746542D01*
X35660225Y-69746542D02*
X35660225Y-70175114D01*
X35660225Y-70175114D02*
X35588797Y-70317971D01*
X35588797Y-70317971D02*
X35517368Y-70389400D01*
X35517368Y-70389400D02*
X35374511Y-70460828D01*
X35374511Y-70460828D02*
X35088797Y-70460828D01*
X35088797Y-70460828D02*
X34945939Y-70389400D01*
X36874511Y-70389400D02*
X36731654Y-70460828D01*
X36731654Y-70460828D02*
X36445940Y-70460828D01*
X36445940Y-70460828D02*
X36303082Y-70389400D01*
X36303082Y-70389400D02*
X36231654Y-70246542D01*
X36231654Y-70246542D02*
X36231654Y-69675114D01*
X36231654Y-69675114D02*
X36303082Y-69532257D01*
X36303082Y-69532257D02*
X36445940Y-69460828D01*
X36445940Y-69460828D02*
X36731654Y-69460828D01*
X36731654Y-69460828D02*
X36874511Y-69532257D01*
X36874511Y-69532257D02*
X36945940Y-69675114D01*
X36945940Y-69675114D02*
X36945940Y-69817971D01*
X36945940Y-69817971D02*
X36231654Y-69960828D01*
X37588796Y-70460828D02*
X37588796Y-69460828D01*
X37588796Y-69746542D02*
X37660225Y-69603685D01*
X37660225Y-69603685D02*
X37731654Y-69532257D01*
X37731654Y-69532257D02*
X37874511Y-69460828D01*
X37874511Y-69460828D02*
X38017368Y-69460828D01*
X39445939Y-68960828D02*
X39945939Y-70460828D01*
X39945939Y-70460828D02*
X40445939Y-68960828D01*
X41731653Y-70460828D02*
X40874510Y-70460828D01*
X41303081Y-70460828D02*
X41303081Y-68960828D01*
X41303081Y-68960828D02*
X41160224Y-69175114D01*
X41160224Y-69175114D02*
X41017367Y-69317971D01*
X41017367Y-69317971D02*
X40874510Y-69389400D01*
X43803081Y-68960828D02*
X43945938Y-68960828D01*
X43945938Y-68960828D02*
X44088795Y-69032257D01*
X44088795Y-69032257D02*
X44160224Y-69103685D01*
X44160224Y-69103685D02*
X44231652Y-69246542D01*
X44231652Y-69246542D02*
X44303081Y-69532257D01*
X44303081Y-69532257D02*
X44303081Y-69889400D01*
X44303081Y-69889400D02*
X44231652Y-70175114D01*
X44231652Y-70175114D02*
X44160224Y-70317971D01*
X44160224Y-70317971D02*
X44088795Y-70389400D01*
X44088795Y-70389400D02*
X43945938Y-70460828D01*
X43945938Y-70460828D02*
X43803081Y-70460828D01*
X43803081Y-70460828D02*
X43660224Y-70389400D01*
X43660224Y-70389400D02*
X43588795Y-70317971D01*
X43588795Y-70317971D02*
X43517366Y-70175114D01*
X43517366Y-70175114D02*
X43445938Y-69889400D01*
X43445938Y-69889400D02*
X43445938Y-69532257D01*
X43445938Y-69532257D02*
X43517366Y-69246542D01*
X43517366Y-69246542D02*
X43588795Y-69103685D01*
X43588795Y-69103685D02*
X43660224Y-69032257D01*
X43660224Y-69032257D02*
X43803081Y-68960828D01*
D12*
D13*
X30798871Y-98612057D02*
X29084585Y-98612057D01*
X29941728Y-98612057D02*
X29941728Y-95612057D01*
X29941728Y-95612057D02*
X29656014Y-96040628D01*
X29656014Y-96040628D02*
X29370299Y-96326342D01*
X29370299Y-96326342D02*
X29084585Y-96469200D01*
D14*
%TO.P,SW5,1*%
%TO.N,+3V3*%
X59600000Y-88600000D03*
%TO.P,SW5,2*%
%TO.N,Net-(R10-Pad1)*%
X59600000Y-91600000D03*
%TO.P,SW5,3*%
%TO.N,GND*%
X59600000Y-94600000D03*
D15*
%TO.P,SW5,4,CASE*%
X59600000Y-85800000D03*
X59600000Y-97400000D03*
%TD*%
D16*
%TO.P,SW10,1,1*%
%TO.N,+3V3*%
X109575000Y-94000000D03*
X115425000Y-94000000D03*
%TO.P,SW10,2,2*%
%TO.N,Net-(R24-Pad2)*%
X109575000Y-97000000D03*
X115425000Y-97000000D03*
%TD*%
D17*
%TO.P,R12,1*%
%TO.N,Net-(R12-Pad1)*%
X64300000Y-82675000D03*
%TO.P,R12,2*%
%TO.N,+3V3*%
X64300000Y-84325000D03*
%TD*%
D18*
%TO.P,R19,1*%
%TO.N,Net-(R18-Pad1)*%
X89400000Y-84325000D03*
%TO.P,R19,2*%
%TO.N,/UI_SW1*%
X89400000Y-82675000D03*
%TD*%
D19*
%TO.P,R84,1*%
%TO.N,/RCLP_1*%
X109275000Y-43680000D03*
%TO.P,R84,2*%
%TO.N,/UI_GPIO1*%
X107625000Y-43680000D03*
%TD*%
D20*
%TO.P,U2,1,OE*%
%TO.N,Net-(U2-OE)*%
X49500000Y-61200000D03*
%TO.P,U2,2,A*%
%TO.N,Net-(U2-A)*%
X48850000Y-61200000D03*
%TO.P,U2,3,GND*%
%TO.N,GND*%
X48200000Y-61200000D03*
%TO.P,U2,4,Y*%
%TO.N,/CLK_12M*%
X48200000Y-63400000D03*
%TO.P,U2,5,VCC*%
%TO.N,+3V3*%
X49500000Y-63400000D03*
%TD*%
D17*
%TO.P,R77,1*%
%TO.N,+3V3*%
X36405000Y-74205000D03*
%TO.P,R77,2*%
%TO.N,Net-(R77-Pad2)*%
X36405000Y-75855000D03*
%TD*%
D21*
%TO.P,R93,1*%
%TO.N,Net-(J1-Pin_15)*%
X109510000Y-48260000D03*
%TO.P,R93,2*%
%TO.N,/UI_PMOD0_0*%
X108490000Y-48260000D03*
%TD*%
D14*
%TO.P,SW4,1*%
%TO.N,+3V3*%
X66500000Y-88600000D03*
%TO.P,SW4,2*%
%TO.N,Net-(R12-Pad1)*%
X66500000Y-91600000D03*
%TO.P,SW4,3*%
%TO.N,GND*%
X66500000Y-94600000D03*
D15*
%TO.P,SW4,4,CASE*%
X66500000Y-85800000D03*
X66500000Y-97400000D03*
%TD*%
D22*
%TO.P,C28,1*%
%TO.N,+3V3*%
X87900000Y-69575000D03*
%TO.P,C28,2*%
%TO.N,GND*%
X87900000Y-68025000D03*
%TD*%
D18*
%TO.P,R13,1*%
%TO.N,Net-(R12-Pad1)*%
X68700000Y-84325000D03*
%TO.P,R13,2*%
%TO.N,/UI_SW4*%
X68700000Y-82675000D03*
%TD*%
%TO.P,R55,1*%
%TO.N,Net-(D2-A)*%
X43600000Y-81225000D03*
%TO.P,R55,2*%
%TO.N,/UI_LED_7*%
X43600000Y-79575000D03*
%TD*%
D23*
%TO.P,C5,1*%
%TO.N,+2V5*%
X69500000Y-71325000D03*
%TO.P,C5,2*%
%TO.N,GND*%
X69500000Y-72875000D03*
%TD*%
D14*
%TO.P,SW0,1*%
%TO.N,+3V3*%
X94100000Y-88600000D03*
%TO.P,SW0,2*%
%TO.N,Net-(R20-Pad1)*%
X94100000Y-91600000D03*
%TO.P,SW0,3*%
%TO.N,GND*%
X94100000Y-94600000D03*
D15*
%TO.P,SW0,4,CASE*%
X94100000Y-85800000D03*
X94100000Y-97400000D03*
%TD*%
D24*
%TO.P,C57,1*%
%TO.N,+5V*%
X58590000Y-43600000D03*
%TO.P,C57,2*%
%TO.N,GND*%
X58590000Y-45500000D03*
%TD*%
D18*
%TO.P,R17,1*%
%TO.N,Net-(R16-Pad1)*%
X82500000Y-84325000D03*
%TO.P,R17,2*%
%TO.N,/UI_SW2*%
X82500000Y-82675000D03*
%TD*%
D17*
%TO.P,R51,1*%
%TO.N,Net-(U3-~{SRCLR})*%
X65150000Y-55625000D03*
%TO.P,R51,2*%
%TO.N,+3V3*%
X65150000Y-57275000D03*
%TD*%
D25*
%TO.P,Q4,1,B*%
%TO.N,/UI_MSB_CA3*%
X67800000Y-45437500D03*
%TO.P,Q4,2,E*%
%TO.N,+5V*%
X69700000Y-45437500D03*
%TO.P,Q4,3,C*%
%TO.N,Net-(Q4-C)*%
X68750000Y-43562500D03*
%TD*%
D26*
%TO.P,P1,A1,GND*%
%TO.N,GND*%
X39120000Y-32255000D03*
%TO.P,P1,A4,VBUS*%
%TO.N,+5V*%
X38320000Y-32255000D03*
D27*
%TO.P,P1,A5,CC*%
%TO.N,/USB_CC*%
X37170000Y-32255000D03*
%TO.P,P1,A6,D+*%
%TO.N,/USB_D+*%
X36170000Y-32255000D03*
%TO.P,P1,A7,D-*%
%TO.N,/USB_D-*%
X35670000Y-32255000D03*
%TO.P,P1,A8*%
%TO.N,N/C*%
X34670000Y-32255000D03*
D26*
%TO.P,P1,A9,VBUS*%
%TO.N,+5V*%
X33520000Y-32255000D03*
%TO.P,P1,A12,GND*%
%TO.N,GND*%
X32720000Y-32255000D03*
%TO.P,P1,B1,GND*%
X32720000Y-32255000D03*
%TO.P,P1,B4,VBUS*%
%TO.N,+5V*%
X33520000Y-32255000D03*
D27*
%TO.P,P1,B5,VCONN*%
%TO.N,/USB_VCONN*%
X34170000Y-32255000D03*
%TO.P,P1,B6*%
%TO.N,N/C*%
X35170000Y-32255000D03*
%TO.P,P1,B7*%
X36670000Y-32255000D03*
%TO.P,P1,B8*%
X37670000Y-32255000D03*
D26*
%TO.P,P1,B9,VBUS*%
%TO.N,+5V*%
X38320000Y-32255000D03*
%TO.P,P1,B12,GND*%
%TO.N,GND*%
X39120000Y-32255000D03*
D28*
%TO.P,P1,S1,SHIELD*%
X40240000Y-31680000D03*
D29*
X40240000Y-27500000D03*
D28*
X31600000Y-31680000D03*
D29*
X31600000Y-27500000D03*
%TD*%
D30*
%TO.P,C39,1*%
%TO.N,/UI_ENC_A*%
X34850000Y-72740000D03*
%TO.P,C39,2*%
%TO.N,GND*%
X36400000Y-72740000D03*
%TD*%
D18*
%TO.P,R33,1*%
%TO.N,/EEPROM_SPI_DO*%
X46000000Y-58725000D03*
%TO.P,R33,2*%
%TO.N,/EEPROM_SPI_DI*%
X46000000Y-57075000D03*
%TD*%
D22*
%TO.P,C13,1*%
%TO.N,Net-(U7-VPLL)*%
X35200000Y-46850000D03*
%TO.P,C13,2*%
%TO.N,GND*%
X35200000Y-45300000D03*
%TD*%
%TO.P,C9,1*%
%TO.N,+3V3*%
X51410000Y-53730000D03*
%TO.P,C9,2*%
%TO.N,GND*%
X51410000Y-52180000D03*
%TD*%
D24*
%TO.P,C58,1*%
%TO.N,+5V*%
X56550000Y-43600000D03*
%TO.P,C58,2*%
%TO.N,GND*%
X56550000Y-45500000D03*
%TD*%
D22*
%TO.P,C44,1*%
%TO.N,+3V3*%
X109200000Y-57645000D03*
%TO.P,C44,2*%
%TO.N,GND*%
X109200000Y-56095000D03*
%TD*%
D19*
%TO.P,R5,1*%
%TO.N,Net-(U1D-VCCPLL)*%
X72587500Y-73075000D03*
%TO.P,R5,2*%
%TO.N,+1V2*%
X70937500Y-73075000D03*
%TD*%
D23*
%TO.P,C16,1*%
%TO.N,+3V3*%
X42800000Y-57125000D03*
%TO.P,C16,2*%
%TO.N,GND*%
X42800000Y-58675000D03*
%TD*%
D19*
%TO.P,R26,1*%
%TO.N,GND*%
X120665000Y-92250000D03*
%TO.P,R26,2*%
%TO.N,Net-(R26-Pad2)*%
X119015000Y-92250000D03*
%TD*%
D22*
%TO.P,C11,1*%
%TO.N,+1V8*%
X41700000Y-49325000D03*
%TO.P,C11,2*%
%TO.N,GND*%
X41700000Y-47775000D03*
%TD*%
D14*
%TO.P,SW2,1*%
%TO.N,+3V3*%
X80300000Y-88600000D03*
%TO.P,SW2,2*%
%TO.N,Net-(R16-Pad1)*%
X80300000Y-91600000D03*
%TO.P,SW2,3*%
%TO.N,GND*%
X80300000Y-94600000D03*
D15*
%TO.P,SW2,4,CASE*%
X80300000Y-85800000D03*
X80300000Y-97400000D03*
%TD*%
D31*
%TO.P,R25,1*%
%TO.N,/UI_DPAD_D*%
X99549376Y-71839376D03*
%TO.P,R25,2*%
%TO.N,Net-(R24-Pad2)*%
X100270624Y-72560624D03*
%TD*%
D32*
%TO.P,R70,1*%
%TO.N,/UI_MSB_CA2*%
X62775000Y-47300000D03*
%TO.P,R70,2*%
%TO.N,+5V*%
X64425000Y-47300000D03*
%TD*%
D19*
%TO.P,R85,1*%
%TO.N,Net-(D11-K)*%
X36600000Y-66500000D03*
%TO.P,R85,2*%
%TO.N,Net-(U7-BCBUS4)*%
X34950000Y-66500000D03*
%TD*%
D17*
%TO.P,R16,1*%
%TO.N,Net-(R16-Pad1)*%
X78100000Y-82675000D03*
%TO.P,R16,2*%
%TO.N,+3V3*%
X78100000Y-84325000D03*
%TD*%
D33*
%TO.P,SW12,1,1*%
%TO.N,+3V3*%
X103000000Y-90425000D03*
X103000000Y-84575000D03*
%TO.P,SW12,2,2*%
%TO.N,Net-(R28-Pad2)*%
X106000000Y-90425000D03*
X106000000Y-84575000D03*
%TD*%
D23*
%TO.P,C46,1*%
%TO.N,+3V3*%
X29850000Y-58575000D03*
%TO.P,C46,2*%
%TO.N,GND*%
X29850000Y-60125000D03*
%TD*%
D34*
%TO.P,U3,1,QB*%
%TO.N,Net-(U3-QB)*%
X68687500Y-52750000D03*
D35*
%TO.P,U3,2,QC*%
%TO.N,Net-(U3-QC)*%
X68250000Y-51812500D03*
%TO.P,U3,3,QD*%
%TO.N,Net-(U3-QD)*%
X67750000Y-51812500D03*
%TO.P,U3,4,QE*%
%TO.N,Net-(U3-QE)*%
X67250000Y-51812500D03*
%TO.P,U3,5,QF*%
%TO.N,Net-(U3-QF)*%
X66750000Y-51812500D03*
%TO.P,U3,6,QG*%
%TO.N,Net-(U3-QG)*%
X66250000Y-51812500D03*
%TO.P,U3,7,QH*%
%TO.N,Net-(U3-QH)*%
X65750000Y-51812500D03*
D34*
%TO.P,U3,8,GND*%
%TO.N,GND*%
X65312500Y-52750000D03*
%TO.P,U3,9,QH'*%
%TO.N,/UI_7SEG_SER_CARRY*%
X65312500Y-53250000D03*
D35*
%TO.P,U3,10,~{SRCLR}*%
%TO.N,Net-(U3-~{SRCLR})*%
X65750000Y-54187500D03*
%TO.P,U3,11,SRCLK*%
%TO.N,/UI_7SEGSR_CLK*%
X66250000Y-54187500D03*
%TO.P,U3,12,RCLK*%
%TO.N,/UI_7SEGSR_RCLK*%
X66750000Y-54187500D03*
%TO.P,U3,13,~{OE}*%
%TO.N,/~{UI_7SEGSR_OE}*%
X67250000Y-54187500D03*
%TO.P,U3,14,SER*%
%TO.N,/UI_7SEGSR_DIN*%
X67750000Y-54187500D03*
%TO.P,U3,15,QA*%
%TO.N,Net-(U3-QA)*%
X68250000Y-54187500D03*
D34*
%TO.P,U3,16,VCC*%
%TO.N,+5V*%
X68687500Y-53250000D03*
D36*
%TO.P,U3,17*%
%TO.N,N/C*%
X67000000Y-53000000D03*
%TD*%
D18*
%TO.P,R30,1*%
%TO.N,GND*%
X79750000Y-74475000D03*
%TO.P,R30,2*%
%TO.N,/SW_SH{slash}~{LD}*%
X79750000Y-72825000D03*
%TD*%
D37*
%TO.P,U9,1,~{PL}*%
%TO.N,/SW_SH{slash}~{LD}*%
X82350000Y-72800000D03*
%TO.P,U9,2,CP*%
%TO.N,/SW_SH_CLK*%
X82350000Y-73450000D03*
%TO.P,U9,3,D4*%
%TO.N,/UI_SW4*%
X82350000Y-74100000D03*
%TO.P,U9,4,D5*%
%TO.N,/UI_SW5*%
X82350000Y-74750000D03*
%TO.P,U9,5,D6*%
%TO.N,/UI_SW6*%
X82350000Y-75400000D03*
%TO.P,U9,6,D7*%
%TO.N,/UI_SW7*%
X82350000Y-76050000D03*
%TO.P,U9,7,~{Q7}*%
%TO.N,unconnected-(U9-~{Q7}-Pad7)*%
X82350000Y-76700000D03*
%TO.P,U9,8,GND*%
%TO.N,GND*%
X82350000Y-77350000D03*
%TO.P,U9,9,Q7*%
%TO.N,/SERIAL_SW_D*%
X88075000Y-77350000D03*
%TO.P,U9,10,DS*%
%TO.N,Net-(U9-DS)*%
X88075000Y-76700000D03*
%TO.P,U9,11,D0*%
%TO.N,/UI_SW0*%
X88075000Y-76050000D03*
%TO.P,U9,12,D1*%
%TO.N,/UI_SW1*%
X88075000Y-75400000D03*
%TO.P,U9,13,D2*%
%TO.N,/UI_SW2*%
X88075000Y-74750000D03*
%TO.P,U9,14,D3*%
%TO.N,/UI_SW3*%
X88075000Y-74100000D03*
%TO.P,U9,15,~{CE}*%
%TO.N,/SW_SH_CLKEN*%
X88075000Y-73450000D03*
%TO.P,U9,16,VCC*%
%TO.N,+3V3*%
X88075000Y-72800000D03*
%TD*%
D18*
%TO.P,R6,1*%
%TO.N,Net-(R6-Pad1)*%
X48000000Y-84325000D03*
%TO.P,R6,2*%
%TO.N,/UI_SW7*%
X48000000Y-82675000D03*
%TD*%
D38*
%TO.P,D9,1,K*%
%TO.N,GND*%
X94100000Y-81937500D03*
%TO.P,D9,2,A*%
%TO.N,Net-(D9-A)*%
X94100000Y-80062500D03*
%TD*%
D39*
%TO.P,R98,1*%
%TO.N,/UI_PMOD0_1*%
X108490000Y-49530000D03*
%TO.P,R98,2*%
%TO.N,Net-(J1-Pin_16)*%
X109510000Y-49530000D03*
%TD*%
D40*
%TO.P,U5,1,VIN*%
%TO.N,+3V3*%
X61350000Y-73100000D03*
%TO.P,U5,2,GND*%
%TO.N,GND*%
X61350000Y-74050000D03*
%TO.P,U5,3,EN*%
%TO.N,+3V3*%
X61350000Y-75000000D03*
%TO.P,U5,4,NC*%
%TO.N,unconnected-(U5-NC-Pad4)*%
X63625000Y-75000000D03*
%TO.P,U5,5,VOUT*%
%TO.N,+2V5*%
X63625000Y-73100000D03*
%TD*%
D18*
%TO.P,R9,1*%
%TO.N,Net-(R8-Pad1)*%
X54900000Y-84325000D03*
%TO.P,R9,2*%
%TO.N,/UI_SW6*%
X54900000Y-82675000D03*
%TD*%
D19*
%TO.P,R90,1*%
%TO.N,/UI_LSB_CA3*%
X75825000Y-51950000D03*
%TO.P,R90,2*%
%TO.N,Net-(U3-QA)*%
X74175000Y-51950000D03*
%TD*%
D17*
%TO.P,R10,1*%
%TO.N,Net-(R10-Pad1)*%
X57400000Y-82675000D03*
%TO.P,R10,2*%
%TO.N,+3V3*%
X57400000Y-84325000D03*
%TD*%
D19*
%TO.P,R83,1*%
%TO.N,/RCLP_0*%
X109275000Y-40640000D03*
%TO.P,R83,2*%
%TO.N,/UI_GPIO0*%
X107625000Y-40640000D03*
%TD*%
D41*
%TO.P,C10,1*%
%TO.N,+1V8*%
X33600000Y-47150000D03*
%TO.P,C10,2*%
%TO.N,GND*%
X31700000Y-47150000D03*
%TD*%
D31*
%TO.P,R23,1*%
%TO.N,/UI_DPAD_U*%
X100939376Y-70439376D03*
%TO.P,R23,2*%
%TO.N,Net-(R22-Pad2)*%
X101660624Y-71160624D03*
%TD*%
D42*
%TO.P,C15,1*%
%TO.N,Net-(U7-VPHY)*%
X41500000Y-45650000D03*
%TO.P,C15,2*%
%TO.N,GND*%
X41500000Y-43750000D03*
%TD*%
D18*
%TO.P,R34,1*%
%TO.N,/EEPROM_SPI_CS*%
X43300000Y-50125000D03*
%TO.P,R34,2*%
%TO.N,+3V3*%
X43300000Y-48475000D03*
%TD*%
D23*
%TO.P,C56,1*%
%TO.N,+1V2*%
X74000000Y-74925000D03*
%TO.P,C56,2*%
%TO.N,GND*%
X74000000Y-76475000D03*
%TD*%
D42*
%TO.P,C27,1*%
%TO.N,+3V3*%
X86150000Y-69550000D03*
%TO.P,C27,2*%
%TO.N,GND*%
X86150000Y-67650000D03*
%TD*%
D18*
%TO.P,R4,1*%
%TO.N,GND*%
X33510000Y-36480000D03*
%TO.P,R4,2*%
%TO.N,/USB_VCONN*%
X33510000Y-34830000D03*
%TD*%
%TO.P,R3,1*%
%TO.N,GND*%
X38210000Y-36480000D03*
%TO.P,R3,2*%
%TO.N,/USB_CC*%
X38210000Y-34830000D03*
%TD*%
D38*
%TO.P,D2,1,K*%
%TO.N,GND*%
X45800000Y-81937500D03*
%TO.P,D2,2,A*%
%TO.N,Net-(D2-A)*%
X45800000Y-80062500D03*
%TD*%
D22*
%TO.P,C55,1*%
%TO.N,+3V3*%
X29850000Y-57125000D03*
%TO.P,C55,2*%
%TO.N,GND*%
X29850000Y-55575000D03*
%TD*%
D30*
%TO.P,C19,1*%
%TO.N,+3V3*%
X79925000Y-62850000D03*
%TO.P,C19,2*%
%TO.N,GND*%
X81475000Y-62850000D03*
%TD*%
%TO.P,C40,1*%
%TO.N,+3V3*%
X105375000Y-66800000D03*
%TO.P,C40,2*%
%TO.N,GND*%
X106925000Y-66800000D03*
%TD*%
D17*
%TO.P,R47,1*%
%TO.N,/UI_SEG_E*%
X87200000Y-45775000D03*
%TO.P,R47,2*%
%TO.N,Net-(U12-QD)*%
X87200000Y-47425000D03*
%TD*%
D31*
%TO.P,R29,1*%
%TO.N,/UI_DPAD_L*%
X98850000Y-72550000D03*
%TO.P,R29,2*%
%TO.N,Net-(R28-Pad2)*%
X99571248Y-73271248D03*
%TD*%
D25*
%TO.P,Q6,1,B*%
%TO.N,/UI_LSB_CA1*%
X75525000Y-45437500D03*
%TO.P,Q6,2,E*%
%TO.N,+5V*%
X77425000Y-45437500D03*
%TO.P,Q6,3,C*%
%TO.N,Net-(Q6-C)*%
X76475000Y-43562500D03*
%TD*%
D18*
%TO.P,R21,1*%
%TO.N,Net-(R20-Pad1)*%
X96300000Y-84325000D03*
%TO.P,R21,2*%
%TO.N,/UI_SW0*%
X96300000Y-82675000D03*
%TD*%
%TO.P,R60,1*%
%TO.N,Net-(D7-A)*%
X78100000Y-81200000D03*
%TO.P,R60,2*%
%TO.N,/UI_LED_2*%
X78100000Y-79550000D03*
%TD*%
D22*
%TO.P,C37,1*%
%TO.N,Net-(U12-~{SRCLR})*%
X82850000Y-54225000D03*
%TO.P,C37,2*%
%TO.N,GND*%
X82850000Y-52675000D03*
%TD*%
D43*
%TO.P,U11,1,~{CS}*%
%TO.N,/~{UI_ADC_CS}*%
X105450000Y-64455000D03*
%TO.P,U11,2,VA*%
%TO.N,+3V3*%
X105950000Y-64455000D03*
%TO.P,U11,3,GND*%
%TO.N,GND*%
X106450000Y-64455000D03*
%TO.P,U11,4,IN4*%
%TO.N,/UI_ADC_SE_CHAN_3*%
X106950000Y-64455000D03*
%TO.P,U11,5,IN3*%
%TO.N,/UI_ADC_SE_CHAN_2*%
X107450000Y-64455000D03*
%TO.P,U11,6,IN2*%
%TO.N,/UI_ADC_SE_CHAN_1*%
X107450000Y-60055000D03*
%TO.P,U11,7,IN1*%
%TO.N,/UI_ADC_SE_CHAN_0*%
X106950000Y-60055000D03*
%TO.P,U11,8,DIN*%
%TO.N,/UI_ADC_DI*%
X106450000Y-60055000D03*
%TO.P,U11,9,DOUT*%
%TO.N,/UI_ADC_DO*%
X105950000Y-60055000D03*
%TO.P,U11,10,SCK*%
%TO.N,/UI_ADC_SCK*%
X105450000Y-60055000D03*
%TD*%
D40*
%TO.P,U4,1,VIN*%
%TO.N,+3V3*%
X67062500Y-74375000D03*
%TO.P,U4,2,GND*%
%TO.N,GND*%
X67062500Y-75325000D03*
%TO.P,U4,3,EN*%
%TO.N,+3V3*%
X67062500Y-76275000D03*
%TO.P,U4,4,NC*%
%TO.N,unconnected-(U4-NC-Pad4)*%
X69337500Y-76275000D03*
%TO.P,U4,5,VOUT*%
%TO.N,+1V2*%
X69337500Y-74375000D03*
%TD*%
D42*
%TO.P,C35,1*%
%TO.N,+5V*%
X72000000Y-53250000D03*
%TO.P,C35,2*%
%TO.N,GND*%
X72000000Y-51350000D03*
%TD*%
D23*
%TO.P,C29,1*%
%TO.N,+5V*%
X50750000Y-73585000D03*
%TO.P,C29,2*%
%TO.N,GND*%
X50750000Y-75135000D03*
%TD*%
D17*
%TO.P,R75,1*%
%TO.N,+3V3*%
X31400000Y-74205000D03*
%TO.P,R75,2*%
%TO.N,Net-(R75-Pad2)*%
X31400000Y-75855000D03*
%TD*%
D30*
%TO.P,C23,1*%
%TO.N,+3V3*%
X76725000Y-74400000D03*
%TO.P,C23,2*%
%TO.N,GND*%
X78275000Y-74400000D03*
%TD*%
D32*
%TO.P,R67,1*%
%TO.N,/UI_MSB_CA0*%
X45775000Y-47300000D03*
%TO.P,R67,2*%
%TO.N,+5V*%
X47425000Y-47300000D03*
%TD*%
D14*
%TO.P,SW1,1*%
%TO.N,+3V3*%
X87200000Y-88600000D03*
%TO.P,SW1,2*%
%TO.N,Net-(R18-Pad1)*%
X87200000Y-91600000D03*
%TO.P,SW1,3*%
%TO.N,GND*%
X87200000Y-94600000D03*
D15*
%TO.P,SW1,4,CASE*%
X87200000Y-85800000D03*
X87200000Y-97400000D03*
%TD*%
D38*
%TO.P,D6,1,K*%
%TO.N,GND*%
X73400000Y-81937500D03*
%TO.P,D6,2,A*%
%TO.N,Net-(D6-A)*%
X73400000Y-80062500D03*
%TD*%
D32*
%TO.P,R79,1*%
%TO.N,GND*%
X113775000Y-91040000D03*
%TO.P,R79,2*%
%TO.N,Net-(R79-Pad2)*%
X115425000Y-91040000D03*
%TD*%
D44*
%TO.P,J1,28,Pin_28*%
%TO.N,+5V*%
X114875000Y-33020000D03*
%TO.P,J1,27,Pin_27*%
X112335000Y-33020000D03*
%TO.P,J1,26,Pin_26*%
%TO.N,+3V3*%
X114875000Y-35560000D03*
%TO.P,J1,25,Pin_25*%
X112335000Y-35560000D03*
%TO.P,J1,24,Pin_24*%
%TO.N,GND*%
X114875000Y-38100000D03*
%TO.P,J1,23,Pin_23*%
X112335000Y-38100000D03*
%TO.P,J1,22,Pin_22*%
%TO.N,/RCLP_1*%
X114875000Y-40640000D03*
%TO.P,J1,21,Pin_21*%
%TO.N,/RCLP_0*%
X112335000Y-40640000D03*
%TO.P,J1,20,Pin_20*%
%TO.N,unconnected-(J1-Pin_20-Pad20)*%
X114875000Y-43180000D03*
%TO.P,J1,19,Pin_19*%
%TO.N,GND*%
X112335000Y-43180000D03*
%TO.P,J1,18,Pin_18*%
%TO.N,Net-(J1-Pin_18)*%
X114875000Y-45720000D03*
%TO.P,J1,17,Pin_17*%
%TO.N,Net-(J1-Pin_17)*%
X112335000Y-45720000D03*
%TO.P,J1,16,Pin_16*%
%TO.N,Net-(J1-Pin_16)*%
X114875000Y-48260000D03*
%TO.P,J1,15,Pin_15*%
%TO.N,Net-(J1-Pin_15)*%
X112335000Y-48260000D03*
%TO.P,J1,14,Pin_14*%
%TO.N,Net-(J1-Pin_14)*%
X114875000Y-50800000D03*
%TO.P,J1,13,Pin_13*%
%TO.N,Net-(J1-Pin_13)*%
X112335000Y-50800000D03*
%TO.P,J1,12,Pin_12*%
%TO.N,Net-(J1-Pin_12)*%
X114875000Y-53340000D03*
%TO.P,J1,11,Pin_11*%
%TO.N,Net-(J1-Pin_11)*%
X112335000Y-53340000D03*
%TO.P,J1,10,Pin_10*%
%TO.N,GND*%
X114875000Y-55880000D03*
%TO.P,J1,9,Pin_9*%
X112335000Y-55880000D03*
%TO.P,J1,8,Pin_8*%
%TO.N,+3V3*%
X114875000Y-58420000D03*
%TO.P,J1,7,Pin_7*%
X112335000Y-58420000D03*
%TO.P,J1,6,Pin_6*%
%TO.N,/UI_ADC_SE_CHAN_0*%
X114875000Y-60960000D03*
%TO.P,J1,5,Pin_5*%
%TO.N,/UI_ADC_SE_CHAN_1*%
X112335000Y-60960000D03*
%TO.P,J1,4,Pin_4*%
%TO.N,/UI_ADC_SE_CHAN_3*%
X114875000Y-63500000D03*
%TO.P,J1,3,Pin_3*%
%TO.N,/UI_ADC_SE_CHAN_2*%
X112335000Y-63500000D03*
%TO.P,J1,2,Pin_2*%
%TO.N,GND*%
X114875000Y-66040000D03*
D45*
%TO.P,J1,1,Pin_1*%
X112335000Y-66040000D03*
%TD*%
D39*
%TO.P,R96,1*%
%TO.N,/UI_ADC_DI*%
X108490000Y-54610000D03*
%TO.P,R96,2*%
%TO.N,Net-(J1-Pin_12)*%
X109510000Y-54610000D03*
%TD*%
D46*
%TO.P,C47,1*%
%TO.N,+1V8*%
X41250000Y-59400000D03*
%TO.P,C47,2*%
%TO.N,GND*%
X39700000Y-59400000D03*
%TD*%
D23*
%TO.P,C20,1*%
%TO.N,+3V3*%
X68000000Y-69200000D03*
%TO.P,C20,2*%
%TO.N,GND*%
X68000000Y-70750000D03*
%TD*%
%TO.P,C31,1*%
%TO.N,/~{UI_ULEDSR_CLR}*%
X57060000Y-72205000D03*
%TO.P,C31,2*%
%TO.N,GND*%
X57060000Y-73755000D03*
%TD*%
D17*
%TO.P,R91,1*%
%TO.N,/UI_MSB_CA3*%
X66150000Y-46475000D03*
%TO.P,R91,2*%
%TO.N,Net-(U3-QE)*%
X66150000Y-48125000D03*
%TD*%
%TO.P,R89,1*%
%TO.N,/UI_MSB_CA2*%
X61000000Y-46475000D03*
%TO.P,R89,2*%
%TO.N,Net-(U3-QF)*%
X61000000Y-48125000D03*
%TD*%
D42*
%TO.P,C33,1*%
%TO.N,+5V*%
X90950000Y-53050000D03*
%TO.P,C33,2*%
%TO.N,GND*%
X90950000Y-51150000D03*
%TD*%
D32*
%TO.P,R63,1*%
%TO.N,GND*%
X40905000Y-75620000D03*
%TO.P,R63,2*%
%TO.N,Net-(R63-Pad2)*%
X42555000Y-75620000D03*
%TD*%
D47*
%TO.P,D11,1,K*%
%TO.N,Net-(D11-K)*%
X38050000Y-66750000D03*
%TO.P,D11,2,A*%
%TO.N,+3V3*%
X39925000Y-66750000D03*
%TD*%
D25*
%TO.P,Q2,1,B*%
%TO.N,/UI_MSB_CA1*%
X49300000Y-45437500D03*
%TO.P,Q2,2,E*%
%TO.N,+5V*%
X51200000Y-45437500D03*
%TO.P,Q2,3,C*%
%TO.N,Net-(Q2-C)*%
X50250000Y-43562500D03*
%TD*%
D48*
%TO.P,U1,1,VCCIO_2*%
%TO.N,+3V3*%
X77750000Y-63062500D03*
%TO.P,U1,2,IOB_6a*%
%TO.N,/UI_PMOD0_2*%
X77250000Y-63062500D03*
%TO.P,U1,3,IOB_9b*%
%TO.N,/UI_PMOD0_1*%
X76750000Y-63062500D03*
%TO.P,U1,4,IOB_8a*%
%TO.N,/UI_PMOD0_0*%
X76250000Y-63062500D03*
%TO.P,U1,5,VCC*%
%TO.N,+1V2*%
X75750000Y-63062500D03*
%TO.P,U1,6,IOB_13b*%
%TO.N,/UI_GPIO1*%
X75250000Y-63062500D03*
%TO.P,U1,7,CDONE*%
%TO.N,/UP5K_CDONE*%
X74750000Y-63062500D03*
%TO.P,U1,8,~{CRESET}*%
%TO.N,/UP5K_CRESET*%
X74250000Y-63062500D03*
%TO.P,U1,9,IOB_16a*%
%TO.N,/UI_GPIO0*%
X73750000Y-63062500D03*
%TO.P,U1,10,IOB_18a*%
%TO.N,/~{UI_7SEGSR_OE}*%
X73250000Y-63062500D03*
%TO.P,U1,11,IOB_20a*%
%TO.N,/UI_7SEGSR_DIN*%
X72750000Y-63062500D03*
%TO.P,U1,12,IOB_22a*%
%TO.N,/UI_7SEGSR_RCLK*%
X72250000Y-63062500D03*
D49*
%TO.P,U1,13,IOB_24a*%
%TO.N,/UI_7SEGSR_CLK*%
X71562500Y-63750000D03*
%TO.P,U1,14,IOB_32a_SPI_SO*%
%TO.N,/FLASH_MOSI*%
X71562500Y-64250000D03*
%TO.P,U1,15,IOB_34a_SPI_SCK*%
%TO.N,/FLASH_SCK*%
X71562500Y-64750000D03*
%TO.P,U1,16,IOB_35b_SPI_SS*%
%TO.N,/FLASH_CS*%
X71562500Y-65250000D03*
%TO.P,U1,17,IOB_33b_SPI_SI*%
%TO.N,/FLASH_MISO*%
X71562500Y-65750000D03*
%TO.P,U1,18,IOB_31b*%
%TO.N,/UP5K_UART_TX*%
X71562500Y-66250000D03*
%TO.P,U1,19,IOB_29b*%
%TO.N,/UP5K_UART_RX*%
X71562500Y-66750000D03*
%TO.P,U1,20,IOB_25b_G3*%
%TO.N,/UI_ULEDSR_DIN*%
X71562500Y-67250000D03*
%TO.P,U1,21,IOB_23b*%
%TO.N,/~{UI_ULEDSR_OE}*%
X71562500Y-67750000D03*
%TO.P,U1,22,SPI_VCCIO1*%
%TO.N,+3V3*%
X71562500Y-68250000D03*
%TO.P,U1,23,IOT_37a*%
%TO.N,/UI_ULEDSR_RCLK*%
X71562500Y-68750000D03*
%TO.P,U1,24,VPP_2V5*%
%TO.N,+2V5*%
X71562500Y-69250000D03*
D48*
%TO.P,U1,25,IOT_36b*%
%TO.N,/UI_ENC_A*%
X72250000Y-69937500D03*
%TO.P,U1,26,IOT_39a*%
%TO.N,/UI_ENC_B*%
X72750000Y-69937500D03*
%TO.P,U1,27,IOT_38b*%
%TO.N,/UI_ENC_SW*%
X73250000Y-69937500D03*
%TO.P,U1,28,IOT_41a*%
%TO.N,/SW_SH_CLK*%
X73750000Y-69937500D03*
%TO.P,U1,29,VCCPLL*%
%TO.N,Net-(U1D-VCCPLL)*%
X74250000Y-69937500D03*
%TO.P,U1,30,VCC*%
%TO.N,+1V2*%
X74750000Y-69937500D03*
%TO.P,U1,31,IOT_42b*%
%TO.N,/SW_SH_CLKEN*%
X75250000Y-69937500D03*
%TO.P,U1,32,IOT_43a*%
%TO.N,/SERIAL_SW_D*%
X75750000Y-69937500D03*
%TO.P,U1,33,VCCIO_0*%
%TO.N,+3V3*%
X76250000Y-69937500D03*
%TO.P,U1,34,IOT_44b*%
%TO.N,/SW_SH{slash}~{LD}*%
X76750000Y-69937500D03*
%TO.P,U1,35,IOT_46b_G0*%
%TO.N,/UI_DPAD_L*%
X77250000Y-69937500D03*
%TO.P,U1,36,IOT_48b*%
%TO.N,/UI_DPAD_D*%
X77750000Y-69937500D03*
D49*
%TO.P,U1,37,IOT_45a_G1*%
%TO.N,/CLK_12M*%
X78437500Y-69250000D03*
%TO.P,U1,38,IOT_50b*%
%TO.N,/UI_DPAD_C*%
X78437500Y-68750000D03*
%TO.P,U1,39,RGB0*%
%TO.N,/UI_RGBLED_G*%
X78437500Y-68250000D03*
%TO.P,U1,40,RGB1*%
%TO.N,/UI_RGBLED_B*%
X78437500Y-67750000D03*
%TO.P,U1,41,RGB2*%
%TO.N,/UI_RGBLED_R*%
X78437500Y-67250000D03*
%TO.P,U1,42,IOT_51a*%
%TO.N,/UI_DPAD_U*%
X78437500Y-66750000D03*
%TO.P,U1,43,IOT_49a*%
%TO.N,/UI_DPAD_R*%
X78437500Y-66250000D03*
%TO.P,U1,44,IOB_3b_G6*%
%TO.N,/~{UI_ADC_CS}*%
X78437500Y-65750000D03*
%TO.P,U1,45,IOB_5b*%
%TO.N,/UI_ADC_SCK*%
X78437500Y-65250000D03*
%TO.P,U1,46,IOB_0a*%
%TO.N,/UI_ADC_DO*%
X78437500Y-64750000D03*
%TO.P,U1,47,IOB_2a*%
%TO.N,/UI_ADC_DI*%
X78437500Y-64250000D03*
%TO.P,U1,48,IOB_4a*%
%TO.N,/UI_PMOD0_3*%
X78437500Y-63750000D03*
D50*
%TO.P,U1,49,GND*%
%TO.N,GND*%
X75000000Y-66500000D03*
%TD*%
D51*
%TO.P,R64,1*%
%TO.N,/UI_ENC_SW*%
X42550000Y-73295000D03*
%TO.P,R64,2*%
%TO.N,Net-(R63-Pad2)*%
X42550000Y-74315000D03*
%TD*%
D18*
%TO.P,R37,1*%
%TO.N,/EEPROM_SPI_DO*%
X44400000Y-58725000D03*
%TO.P,R37,2*%
%TO.N,+3V3*%
X44400000Y-57075000D03*
%TD*%
D46*
%TO.P,C46,1*%
%TO.N,+1V8*%
X33325000Y-59400000D03*
%TO.P,C46,2*%
%TO.N,GND*%
X31775000Y-59400000D03*
%TD*%
D17*
%TO.P,R22,1*%
%TO.N,GND*%
X117340000Y-79345000D03*
%TO.P,R22,2*%
%TO.N,Net-(R22-Pad2)*%
X117340000Y-80995000D03*
%TD*%
%TO.P,R43,1*%
%TO.N,/UI_SEG_A*%
X80800000Y-45775000D03*
%TO.P,R43,2*%
%TO.N,Net-(U12-QH)*%
X80800000Y-47425000D03*
%TD*%
D23*
%TO.P,C8,1*%
%TO.N,Net-(U1D-VCCPLL)*%
X72500000Y-74525000D03*
%TO.P,C8,2*%
%TO.N,GND*%
X72500000Y-76075000D03*
%TD*%
D22*
%TO.P,C14,1*%
%TO.N,Net-(U7-VPHY)*%
X39700000Y-45675000D03*
%TO.P,C14,2*%
%TO.N,GND*%
X39700000Y-44125000D03*
%TD*%
D17*
%TO.P,R18,1*%
%TO.N,Net-(R18-Pad1)*%
X85000000Y-82675000D03*
%TO.P,R18,2*%
%TO.N,+3V3*%
X85000000Y-84325000D03*
%TD*%
D25*
%TO.P,Q8,1,B*%
%TO.N,/UI_LSB_CA3*%
X97900000Y-45437500D03*
%TO.P,Q8,2,E*%
%TO.N,+5V*%
X99800000Y-45437500D03*
%TO.P,Q8,3,C*%
%TO.N,Net-(Q8-C)*%
X98850000Y-43562500D03*
%TD*%
D34*
%TO.P,U12,1,QB*%
%TO.N,Net-(U12-QB)*%
X87687500Y-52750000D03*
D35*
%TO.P,U12,2,QC*%
%TO.N,Net-(U12-QC)*%
X87250000Y-51812500D03*
%TO.P,U12,3,QD*%
%TO.N,Net-(U12-QD)*%
X86750000Y-51812500D03*
%TO.P,U12,4,QE*%
%TO.N,Net-(U12-QE)*%
X86250000Y-51812500D03*
%TO.P,U12,5,QF*%
%TO.N,Net-(U12-QF)*%
X85750000Y-51812500D03*
%TO.P,U12,6,QG*%
%TO.N,Net-(U12-QG)*%
X85250000Y-51812500D03*
%TO.P,U12,7,QH*%
%TO.N,Net-(U12-QH)*%
X84750000Y-51812500D03*
D34*
%TO.P,U12,8,GND*%
%TO.N,GND*%
X84312500Y-52750000D03*
%TO.P,U12,9,QH'*%
%TO.N,unconnected-(U12-QH'-Pad9)*%
X84312500Y-53250000D03*
D35*
%TO.P,U12,10,~{SRCLR}*%
%TO.N,Net-(U12-~{SRCLR})*%
X84750000Y-54187500D03*
%TO.P,U12,11,SRCLK*%
%TO.N,/UI_7SEGSR_CLK*%
X85250000Y-54187500D03*
%TO.P,U12,12,RCLK*%
%TO.N,/UI_7SEGSR_RCLK*%
X85750000Y-54187500D03*
%TO.P,U12,13,~{OE}*%
%TO.N,/~{UI_7SEGSR_OE}*%
X86250000Y-54187500D03*
%TO.P,U12,14,SER*%
%TO.N,/UI_7SEG_SER_CARRY*%
X86750000Y-54187500D03*
%TO.P,U12,15,QA*%
%TO.N,Net-(U12-QA)*%
X87250000Y-54187500D03*
D34*
%TO.P,U12,16,VCC*%
%TO.N,+5V*%
X87687500Y-53250000D03*
D36*
%TO.P,U12,17*%
%TO.N,N/C*%
X86000000Y-53000000D03*
%TD*%
D19*
%TO.P,R86,1*%
%TO.N,Net-(D12-K)*%
X36650000Y-64200000D03*
%TO.P,R86,2*%
%TO.N,Net-(U7-BCBUS3)*%
X35000000Y-64200000D03*
%TD*%
D23*
%TO.P,C7,1*%
%TO.N,+3V3*%
X90400000Y-72825000D03*
%TO.P,C7,2*%
%TO.N,GND*%
X90400000Y-74375000D03*
%TD*%
D52*
%TO.P,D1,1,K*%
%TO.N,+2V5*%
X64475000Y-71100000D03*
%TO.P,D1,2,A*%
%TO.N,+3V3*%
X61175000Y-71100000D03*
%TD*%
D14*
%TO.P,SW6,1*%
%TO.N,+3V3*%
X52700000Y-88600000D03*
%TO.P,SW6,2*%
%TO.N,Net-(R8-Pad1)*%
X52700000Y-91600000D03*
%TO.P,SW6,3*%
%TO.N,GND*%
X52700000Y-94600000D03*
D15*
%TO.P,SW6,4,CASE*%
X52700000Y-85800000D03*
X52700000Y-97400000D03*
%TD*%
D38*
%TO.P,D7,1,K*%
%TO.N,GND*%
X80300000Y-81937500D03*
%TO.P,D7,2,A*%
%TO.N,Net-(D7-A)*%
X80300000Y-80062500D03*
%TD*%
D17*
%TO.P,R44,1*%
%TO.N,/UI_SEG_B*%
X82400000Y-45775000D03*
%TO.P,R44,2*%
%TO.N,Net-(U12-QG)*%
X82400000Y-47425000D03*
%TD*%
D32*
%TO.P,R68,1*%
%TO.N,/UI_MSB_CA1*%
X49600000Y-47300000D03*
%TO.P,R68,2*%
%TO.N,+5V*%
X51250000Y-47300000D03*
%TD*%
D14*
%TO.P,SW7,1*%
%TO.N,+3V3*%
X45800000Y-88600000D03*
%TO.P,SW7,2*%
%TO.N,Net-(R6-Pad1)*%
X45800000Y-91600000D03*
%TO.P,SW7,3*%
%TO.N,GND*%
X45800000Y-94600000D03*
D15*
%TO.P,SW7,4,CASE*%
X45800000Y-85800000D03*
X45800000Y-97400000D03*
%TD*%
D53*
%TO.P,U13,1,QB*%
%TO.N,/UI_LED_6*%
X52235000Y-73610000D03*
D54*
%TO.P,U13,2,QC*%
%TO.N,/UI_LED_5*%
X52672500Y-74547500D03*
%TO.P,U13,3,QD*%
%TO.N,/UI_LED_4*%
X53172500Y-74547500D03*
%TO.P,U13,4,QE*%
%TO.N,/UI_LED_3*%
X53672500Y-74547500D03*
%TO.P,U13,5,QF*%
%TO.N,/UI_LED_2*%
X54172500Y-74547500D03*
%TO.P,U13,6,QG*%
%TO.N,/UI_LED_1*%
X54672500Y-74547500D03*
%TO.P,U13,7,QH*%
%TO.N,/UI_LED_0*%
X55172500Y-74547500D03*
D53*
%TO.P,U13,8,GND*%
%TO.N,GND*%
X55610000Y-73610000D03*
%TO.P,U13,9,QH'*%
%TO.N,unconnected-(U13-QH'-Pad9)*%
X55610000Y-73110000D03*
D54*
%TO.P,U13,10,~{SRCLR}*%
%TO.N,/~{UI_ULEDSR_CLR}*%
X55172500Y-72172500D03*
%TO.P,U13,11,SRCLK*%
%TO.N,/SW_SH_CLK*%
X54672500Y-72172500D03*
%TO.P,U13,12,RCLK*%
%TO.N,/UI_ULEDSR_RCLK*%
X54172500Y-72172500D03*
%TO.P,U13,13,~{OE}*%
%TO.N,/~{UI_ULEDSR_OE}*%
X53672500Y-72172500D03*
%TO.P,U13,14,SER*%
%TO.N,/UI_ULEDSR_DIN*%
X53172500Y-72172500D03*
%TO.P,U13,15,QA*%
%TO.N,/UI_LED_7*%
X52672500Y-72172500D03*
D53*
%TO.P,U13,16,VCC*%
%TO.N,+5V*%
X52235000Y-73110000D03*
D36*
%TO.P,U13,17*%
%TO.N,N/C*%
X53922500Y-73360000D03*
%TD*%
D14*
%TO.P,U8,1,E*%
%TO.N,/UI_SEG_E*%
X53600000Y-40000000D03*
%TO.P,U8,2,D*%
%TO.N,/UI_SEG_D*%
X56140000Y-40000000D03*
%TO.P,U8,3,DP*%
%TO.N,/UI_SEG_DP*%
X58680000Y-40000000D03*
%TO.P,U8,4,C*%
%TO.N,/UI_SEG_C*%
X61220000Y-40000000D03*
%TO.P,U8,5,G*%
%TO.N,/UI_SEG_G*%
X63760000Y-40000000D03*
%TO.P,U8,6,CA3*%
%TO.N,Net-(Q4-C)*%
X66300000Y-40000000D03*
%TO.P,U8,7,B*%
%TO.N,/UI_SEG_B*%
X66300000Y-29740000D03*
%TO.P,U8,8,CA2*%
%TO.N,Net-(Q3-C)*%
X63760000Y-29740000D03*
%TO.P,U8,9,CA1*%
%TO.N,Net-(Q2-C)*%
X61220000Y-29740000D03*
%TO.P,U8,10,F*%
%TO.N,/UI_SEG_F*%
X58680000Y-29740000D03*
%TO.P,U8,11,A*%
%TO.N,/UI_SEG_A*%
X56140000Y-29740000D03*
%TO.P,U8,12,CA0*%
%TO.N,Net-(Q1-C)*%
X53600000Y-29740000D03*
%TD*%
D55*
%TO.P,U15,1,GND*%
%TO.N,GND*%
X31350000Y-35150000D03*
%TO.P,U15,2,VO*%
%TO.N,+3V3*%
X29050000Y-35150000D03*
D56*
X29050000Y-41450000D03*
D55*
%TO.P,U15,3,VI*%
%TO.N,+5V*%
X26750000Y-35150000D03*
%TD*%
D30*
%TO.P,C48,1*%
%TO.N,+1V2*%
X77200000Y-56500000D03*
%TO.P,C48,2*%
%TO.N,GND*%
X78750000Y-56500000D03*
%TD*%
D18*
%TO.P,R57,1*%
%TO.N,Net-(D4-A)*%
X57400000Y-81225000D03*
%TO.P,R57,2*%
%TO.N,/UI_LED_5*%
X57400000Y-79575000D03*
%TD*%
D57*
%TO.P,FB1,1*%
%TO.N,Net-(U7-VPLL)*%
X31500000Y-45387500D03*
%TO.P,FB1,2*%
%TO.N,+3V3*%
X31500000Y-43812500D03*
%TD*%
D32*
%TO.P,R65,1*%
%TO.N,/~{UI_ULEDSR_CLR}*%
X56075000Y-70700000D03*
%TO.P,R65,2*%
%TO.N,+3V3*%
X57725000Y-70700000D03*
%TD*%
%TO.P,R74,1*%
%TO.N,/UI_LSB_CA3*%
X98075000Y-47300000D03*
%TO.P,R74,2*%
%TO.N,+5V*%
X99725000Y-47300000D03*
%TD*%
D17*
%TO.P,R76,1*%
%TO.N,/UI_ENC_B*%
X32950000Y-74205000D03*
%TO.P,R76,2*%
%TO.N,Net-(R75-Pad2)*%
X32950000Y-75855000D03*
%TD*%
D25*
%TO.P,Q7,1,B*%
%TO.N,/UI_LSB_CA2*%
X94150000Y-45437500D03*
%TO.P,Q7,2,E*%
%TO.N,+5V*%
X96050000Y-45437500D03*
%TO.P,Q7,3,C*%
%TO.N,Net-(Q7-C)*%
X95100000Y-43562500D03*
%TD*%
D17*
%TO.P,R49,1*%
%TO.N,/UI_SEG_G*%
X90400000Y-45775000D03*
%TO.P,R49,2*%
%TO.N,Net-(U12-QB)*%
X90400000Y-47425000D03*
%TD*%
D30*
%TO.P,C22,1*%
%TO.N,+3V3*%
X76725000Y-72900000D03*
%TO.P,C22,2*%
%TO.N,GND*%
X78275000Y-72900000D03*
%TD*%
D18*
%TO.P,R59,1*%
%TO.N,Net-(D6-A)*%
X71200000Y-81225000D03*
%TO.P,R59,2*%
%TO.N,/UI_LED_3*%
X71200000Y-79575000D03*
%TD*%
D32*
%TO.P,R69,1*%
%TO.N,/UI_MSB_CA3*%
X68075000Y-47300000D03*
%TO.P,R69,2*%
%TO.N,+5V*%
X69725000Y-47300000D03*
%TD*%
D17*
%TO.P,R31,1*%
%TO.N,GND*%
X90400000Y-75825000D03*
%TO.P,R31,2*%
%TO.N,Net-(U9-DS)*%
X90400000Y-77475000D03*
%TD*%
D19*
%TO.P,R2,1*%
%TO.N,/UI_LSB_CA0*%
X71875000Y-48850000D03*
%TO.P,R2,2*%
%TO.N,Net-(U3-QD)*%
X70225000Y-48850000D03*
%TD*%
D58*
%TO.P,X1,1,~{ST}*%
%TO.N,unconnected-(X1-~{ST}-Pad1)*%
X47550000Y-57750000D03*
%TO.P,X1,2,GND*%
%TO.N,GND*%
X47550000Y-59450000D03*
%TO.P,X1,3,OUT*%
%TO.N,Net-(U2-A)*%
X48850000Y-59450000D03*
%TO.P,X1,4,Vcc*%
%TO.N,+3V3*%
X48850000Y-57750000D03*
%TD*%
D23*
%TO.P,C1,1*%
%TO.N,+5V*%
X29250000Y-31575000D03*
%TO.P,C1,2*%
%TO.N,GND*%
X29250000Y-33125000D03*
%TD*%
D38*
%TO.P,D4,1,K*%
%TO.N,GND*%
X59600000Y-81937500D03*
%TO.P,D4,2,A*%
%TO.N,Net-(D4-A)*%
X59600000Y-80062500D03*
%TD*%
%TO.P,D5,1,K*%
%TO.N,GND*%
X66500000Y-81937500D03*
%TO.P,D5,2,A*%
%TO.N,Net-(D5-A)*%
X66500000Y-80062500D03*
%TD*%
D19*
%TO.P,R40,1*%
%TO.N,Net-(U14-IO2)*%
X55825000Y-63200000D03*
%TO.P,R40,2*%
%TO.N,+3V3*%
X54175000Y-63200000D03*
%TD*%
D59*
%TO.P,U6,1,DO*%
%TO.N,/EEPROM_SPI_DO*%
X42650000Y-54037500D03*
%TO.P,U6,2,GND*%
%TO.N,GND*%
X43600000Y-54037500D03*
%TO.P,U6,3,DI*%
%TO.N,/EEPROM_SPI_DI*%
X44550000Y-54037500D03*
%TO.P,U6,4,CLK*%
%TO.N,/EEPROM_SPI_CLK*%
X44550000Y-51762500D03*
%TO.P,U6,5,CS*%
%TO.N,/EEPROM_SPI_CS*%
X43600000Y-51762500D03*
%TO.P,U6,6,VCC*%
%TO.N,+3V3*%
X42650000Y-51762500D03*
%TD*%
D39*
%TO.P,R97,1*%
%TO.N,/UI_ADC_DO*%
X108490000Y-52070000D03*
%TO.P,R97,2*%
%TO.N,Net-(J1-Pin_14)*%
X109510000Y-52070000D03*
%TD*%
D23*
%TO.P,C60,1*%
%TO.N,+5V*%
X52750000Y-43575000D03*
%TO.P,C60,2*%
%TO.N,GND*%
X52750000Y-45125000D03*
%TD*%
D42*
%TO.P,C12,1*%
%TO.N,Net-(U7-VPLL)*%
X33300000Y-45350000D03*
%TO.P,C12,2*%
%TO.N,GND*%
X33300000Y-43450000D03*
%TD*%
D18*
%TO.P,R15,1*%
%TO.N,Net-(R14-Pad1)*%
X75600000Y-84325000D03*
%TO.P,R15,2*%
%TO.N,/UI_SW3*%
X75600000Y-82675000D03*
%TD*%
D32*
%TO.P,R87,1*%
%TO.N,/UI_MSB_CA1*%
X52475000Y-49000000D03*
%TO.P,R87,2*%
%TO.N,Net-(U3-QG)*%
X54125000Y-49000000D03*
%TD*%
D41*
%TO.P,C25,1*%
%TO.N,+5V*%
X28100000Y-29750000D03*
%TO.P,C25,2*%
%TO.N,GND*%
X26200000Y-29750000D03*
%TD*%
D60*
%TO.P,U7,1,GND*%
%TO.N,GND*%
X39600000Y-49000000D03*
%TO.P,U7,2,OSCI*%
%TO.N,/CLK_12M*%
X39100000Y-49000000D03*
%TO.P,U7,3,OSCO*%
%TO.N,unconnected-(U7-OSCO-Pad3)*%
X38600000Y-49000000D03*
%TO.P,U7,4,VPHY*%
%TO.N,Net-(U7-VPHY)*%
X38100000Y-49000000D03*
%TO.P,U7,5,GND*%
%TO.N,GND*%
X37600000Y-49000000D03*
%TO.P,U7,6,REF*%
%TO.N,Net-(U7-REF)*%
X37100000Y-49000000D03*
%TO.P,U7,7,DM*%
%TO.N,/USB_D-*%
X36600000Y-49000000D03*
%TO.P,U7,8,DP*%
%TO.N,/USB_D+*%
X36100000Y-49000000D03*
%TO.P,U7,9,VPLL*%
%TO.N,Net-(U7-VPLL)*%
X35600000Y-49000000D03*
%TO.P,U7,10,AGND*%
%TO.N,GND*%
X35100000Y-49000000D03*
%TO.P,U7,11,GND*%
X34600000Y-49000000D03*
%TO.P,U7,12,VCORE*%
%TO.N,+1V8*%
X34100000Y-49000000D03*
%TO.P,U7,13,TEST*%
%TO.N,GND*%
X33600000Y-49000000D03*
%TO.P,U7,14,~{RESET}*%
%TO.N,Net-(U7-~{RESET})*%
X33100000Y-49000000D03*
%TO.P,U7,15,GND*%
%TO.N,GND*%
X32600000Y-49000000D03*
%TO.P,U7,16,ADBUS0*%
%TO.N,/FLASH_SCK*%
X32100000Y-49000000D03*
D61*
%TO.P,U7,17,ADBUS1*%
%TO.N,/FLASH_MOSI*%
X31400000Y-49700000D03*
%TO.P,U7,18,ADBUS2*%
%TO.N,/FLASH_MISO*%
X31400000Y-50200000D03*
%TO.P,U7,19,ADBUS3*%
%TO.N,unconnected-(U7-ADBUS3-Pad19)*%
X31400000Y-50700000D03*
%TO.P,U7,20,VCCIO*%
%TO.N,+3V3*%
X31400000Y-51200000D03*
%TO.P,U7,21,ADBUS4*%
%TO.N,/FLASH_CS*%
X31400000Y-51700000D03*
%TO.P,U7,22,ADBUS5*%
%TO.N,unconnected-(U7-ADBUS5-Pad22)*%
X31400000Y-52200000D03*
%TO.P,U7,23,ADBUS6*%
%TO.N,/UP5K_CDONE*%
X31400000Y-52700000D03*
%TO.P,U7,24,ADBUS7*%
%TO.N,/UP5K_CRESET*%
X31400000Y-53200000D03*
%TO.P,U7,25,GND*%
%TO.N,GND*%
X31400000Y-53700000D03*
%TO.P,U7,26,ACBUS0*%
%TO.N,unconnected-(U7-ACBUS0-Pad26)*%
X31400000Y-54200000D03*
%TO.P,U7,27,ACBUS1*%
%TO.N,unconnected-(U7-ACBUS1-Pad27)*%
X31400000Y-54700000D03*
%TO.P,U7,28,ACBUS2*%
%TO.N,unconnected-(U7-ACBUS2-Pad28)*%
X31400000Y-55200000D03*
%TO.P,U7,29,ACBUS3*%
%TO.N,unconnected-(U7-ACBUS3-Pad29)*%
X31400000Y-55700000D03*
%TO.P,U7,30,ACBUS4*%
%TO.N,unconnected-(U7-ACBUS4-Pad30)*%
X31400000Y-56200000D03*
%TO.P,U7,31,VCCIO*%
%TO.N,+3V3*%
X31400000Y-56700000D03*
%TO.P,U7,32,ACBUS5*%
%TO.N,unconnected-(U7-ACBUS5-Pad32)*%
X31400000Y-57200000D03*
D60*
%TO.P,U7,33,ACBUS6*%
%TO.N,unconnected-(U7-ACBUS6-Pad33)*%
X32100000Y-57900000D03*
%TO.P,U7,34,ACBUS7*%
%TO.N,unconnected-(U7-ACBUS7-Pad34)*%
X32600000Y-57900000D03*
%TO.P,U7,35,GND*%
%TO.N,GND*%
X33100000Y-57900000D03*
%TO.P,U7,36,~{SUSPEND}*%
%TO.N,unconnected-(U7-~{SUSPEND}-Pad36)*%
X33600000Y-57900000D03*
%TO.P,U7,37,VCORE*%
%TO.N,+1V8*%
X34100000Y-57900000D03*
%TO.P,U7,38,BDBUS0*%
%TO.N,/UP5K_UART_RX*%
X34600000Y-57900000D03*
%TO.P,U7,39,BDBUS1*%
%TO.N,/UP5K_UART_TX*%
X35100000Y-57900000D03*
%TO.P,U7,40,BDBUS2*%
%TO.N,/UP5K_UART_RTS*%
X35600000Y-57900000D03*
%TO.P,U7,41,BDBUS3*%
%TO.N,/UP5K_UART_CTS*%
X36100000Y-57900000D03*
%TO.P,U7,42,VCCIO*%
%TO.N,+3V3*%
X36600000Y-57900000D03*
%TO.P,U7,43,BDBUS4*%
%TO.N,/UP5K_UART_DTR*%
X37100000Y-57900000D03*
%TO.P,U7,44,BDBUS5*%
%TO.N,/UP5K_UART_DSR*%
X37600000Y-57900000D03*
%TO.P,U7,45,BDBUS6*%
%TO.N,/UP5K_UART_DCD*%
X38100000Y-57900000D03*
%TO.P,U7,46,BDBUS7*%
%TO.N,unconnected-(U7-BDBUS7-Pad46)*%
X38600000Y-57900000D03*
%TO.P,U7,47,GND*%
%TO.N,GND*%
X39100000Y-57900000D03*
%TO.P,U7,48,BCBUS0*%
%TO.N,unconnected-(U7-BCBUS0-Pad48)*%
X39600000Y-57900000D03*
D61*
%TO.P,U7,49,VREGOUT*%
%TO.N,+1V8*%
X40300000Y-57200000D03*
%TO.P,U7,50,VREGIN*%
%TO.N,+3V3*%
X40300000Y-56700000D03*
%TO.P,U7,51,GND*%
%TO.N,GND*%
X40300000Y-56200000D03*
%TO.P,U7,52,BCBUS1*%
%TO.N,unconnected-(U7-BCBUS1-Pad52)*%
X40300000Y-55700000D03*
%TO.P,U7,53,BCBUS2*%
%TO.N,unconnected-(U7-BCBUS2-Pad53)*%
X40300000Y-55200000D03*
%TO.P,U7,54,BCBUS3*%
%TO.N,Net-(U7-BCBUS3)*%
X40300000Y-54700000D03*
%TO.P,U7,55,BCBUS4*%
%TO.N,Net-(U7-BCBUS4)*%
X40300000Y-54200000D03*
%TO.P,U7,56,VCCIO*%
%TO.N,+3V3*%
X40300000Y-53700000D03*
%TO.P,U7,57,BCBUS5*%
%TO.N,unconnected-(U7-BCBUS5-Pad57)*%
X40300000Y-53200000D03*
%TO.P,U7,58,BCBUS6*%
%TO.N,unconnected-(U7-BCBUS6-Pad58)*%
X40300000Y-52700000D03*
%TO.P,U7,59,BCBUS7*%
%TO.N,unconnected-(U7-BCBUS7-Pad59)*%
X40300000Y-52200000D03*
%TO.P,U7,60,~{PWREN}*%
%TO.N,unconnected-(U7-~{PWREN}-Pad60)*%
X40300000Y-51700000D03*
%TO.P,U7,61,EEDATA*%
%TO.N,/EEPROM_SPI_DI*%
X40300000Y-51200000D03*
%TO.P,U7,62,EECLK*%
%TO.N,/EEPROM_SPI_CLK*%
X40300000Y-50700000D03*
%TO.P,U7,63,EECS*%
%TO.N,/EEPROM_SPI_CS*%
X40300000Y-50200000D03*
%TO.P,U7,64,VCORE*%
%TO.N,+1V8*%
X40300000Y-49700000D03*
D62*
%TO.P,U7,65,GND*%
%TO.N,GND*%
X35850000Y-53450000D03*
%TD*%
D19*
%TO.P,R54,1*%
%TO.N,/UI_LSB_CA1*%
X75825000Y-48850000D03*
%TO.P,R54,2*%
%TO.N,Net-(U3-QC)*%
X74175000Y-48850000D03*
%TD*%
D17*
%TO.P,R36,1*%
%TO.N,/EEPROM_SPI_CLK*%
X46150000Y-52625000D03*
%TO.P,R36,2*%
%TO.N,+3V3*%
X46150000Y-54275000D03*
%TD*%
D32*
%TO.P,R71,1*%
%TO.N,/UI_LSB_CA0*%
X72000000Y-47300000D03*
%TO.P,R71,2*%
%TO.N,+5V*%
X73650000Y-47300000D03*
%TD*%
D46*
%TO.P,C43,1*%
%TO.N,+3V3*%
X109225000Y-35570000D03*
%TO.P,C43,2*%
%TO.N,GND*%
X107675000Y-35570000D03*
%TD*%
D18*
%TO.P,R61,1*%
%TO.N,Net-(D8-A)*%
X85000000Y-81225000D03*
%TO.P,R61,2*%
%TO.N,/UI_LED_1*%
X85000000Y-79575000D03*
%TD*%
D16*
%TO.P,SW9,1,1*%
%TO.N,+3V3*%
X109575000Y-78000000D03*
X115425000Y-78000000D03*
%TO.P,SW9,2,2*%
%TO.N,Net-(R22-Pad2)*%
X109575000Y-81000000D03*
X115425000Y-81000000D03*
%TD*%
D46*
%TO.P,C26,1*%
%TO.N,+5V*%
X27725000Y-31550000D03*
%TO.P,C26,2*%
%TO.N,GND*%
X26175000Y-31550000D03*
%TD*%
D14*
%TO.P,U10,1,E*%
%TO.N,/UI_SEG_E*%
X83700000Y-40000000D03*
%TO.P,U10,2,D*%
%TO.N,/UI_SEG_D*%
X86240000Y-40000000D03*
%TO.P,U10,3,DP*%
%TO.N,/UI_SEG_DP*%
X88780000Y-40000000D03*
%TO.P,U10,4,C*%
%TO.N,/UI_SEG_C*%
X91320000Y-40000000D03*
%TO.P,U10,5,G*%
%TO.N,/UI_SEG_G*%
X93860000Y-40000000D03*
%TO.P,U10,6,CA3*%
%TO.N,Net-(Q8-C)*%
X96400000Y-40000000D03*
%TO.P,U10,7,B*%
%TO.N,/UI_SEG_B*%
X96400000Y-29740000D03*
%TO.P,U10,8,CA2*%
%TO.N,Net-(Q7-C)*%
X93860000Y-29740000D03*
%TO.P,U10,9,CA1*%
%TO.N,Net-(Q6-C)*%
X91320000Y-29740000D03*
%TO.P,U10,10,F*%
%TO.N,/UI_SEG_F*%
X88780000Y-29740000D03*
%TO.P,U10,11,A*%
%TO.N,/UI_SEG_A*%
X86240000Y-29740000D03*
%TO.P,U10,12,CA0*%
%TO.N,Net-(Q5-C)*%
X83700000Y-29740000D03*
%TD*%
D32*
%TO.P,R35,1*%
%TO.N,/UI_MSB_CA0*%
X49375000Y-50250000D03*
%TO.P,R35,2*%
%TO.N,Net-(U3-QH)*%
X51025000Y-50250000D03*
%TD*%
D17*
%TO.P,R24,1*%
%TO.N,GND*%
X117340000Y-95345000D03*
%TO.P,R24,2*%
%TO.N,Net-(R24-Pad2)*%
X117340000Y-96995000D03*
%TD*%
D23*
%TO.P,C36,1*%
%TO.N,Net-(U3-~{SRCLR})*%
X63600000Y-55675000D03*
%TO.P,C36,2*%
%TO.N,GND*%
X63600000Y-57225000D03*
%TD*%
D18*
%TO.P,R58,1*%
%TO.N,Net-(D5-A)*%
X64300000Y-81225000D03*
%TO.P,R58,2*%
%TO.N,/UI_LED_4*%
X64300000Y-79575000D03*
%TD*%
D16*
%TO.P,SW13,1,1*%
%TO.N,+3V3*%
X109575000Y-86000000D03*
X115425000Y-86000000D03*
%TO.P,SW13,2,2*%
%TO.N,Net-(R79-Pad2)*%
X109575000Y-89000000D03*
X115425000Y-89000000D03*
%TD*%
D23*
%TO.P,C21,1*%
%TO.N,+3V3*%
X66500000Y-69200000D03*
%TO.P,C21,2*%
%TO.N,GND*%
X66500000Y-70750000D03*
%TD*%
D18*
%TO.P,R66,1*%
%TO.N,/~{UI_ULEDSR_OE}*%
X52100000Y-70775000D03*
%TO.P,R66,2*%
%TO.N,+3V3*%
X52100000Y-69125000D03*
%TD*%
D19*
%TO.P,R41,1*%
%TO.N,Net-(U14-IO3)*%
X54525000Y-52200000D03*
%TO.P,R41,2*%
%TO.N,+3V3*%
X52875000Y-52200000D03*
%TD*%
D63*
%TO.P,U14,1,~{CS}*%
%TO.N,/FLASH_CS*%
X53295000Y-61300000D03*
%TO.P,U14,2,DO(IO1)*%
%TO.N,/FLASH_MISO*%
X54565000Y-61300000D03*
%TO.P,U14,3,IO2*%
%TO.N,Net-(U14-IO2)*%
X55835000Y-61300000D03*
%TO.P,U14,4,GND*%
%TO.N,GND*%
X57105000Y-61300000D03*
%TO.P,U14,5,DI(IO0)*%
%TO.N,/FLASH_MOSI*%
X57105000Y-54100000D03*
%TO.P,U14,6,CLK*%
%TO.N,/FLASH_SCK*%
X55835000Y-54100000D03*
%TO.P,U14,7,IO3*%
%TO.N,Net-(U14-IO3)*%
X54565000Y-54100000D03*
%TO.P,U14,8,VCC*%
%TO.N,+3V3*%
X53295000Y-54100000D03*
%TD*%
D64*
%TO.P,D10,1,A*%
%TO.N,+3V3*%
X84162500Y-69200000D03*
%TO.P,D10,2,BK*%
%TO.N,/UI_RGBLED_B*%
X82662500Y-69200000D03*
%TO.P,D10,3,GK*%
%TO.N,/UI_RGBLED_G*%
X82662500Y-68100000D03*
%TO.P,D10,4,RK*%
%TO.N,/UI_RGBLED_R*%
X84162500Y-68100000D03*
%TD*%
D30*
%TO.P,C53,1*%
%TO.N,+3V3*%
X50825000Y-65000000D03*
%TO.P,C53,2*%
%TO.N,GND*%
X52375000Y-65000000D03*
%TD*%
D17*
%TO.P,R38,1*%
%TO.N,GND*%
X38200000Y-44275000D03*
%TO.P,R38,2*%
%TO.N,Net-(U7-REF)*%
X38200000Y-45925000D03*
%TD*%
D14*
%TO.P,SW3,1*%
%TO.N,+3V3*%
X73400000Y-88600000D03*
%TO.P,SW3,2*%
%TO.N,Net-(R14-Pad1)*%
X73400000Y-91600000D03*
%TO.P,SW3,3*%
%TO.N,GND*%
X73400000Y-94600000D03*
D15*
%TO.P,SW3,4,CASE*%
X73400000Y-85800000D03*
X73400000Y-97400000D03*
%TD*%
D17*
%TO.P,R8,1*%
%TO.N,Net-(R8-Pad1)*%
X50500000Y-82675000D03*
%TO.P,R8,2*%
%TO.N,+3V3*%
X50500000Y-84325000D03*
%TD*%
D32*
%TO.P,R73,1*%
%TO.N,/UI_LSB_CA2*%
X94275000Y-47300000D03*
%TO.P,R73,2*%
%TO.N,+5V*%
X95925000Y-47300000D03*
%TD*%
D33*
%TO.P,SW11,1,1*%
%TO.N,+3V3*%
X122000000Y-84575000D03*
X122000000Y-90425000D03*
%TO.P,SW11,2,2*%
%TO.N,Net-(R26-Pad2)*%
X119000000Y-84575000D03*
X119000000Y-90425000D03*
%TD*%
D17*
%TO.P,R14,1*%
%TO.N,Net-(R14-Pad1)*%
X71200000Y-82675000D03*
%TO.P,R14,2*%
%TO.N,+3V3*%
X71200000Y-84325000D03*
%TD*%
D18*
%TO.P,R32,1*%
%TO.N,/FLASH_CS*%
X51500000Y-57125000D03*
%TO.P,R32,2*%
%TO.N,+3V3*%
X51500000Y-55475000D03*
%TD*%
%TO.P,R11,1*%
%TO.N,Net-(R10-Pad1)*%
X61800000Y-84325000D03*
%TO.P,R11,2*%
%TO.N,/UI_SW5*%
X61800000Y-82675000D03*
%TD*%
D23*
%TO.P,C61,1*%
%TO.N,+5V*%
X60350000Y-43525000D03*
%TO.P,C61,2*%
%TO.N,GND*%
X60350000Y-45075000D03*
%TD*%
D46*
%TO.P,C4,1*%
%TO.N,+3V3*%
X29725000Y-43450000D03*
%TO.P,C4,2*%
%TO.N,GND*%
X28175000Y-43450000D03*
%TD*%
D17*
%TO.P,R7,1*%
%TO.N,Net-(R6-Pad1)*%
X43600000Y-82675000D03*
%TO.P,R7,2*%
%TO.N,+3V3*%
X43600000Y-84325000D03*
%TD*%
D31*
%TO.P,R80,1*%
%TO.N,/UI_DPAD_C*%
X100249376Y-71139376D03*
%TO.P,R80,2*%
%TO.N,Net-(R79-Pad2)*%
X100970624Y-71860624D03*
%TD*%
D23*
%TO.P,C3,1*%
%TO.N,+3V3*%
X65350000Y-74325000D03*
%TO.P,C3,2*%
%TO.N,GND*%
X65350000Y-75875000D03*
%TD*%
D22*
%TO.P,C2,1*%
%TO.N,+3V3*%
X59630000Y-71955000D03*
%TO.P,C2,2*%
%TO.N,GND*%
X59630000Y-70405000D03*
%TD*%
D25*
%TO.P,Q3,1,B*%
%TO.N,/UI_MSB_CA2*%
X62550000Y-45437500D03*
%TO.P,Q3,2,E*%
%TO.N,+5V*%
X64450000Y-45437500D03*
%TO.P,Q3,3,C*%
%TO.N,Net-(Q3-C)*%
X63500000Y-43562500D03*
%TD*%
D30*
%TO.P,C49,1*%
%TO.N,+1V2*%
X77200000Y-58100000D03*
%TO.P,C49,2*%
%TO.N,GND*%
X78750000Y-58100000D03*
%TD*%
D18*
%TO.P,R62,1*%
%TO.N,Net-(D9-A)*%
X91900000Y-81225000D03*
%TO.P,R62,2*%
%TO.N,/UI_LED_0*%
X91900000Y-79575000D03*
%TD*%
D22*
%TO.P,C32,1*%
%TO.N,+5V*%
X89190000Y-53100000D03*
%TO.P,C32,2*%
%TO.N,GND*%
X89190000Y-51550000D03*
%TD*%
D17*
%TO.P,R48,1*%
%TO.N,/UI_SEG_F*%
X88800000Y-45775000D03*
%TO.P,R48,2*%
%TO.N,Net-(U12-QC)*%
X88800000Y-47425000D03*
%TD*%
D57*
%TO.P,FB2,1*%
%TO.N,Net-(U7-VPHY)*%
X43250000Y-43787500D03*
%TO.P,FB2,2*%
%TO.N,+3V3*%
X43250000Y-42212500D03*
%TD*%
D47*
%TO.P,D12,1,K*%
%TO.N,Net-(D12-K)*%
X38050000Y-63950000D03*
%TO.P,D12,2,A*%
%TO.N,+3V3*%
X39925000Y-63950000D03*
%TD*%
D38*
%TO.P,D8,1,K*%
%TO.N,GND*%
X87200000Y-81937500D03*
%TO.P,D8,2,A*%
%TO.N,Net-(D8-A)*%
X87200000Y-80062500D03*
%TD*%
D46*
%TO.P,C45,1*%
%TO.N,/RCLP_1*%
X109225000Y-42160000D03*
%TO.P,C45,2*%
%TO.N,GND*%
X107675000Y-42160000D03*
%TD*%
D39*
%TO.P,R99,1*%
%TO.N,/UI_GPIO0*%
X108490000Y-46990000D03*
%TO.P,R99,2*%
%TO.N,Net-(J1-Pin_18)*%
X109510000Y-46990000D03*
%TD*%
D30*
%TO.P,C18,1*%
%TO.N,+3V3*%
X79925000Y-61350000D03*
%TO.P,C18,2*%
%TO.N,GND*%
X81475000Y-61350000D03*
%TD*%
D18*
%TO.P,R1,1*%
%TO.N,Net-(U2-OE)*%
X50750000Y-60225000D03*
%TO.P,R1,2*%
%TO.N,+3V3*%
X50750000Y-58575000D03*
%TD*%
D22*
%TO.P,C34,1*%
%TO.N,+5V*%
X70200000Y-53275000D03*
%TO.P,C34,2*%
%TO.N,GND*%
X70200000Y-51725000D03*
%TD*%
D21*
%TO.P,R95,1*%
%TO.N,Net-(J1-Pin_11)*%
X109510000Y-53340000D03*
%TO.P,R95,2*%
%TO.N,/UI_PMOD0_3*%
X108490000Y-53340000D03*
%TD*%
D25*
%TO.P,Q5,1,B*%
%TO.N,/UI_LSB_CA0*%
X71775000Y-45437500D03*
%TO.P,Q5,2,E*%
%TO.N,+5V*%
X73675000Y-45437500D03*
%TO.P,Q5,3,C*%
%TO.N,Net-(Q5-C)*%
X72725000Y-43562500D03*
%TD*%
D22*
%TO.P,C50,1*%
%TO.N,+3V3*%
X47600000Y-56075000D03*
%TO.P,C50,2*%
%TO.N,GND*%
X47600000Y-54525000D03*
%TD*%
D46*
%TO.P,C41,1*%
%TO.N,+5V*%
X109200000Y-31970000D03*
%TO.P,C41,2*%
%TO.N,GND*%
X107650000Y-31970000D03*
%TD*%
D17*
%TO.P,R50,1*%
%TO.N,/UI_SEG_DP*%
X92000000Y-45775000D03*
%TO.P,R50,2*%
%TO.N,Net-(U12-QA)*%
X92000000Y-47425000D03*
%TD*%
D46*
%TO.P,C38,1*%
%TO.N,/UI_ENC_B*%
X32950000Y-72730000D03*
%TO.P,C38,2*%
%TO.N,GND*%
X31400000Y-72730000D03*
%TD*%
D18*
%TO.P,R81,1*%
%TO.N,/UP5K_CRESET*%
X65150000Y-60275000D03*
%TO.P,R81,2*%
%TO.N,+3V3*%
X65150000Y-58625000D03*
%TD*%
D22*
%TO.P,C52,1*%
%TO.N,+3V3*%
X50800000Y-63475000D03*
%TO.P,C52,2*%
%TO.N,GND*%
X50800000Y-61925000D03*
%TD*%
D21*
%TO.P,R94,1*%
%TO.N,Net-(J1-Pin_13)*%
X109510000Y-50800000D03*
%TO.P,R94,2*%
%TO.N,/UI_PMOD0_2*%
X108490000Y-50800000D03*
%TD*%
D31*
%TO.P,R27,1*%
%TO.N,/UI_DPAD_R*%
X101630000Y-69740000D03*
%TO.P,R27,2*%
%TO.N,Net-(R26-Pad2)*%
X102351248Y-70461248D03*
%TD*%
D46*
%TO.P,C24,1*%
%TO.N,+5V*%
X27725000Y-33100000D03*
%TO.P,C24,2*%
%TO.N,GND*%
X26175000Y-33100000D03*
%TD*%
D17*
%TO.P,R39,1*%
%TO.N,Net-(U7-~{RESET})*%
X29800000Y-47225000D03*
%TO.P,R39,2*%
%TO.N,+3V3*%
X29800000Y-48875000D03*
%TD*%
D24*
%TO.P,C59,1*%
%TO.N,+5V*%
X54490000Y-43600000D03*
%TO.P,C59,2*%
%TO.N,GND*%
X54490000Y-45500000D03*
%TD*%
D17*
%TO.P,R20,1*%
%TO.N,Net-(R20-Pad1)*%
X91900000Y-82675000D03*
%TO.P,R20,2*%
%TO.N,+3V3*%
X91900000Y-84325000D03*
%TD*%
D32*
%TO.P,R72,1*%
%TO.N,/UI_LSB_CA1*%
X75800000Y-47300000D03*
%TO.P,R72,2*%
%TO.N,+5V*%
X77450000Y-47300000D03*
%TD*%
D65*
%TO.P,SW8,A,A*%
%TO.N,Net-(R77-Pad2)*%
X36410000Y-78580000D03*
D66*
%TO.P,SW8,B,B*%
%TO.N,Net-(R75-Pad2)*%
X31410000Y-78580000D03*
%TO.P,SW8,C,C*%
%TO.N,GND*%
X33910000Y-78580000D03*
D67*
%TO.P,SW8,MP*%
%TO.N,N/C*%
X39510000Y-86080000D03*
X28310000Y-86080000D03*
D66*
%TO.P,SW8,S1,S1*%
%TO.N,+3V3*%
X31410000Y-93080000D03*
%TO.P,SW8,S2,S2*%
%TO.N,Net-(R63-Pad2)*%
X36410000Y-93080000D03*
%TD*%
D25*
%TO.P,Q1,1,B*%
%TO.N,/UI_MSB_CA0*%
X45550000Y-45437500D03*
%TO.P,Q1,2,E*%
%TO.N,+5V*%
X47450000Y-45437500D03*
%TO.P,Q1,3,C*%
%TO.N,Net-(Q1-C)*%
X46500000Y-43562500D03*
%TD*%
D18*
%TO.P,R56,1*%
%TO.N,Net-(D3-A)*%
X50500000Y-81225000D03*
%TO.P,R56,2*%
%TO.N,/UI_LED_6*%
X50500000Y-79575000D03*
%TD*%
D19*
%TO.P,R88,1*%
%TO.N,/UI_LSB_CA2*%
X75825000Y-50400000D03*
%TO.P,R88,2*%
%TO.N,Net-(U3-QB)*%
X74175000Y-50400000D03*
%TD*%
D23*
%TO.P,C6,1*%
%TO.N,+1V2*%
X71000000Y-74550000D03*
%TO.P,C6,2*%
%TO.N,GND*%
X71000000Y-76100000D03*
%TD*%
D32*
%TO.P,R42,1*%
%TO.N,/FLASH_SCK*%
X55975000Y-52200000D03*
%TO.P,R42,2*%
%TO.N,+3V3*%
X57625000Y-52200000D03*
%TD*%
D18*
%TO.P,R52,1*%
%TO.N,Net-(U12-~{SRCLR})*%
X81350000Y-54275000D03*
%TO.P,R52,2*%
%TO.N,+3V3*%
X81350000Y-52625000D03*
%TD*%
D30*
%TO.P,C54,1*%
%TO.N,+3V3*%
X36625000Y-59400000D03*
%TO.P,C54,2*%
%TO.N,GND*%
X38175000Y-59400000D03*
%TD*%
D21*
%TO.P,R92,1*%
%TO.N,Net-(J1-Pin_17)*%
X109510000Y-45720000D03*
%TO.P,R92,2*%
%TO.N,/UI_GPIO1*%
X108490000Y-45720000D03*
%TD*%
D17*
%TO.P,R78,1*%
%TO.N,/UI_ENC_A*%
X34855000Y-74205000D03*
%TO.P,R78,2*%
%TO.N,Net-(R77-Pad2)*%
X34855000Y-75855000D03*
%TD*%
D24*
%TO.P,C17,1*%
%TO.N,+3V3*%
X29600000Y-52150000D03*
%TO.P,C17,2*%
%TO.N,GND*%
X29600000Y-54050000D03*
%TD*%
D17*
%TO.P,R46,1*%
%TO.N,/UI_SEG_D*%
X85600000Y-45775000D03*
%TO.P,R46,2*%
%TO.N,Net-(U12-QE)*%
X85600000Y-47425000D03*
%TD*%
%TO.P,R45,1*%
%TO.N,/UI_SEG_C*%
X84000000Y-45775000D03*
%TO.P,R45,2*%
%TO.N,Net-(U12-QF)*%
X84000000Y-47425000D03*
%TD*%
D38*
%TO.P,D3,1,K*%
%TO.N,GND*%
X52700000Y-81937500D03*
%TO.P,D3,2,A*%
%TO.N,Net-(D3-A)*%
X52700000Y-80062500D03*
%TD*%
D24*
%TO.P,C30,1*%
%TO.N,+5V*%
X48980000Y-73630000D03*
%TO.P,C30,2*%
%TO.N,GND*%
X48980000Y-75530000D03*
%TD*%
D18*
%TO.P,R53,1*%
%TO.N,/~{UI_7SEGSR_OE}*%
X69400000Y-57325000D03*
%TO.P,R53,2*%
%TO.N,+3V3*%
X69400000Y-55675000D03*
%TD*%
D22*
%TO.P,C51,1*%
%TO.N,+3V3*%
X49100000Y-56075000D03*
%TO.P,C51,2*%
%TO.N,GND*%
X49100000Y-54525000D03*
%TD*%
D32*
%TO.P,R28,1*%
%TO.N,GND*%
X104335000Y-92250000D03*
%TO.P,R28,2*%
%TO.N,Net-(R28-Pad2)*%
X105985000Y-92250000D03*
%TD*%
D46*
%TO.P,C42,1*%
%TO.N,/RCLP_0*%
X109225000Y-39120000D03*
%TO.P,C42,2*%
%TO.N,GND*%
X107675000Y-39120000D03*
%TD*%
D68*
%TO.N,/UI_ADC_DO*%
X105700000Y-58550000D03*
D69*
%TO.N,GND*%
X106925000Y-66800000D03*
%TO.N,/UI_GPIO0*%
X104250000Y-47000000D03*
%TO.N,+5V*%
X99750000Y-40250000D03*
X51200000Y-45400000D03*
X89200000Y-53100000D03*
X64500000Y-45400000D03*
X26450000Y-35700000D03*
X99900000Y-45400000D03*
X73700000Y-45450000D03*
X47450000Y-45400000D03*
X99750000Y-39250000D03*
X46000000Y-35000000D03*
X99750000Y-41250000D03*
X96100000Y-45400000D03*
X46000000Y-34000000D03*
X46000000Y-33000000D03*
X27050000Y-34600000D03*
X77450000Y-45400000D03*
X70200000Y-44100000D03*
X54490000Y-43600000D03*
X96300000Y-43800000D03*
X69700000Y-45400000D03*
X58590000Y-43600000D03*
X56550000Y-43600000D03*
X70200000Y-53300000D03*
X99750000Y-38250000D03*
X49000000Y-73650000D03*
%TO.N,GND*%
X39150000Y-56000000D03*
X81450000Y-62850000D03*
X33300000Y-43400000D03*
X47350000Y-60750000D03*
X58590000Y-45500000D03*
X80300000Y-81937500D03*
X59925000Y-74000000D03*
X31700000Y-35150000D03*
X48980000Y-75530000D03*
X35150000Y-55250000D03*
X26200000Y-29750000D03*
X38200000Y-44275000D03*
X117360000Y-79350000D03*
X38175000Y-59400000D03*
X71000000Y-76100000D03*
X41450000Y-43700000D03*
X37600000Y-53350000D03*
X74000000Y-76440000D03*
X74940000Y-64320000D03*
X107675000Y-35570000D03*
X37550000Y-52500000D03*
X45800000Y-81937500D03*
X56550000Y-45500000D03*
X86500000Y-53000000D03*
X35400000Y-50100000D03*
X38000000Y-47200000D03*
X43600000Y-55400000D03*
X36850000Y-54900000D03*
X36000000Y-55200000D03*
X35200000Y-45300000D03*
X82850000Y-52650000D03*
X73400000Y-81937500D03*
X65350000Y-75900000D03*
X85450000Y-53000000D03*
X31050000Y-34600000D03*
X113800000Y-91050000D03*
X78750000Y-58100000D03*
X47600000Y-54500000D03*
X54490000Y-45500000D03*
X87200000Y-81937500D03*
X50750000Y-75150000D03*
X117340000Y-95340000D03*
X52000000Y-63700000D03*
X26200000Y-31550000D03*
X31420000Y-72730000D03*
X26200000Y-33100000D03*
X36350000Y-53500000D03*
X120670000Y-92270000D03*
X52700000Y-81937500D03*
X40900000Y-75600000D03*
X51420000Y-52170000D03*
X75000000Y-68600000D03*
X59640000Y-70410000D03*
X29600000Y-54000000D03*
X67550000Y-53000000D03*
X39700000Y-59400000D03*
X57060000Y-73770000D03*
X66500000Y-70775000D03*
X34800000Y-53850000D03*
X107675000Y-42160000D03*
X76040000Y-65420000D03*
X87900000Y-68000000D03*
X36400000Y-72720000D03*
X64150000Y-52350000D03*
X37350000Y-54200000D03*
X29250000Y-33100000D03*
X68175500Y-75300000D03*
X90400000Y-74375000D03*
X107150000Y-62215000D03*
X107650000Y-31970000D03*
X78300000Y-72900000D03*
X66500000Y-81937500D03*
X81450000Y-61350000D03*
X107675000Y-39120000D03*
X32800000Y-56800000D03*
X36500000Y-52000000D03*
X94100000Y-81937500D03*
X28150000Y-43450000D03*
X31650000Y-47050000D03*
X66450000Y-53000000D03*
X62725000Y-74000000D03*
X54470000Y-73370000D03*
X57105000Y-61300000D03*
X31050000Y-35700000D03*
X53370000Y-73370000D03*
X38200000Y-36500000D03*
X72000000Y-51400000D03*
X40055497Y-47924500D03*
X86100000Y-67600000D03*
X106450000Y-62715000D03*
X33500000Y-36500000D03*
X69500000Y-72900000D03*
X73900000Y-67500000D03*
X104340000Y-92250000D03*
X83800000Y-76950000D03*
X109200000Y-56095000D03*
X77100000Y-64400000D03*
X77100000Y-66500000D03*
X63600000Y-57200000D03*
X72900000Y-66400000D03*
X42800000Y-58675000D03*
X72900000Y-68600000D03*
X59600000Y-81937500D03*
X90950000Y-51150000D03*
%TO.N,+3V3*%
X30550000Y-40900000D03*
X52100000Y-69125000D03*
X109225000Y-35570000D03*
X43250000Y-42212500D03*
X67090000Y-74360000D03*
X122000000Y-84540000D03*
X39925000Y-66750000D03*
X122000000Y-90440000D03*
X103000000Y-90420000D03*
X28150000Y-42050000D03*
X115420000Y-94010000D03*
X31420000Y-74200000D03*
X59925000Y-75000000D03*
X29750000Y-42050000D03*
X57750000Y-70720000D03*
X115470000Y-86010000D03*
X90400000Y-72825000D03*
X57600000Y-52200000D03*
X67100000Y-76300000D03*
X28750000Y-34600000D03*
X84200000Y-69200000D03*
X29750000Y-48850000D03*
X61175000Y-71100000D03*
X27550000Y-41450000D03*
X29350000Y-35700000D03*
X30550000Y-42050000D03*
D70*
X70400000Y-54900000D03*
D69*
X43300000Y-48475000D03*
X28950000Y-40900000D03*
X51420000Y-53750000D03*
X115460000Y-78000000D03*
X39925000Y-63950000D03*
X109560000Y-94010000D03*
X76700000Y-72900000D03*
X105375000Y-66800000D03*
X81350000Y-52600000D03*
X39150000Y-52750000D03*
X103000000Y-84550000D03*
X54175000Y-63400000D03*
X59925000Y-73100000D03*
X42000000Y-57000000D03*
X50100000Y-57300000D03*
X42700000Y-51450000D03*
X79900000Y-61350000D03*
X46150000Y-54250000D03*
X109590000Y-86000000D03*
X68000000Y-69175000D03*
X29650000Y-57150000D03*
X50800000Y-63500000D03*
X109570000Y-77990000D03*
X29600000Y-52200000D03*
X28950000Y-42050000D03*
X86150000Y-69550000D03*
X65150000Y-57250000D03*
X29750000Y-40900000D03*
X28150000Y-40900000D03*
X109200000Y-57645000D03*
X36600000Y-59400000D03*
X36410000Y-74200000D03*
D68*
%TO.N,+1V2*%
X74010000Y-72870000D03*
X76020000Y-59620000D03*
D69*
%TO.N,/UI_RGBLED_B*%
X81362500Y-69300000D03*
X80300000Y-68300000D03*
D68*
%TO.N,/UI_GPIO1*%
X75850000Y-58450000D03*
X94050000Y-58150000D03*
D69*
%TO.N,/UI_GPIO0*%
X107625000Y-40620000D03*
D68*
X73425000Y-60625000D03*
%TO.N,/UI_SW7*%
X81100000Y-76050000D03*
D69*
X48000000Y-82675000D03*
%TO.N,/UI_SW6*%
X54900000Y-82675000D03*
D68*
X83500000Y-75400000D03*
%TO.N,/UI_SW5*%
X81100000Y-74750000D03*
D69*
X61800000Y-82675000D03*
D68*
%TO.N,/UI_SW4*%
X68700000Y-82650500D03*
X83500000Y-74100000D03*
D69*
%TO.N,/UI_SW3*%
X75600000Y-82675000D03*
D68*
X85549500Y-74102205D03*
D69*
%TO.N,/UI_SW2*%
X82500000Y-82675000D03*
D68*
X85906169Y-74761402D03*
%TO.N,/UI_SW1*%
X86322967Y-75384325D03*
D69*
X89400000Y-82675000D03*
D68*
%TO.N,/UI_SW0*%
X86800000Y-76054556D03*
D69*
X96300000Y-82675000D03*
%TO.N,/FLASH_CS*%
X65500000Y-65550000D03*
X32250000Y-51700000D03*
%TO.N,/EEPROM_SPI_DO*%
X42600000Y-55400000D03*
X44400000Y-58725000D03*
%TO.N,/FLASH_SCK*%
X64450000Y-64100000D03*
X31500000Y-48975500D03*
%TO.N,/UI_SEG_A*%
X56100000Y-32200000D03*
X80800000Y-45800000D03*
X86200000Y-32200000D03*
X73500000Y-32200000D03*
%TO.N,/UI_SEG_B*%
X74300000Y-33000000D03*
X96300000Y-33000000D03*
X66300000Y-33000000D03*
X82400000Y-45800000D03*
X66300000Y-33000000D03*
%TO.N,/UI_SEG_C*%
X61200000Y-33800000D03*
X84000000Y-45800000D03*
X75100000Y-33800000D03*
X91300000Y-33800000D03*
%TO.N,/UI_SEG_D*%
X56100000Y-34600000D03*
X75900000Y-34600000D03*
X86200000Y-34600000D03*
X85600000Y-45800000D03*
%TO.N,/UI_SEG_E*%
X53600000Y-35400000D03*
X87200000Y-45800000D03*
X76700000Y-35400000D03*
X83600000Y-35400000D03*
%TO.N,/UI_SEG_F*%
X77500000Y-36200000D03*
X88800000Y-45800000D03*
X88700000Y-36200000D03*
X58600000Y-36200000D03*
%TO.N,/UI_SEG_G*%
X63700000Y-37000000D03*
X90400000Y-45800000D03*
X93800000Y-37000000D03*
X78300000Y-37000000D03*
%TO.N,/UI_SEG_DP*%
X79100000Y-37800000D03*
X58600000Y-37800000D03*
X92000000Y-45800000D03*
X88700000Y-37800000D03*
%TO.N,/~{UI_7SEGSR_OE}*%
X69400000Y-57300000D03*
D70*
X86050607Y-55913612D03*
X67800500Y-57475500D03*
D69*
%TO.N,/UI_ENC_B*%
X32960000Y-72740000D03*
D68*
X72225865Y-70849500D03*
D70*
%TO.N,/~{UI_ULEDSR_OE}*%
X53623000Y-70750000D03*
D69*
X52100000Y-70775000D03*
D68*
%TO.N,/UP5K_CDONE*%
X74375000Y-59225000D03*
D69*
X33050000Y-53700000D03*
D68*
%TO.N,/UP5K_CRESET*%
X74050000Y-60050000D03*
X65150000Y-59900000D03*
D69*
X33050000Y-54700000D03*
D70*
%TO.N,/UI_7SEGSR_CLK*%
X85000000Y-55150000D03*
X66701500Y-56550000D03*
%TO.N,/UI_7SEGSR_RCLK*%
X85532093Y-55522465D03*
X67251000Y-57000000D03*
D69*
%TO.N,/FLASH_MOSI*%
X65650000Y-64025500D03*
X32850000Y-50900000D03*
%TO.N,/FLASH_MISO*%
X30200000Y-50400000D03*
X66354143Y-66069079D03*
D68*
%TO.N,/UI_ENC_A*%
X71569655Y-70487364D03*
D69*
X34870000Y-72730000D03*
%TO.N,/UI_ADC_DO*%
X107575000Y-52070000D03*
%TO.N,/CLK_12M*%
X78600000Y-70100000D03*
X38300000Y-50000000D03*
X48200000Y-63400000D03*
%TO.N,/UI_7SEG_SER_CARRY*%
X64150000Y-53600000D03*
D70*
X86588555Y-56277570D03*
D69*
%TO.N,Net-(U7-BCBUS4)*%
X39150000Y-54050000D03*
X34495800Y-59656794D03*
%TO.N,Net-(U7-BCBUS3)*%
X39150000Y-55000000D03*
X34500895Y-60676297D03*
D68*
%TO.N,/UI_ENC_SW*%
X42580000Y-70400000D03*
X72950133Y-71070698D03*
D69*
%TO.N,/UI_ULEDSR_RCLK*%
X64880000Y-69130000D03*
X69500000Y-69900000D03*
D68*
%TO.N,/SERIAL_SW_D*%
X75400000Y-73250000D03*
X84200000Y-72074500D03*
%TO.N,/SW_SH_CLKEN*%
X75070000Y-72560000D03*
X86750000Y-73150000D03*
%TO.N,/SW_SH_CLK*%
X80400000Y-73450000D03*
D69*
X63760000Y-69670000D03*
D68*
X72989337Y-71819175D03*
%TD*%
D71*
%TO.N,+5V*%
X99750000Y-39250000D02*
X100850000Y-38150000D01*
X100850000Y-38150000D02*
X105980000Y-33020000D01*
X99750000Y-38250000D02*
X99850000Y-38150000D01*
X99850000Y-38150000D02*
X100850000Y-38150000D01*
X100650000Y-38350000D02*
X100275000Y-38725000D01*
X100275000Y-38725000D02*
X99750000Y-39250000D01*
X99750000Y-38250000D02*
X99800000Y-38250000D01*
X99800000Y-38250000D02*
X100275000Y-38725000D01*
X109450000Y-33020000D02*
X106700000Y-33020000D01*
X105980000Y-33020000D02*
X106700000Y-33020000D01*
D72*
%TO.N,/UI_ADC_SCK*%
X99550000Y-65250000D02*
X102000000Y-65250000D01*
X102000000Y-65250000D02*
X105450000Y-61800000D01*
X78437500Y-65250000D02*
X99550000Y-65250000D01*
X105450000Y-61800000D02*
X105450000Y-60055000D01*
%TO.N,/UI_ADC_DO*%
X105950000Y-60055000D02*
X105950000Y-58800000D01*
X105950000Y-58800000D02*
X105700000Y-58550000D01*
X104750000Y-58550000D02*
X105700000Y-58550000D01*
X98400000Y-64750000D02*
X78437500Y-64750000D01*
X98400000Y-64750000D02*
X98550000Y-64750000D01*
X98550000Y-64750000D02*
X104750000Y-58550000D01*
%TO.N,/UI_ADC_DI*%
X105825000Y-56475000D02*
X98050000Y-64250000D01*
X107690000Y-54610000D02*
X105825000Y-56475000D01*
X106450000Y-57550000D02*
X106450000Y-57250000D01*
X106450000Y-57100000D02*
X106450000Y-57250000D01*
X105825000Y-56475000D02*
X106450000Y-57100000D01*
X106450000Y-60055000D02*
X106450000Y-57550000D01*
X96900000Y-64250000D02*
X98050000Y-64250000D01*
X108490000Y-54610000D02*
X107690000Y-54610000D01*
X78437500Y-64250000D02*
X96900000Y-64250000D01*
%TO.N,/UI_PMOD0_3*%
X78437500Y-63750000D02*
X87150000Y-63750000D01*
X87150000Y-63750000D02*
X89800000Y-61100000D01*
X89800000Y-61100000D02*
X98850000Y-61100000D01*
X98850000Y-61100000D02*
X106610000Y-53340000D01*
X106610000Y-53340000D02*
X108490000Y-53340000D01*
%TO.N,/UI_PMOD0_2*%
X77250000Y-63062500D02*
X77250000Y-61500000D01*
X78250000Y-60500000D02*
X96650000Y-60500000D01*
X77250000Y-61500000D02*
X78250000Y-60500000D01*
X96650000Y-60500000D02*
X106350000Y-50800000D01*
X106350000Y-50800000D02*
X108490000Y-50800000D01*
%TO.N,/UI_PMOD0_1*%
X76750000Y-63062500D02*
X76750000Y-61150000D01*
X76750000Y-61150000D02*
X78000000Y-59900000D01*
X78000000Y-59900000D02*
X95400000Y-59900000D01*
X95400000Y-59900000D02*
X105770000Y-49530000D01*
X105770000Y-49530000D02*
X108490000Y-49530000D01*
%TO.N,/UI_PMOD0_0*%
X77700000Y-59300000D02*
X94450000Y-59300000D01*
X94450000Y-59300000D02*
X105490000Y-48260000D01*
X105490000Y-48260000D02*
X108490000Y-48260000D01*
%TO.N,/UI_GPIO1*%
X100825000Y-51400000D02*
X100825000Y-48175000D01*
X94050000Y-58150000D02*
X94075000Y-58150000D01*
X94075000Y-58150000D02*
X100825000Y-51400000D01*
X100825000Y-48175000D02*
X103025000Y-45975000D01*
%TO.N,/~{UI_ADC_CS}*%
X78437500Y-65750000D02*
X103600000Y-65750000D01*
X103600000Y-65750000D02*
X104895000Y-64455000D01*
X104895000Y-64455000D02*
X105450000Y-64455000D01*
%TO.N,+3V3*%
X105375000Y-66800000D02*
X105375000Y-65820686D01*
X105375000Y-65820686D02*
X105781593Y-65414093D01*
%TO.N,/UI_GPIO0*%
X104250000Y-47000000D02*
X104260000Y-46990000D01*
X104260000Y-46990000D02*
X108490000Y-46990000D01*
%TO.N,/UI_GPIO1*%
X105320000Y-43680000D02*
X103025000Y-45975000D01*
X108490000Y-45720000D02*
X103280000Y-45720000D01*
X103280000Y-45720000D02*
X103025000Y-45975000D01*
X107625000Y-43680000D02*
X105320000Y-43680000D01*
%TO.N,/UI_LSB_CA2*%
X78475000Y-48125000D02*
X78500000Y-48100000D01*
X78500000Y-48100000D02*
X78500000Y-45100000D01*
X78500000Y-45100000D02*
X79900000Y-43700000D01*
X79900000Y-43700000D02*
X92412500Y-43700000D01*
X92412500Y-43700000D02*
X94150000Y-45437500D01*
%TO.N,/UI_LSB_CA3*%
X75825000Y-51950000D02*
X75825000Y-51875000D01*
X75825000Y-51875000D02*
X79100000Y-48600000D01*
X79100000Y-48600000D02*
X79100000Y-45350000D01*
X79100000Y-45350000D02*
X80300000Y-44150000D01*
X80300000Y-44150000D02*
X92050000Y-44150000D01*
X92050000Y-44150000D02*
X93200000Y-45300000D01*
X93200000Y-45300000D02*
X93200000Y-47800000D01*
X93200000Y-47800000D02*
X93837500Y-48437500D01*
X93837500Y-48437500D02*
X96937500Y-48437500D01*
X96937500Y-48437500D02*
X98075000Y-47300000D01*
%TO.N,+5V*%
X38320000Y-32255000D02*
X38320000Y-31679949D01*
D71*
X33250000Y-29500000D02*
X42500000Y-29500000D01*
X114875000Y-33020000D02*
X112335000Y-33020000D01*
X34219950Y-30980000D02*
X34210000Y-30980000D01*
X34799950Y-30400000D02*
X34799950Y-30399950D01*
X90900000Y-53100000D02*
X90950000Y-53050000D01*
D72*
X89040000Y-53250000D02*
X89190000Y-53100000D01*
X77425000Y-45437500D02*
X77400000Y-45200000D01*
X64450000Y-45437500D02*
X64450000Y-47275000D01*
X68687500Y-53250000D02*
X70175000Y-53250000D01*
D71*
X112335000Y-33020000D02*
X109450000Y-33020000D01*
X27725000Y-34175000D02*
X27300000Y-34600000D01*
D72*
X73675000Y-45475000D02*
X73700000Y-45500000D01*
X95925000Y-47300000D02*
X95925000Y-45562500D01*
D71*
X34799950Y-30399950D02*
X33900000Y-29500000D01*
D72*
X51300000Y-45400000D02*
X51300000Y-47250000D01*
X99725000Y-45512500D02*
X99800000Y-45437500D01*
D71*
X89200000Y-53100000D02*
X90900000Y-53100000D01*
D72*
X34210000Y-30989949D02*
X34210000Y-30980000D01*
D71*
X99750000Y-41250000D02*
X99750000Y-38250000D01*
D72*
X47450000Y-45437500D02*
X47450000Y-47275000D01*
D71*
X46000000Y-34000000D02*
X46000000Y-33625000D01*
X33900000Y-29500000D02*
X33250000Y-29500000D01*
X52750000Y-43575000D02*
X60300000Y-43575000D01*
X27725000Y-33100000D02*
X27725000Y-34175000D01*
D72*
X51225000Y-73110000D02*
X50750000Y-73585000D01*
X38320000Y-31679949D02*
X37770025Y-31129975D01*
D71*
X70225000Y-53250000D02*
X70200000Y-53275000D01*
D72*
X33520000Y-32255000D02*
X33520000Y-31679949D01*
D71*
X34799950Y-30400000D02*
X34219950Y-30980000D01*
D72*
X70175000Y-53250000D02*
X70200000Y-53275000D01*
X73700000Y-45500000D02*
X73675000Y-45525000D01*
D71*
X27750000Y-31575000D02*
X27725000Y-31550000D01*
D72*
X95925000Y-45562500D02*
X96050000Y-45437500D01*
X77400000Y-45200000D02*
X77425000Y-47275000D01*
X51300000Y-47250000D02*
X51250000Y-47300000D01*
X33520000Y-31679949D02*
X33749975Y-31449975D01*
D71*
X34799950Y-30400000D02*
X37040050Y-30400000D01*
X45250000Y-34000000D02*
X45250000Y-32250000D01*
X42500000Y-29500000D02*
X45125000Y-32125000D01*
X45250000Y-32250000D02*
X45125000Y-32125000D01*
D72*
X34799950Y-30400000D02*
X33749975Y-31449975D01*
D71*
X28350000Y-29500000D02*
X28100000Y-29750000D01*
D72*
X87687500Y-53250000D02*
X89040000Y-53250000D01*
D71*
X46000000Y-34750000D02*
X45250000Y-34000000D01*
X37040050Y-30400000D02*
X37320025Y-30679975D01*
X45375000Y-32375000D02*
X45375000Y-33000000D01*
X46000000Y-33625000D02*
X45375000Y-33000000D01*
D72*
X33749975Y-31449975D02*
X34210000Y-30989949D01*
D71*
X28100000Y-31175000D02*
X27725000Y-31550000D01*
X46000000Y-33000000D02*
X46000000Y-33250000D01*
X33250000Y-29500000D02*
X28350000Y-29500000D01*
D72*
X47450000Y-47275000D02*
X47425000Y-47300000D01*
D71*
X46000000Y-33250000D02*
X45375000Y-33875000D01*
X48980000Y-73630000D02*
X50705000Y-73630000D01*
D72*
X64275000Y-47575000D02*
X64275000Y-47300000D01*
X52235000Y-73110000D02*
X51225000Y-73110000D01*
D71*
X26450000Y-35700000D02*
X26750000Y-35150000D01*
D72*
X69700000Y-47275000D02*
X69725000Y-47300000D01*
X69700000Y-45437500D02*
X69700000Y-47275000D01*
D71*
X99850000Y-38350000D02*
X99750000Y-38250000D01*
D72*
X99725000Y-47300000D02*
X99725000Y-45512500D01*
D71*
X28100000Y-29750000D02*
X28100000Y-31175000D01*
X89190000Y-53100000D02*
X89200000Y-53100000D01*
X45250000Y-32250000D02*
X45375000Y-32375000D01*
X37320025Y-30679975D02*
X37770025Y-31129975D01*
X27300000Y-34600000D02*
X27050000Y-34600000D01*
X46000000Y-35000000D02*
X46000000Y-33000000D01*
D72*
X73675000Y-45525000D02*
X73675000Y-47275000D01*
D71*
X26750000Y-35150000D02*
X26750000Y-34550000D01*
X72000000Y-53250000D02*
X70225000Y-53250000D01*
X109200000Y-31970000D02*
X109200000Y-33020000D01*
X27725000Y-31550000D02*
X27725000Y-33100000D01*
X45375000Y-33875000D02*
X45250000Y-34000000D01*
D72*
X73675000Y-45437500D02*
X73675000Y-45475000D01*
D71*
X46000000Y-35000000D02*
X46000000Y-34750000D01*
X29250000Y-31575000D02*
X27750000Y-31575000D01*
X45125000Y-32125000D02*
X46000000Y-33000000D01*
X60300000Y-43575000D02*
X60350000Y-43525000D01*
X50705000Y-73630000D02*
X50750000Y-73585000D01*
X45250000Y-34000000D02*
X46000000Y-34000000D01*
X45375000Y-33000000D02*
X45375000Y-33875000D01*
D72*
X77450000Y-47275000D02*
X77425000Y-47300000D01*
D73*
%TO.N,GND*%
X52375000Y-65000000D02*
X52375000Y-64075000D01*
D72*
X34600000Y-49000000D02*
X34600000Y-49300000D01*
D73*
X52000000Y-63700000D02*
X52000000Y-63125000D01*
X47350000Y-59650000D02*
X47550000Y-59450000D01*
X41450000Y-43700000D02*
X41550000Y-43700000D01*
D72*
X29850000Y-54300000D02*
X29600000Y-54050000D01*
D71*
X32175000Y-32255000D02*
X31600000Y-31680000D01*
X54490000Y-45500000D02*
X53125000Y-45500000D01*
D72*
X37600000Y-49000000D02*
X37600000Y-47600000D01*
X55610000Y-73610000D02*
X56915000Y-73610000D01*
D73*
X66500000Y-70750000D02*
X68000000Y-70750000D01*
X52000000Y-63125000D02*
X50800000Y-61925000D01*
D72*
X37600000Y-47600000D02*
X38000000Y-47200000D01*
X38210000Y-36490000D02*
X38200000Y-36500000D01*
D71*
X39120000Y-32255000D02*
X39665000Y-32255000D01*
D73*
X41450000Y-43800000D02*
X41450000Y-43700000D01*
D72*
X32800000Y-56750000D02*
X32800000Y-56700000D01*
X35850000Y-52698008D02*
X36350000Y-53500000D01*
X32600000Y-49448008D02*
X33275996Y-50124004D01*
D71*
X47600000Y-54525000D02*
X49100000Y-54525000D01*
X38175000Y-59400000D02*
X39700000Y-59400000D01*
D72*
X62675000Y-74050000D02*
X62725000Y-74000000D01*
X57060000Y-73770000D02*
X57075000Y-73770000D01*
D71*
X78275000Y-74400000D02*
X78275000Y-72900000D01*
D72*
X79750000Y-74475000D02*
X78350000Y-74475000D01*
X72475000Y-76100000D02*
X72500000Y-76075000D01*
X106450000Y-63215000D02*
X106450000Y-62715000D01*
X71000000Y-76100000D02*
X72475000Y-76100000D01*
X33500000Y-36500000D02*
X33510000Y-36510000D01*
X84312500Y-52750000D02*
X82925000Y-52750000D01*
X57060000Y-73755000D02*
X57060000Y-73770000D01*
X33275996Y-50124004D02*
X35850000Y-52698008D01*
X33600000Y-49000000D02*
X33600000Y-50300000D01*
X106450000Y-64455000D02*
X106450000Y-63215000D01*
D71*
X58590000Y-45500000D02*
X54490000Y-45500000D01*
D72*
X59925000Y-74000000D02*
X61300000Y-74000000D01*
D71*
X59925000Y-45500000D02*
X60350000Y-45075000D01*
D72*
X107150000Y-62215000D02*
X106450000Y-62915000D01*
X72500000Y-76075000D02*
X73875000Y-76075000D01*
D71*
X53125000Y-45500000D02*
X52750000Y-45125000D01*
D72*
X34600000Y-49300000D02*
X35400000Y-50100000D01*
X29900000Y-53700000D02*
X29600000Y-54000000D01*
X78350000Y-74475000D02*
X78275000Y-74400000D01*
X61300000Y-74000000D02*
X61350000Y-74050000D01*
D73*
X48200000Y-61200000D02*
X47800000Y-61200000D01*
D72*
X73875000Y-76075000D02*
X74000000Y-76200000D01*
X33100000Y-57900000D02*
X33100000Y-57050000D01*
D71*
X78750000Y-58100000D02*
X78750000Y-56500000D01*
D72*
X36350000Y-53500000D02*
X35850000Y-53450000D01*
X32600000Y-49000000D02*
X32600000Y-49448008D01*
X90400000Y-75825000D02*
X90400000Y-74375000D01*
X38210000Y-36480000D02*
X38210000Y-36490000D01*
X33600000Y-50300000D02*
X35200000Y-51900000D01*
X35400000Y-50100000D02*
X35100000Y-49800000D01*
D71*
X58590000Y-45500000D02*
X59925000Y-45500000D01*
X106650000Y-62715000D02*
X107150000Y-62215000D01*
D72*
X29850000Y-60125000D02*
X31050000Y-60125000D01*
D73*
X52375000Y-64075000D02*
X52000000Y-63700000D01*
D72*
X40055497Y-47924500D02*
X40055497Y-48544503D01*
D73*
X47350000Y-60750000D02*
X47350000Y-59650000D01*
D72*
X68175500Y-75300000D02*
X67087500Y-75300000D01*
X32750000Y-56700000D02*
X32750000Y-56700000D01*
D71*
X49375000Y-75135000D02*
X48980000Y-75530000D01*
X29850000Y-54250000D02*
X29600000Y-54000000D01*
D73*
X41125000Y-44125000D02*
X41450000Y-43800000D01*
D72*
X40300000Y-56200000D02*
X39350000Y-56200000D01*
D71*
X39700000Y-44125000D02*
X41125000Y-44125000D01*
D72*
X64550000Y-52750000D02*
X64150000Y-52350000D01*
X33100000Y-57050000D02*
X32800000Y-56750000D01*
D71*
X50750000Y-75150000D02*
X49375000Y-75135000D01*
X50750000Y-75135000D02*
X50750000Y-75150000D01*
D72*
X33100000Y-58348008D02*
X32048008Y-59400000D01*
D71*
X90550000Y-51550000D02*
X90950000Y-51150000D01*
D72*
X32800000Y-56500000D02*
X35850000Y-53450000D01*
D71*
X89190000Y-51550000D02*
X89200000Y-51550000D01*
D72*
X38200000Y-36500000D02*
X38210000Y-36510000D01*
X66525000Y-70750000D02*
X66500000Y-70775000D01*
X33510000Y-36490000D02*
X33500000Y-36500000D01*
X82925000Y-52750000D02*
X82850000Y-52675000D01*
D73*
X41550000Y-43700000D02*
X41500000Y-43750000D01*
D72*
X29850000Y-55575000D02*
X29850000Y-54300000D01*
D71*
X32720000Y-32255000D02*
X32175000Y-32255000D01*
D72*
X67087500Y-75300000D02*
X67062500Y-75325000D01*
X31050000Y-60125000D02*
X31775000Y-59400000D01*
X38175000Y-59400000D02*
X38500000Y-59400000D01*
X35100000Y-49800000D02*
X35100000Y-49000000D01*
D71*
X71675000Y-51725000D02*
X72000000Y-51400000D01*
D72*
X33510000Y-36480000D02*
X33510000Y-36490000D01*
D71*
X29850000Y-55575000D02*
X29850000Y-54250000D01*
X39665000Y-32255000D02*
X40240000Y-31680000D01*
X89200000Y-51550000D02*
X90550000Y-51550000D01*
X41125000Y-44125000D02*
X41500000Y-43750000D01*
X38200000Y-44275000D02*
X39550000Y-44275000D01*
D72*
X61350000Y-74050000D02*
X62675000Y-74050000D01*
X40055497Y-48544503D02*
X39600000Y-49000000D01*
X31400000Y-53700000D02*
X29900000Y-53700000D01*
X32048008Y-59400000D02*
X31775000Y-59400000D01*
D71*
X70200000Y-51725000D02*
X71675000Y-51725000D01*
D72*
X33275996Y-50124004D02*
X33451992Y-50300000D01*
D73*
X82350000Y-77350000D02*
X83400000Y-77350000D01*
D71*
X39550000Y-44275000D02*
X39700000Y-44125000D01*
D73*
X83400000Y-77350000D02*
X83800000Y-76950000D01*
D72*
X40055497Y-47924500D02*
X41550500Y-47924500D01*
X57075000Y-73770000D02*
X57060000Y-73755000D01*
X41550500Y-47924500D02*
X41700000Y-47775000D01*
D71*
X43600000Y-55400000D02*
X43600000Y-54037500D01*
D72*
X39100000Y-58800000D02*
X39700000Y-59400000D01*
X33100000Y-57900000D02*
X33100000Y-58348008D01*
X39350000Y-56200000D02*
X39150000Y-56000000D01*
X32800000Y-56700000D02*
X32750000Y-56700000D01*
X65312500Y-52750000D02*
X64550000Y-52750000D01*
X56915000Y-73610000D02*
X57060000Y-73755000D01*
X39100000Y-57900000D02*
X39100000Y-58800000D01*
X32800000Y-56800000D02*
X32800000Y-56500000D01*
X33451992Y-50300000D02*
X33600000Y-50300000D01*
D73*
X47800000Y-61200000D02*
X47350000Y-60750000D01*
D72*
%TO.N,+3V3*%
X50800000Y-63500000D02*
X50800000Y-63475000D01*
X42125000Y-57125000D02*
X42800000Y-57125000D01*
X36600000Y-59375000D02*
X36600000Y-59375000D01*
X109575000Y-78000000D02*
X109570000Y-77990000D01*
X50500000Y-86400000D02*
X52700000Y-88600000D01*
D71*
X76725000Y-74400000D02*
X76725000Y-72925000D01*
D72*
X50500000Y-84325000D02*
X50500000Y-86400000D01*
X109590000Y-86000000D02*
X109575000Y-86000000D01*
D73*
X49100000Y-56300000D02*
X50100000Y-57300000D01*
D72*
X85000000Y-84325000D02*
X85000000Y-86400000D01*
D71*
X51900000Y-54100000D02*
X51500000Y-54500000D01*
D74*
X87900000Y-69575000D02*
X86175000Y-69575000D01*
D72*
X65350000Y-74350000D02*
X65350000Y-74325000D01*
X68800000Y-68400000D02*
X68025000Y-69175000D01*
D73*
X49500000Y-63400000D02*
X50700000Y-63400000D01*
D72*
X91900000Y-86400000D02*
X94100000Y-88600000D01*
X122000000Y-84540000D02*
X122000000Y-90440000D01*
X30550000Y-41400000D02*
X30550000Y-40900000D01*
D73*
X49100000Y-57500000D02*
X49100000Y-56700000D01*
D72*
X43600000Y-84325000D02*
X43600000Y-86400000D01*
D71*
X29725000Y-42075000D02*
X29750000Y-42050000D01*
D73*
X49100000Y-56075000D02*
X49100000Y-56300000D01*
D72*
X50800000Y-63475000D02*
X50800000Y-63475000D01*
X115470000Y-86010000D02*
X115435000Y-86000000D01*
X49575000Y-63475000D02*
X49500000Y-63400000D01*
X103000000Y-84550000D02*
X103000000Y-90420000D01*
D73*
X50800000Y-64975000D02*
X50825000Y-65000000D01*
X50100000Y-57300000D02*
X49300000Y-57300000D01*
D72*
X115435000Y-86000000D02*
X109590000Y-86000000D01*
X68025000Y-69175000D02*
X68000000Y-69175000D01*
X109575000Y-94000000D02*
X109565000Y-94000000D01*
D73*
X59925000Y-73100000D02*
X61350000Y-73100000D01*
D72*
X31400000Y-51200000D02*
X30550000Y-51200000D01*
X78100000Y-86400000D02*
X80300000Y-88600000D01*
D73*
X65150000Y-58625000D02*
X65150000Y-57275000D01*
D74*
X86175000Y-69575000D02*
X86150000Y-69550000D01*
D72*
X79900000Y-61350000D02*
X79925000Y-61350000D01*
X115415000Y-86000000D02*
X115470000Y-86010000D01*
X105781593Y-65414093D02*
X105690685Y-65505000D01*
X30550000Y-51200000D02*
X29600000Y-52150000D01*
X76250000Y-72425000D02*
X76725000Y-72900000D01*
X29650000Y-57150000D02*
X29850000Y-57125000D01*
X64300000Y-84325000D02*
X64300000Y-86400000D01*
X59725000Y-72900000D02*
X59925000Y-73100000D01*
X68950000Y-68250000D02*
X68800000Y-68400000D01*
X109570000Y-77990000D02*
X115460000Y-78000000D01*
D73*
X50100000Y-57300000D02*
X49700000Y-57300000D01*
D72*
X43600000Y-86400000D02*
X45800000Y-88600000D01*
X76750000Y-72850000D02*
X76700000Y-72900000D01*
D73*
X48850000Y-57750000D02*
X49100000Y-57500000D01*
D72*
X115460000Y-78000000D02*
X115425000Y-78000000D01*
X70400000Y-54900000D02*
X70175000Y-54900000D01*
X70175000Y-54900000D02*
X69400000Y-55675000D01*
X39150000Y-53024695D02*
X39150000Y-52750000D01*
X36600000Y-57900000D02*
X36600000Y-59375000D01*
D71*
X53295000Y-54100000D02*
X52300000Y-54100000D01*
D72*
X71200000Y-84325000D02*
X71200000Y-86400000D01*
X30550000Y-42050000D02*
X30550000Y-41400000D01*
X30275000Y-56700000D02*
X29850000Y-57125000D01*
D73*
X90375000Y-72800000D02*
X90400000Y-72825000D01*
D72*
X122000000Y-84575000D02*
X122000000Y-84540000D01*
D71*
X31500000Y-43000000D02*
X30550000Y-42050000D01*
D73*
X49100000Y-56700000D02*
X49100000Y-56075000D01*
D72*
X78100000Y-84325000D02*
X78100000Y-86400000D01*
D73*
X51500000Y-54500000D02*
X51500000Y-55010000D01*
D72*
X64300000Y-86400000D02*
X66500000Y-88600000D01*
D71*
X52300000Y-54100000D02*
X51900000Y-54100000D01*
D73*
X53295000Y-54100000D02*
X53295000Y-52620000D01*
X51410000Y-53730000D02*
X51500000Y-53820000D01*
X59630000Y-71955000D02*
X60320000Y-71955000D01*
D72*
X78700000Y-61350000D02*
X79900000Y-61350000D01*
X50825000Y-63500000D02*
X50825000Y-63500000D01*
X109565000Y-94000000D02*
X109560000Y-94010000D01*
D71*
X29725000Y-43450000D02*
X29725000Y-42075000D01*
D72*
X42000000Y-57000000D02*
X42125000Y-57125000D01*
D71*
X51770000Y-54100000D02*
X51420000Y-53750000D01*
D72*
X31400000Y-56700000D02*
X30275000Y-56700000D01*
X57400000Y-86400000D02*
X59600000Y-88600000D01*
D73*
X88075000Y-72800000D02*
X90375000Y-72800000D01*
D72*
X40300000Y-53700000D02*
X39825305Y-53700000D01*
D71*
X44350000Y-57125000D02*
X44400000Y-57075000D01*
X31500000Y-43812500D02*
X31500000Y-43000000D01*
D73*
X49700000Y-57300000D02*
X49100000Y-56700000D01*
X50100000Y-57300000D02*
X50100000Y-57925000D01*
D72*
X71562500Y-68250000D02*
X68950000Y-68250000D01*
D73*
X59630000Y-72805000D02*
X59925000Y-73100000D01*
D72*
X68000000Y-69175000D02*
X68000000Y-69200000D01*
D71*
X52300000Y-54100000D02*
X51770000Y-54100000D01*
D72*
X41700000Y-56700000D02*
X42000000Y-57000000D01*
X115420000Y-94010000D02*
X115425000Y-94000000D01*
D73*
X49100000Y-56075000D02*
X47600000Y-56075000D01*
X79925000Y-62850000D02*
X79925000Y-61350000D01*
D72*
X57400000Y-84325000D02*
X57400000Y-86400000D01*
X85000000Y-86400000D02*
X87200000Y-88600000D01*
D73*
X68000000Y-69200000D02*
X66500000Y-69200000D01*
X60320000Y-71955000D02*
X61175000Y-71100000D01*
D72*
X115425000Y-86000000D02*
X115415000Y-86000000D01*
X77750000Y-63062500D02*
X77750000Y-62300000D01*
D73*
X59630000Y-71955000D02*
X59630000Y-72805000D01*
D72*
X105950000Y-64455000D02*
X105950000Y-65245685D01*
D74*
X84200000Y-69200000D02*
X85800000Y-69200000D01*
D72*
X122000000Y-90440000D02*
X122000000Y-90425000D01*
X50800000Y-63475000D02*
X49575000Y-63475000D01*
X36600000Y-59375000D02*
X36600000Y-59400000D01*
D73*
X50800000Y-63500000D02*
X50800000Y-64975000D01*
X67062500Y-74375000D02*
X65400000Y-74375000D01*
D72*
X109560000Y-94010000D02*
X109585000Y-94000000D01*
X103000000Y-90420000D02*
X103000000Y-90425000D01*
X103000000Y-84575000D02*
X103000000Y-84550000D01*
X40300000Y-56700000D02*
X41700000Y-56700000D01*
X68000000Y-69200000D02*
X68000000Y-69200000D01*
X105950000Y-65245685D02*
X105781593Y-65414093D01*
X109585000Y-94000000D02*
X115420000Y-94010000D01*
D73*
X51420000Y-53740000D02*
X51410000Y-53730000D01*
D72*
X36625000Y-59400000D02*
X36625000Y-59400000D01*
X30550000Y-40900000D02*
X30600000Y-41450000D01*
X30600000Y-41450000D02*
X29050000Y-41450000D01*
X46000000Y-54575000D02*
X46000000Y-54425305D01*
D71*
X29850000Y-58575000D02*
X29850000Y-57125000D01*
D73*
X49300000Y-57300000D02*
X48850000Y-57750000D01*
D72*
X36600000Y-59400000D02*
X36625000Y-59400000D01*
D71*
X51420000Y-53750000D02*
X51420000Y-55395000D01*
X76725000Y-72925000D02*
X76700000Y-72900000D01*
D73*
X51420000Y-53750000D02*
X51420000Y-53740000D01*
D72*
X65375000Y-74300000D02*
X65350000Y-74325000D01*
D73*
X53295000Y-52620000D02*
X52875000Y-52200000D01*
D71*
X51420000Y-55395000D02*
X51500000Y-55475000D01*
D73*
X65400000Y-74375000D02*
X65350000Y-74325000D01*
X50700000Y-63400000D02*
X50800000Y-63500000D01*
D72*
X50525000Y-64700000D02*
X50825000Y-65000000D01*
X76250000Y-69937500D02*
X76250000Y-72425000D01*
X65350000Y-74325000D02*
X65350000Y-74325000D01*
X51500000Y-55475000D02*
X51500000Y-55010000D01*
X77750000Y-62300000D02*
X78700000Y-61350000D01*
X71200000Y-86400000D02*
X73400000Y-88600000D01*
X39825305Y-53700000D02*
X39150000Y-53024695D01*
D74*
X85800000Y-69200000D02*
X86150000Y-69550000D01*
D73*
X50100000Y-57925000D02*
X50750000Y-58575000D01*
D72*
X91900000Y-84325000D02*
X91900000Y-86400000D01*
X59925000Y-75000000D02*
X61350000Y-75000000D01*
D73*
X51500000Y-53820000D02*
X51500000Y-54500000D01*
D71*
X42800000Y-57125000D02*
X44350000Y-57125000D01*
D72*
X65375000Y-74350000D02*
X65350000Y-74350000D01*
%TO.N,+2V5*%
X71562500Y-69250000D02*
X70950000Y-69250000D01*
D73*
X64475000Y-71100000D02*
X64675000Y-71300000D01*
X68282500Y-72542500D02*
X69500000Y-71325000D01*
D72*
X70950000Y-69250000D02*
X70700000Y-69500000D01*
D73*
X64175000Y-73100000D02*
X64675000Y-72600000D01*
X63625000Y-73100000D02*
X64175000Y-73100000D01*
D72*
X70700000Y-69500000D02*
X70700000Y-70125000D01*
D73*
X64675000Y-72600000D02*
X68225000Y-72600000D01*
D72*
X70700000Y-70125000D02*
X69500000Y-71325000D01*
D73*
X68225000Y-72600000D02*
X68282500Y-72542500D01*
X64675000Y-71300000D02*
X64675000Y-72600000D01*
D72*
%TO.N,+1V2*%
X75750000Y-63062500D02*
X75750000Y-59900000D01*
X74000000Y-72600000D02*
X74037500Y-72562500D01*
X71000000Y-74550000D02*
X71750000Y-75300000D01*
X75750000Y-59900000D02*
X76020000Y-59630000D01*
X74010000Y-72870000D02*
X74000000Y-72860000D01*
X73625000Y-75300000D02*
X74000000Y-74925000D01*
X71750000Y-75300000D02*
X73625000Y-75300000D01*
X76020000Y-59630000D02*
X76020000Y-59620000D01*
D73*
X74000000Y-72880000D02*
X74010000Y-72870000D01*
X76020000Y-59280000D02*
X77200000Y-58100000D01*
X76020000Y-59620000D02*
X76020000Y-59280000D01*
X71000000Y-73137500D02*
X70937500Y-73075000D01*
X74000000Y-74925000D02*
X74000000Y-72880000D01*
D72*
X74000000Y-72860000D02*
X74000000Y-72600000D01*
D73*
X69337500Y-74375000D02*
X70825000Y-74375000D01*
X70825000Y-74375000D02*
X71000000Y-74550000D01*
D72*
X74750000Y-71850000D02*
X74037500Y-72562500D01*
D73*
X77200000Y-58100000D02*
X77200000Y-56500000D01*
X76020000Y-59620000D02*
X76030000Y-59620000D01*
X71000000Y-74550000D02*
X71000000Y-73137500D01*
D72*
X74750000Y-69937500D02*
X74750000Y-71850000D01*
%TO.N,Net-(U1D-VCCPLL)*%
X74250000Y-71675305D02*
X72850305Y-73075000D01*
X72850305Y-73075000D02*
X72587500Y-73075000D01*
X74250000Y-69937500D02*
X74250000Y-71675305D01*
X72500000Y-73162500D02*
X72587500Y-73075000D01*
X72500000Y-74525000D02*
X72500000Y-73162500D01*
%TO.N,+1V8*%
X34100000Y-57900000D02*
X34100000Y-58625000D01*
X40300000Y-57200000D02*
X39800000Y-57200000D01*
X40300000Y-49700000D02*
X41325000Y-49700000D01*
X38400000Y-51300000D02*
X38400000Y-51051992D01*
X34100000Y-50000000D02*
X34100000Y-49000000D01*
X37550000Y-56100000D02*
X38400000Y-56100000D01*
X41100000Y-57200000D02*
X41400000Y-57500000D01*
X39851992Y-49700000D02*
X40300000Y-49700000D01*
X38700000Y-50851992D02*
X39851992Y-49700000D01*
X39024696Y-56900000D02*
X39500000Y-56900000D01*
X41400000Y-57500000D02*
X41400000Y-59250000D01*
X34100000Y-47650000D02*
X33600000Y-47150000D01*
X40300000Y-57200000D02*
X41100000Y-57200000D01*
X34100000Y-56600000D02*
X34600000Y-56100000D01*
X41400000Y-59250000D02*
X41250000Y-59400000D01*
X38587348Y-56462652D02*
X39024696Y-56900000D01*
X38400000Y-56275305D02*
X38587348Y-56462652D01*
X34250000Y-50150000D02*
X34951992Y-50851992D01*
X34250000Y-50150000D02*
X34100000Y-50000000D01*
X38400000Y-56100000D02*
X38400000Y-51300000D01*
X38587348Y-56462652D02*
X38849695Y-56725000D01*
X38400000Y-51300000D02*
X38400000Y-50951992D01*
X34551992Y-50451992D02*
X34250000Y-50150000D01*
X39800000Y-57200000D02*
X39500000Y-56900000D01*
X34100000Y-57900000D02*
X34100000Y-56600000D01*
X38400000Y-56100000D02*
X38400000Y-56275305D01*
X34951992Y-50851992D02*
X38700000Y-50851992D01*
X34100000Y-49000000D02*
X34100000Y-47650000D01*
X41325000Y-49700000D02*
X41725000Y-49300000D01*
X37850000Y-56100000D02*
X37550000Y-56100000D01*
X34600000Y-56100000D02*
X37550000Y-56100000D01*
X34100000Y-58625000D02*
X33325000Y-59400000D01*
D71*
%TO.N,Net-(U7-VPLL)*%
X31500000Y-45387500D02*
X33262500Y-45387500D01*
D73*
X33300000Y-45350000D02*
X33700000Y-45350000D01*
D72*
X35600000Y-49000000D02*
X35600000Y-47250000D01*
D71*
X33262500Y-45387500D02*
X33300000Y-45350000D01*
D72*
X35600000Y-47250000D02*
X35200000Y-46850000D01*
D73*
X33700000Y-45350000D02*
X35200000Y-46850000D01*
D71*
%TO.N,Net-(U7-VPHY)*%
X41475000Y-45675000D02*
X41500000Y-45650000D01*
D72*
X39700000Y-46700000D02*
X39700000Y-45675000D01*
D71*
X43250000Y-43787500D02*
X43250000Y-43900000D01*
D72*
X38100000Y-49000000D02*
X38100000Y-48300000D01*
D71*
X39700000Y-45675000D02*
X41475000Y-45675000D01*
D72*
X40775000Y-45675000D02*
X40800000Y-45650000D01*
D71*
X43250000Y-43900000D02*
X41500000Y-45650000D01*
D72*
X38100000Y-48300000D02*
X39700000Y-46700000D01*
%TO.N,/~{UI_ULEDSR_CLR}*%
X56075000Y-71220000D02*
X57060000Y-72205000D01*
X55172500Y-72172500D02*
X55172500Y-71602500D01*
X56075000Y-70700000D02*
X56075000Y-71220000D01*
X55172500Y-71602500D02*
X56075000Y-70700000D01*
%TO.N,Net-(U12-~{SRCLR})*%
X84750000Y-54187500D02*
X82887500Y-54187500D01*
X82850000Y-54225000D02*
X81400000Y-54225000D01*
X81400000Y-54225000D02*
X81350000Y-54275000D01*
X82887500Y-54187500D02*
X82850000Y-54225000D01*
%TO.N,Net-(D2-A)*%
X44637500Y-81225000D02*
X45800000Y-80062500D01*
X43600000Y-81225000D02*
X44637500Y-81225000D01*
%TO.N,Net-(D3-A)*%
X51537500Y-81225000D02*
X52700000Y-80062500D01*
X50500000Y-81225000D02*
X51537500Y-81225000D01*
%TO.N,Net-(D4-A)*%
X57400000Y-81225000D02*
X58437500Y-81225000D01*
X58437500Y-81225000D02*
X59600000Y-80062500D01*
%TO.N,Net-(D5-A)*%
X64300000Y-81225000D02*
X65337500Y-81225000D01*
X65337500Y-81225000D02*
X66500000Y-80062500D01*
%TO.N,Net-(D6-A)*%
X72237500Y-81225000D02*
X73400000Y-80062500D01*
X71200000Y-81225000D02*
X72237500Y-81225000D01*
%TO.N,Net-(D7-A)*%
X78100000Y-81200000D02*
X79162500Y-81200000D01*
X79162500Y-81200000D02*
X80300000Y-80062500D01*
%TO.N,Net-(D8-A)*%
X86037500Y-81225000D02*
X87200000Y-80062500D01*
X85000000Y-81225000D02*
X86037500Y-81225000D01*
%TO.N,Net-(D9-A)*%
X92937500Y-81225000D02*
X94100000Y-80062500D01*
X91900000Y-81225000D02*
X92937500Y-81225000D01*
%TO.N,/UI_RGBLED_B*%
X80000000Y-68000000D02*
X79750000Y-67750000D01*
X79750000Y-67750000D02*
X78437500Y-67750000D01*
X82662500Y-69200000D02*
X81462500Y-69200000D01*
%TO.N,/UI_RGBLED_G*%
X81537196Y-68100000D02*
X82662500Y-68100000D01*
X79225000Y-68250000D02*
X80000000Y-69025000D01*
X80000000Y-69025000D02*
X80612196Y-69025000D01*
X78437500Y-68250000D02*
X79225000Y-68250000D01*
X80612196Y-69025000D02*
X81537196Y-68100000D01*
%TO.N,/UI_RGBLED_R*%
X83312500Y-67250000D02*
X84162500Y-68100000D01*
X78437500Y-67250000D02*
X83312500Y-67250000D01*
%TO.N,/UI_GPIO1*%
X75250000Y-59050000D02*
X75250000Y-63062500D01*
X75850000Y-58450000D02*
X75250000Y-59050000D01*
%TO.N,/UI_GPIO0*%
X73750000Y-60950000D02*
X73750000Y-63062500D01*
X73425000Y-60625000D02*
X73750000Y-60950000D01*
%TO.N,/UI_ADC_SE_CHAN_0*%
X108600000Y-58795000D02*
X107250000Y-58795000D01*
X106950000Y-60055000D02*
X106950000Y-59155000D01*
X113610000Y-59695000D02*
X109500000Y-59695000D01*
X107250000Y-58795000D02*
X107225000Y-58820000D01*
X109500000Y-59695000D02*
X109250000Y-59445000D01*
X109250000Y-59445000D02*
X108600000Y-58795000D01*
%TO.N,/UI_ADC_SE_CHAN_3*%
X106950000Y-64485000D02*
X106950000Y-64425000D01*
%TO.N,/UI_ADC_SE_CHAN_0*%
X114875000Y-60960000D02*
X113610000Y-59695000D01*
X106950000Y-59095000D02*
X107225000Y-58820000D01*
%TO.N,/UI_ADC_SE_CHAN_1*%
X109650000Y-60960000D02*
X108355000Y-60960000D01*
X108355000Y-60960000D02*
X107450000Y-60055000D01*
X109650000Y-60960000D02*
X108755000Y-60960000D01*
X112335000Y-60960000D02*
X109650000Y-60960000D01*
%TO.N,/UI_ADC_SE_CHAN_2*%
X112335000Y-63500000D02*
X108405000Y-63500000D01*
X108405000Y-63500000D02*
X107450000Y-64455000D01*
%TO.N,/UI_ADC_SE_CHAN_3*%
X113580000Y-64795000D02*
X109575000Y-64795000D01*
X106950000Y-65355000D02*
X107282500Y-65687500D01*
X109575000Y-64795000D02*
X108682500Y-65687500D01*
X114875000Y-63500000D02*
X113580000Y-64795000D01*
X108682500Y-65687500D02*
X107282500Y-65687500D01*
X106950000Y-64395000D02*
X106950000Y-65295000D01*
%TO.N,/USB_CC*%
X37170000Y-33440000D02*
X38210000Y-34480000D01*
X38210000Y-34480000D02*
X38210000Y-34830000D01*
X37170000Y-32255000D02*
X37170000Y-33440000D01*
%TO.N,/USB_VCONN*%
X34170000Y-33420000D02*
X33510000Y-34080000D01*
X34170000Y-32255000D02*
X34170000Y-33420000D01*
X33510000Y-34080000D02*
X33510000Y-34830000D01*
%TO.N,/UI_MSB_CA0*%
X45775000Y-46875000D02*
X45550000Y-46650000D01*
X49375000Y-50250000D02*
X48725000Y-50250000D01*
X48725000Y-50250000D02*
X45775000Y-47300000D01*
X45550000Y-46650000D02*
X45550000Y-45437500D01*
X45775000Y-47300000D02*
X45775000Y-46875000D01*
%TO.N,Net-(Q1-C)*%
X46500000Y-43000000D02*
X50200000Y-39300000D01*
X46500000Y-43562500D02*
X46500000Y-43000000D01*
X50200000Y-39300000D02*
X50200000Y-31500000D01*
X51960000Y-29740000D02*
X53600000Y-29740000D01*
X50200000Y-31500000D02*
X51960000Y-29740000D01*
%TO.N,/UI_MSB_CA1*%
X49300000Y-45437500D02*
X49300000Y-46500000D01*
X49300000Y-46500000D02*
X49600000Y-46800000D01*
X49600000Y-46800000D02*
X49600000Y-47300000D01*
X49600000Y-47300000D02*
X51300000Y-49000000D01*
X51300000Y-49000000D02*
X52475000Y-49000000D01*
%TO.N,Net-(Q2-C)*%
X51000000Y-41900000D02*
X50250000Y-42650000D01*
X50250000Y-42650000D02*
X50250000Y-43562500D01*
X60000000Y-30960000D02*
X60000000Y-41100000D01*
X60000000Y-41100000D02*
X59200000Y-41900000D01*
X61220000Y-29740000D02*
X60000000Y-30960000D01*
X59200000Y-41900000D02*
X51000000Y-41900000D01*
%TO.N,/UI_MSB_CA2*%
X62775000Y-46675000D02*
X62775000Y-47300000D01*
X62550000Y-46450000D02*
X62775000Y-46675000D01*
X61825000Y-47300000D02*
X61000000Y-46475000D01*
X62550000Y-45437500D02*
X62550000Y-46450000D01*
X62775000Y-47300000D02*
X61825000Y-47300000D01*
%TO.N,Net-(Q3-C)*%
X65000000Y-30980000D02*
X63760000Y-29740000D01*
X63500000Y-43562500D02*
X63500000Y-42750000D01*
X63500000Y-42750000D02*
X65000000Y-41250000D01*
X65000000Y-41250000D02*
X65000000Y-30980000D01*
%TO.N,/UI_MSB_CA3*%
X68075000Y-46575000D02*
X68075000Y-47300000D01*
X67800000Y-46300000D02*
X68075000Y-46575000D01*
X68075000Y-47300000D02*
X66975000Y-47300000D01*
X66975000Y-47300000D02*
X66150000Y-46475000D01*
X67800000Y-45437500D02*
X67800000Y-46300000D01*
%TO.N,Net-(Q4-C)*%
X68750000Y-42450000D02*
X68750000Y-43562500D01*
X66300000Y-40000000D02*
X68750000Y-42450000D01*
%TO.N,/UI_LSB_CA0*%
X72000000Y-46475000D02*
X72000000Y-47300000D01*
X71775000Y-45437500D02*
X71775000Y-46250000D01*
X72000000Y-47300000D02*
X72000000Y-48725000D01*
X72000000Y-48725000D02*
X71875000Y-48850000D01*
X71775000Y-46250000D02*
X72000000Y-46475000D01*
%TO.N,Net-(Q5-C)*%
X80500000Y-38200000D02*
X77950000Y-40750000D01*
X72725000Y-42275000D02*
X72725000Y-43562500D01*
X82260000Y-29740000D02*
X80500000Y-31500000D01*
X80500000Y-31500000D02*
X80500000Y-38200000D01*
X83700000Y-29740000D02*
X82260000Y-29740000D01*
X74250000Y-40750000D02*
X72725000Y-42275000D01*
X77950000Y-40750000D02*
X74250000Y-40750000D01*
%TO.N,/UI_LSB_CA1*%
X75525000Y-45437500D02*
X75525000Y-46300000D01*
X75800000Y-47300000D02*
X75800000Y-48825000D01*
X75800000Y-46575000D02*
X75800000Y-47300000D01*
X75800000Y-48825000D02*
X75825000Y-48850000D01*
X75525000Y-46300000D02*
X75800000Y-46575000D01*
%TO.N,Net-(Q6-C)*%
X81500000Y-42200000D02*
X80500000Y-43200000D01*
X90100000Y-30960000D02*
X90100000Y-41000000D01*
X76837500Y-43200000D02*
X76475000Y-43562500D01*
X91320000Y-29740000D02*
X90100000Y-30960000D01*
X90100000Y-41000000D02*
X88900000Y-42200000D01*
X80500000Y-43200000D02*
X76837500Y-43200000D01*
X88900000Y-42200000D02*
X81500000Y-42200000D01*
%TO.N,/UI_LSB_CA2*%
X94150000Y-46350000D02*
X94150000Y-45437500D01*
X94275000Y-46475000D02*
X94150000Y-46350000D01*
X76200000Y-50400000D02*
X78475000Y-48125000D01*
X78475000Y-48125000D02*
X77800000Y-48800000D01*
X94275000Y-47300000D02*
X94275000Y-46475000D01*
X77600000Y-49000000D02*
X77800000Y-48800000D01*
X75825000Y-50400000D02*
X76200000Y-50400000D01*
%TO.N,Net-(Q7-C)*%
X95100000Y-30980000D02*
X93860000Y-29740000D01*
X95100000Y-43562500D02*
X95100000Y-30980000D01*
%TO.N,/UI_LSB_CA3*%
X97900000Y-45437500D02*
X97900000Y-46300000D01*
X98075000Y-47300000D02*
X98075000Y-46475000D01*
X98075000Y-46475000D02*
X97900000Y-46300000D01*
%TO.N,Net-(Q8-C)*%
X98850000Y-43562500D02*
X98850000Y-42450000D01*
X98850000Y-42450000D02*
X96400000Y-40000000D01*
%TO.N,/USB_D-*%
X35670000Y-32970000D02*
X35670000Y-32255000D01*
X36400000Y-34350000D02*
X36400000Y-34675000D01*
D75*
X35900000Y-35300000D02*
X36400000Y-34800000D01*
D72*
X36400000Y-33300000D02*
X36000000Y-33300000D01*
D75*
X36400000Y-34675000D02*
X36400000Y-34800000D01*
D72*
X36670000Y-32255000D02*
X36670000Y-33030000D01*
X36000000Y-33300000D02*
X35670000Y-32970000D01*
D75*
X36600000Y-42300000D02*
X35900000Y-41600000D01*
X36600000Y-49000000D02*
X36600000Y-42300000D01*
X36400000Y-34800000D02*
X36400000Y-34350000D01*
D72*
X36670000Y-33030000D02*
X36400000Y-33300000D01*
D75*
X35900000Y-41600000D02*
X35900000Y-35300000D01*
D72*
X36400000Y-33300000D02*
X36400000Y-34350000D01*
%TO.N,/USB_D+*%
X35170000Y-31380000D02*
X35170000Y-32255000D01*
X35790000Y-31000000D02*
X35550000Y-31000000D01*
D75*
X36110000Y-48990000D02*
X36100000Y-49000000D01*
X35500000Y-41800000D02*
X35500000Y-35300000D01*
X36100000Y-49000000D02*
X36100000Y-42400000D01*
D72*
X36170000Y-31380000D02*
X35790000Y-31000000D01*
X35550000Y-31000000D02*
X35170000Y-31380000D01*
X35170000Y-32255000D02*
X35170000Y-34650000D01*
D75*
X36100000Y-42400000D02*
X35500000Y-41800000D01*
D72*
X36170000Y-32255000D02*
X36170000Y-31380000D01*
D75*
X35500000Y-35300000D02*
X35170000Y-34970000D01*
D72*
X35170000Y-34650000D02*
X35170000Y-34805000D01*
D75*
X35170000Y-34970000D02*
X35170000Y-34650000D01*
D72*
%TO.N,/UI_SW7*%
X82350000Y-76050000D02*
X81100000Y-76050000D01*
%TO.N,/UI_SW6*%
X82350000Y-75400000D02*
X83500000Y-75400000D01*
%TO.N,/UI_SW5*%
X82350000Y-74750000D02*
X81100000Y-74750000D01*
%TO.N,/UI_SW4*%
X68700000Y-82675000D02*
X68700000Y-82525500D01*
X82350000Y-74100000D02*
X83500000Y-74100000D01*
%TO.N,/UI_SW3*%
X85551705Y-74100000D02*
X85549500Y-74102205D01*
X88075000Y-74100000D02*
X85551705Y-74100000D01*
%TO.N,/UI_SW2*%
X88075000Y-74750000D02*
X85917571Y-74750000D01*
X85917571Y-74750000D02*
X85906169Y-74761402D01*
%TO.N,/UI_SW1*%
X86338642Y-75400000D02*
X86322967Y-75384325D01*
X88075000Y-75400000D02*
X86338642Y-75400000D01*
%TO.N,/UI_SW0*%
X88075000Y-76050000D02*
X86804556Y-76050000D01*
X86804556Y-76050000D02*
X86800000Y-76054556D01*
%TO.N,Net-(R22-Pad2)*%
X108210000Y-79635000D02*
X108210000Y-77710000D01*
X108210000Y-77710000D02*
X107970000Y-77470000D01*
X101660624Y-71160624D02*
X107970000Y-77470000D01*
X117335000Y-81000000D02*
X117340000Y-80995000D01*
X115425000Y-81000000D02*
X117335000Y-81000000D01*
X109575000Y-81000000D02*
X108210000Y-79635000D01*
X109575000Y-81000000D02*
X115425000Y-81000000D01*
%TO.N,/UI_DPAD_U*%
X97250000Y-66750000D02*
X100950000Y-70450000D01*
X78437500Y-66750000D02*
X97250000Y-66750000D01*
%TO.N,Net-(R24-Pad2)*%
X100270624Y-72560624D02*
X106880000Y-79170000D01*
X115425000Y-97000000D02*
X117335000Y-97000000D01*
X106880000Y-83030000D02*
X107420000Y-83570000D01*
X106880000Y-79170000D02*
X106880000Y-83030000D01*
X107420000Y-96180000D02*
X108240000Y-97000000D01*
X107420000Y-83570000D02*
X107420000Y-96180000D01*
X109575000Y-97000000D02*
X115425000Y-97000000D01*
X108240000Y-97000000D02*
X109575000Y-97000000D01*
X117335000Y-97000000D02*
X117340000Y-96995000D01*
%TO.N,/UI_DPAD_D*%
X77750000Y-69937500D02*
X77750000Y-70400000D01*
X78375000Y-71025000D02*
X98725000Y-71025000D01*
X98725000Y-71025000D02*
X99550000Y-71850000D01*
X77750000Y-70400000D02*
X78375000Y-71025000D01*
%TO.N,Net-(R26-Pad2)*%
X102351248Y-70461248D02*
X107100000Y-75210000D01*
X107100000Y-75210000D02*
X115900000Y-75210000D01*
X119000000Y-78310000D02*
X119000000Y-84575000D01*
X119000000Y-84575000D02*
X119000000Y-90425000D01*
X119000000Y-92235000D02*
X119015000Y-92250000D01*
X115900000Y-75210000D02*
X119000000Y-78310000D01*
X119000000Y-90425000D02*
X119000000Y-92235000D01*
%TO.N,/UI_DPAD_R*%
X78437500Y-66250000D02*
X98150000Y-66250000D01*
X98150000Y-66250000D02*
X101650000Y-69750000D01*
%TO.N,Net-(R28-Pad2)*%
X106000000Y-79700000D02*
X106000000Y-84575000D01*
X106000000Y-84575000D02*
X106000000Y-90425000D01*
X106000000Y-92235000D02*
X105985000Y-92250000D01*
X99571248Y-73271248D02*
X106000000Y-79700000D01*
X106000000Y-90425000D02*
X106000000Y-92235000D01*
%TO.N,/UI_DPAD_L*%
X77250000Y-69937500D02*
X77250000Y-70536396D01*
X77250000Y-70536396D02*
X78188604Y-71475000D01*
X97775000Y-71475000D02*
X98850000Y-72550000D01*
X78188604Y-71475000D02*
X97775000Y-71475000D01*
%TO.N,/FLASH_CS*%
X65800000Y-65250000D02*
X65500000Y-65550000D01*
X52425000Y-57125000D02*
X51500000Y-57125000D01*
X65500000Y-65550000D02*
X64850000Y-65550000D01*
X53700000Y-59400000D02*
X53700000Y-58400000D01*
X71562500Y-65250000D02*
X65800000Y-65250000D01*
X53700000Y-59400000D02*
X53295000Y-59805000D01*
X53295000Y-59805000D02*
X53295000Y-61300000D01*
X64850000Y-65550000D02*
X58700000Y-59400000D01*
X58700000Y-59400000D02*
X53700000Y-59400000D01*
X32250000Y-51700000D02*
X32200000Y-51700000D01*
X31400000Y-51700000D02*
X32250000Y-51700000D01*
X53700000Y-58400000D02*
X52425000Y-57125000D01*
%TO.N,/EEPROM_SPI_DO*%
X42650000Y-55350000D02*
X42600000Y-55400000D01*
X44400000Y-58725000D02*
X46000000Y-58725000D01*
X42650000Y-54037500D02*
X42650000Y-55350000D01*
%TO.N,/EEPROM_SPI_DI*%
X44550000Y-55475305D02*
X43825305Y-56200000D01*
X44550000Y-54037500D02*
X44550000Y-55475305D01*
X41150000Y-55550000D02*
X41150000Y-51400000D01*
X41800000Y-56200000D02*
X41150000Y-55550000D01*
X40950000Y-51200000D02*
X40300000Y-51200000D01*
X43825305Y-56200000D02*
X41800000Y-56200000D01*
X46000000Y-56925305D02*
X44550000Y-55475305D01*
X41150000Y-51400000D02*
X40950000Y-51200000D01*
%TO.N,/EEPROM_SPI_CS*%
X43000000Y-50200000D02*
X40300000Y-50200000D01*
X43600000Y-51762500D02*
X43600000Y-50800000D01*
X43600000Y-50800000D02*
X43000000Y-50200000D01*
%TO.N,/EEPROM_SPI_CLK*%
X44550000Y-52550000D02*
X46075000Y-52550000D01*
X41600000Y-51000000D02*
X41600000Y-52100000D01*
X40300000Y-50700000D02*
X41300000Y-50700000D01*
X42400000Y-52900000D02*
X44200000Y-52900000D01*
X44550000Y-52550000D02*
X44550000Y-51762500D01*
X44200000Y-52900000D02*
X44550000Y-52550000D01*
X41300000Y-50700000D02*
X41600000Y-51000000D01*
X41600000Y-52100000D02*
X42400000Y-52900000D01*
%TO.N,Net-(U7-REF)*%
X38200000Y-45925000D02*
X37100000Y-47025000D01*
X37100000Y-47025000D02*
X37100000Y-49000000D01*
%TO.N,Net-(U7-~{RESET})*%
X33100000Y-49000000D02*
X33100000Y-48551992D01*
X30775000Y-48200000D02*
X29800000Y-47225000D01*
X33100000Y-48551992D02*
X32748008Y-48200000D01*
X32748008Y-48200000D02*
X30775000Y-48200000D01*
%TO.N,/FLASH_SCK*%
X65100000Y-64750000D02*
X68400000Y-64750000D01*
X56231802Y-56168198D02*
X55963604Y-55900000D01*
X64450000Y-64100000D02*
X65100000Y-64750000D01*
X55835000Y-54100000D02*
X55835000Y-52340000D01*
X55835000Y-52340000D02*
X55975000Y-52200000D01*
X55835000Y-55771396D02*
X55835000Y-54100000D01*
X68400000Y-64750000D02*
X67750000Y-64750000D01*
X31500000Y-48975500D02*
X31524500Y-49000000D01*
X71562500Y-64750000D02*
X68400000Y-64750000D01*
X64163604Y-64100000D02*
X56231802Y-56168198D01*
X55835000Y-54535000D02*
X55835000Y-54100000D01*
X56231802Y-56168198D02*
X55835000Y-55771396D01*
X64450000Y-64100000D02*
X64163604Y-64100000D01*
X31524500Y-49000000D02*
X32100000Y-49000000D01*
%TO.N,/UI_SEG_A*%
X86240000Y-29740000D02*
X86240000Y-32160000D01*
X56140000Y-32160000D02*
X56100000Y-32200000D01*
X56140000Y-29740000D02*
X56140000Y-32160000D01*
X86240000Y-32160000D02*
X86200000Y-32200000D01*
%TO.N,Net-(U12-QA)*%
X92150000Y-47575000D02*
X92000000Y-47425000D01*
X92150000Y-53388173D02*
X92150000Y-47575000D01*
X91350673Y-54187500D02*
X92150000Y-53388173D01*
X87250000Y-54187500D02*
X91350673Y-54187500D01*
%TO.N,/UI_SEG_B*%
X66300000Y-29740000D02*
X66300000Y-33000000D01*
X96400000Y-29740000D02*
X96400000Y-32900000D01*
X96400000Y-32900000D02*
X96300000Y-33000000D01*
%TO.N,Net-(U12-QB)*%
X90400000Y-48050000D02*
X89925000Y-48525000D01*
X90400000Y-47425000D02*
X90400000Y-48050000D01*
X87750000Y-49775000D02*
X87750000Y-52737500D01*
X89925000Y-48525000D02*
X89000000Y-48525000D01*
X89000000Y-48525000D02*
X87750000Y-49775000D01*
X87687500Y-52750000D02*
X87700000Y-52737500D01*
%TO.N,/UI_SEG_C*%
X61220000Y-33820000D02*
X61200000Y-33800000D01*
X61220000Y-40000000D02*
X61220000Y-33820000D01*
X91320000Y-33820000D02*
X91320000Y-40000000D01*
X91300000Y-33800000D02*
X91320000Y-33820000D01*
X91300000Y-33700000D02*
X91320000Y-33720000D01*
%TO.N,Net-(U12-QC)*%
X88800000Y-47425000D02*
X88800000Y-47975000D01*
X88800000Y-47975000D02*
X87250000Y-49525000D01*
X87250000Y-49525000D02*
X87250000Y-51812500D01*
%TO.N,/UI_SEG_D*%
X56140000Y-34640000D02*
X56100000Y-34600000D01*
X56140000Y-40000000D02*
X56140000Y-34640000D01*
X86240000Y-35640000D02*
X86240000Y-35700000D01*
X86240000Y-40000000D02*
X86240000Y-35700000D01*
X86240000Y-34640000D02*
X86200000Y-34600000D01*
X86240000Y-35640000D02*
X86240000Y-34640000D01*
%TO.N,Net-(U12-QD)*%
X86750000Y-48750000D02*
X87200000Y-48300000D01*
X87200000Y-48300000D02*
X87200000Y-47425000D01*
X86750000Y-51812500D02*
X86750000Y-48750000D01*
%TO.N,/UI_SEG_E*%
X83700000Y-36400000D02*
X83700000Y-40000000D01*
X83700000Y-36400000D02*
X83700000Y-35500000D01*
X53600000Y-40000000D02*
X53600000Y-35400000D01*
X83700000Y-35500000D02*
X83600000Y-35400000D01*
%TO.N,Net-(U12-QE)*%
X85600000Y-48100000D02*
X85600000Y-47425000D01*
X86250000Y-51812500D02*
X86250000Y-48750000D01*
X86250000Y-48750000D02*
X85600000Y-48100000D01*
%TO.N,/UI_SEG_F*%
X88700000Y-36200000D02*
X88780000Y-36120000D01*
X88780000Y-36120000D02*
X88780000Y-29740000D01*
X88700000Y-36300000D02*
X88780000Y-36220000D01*
X58600000Y-36200000D02*
X58680000Y-36120000D01*
X58680000Y-36120000D02*
X58680000Y-29740000D01*
%TO.N,Net-(U12-QF)*%
X84650000Y-48275000D02*
X85750000Y-49375000D01*
X85750000Y-49375000D02*
X85750000Y-51812500D01*
X84361396Y-48275000D02*
X84650000Y-48275000D01*
X84000000Y-47425000D02*
X84000000Y-47913604D01*
X84000000Y-47913604D02*
X84361396Y-48275000D01*
X84000000Y-47425000D02*
X84000000Y-47900000D01*
%TO.N,/UI_SEG_G*%
X63760000Y-37060000D02*
X63700000Y-37000000D01*
X63760000Y-40000000D02*
X63760000Y-37060000D01*
X93800000Y-37000000D02*
X93860000Y-37060000D01*
X93800000Y-37200000D02*
X93860000Y-37260000D01*
X93860000Y-37060000D02*
X93860000Y-40000000D01*
%TO.N,Net-(U12-QG)*%
X82400000Y-47425000D02*
X82400000Y-47950000D01*
X85250000Y-49600000D02*
X85250000Y-51812500D01*
X84425000Y-48775000D02*
X85250000Y-49600000D01*
X83225000Y-48775000D02*
X84425000Y-48775000D01*
X82400000Y-47950000D02*
X83225000Y-48775000D01*
%TO.N,/UI_SEG_DP*%
X88780000Y-40000000D02*
X88780000Y-37880000D01*
X58680000Y-37880000D02*
X58600000Y-37800000D01*
X58680000Y-40000000D02*
X58680000Y-37880000D01*
X88780000Y-37880000D02*
X88700000Y-37800000D01*
%TO.N,Net-(U12-QH)*%
X80800000Y-47425000D02*
X82650000Y-49275000D01*
X84750000Y-49800000D02*
X84750000Y-51812500D01*
X82650000Y-49275000D02*
X84225000Y-49275000D01*
X84225000Y-49275000D02*
X84750000Y-49800000D01*
%TO.N,/~{UI_7SEGSR_OE}*%
X69400000Y-57500000D02*
X69400000Y-57325000D01*
X67250000Y-55350000D02*
X67250000Y-54187500D01*
X86250000Y-54187500D02*
X86250000Y-55714219D01*
X72200000Y-60300000D02*
X73250000Y-61350000D01*
X67800500Y-55900500D02*
X67250000Y-55350000D01*
X72200000Y-60300000D02*
X69400000Y-57500000D01*
X67800500Y-57475500D02*
X67800500Y-55900500D01*
X73250000Y-61350000D02*
X73250000Y-63062500D01*
%TO.N,/UI_LED_7*%
X52670000Y-72175000D02*
X52672500Y-72172500D01*
X48075000Y-72175000D02*
X52670000Y-72175000D01*
X46230000Y-74020000D02*
X48075000Y-72175000D01*
X46230000Y-76945000D02*
X46230000Y-74020000D01*
X43600000Y-79575000D02*
X46230000Y-76945000D01*
%TO.N,/UI_LED_6*%
X51950000Y-78125000D02*
X50500000Y-79575000D01*
X51950000Y-73895000D02*
X51950000Y-78125000D01*
X52235000Y-73610000D02*
X51950000Y-73895000D01*
%TO.N,/UI_LED_5*%
X52672500Y-76912500D02*
X54760000Y-79000000D01*
X52672500Y-74547500D02*
X52672500Y-76912500D01*
X57400000Y-79575000D02*
X56825000Y-79000000D01*
X54760000Y-79000000D02*
X54910000Y-79000000D01*
X56825000Y-79000000D02*
X54910000Y-79000000D01*
%TO.N,/UI_LED_4*%
X53172500Y-74547500D02*
X53172500Y-76712500D01*
X57700000Y-78500000D02*
X55200000Y-78500000D01*
X58100000Y-78900000D02*
X57700000Y-78500000D01*
X53172500Y-76712500D02*
X54960000Y-78500000D01*
X54960000Y-78500000D02*
X55200000Y-78500000D01*
X63625000Y-78900000D02*
X58100000Y-78900000D01*
X64300000Y-79575000D02*
X63625000Y-78900000D01*
%TO.N,/UI_LED_3*%
X70075000Y-78450000D02*
X58286396Y-78450000D01*
X53672500Y-74547500D02*
X53672500Y-76492500D01*
X57886396Y-78050000D02*
X55540000Y-78050000D01*
X53672500Y-76492500D02*
X55230000Y-78050000D01*
X55230000Y-78050000D02*
X55540000Y-78050000D01*
X71200000Y-79575000D02*
X70075000Y-78450000D01*
X58286396Y-78450000D02*
X57886396Y-78050000D01*
%TO.N,/UI_LED_2*%
X72725000Y-78900000D02*
X77450000Y-78900000D01*
X71825000Y-78000000D02*
X72725000Y-78900000D01*
X54172500Y-76282500D02*
X55490000Y-77600000D01*
X77450000Y-78900000D02*
X78100000Y-79550000D01*
X58472792Y-78000000D02*
X71825000Y-78000000D01*
X55490000Y-77600000D02*
X58072792Y-77600000D01*
X54172500Y-74547500D02*
X54172500Y-76282500D01*
X58072792Y-77600000D02*
X58472792Y-78000000D01*
%TO.N,/UI_LED_1*%
X55680000Y-77100000D02*
X58209188Y-77100000D01*
X78800000Y-78450000D02*
X79275000Y-78925000D01*
X72011396Y-77550000D02*
X72911396Y-78450000D01*
X54672500Y-76092500D02*
X55680000Y-77100000D01*
X58659188Y-77550000D02*
X72011396Y-77550000D01*
X54672500Y-74547500D02*
X54672500Y-76092500D01*
X58209188Y-77100000D02*
X58659188Y-77550000D01*
X72911396Y-78450000D02*
X78800000Y-78450000D01*
X79275000Y-78925000D02*
X84350000Y-78925000D01*
X84350000Y-78925000D02*
X85000000Y-79575000D01*
%TO.N,/UI_LED_0*%
X86225000Y-78925000D02*
X91250000Y-78925000D01*
X55172500Y-75932500D02*
X55890000Y-76650000D01*
X91250000Y-78925000D02*
X91900000Y-79575000D01*
X55890000Y-76650000D02*
X58395584Y-76650000D01*
X55172500Y-74547500D02*
X55172500Y-75932500D01*
X79461396Y-78475000D02*
X85775000Y-78475000D01*
X58395584Y-76650000D02*
X58845584Y-77100000D01*
X73097792Y-78000000D02*
X78986396Y-78000000D01*
X58845584Y-77100000D02*
X72197792Y-77100000D01*
X78986396Y-78000000D02*
X79461396Y-78475000D01*
X72197792Y-77100000D02*
X73097792Y-78000000D01*
X85775000Y-78475000D02*
X86225000Y-78925000D01*
%TO.N,Net-(R63-Pad2)*%
X42550000Y-75615000D02*
X42555000Y-75620000D01*
X42555000Y-77045000D02*
X36410000Y-83190000D01*
X36410000Y-83190000D02*
X36410000Y-93080000D01*
X42550000Y-74315000D02*
X42550000Y-75615000D01*
X42555000Y-75620000D02*
X42555000Y-77045000D01*
D73*
%TO.N,/UI_ENC_B*%
X32950000Y-74205000D02*
X32960000Y-72740000D01*
X32960000Y-72740000D02*
X32950000Y-72730000D01*
D72*
X72414923Y-70758085D02*
X72750000Y-70423008D01*
X72317280Y-70758085D02*
X72414923Y-70758085D01*
X72225865Y-70849500D02*
X72317280Y-70758085D01*
X72750000Y-70423008D02*
X72750000Y-69937500D01*
%TO.N,/~{UI_ULEDSR_OE}*%
X53672500Y-70700500D02*
X53672500Y-69457500D01*
X67800000Y-68300000D02*
X68350000Y-67750000D01*
X53672500Y-69457500D02*
X54830000Y-68300000D01*
X53623000Y-70750000D02*
X53672500Y-70700500D01*
X68350000Y-67750000D02*
X71562500Y-67750000D01*
X53623000Y-70750000D02*
X53672500Y-70799500D01*
X53672500Y-70799500D02*
X53672500Y-72172500D01*
X54830000Y-68300000D02*
X67800000Y-68300000D01*
%TO.N,/UI_PMOD0_0*%
X76250000Y-60750000D02*
X77650000Y-59350000D01*
X76250000Y-63062500D02*
X76250000Y-60750000D01*
%TO.N,/UP5K_CDONE*%
X74375000Y-59225000D02*
X74750000Y-59600000D01*
X31400000Y-52700000D02*
X32350000Y-52700000D01*
X33050000Y-53400000D02*
X32350000Y-52700000D01*
X33050000Y-53700000D02*
X33050000Y-53400000D01*
X74750000Y-59600000D02*
X74750000Y-63062500D01*
%TO.N,/UP5K_CRESET*%
X74050000Y-60050000D02*
X74250000Y-60250000D01*
X32325000Y-53700000D02*
X32325000Y-53525000D01*
D73*
X65150000Y-59900000D02*
X65150000Y-60275000D01*
D72*
X33050000Y-54700000D02*
X33024695Y-54700000D01*
X32325000Y-53525000D02*
X32000000Y-53200000D01*
X74250000Y-60250000D02*
X74250000Y-63062500D01*
X32000000Y-53200000D02*
X31400000Y-53200000D01*
X33024695Y-54700000D02*
X32325000Y-54000305D01*
X32325000Y-54000305D02*
X32325000Y-53700000D01*
%TO.N,/UI_7SEGSR_DIN*%
X68350000Y-57850000D02*
X68350000Y-55700000D01*
X67750000Y-55100000D02*
X67750000Y-54187500D01*
X69050000Y-58350000D02*
X68850000Y-58350000D01*
X69400000Y-58350000D02*
X69050000Y-58350000D01*
X68350000Y-55700000D02*
X67750000Y-55100000D01*
X68850000Y-58350000D02*
X68350000Y-57850000D01*
X72750000Y-63062500D02*
X72750000Y-61700000D01*
X72750000Y-61700000D02*
X69400000Y-58350000D01*
%TO.N,/UI_7SEGSR_CLK*%
X85250000Y-54187500D02*
X85250000Y-54900000D01*
X71562500Y-63750000D02*
X71562500Y-62212500D01*
X66250000Y-54187500D02*
X66250000Y-55850000D01*
X67751500Y-59450000D02*
X66701500Y-58400000D01*
X68800000Y-59450000D02*
X67751500Y-59450000D01*
X66701500Y-56550000D02*
X66701500Y-56401500D01*
X66701500Y-58400000D02*
X66701500Y-56550000D01*
X85250000Y-54900000D02*
X85000000Y-55150000D01*
X66701500Y-56550000D02*
X66701500Y-56301500D01*
X66701500Y-56301500D02*
X66250000Y-55850000D01*
X71562500Y-62212500D02*
X68800000Y-59450000D01*
%TO.N,/UI_7SEGSR_RCLK*%
X69100000Y-58900000D02*
X68051000Y-58900000D01*
X72250000Y-62050000D02*
X69100000Y-58900000D01*
X72250000Y-63062500D02*
X72250000Y-62050000D01*
X68051000Y-58900000D02*
X67251000Y-58100000D01*
X85750000Y-54187500D02*
X85750000Y-55304558D01*
X67251000Y-58100000D02*
X67251000Y-57000000D01*
X66750000Y-55600000D02*
X67251000Y-56101000D01*
X67251000Y-56101000D02*
X67251000Y-57000000D01*
X85750000Y-55304558D02*
X85532093Y-55522465D01*
X66750000Y-54187500D02*
X66750000Y-55600000D01*
%TO.N,/FLASH_MOSI*%
X31400000Y-49700000D02*
X31848008Y-49700000D01*
X32850000Y-50701992D02*
X32850000Y-50900000D01*
X64075000Y-63375000D02*
X57105000Y-56405000D01*
X65650000Y-64025500D02*
X65874500Y-64250000D01*
X33048008Y-50900000D02*
X33000000Y-50851992D01*
X57105000Y-56405000D02*
X57105000Y-54100000D01*
X31848008Y-49700000D02*
X32850000Y-50701992D01*
X64999500Y-63375000D02*
X64075000Y-63375000D01*
X65650000Y-64025500D02*
X64999500Y-63375000D01*
X32850000Y-50900000D02*
X33048008Y-50900000D01*
X65874500Y-64250000D02*
X71562500Y-64250000D01*
%TO.N,/FLASH_MISO*%
X30400000Y-50200000D02*
X30200000Y-50400000D01*
X64775000Y-66275000D02*
X58400000Y-59900000D01*
X71562500Y-65750000D02*
X66673222Y-65750000D01*
X66354143Y-66069079D02*
X66148222Y-66275000D01*
X31400000Y-50200000D02*
X30400000Y-50200000D01*
X55100000Y-59900000D02*
X54600000Y-60400000D01*
X58400000Y-59900000D02*
X55100000Y-59900000D01*
X54600000Y-60400000D02*
X54600000Y-61265000D01*
X66148222Y-66275000D02*
X64775000Y-66275000D01*
X66673222Y-65750000D02*
X66354143Y-66069079D01*
X54600000Y-61265000D02*
X54565000Y-61300000D01*
D73*
%TO.N,/UI_ENC_A*%
X34840000Y-72730000D02*
X34870000Y-72730000D01*
D72*
X71569655Y-70487364D02*
X72119519Y-69937500D01*
D73*
X34855000Y-74205000D02*
X34855000Y-72745000D01*
D72*
X72119519Y-69937500D02*
X72250000Y-69937500D01*
D73*
X34870000Y-72760000D02*
X34850000Y-72740000D01*
X34870000Y-72730000D02*
X34870000Y-72760000D01*
X34855000Y-72745000D02*
X34840000Y-72730000D01*
D72*
%TO.N,/UI_ULEDSR_DIN*%
X68050000Y-67250000D02*
X67500000Y-67800000D01*
X53172500Y-71700000D02*
X53172500Y-72172500D01*
X67500000Y-67800000D02*
X54580000Y-67800000D01*
X54580000Y-67800000D02*
X53073000Y-69307000D01*
X53073000Y-71600500D02*
X53172500Y-71700000D01*
X71562500Y-67250000D02*
X68050000Y-67250000D01*
X53073000Y-69307000D02*
X53073000Y-71600500D01*
%TO.N,/UI_ADC_DI*%
X108490000Y-54805000D02*
X108490000Y-54610000D01*
%TO.N,/UI_ADC_DO*%
X108490000Y-52070000D02*
X107575000Y-52070000D01*
%TO.N,Net-(U3-~{SRCLR})*%
X65750000Y-54187500D02*
X65750000Y-55025000D01*
X65750000Y-55025000D02*
X65150000Y-55625000D01*
X63650000Y-55625000D02*
X63600000Y-55675000D01*
X65150000Y-55625000D02*
X63650000Y-55625000D01*
%TO.N,/CLK_12M*%
X78600000Y-69412500D02*
X78437500Y-69250000D01*
X39100000Y-49448008D02*
X38548008Y-50000000D01*
X39100000Y-49000000D02*
X39100000Y-49448008D01*
X38548008Y-50000000D02*
X38300000Y-50000000D01*
X78600000Y-70100000D02*
X78600000Y-69412500D01*
%TO.N,/UP5K_UART_RX*%
X34613604Y-58750000D02*
X35225000Y-59361396D01*
X35225000Y-59361396D02*
X35225000Y-61375000D01*
X71562500Y-66750000D02*
X67786396Y-66750000D01*
X67786396Y-66750000D02*
X67236396Y-67300000D01*
X35950000Y-62100000D02*
X40950000Y-62100000D01*
X35225000Y-61375000D02*
X35950000Y-62100000D01*
X34600000Y-58750000D02*
X34613604Y-58750000D01*
X67236396Y-67300000D02*
X46150000Y-67300000D01*
X34600000Y-57900000D02*
X34600000Y-58750000D01*
X40950000Y-62100000D02*
X45900000Y-67050000D01*
X46150000Y-67300000D02*
X45900000Y-67050000D01*
%TO.N,/UP5K_UART_TX*%
X35700000Y-59200000D02*
X35700000Y-61200000D01*
X36150000Y-61650000D02*
X41150000Y-61650000D01*
X46294079Y-66794079D02*
X45800000Y-66300000D01*
X41150000Y-61650000D02*
X45800000Y-66300000D01*
X35100000Y-57900000D02*
X35100000Y-58600000D01*
X35700000Y-61200000D02*
X36150000Y-61650000D01*
X67650000Y-66250000D02*
X67105921Y-66794079D01*
X71562500Y-66250000D02*
X67650000Y-66250000D01*
X67105921Y-66794079D02*
X46294079Y-66794079D01*
X35100000Y-58600000D02*
X35700000Y-59200000D01*
%TO.N,/UI_7SEG_SER_CARRY*%
X86750000Y-54187500D02*
X86750000Y-56116125D01*
X64500000Y-53250000D02*
X64150000Y-53600000D01*
X65312500Y-53250000D02*
X64500000Y-53250000D01*
%TO.N,Net-(R6-Pad1)*%
X48000000Y-84325000D02*
X45250000Y-84325000D01*
X48000000Y-89400000D02*
X45800000Y-91600000D01*
X45250000Y-84325000D02*
X43600000Y-82675000D01*
X48000000Y-84325000D02*
X48000000Y-89400000D01*
%TO.N,Net-(R8-Pad1)*%
X54900000Y-84325000D02*
X52150000Y-84325000D01*
X52150000Y-84325000D02*
X50500000Y-82675000D01*
X54900000Y-84325000D02*
X54900000Y-89400000D01*
X54900000Y-89400000D02*
X52700000Y-91600000D01*
%TO.N,Net-(R10-Pad1)*%
X61800000Y-84325000D02*
X61800000Y-89400000D01*
X59050000Y-84325000D02*
X57400000Y-82675000D01*
X61800000Y-84325000D02*
X59050000Y-84325000D01*
X61800000Y-89400000D02*
X59600000Y-91600000D01*
%TO.N,Net-(R12-Pad1)*%
X68700000Y-84325000D02*
X65950000Y-84325000D01*
X68700000Y-84325000D02*
X68700000Y-89400000D01*
X68700000Y-89400000D02*
X66500000Y-91600000D01*
X65950000Y-84325000D02*
X64300000Y-82675000D01*
%TO.N,Net-(R14-Pad1)*%
X75600000Y-84325000D02*
X75600000Y-89400000D01*
X75600000Y-89400000D02*
X73400000Y-91600000D01*
X75600000Y-84325000D02*
X72850000Y-84325000D01*
X72850000Y-84325000D02*
X71200000Y-82675000D01*
%TO.N,Net-(R16-Pad1)*%
X82500000Y-89400000D02*
X80300000Y-91600000D01*
X82500000Y-84325000D02*
X79750000Y-84325000D01*
X82500000Y-84325000D02*
X82500000Y-89400000D01*
X79750000Y-84325000D02*
X78100000Y-82675000D01*
%TO.N,Net-(R18-Pad1)*%
X89400000Y-84325000D02*
X86650000Y-84325000D01*
X89400000Y-89400000D02*
X87200000Y-91600000D01*
X86650000Y-84325000D02*
X85000000Y-82675000D01*
X89400000Y-84325000D02*
X89400000Y-89400000D01*
%TO.N,Net-(R20-Pad1)*%
X93550000Y-84325000D02*
X91900000Y-82675000D01*
X96300000Y-89400000D02*
X94100000Y-91600000D01*
X96300000Y-84325000D02*
X93550000Y-84325000D01*
X96300000Y-84325000D02*
X96300000Y-89400000D01*
%TO.N,/RCLP_0*%
X109275000Y-40640000D02*
X112335000Y-40640000D01*
X109275000Y-40640000D02*
X109275000Y-39170000D01*
X109275000Y-39170000D02*
X109225000Y-39120000D01*
%TO.N,/RCLP_1*%
X109275000Y-42170000D02*
X109500000Y-41945000D01*
X109275000Y-43645000D02*
X109225000Y-43695000D01*
X109275000Y-42170000D02*
X109275000Y-43645000D01*
X113570000Y-41945000D02*
X114875000Y-40640000D01*
X109500000Y-41945000D02*
X113570000Y-41945000D01*
%TO.N,Net-(J1-Pin_11)*%
X109510000Y-53340000D02*
X112335000Y-53340000D01*
%TO.N,Net-(J1-Pin_12)*%
X109510000Y-54610000D02*
X113605000Y-54610000D01*
X113605000Y-54610000D02*
X114875000Y-53340000D01*
%TO.N,Net-(J1-Pin_13)*%
X109510000Y-50800000D02*
X112335000Y-50800000D01*
%TO.N,Net-(J1-Pin_14)*%
X109510000Y-52070000D02*
X113605000Y-52070000D01*
X113605000Y-52070000D02*
X114875000Y-50800000D01*
D71*
%TO.N,Net-(D11-K)*%
X36600000Y-66500000D02*
X37800000Y-66500000D01*
X37800000Y-66500000D02*
X38050000Y-66750000D01*
%TO.N,Net-(D12-K)*%
X36650000Y-64200000D02*
X37800000Y-64200000D01*
X37800000Y-64200000D02*
X38050000Y-63950000D01*
D72*
%TO.N,Net-(U7-BCBUS4)*%
X34495800Y-59656794D02*
X33750000Y-60402594D01*
X39300000Y-54200000D02*
X39150000Y-54050000D01*
X33750000Y-65300000D02*
X34950000Y-66500000D01*
X33750000Y-60402594D02*
X33750000Y-65300000D01*
X40300000Y-54200000D02*
X39300000Y-54200000D01*
%TO.N,Net-(U7-BCBUS3)*%
X34500895Y-63700895D02*
X35000000Y-64200000D01*
X34500895Y-60676297D02*
X34500895Y-61950895D01*
X40300000Y-54700000D02*
X39525305Y-54700000D01*
X39225305Y-55000000D02*
X39150000Y-55000000D01*
X39525305Y-54700000D02*
X39225305Y-55000000D01*
X34500895Y-60676297D02*
X34500895Y-63700895D01*
D73*
%TO.N,Net-(U14-IO2)*%
X55825000Y-61310000D02*
X55835000Y-61300000D01*
X55825000Y-63200000D02*
X55825000Y-61310000D01*
D72*
%TO.N,Net-(U14-IO3)*%
X54565000Y-54100000D02*
X54565000Y-52240000D01*
X54565000Y-52240000D02*
X54525000Y-52200000D01*
%TO.N,Net-(U2-OE)*%
X49500000Y-60600000D02*
X49875000Y-60225000D01*
X49500000Y-61200000D02*
X49500000Y-60600000D01*
X49875000Y-60225000D02*
X50750000Y-60225000D01*
D73*
%TO.N,Net-(U2-A)*%
X48850000Y-61200000D02*
X48850000Y-59450000D01*
D72*
%TO.N,Net-(U3-QD)*%
X67750000Y-51812500D02*
X67750000Y-49950000D01*
X67750000Y-49950000D02*
X68800000Y-48900000D01*
X68800000Y-48900000D02*
X70400000Y-48900000D01*
%TO.N,Net-(U3-QH)*%
X56300000Y-50250000D02*
X51025000Y-50250000D01*
X64426041Y-49600000D02*
X56950000Y-49600000D01*
X65750000Y-51812500D02*
X65750000Y-50923959D01*
X56950000Y-49600000D02*
X56300000Y-50250000D01*
X65750000Y-50923959D02*
X64426041Y-49600000D01*
%TO.N,Net-(U3-QC)*%
X68250000Y-51812500D02*
X68250000Y-50325000D01*
X68925000Y-49650000D02*
X73375000Y-49650000D01*
X73375000Y-49650000D02*
X74175000Y-48850000D01*
X68250000Y-50325000D02*
X68925000Y-49650000D01*
%TO.N,Net-(U3-QG)*%
X64800000Y-49000000D02*
X54125000Y-49000000D01*
X66250000Y-50450000D02*
X64800000Y-49000000D01*
X66250000Y-51812500D02*
X66250000Y-50450000D01*
%TO.N,Net-(U3-QB)*%
X68900000Y-51250000D02*
X69750000Y-50400000D01*
X68900000Y-52537500D02*
X68900000Y-51250000D01*
X69750000Y-50400000D02*
X74175000Y-50400000D01*
X68687500Y-52750000D02*
X68900000Y-52537500D01*
%TO.N,Net-(U3-QF)*%
X64825000Y-48125000D02*
X61000000Y-48125000D01*
X66750000Y-50050000D02*
X64825000Y-48125000D01*
X66750000Y-51812500D02*
X66750000Y-50050000D01*
%TO.N,Net-(U3-QA)*%
X72912500Y-54187500D02*
X74175000Y-52925000D01*
X68250000Y-54187500D02*
X72912500Y-54187500D01*
X74175000Y-52925000D02*
X74175000Y-51950000D01*
%TO.N,Net-(U3-QE)*%
X67250000Y-51812500D02*
X67250000Y-49225000D01*
X67250000Y-49225000D02*
X66150000Y-48125000D01*
%TO.N,Net-(J1-Pin_15)*%
X109510000Y-48260000D02*
X112335000Y-48260000D01*
%TO.N,Net-(J1-Pin_16)*%
X109510000Y-49530000D02*
X113605000Y-49530000D01*
X113605000Y-49530000D02*
X114875000Y-48260000D01*
%TO.N,Net-(J1-Pin_17)*%
X109510000Y-45720000D02*
X112335000Y-45720000D01*
%TO.N,Net-(J1-Pin_18)*%
X113605000Y-46990000D02*
X114875000Y-45720000D01*
X109510000Y-46990000D02*
X113605000Y-46990000D01*
%TO.N,/SW_SH{slash}~{LD}*%
X80375000Y-72575000D02*
X80175000Y-72375000D01*
X79750000Y-72800000D02*
X80175000Y-72375000D01*
X77400402Y-71925000D02*
X76750000Y-71274598D01*
X82350000Y-72800000D02*
X80600000Y-72800000D01*
X79750000Y-72825000D02*
X79750000Y-72800000D01*
X76750000Y-71274598D02*
X76750000Y-69937500D01*
X79725000Y-71925000D02*
X77400402Y-71925000D01*
X80125000Y-72825000D02*
X80375000Y-72575000D01*
X80175000Y-72375000D02*
X79725000Y-71925000D01*
X80600000Y-72800000D02*
X80375000Y-72575000D01*
X79750000Y-72825000D02*
X80125000Y-72825000D01*
%TO.N,Net-(U9-DS)*%
X89625000Y-76700000D02*
X90400000Y-77475000D01*
X88075000Y-76700000D02*
X89625000Y-76700000D01*
%TO.N,/UI_ENC_SW*%
X42580000Y-70400000D02*
X42580000Y-73265000D01*
X42580000Y-73265000D02*
X42550000Y-73295000D01*
X73250000Y-70559404D02*
X73250000Y-69937500D01*
X72950133Y-71070698D02*
X72950133Y-70859271D01*
X72950133Y-70859271D02*
X73250000Y-70559404D01*
D73*
%TO.N,Net-(R75-Pad2)*%
X31410000Y-78580000D02*
X31410000Y-75865000D01*
X31400000Y-75855000D02*
X32950000Y-75855000D01*
X31410000Y-75865000D02*
X31400000Y-75855000D01*
%TO.N,Net-(R77-Pad2)*%
X36410000Y-78580000D02*
X36410000Y-75860000D01*
X36410000Y-75860000D02*
X36405000Y-75855000D01*
X36405000Y-75855000D02*
X34855000Y-75855000D01*
D72*
%TO.N,Net-(R79-Pad2)*%
X109575000Y-89000000D02*
X108580000Y-89000000D01*
X100970624Y-71860624D02*
X106835000Y-77725000D01*
X108010000Y-81850000D02*
X107550000Y-81390000D01*
X107550000Y-78440000D02*
X106835000Y-77725000D01*
X108010000Y-88430000D02*
X108010000Y-81850000D01*
X108580000Y-89000000D02*
X108010000Y-88430000D01*
X107550000Y-81390000D02*
X107550000Y-78440000D01*
X109575000Y-89000000D02*
X115425000Y-89000000D01*
X115425000Y-89000000D02*
X115425000Y-91040000D01*
%TO.N,/UI_DPAD_C*%
X99675000Y-70575000D02*
X100250000Y-71150000D01*
X80748008Y-70575000D02*
X99675000Y-70575000D01*
X78923008Y-68750000D02*
X80748008Y-70575000D01*
X78437500Y-68750000D02*
X78923008Y-68750000D01*
%TO.N,/UI_ULEDSR_RCLK*%
X70650000Y-68750000D02*
X71562500Y-68750000D01*
X69500000Y-69900000D02*
X70650000Y-68750000D01*
X55050000Y-68810000D02*
X54715000Y-69145000D01*
X54715000Y-69145000D02*
X54172500Y-69687500D01*
X54172500Y-69687500D02*
X54172500Y-70080000D01*
X54172500Y-70080000D02*
X54172500Y-72172500D01*
X64880000Y-69130000D02*
X64560000Y-68810000D01*
X64560000Y-68810000D02*
X55050000Y-68810000D01*
%TO.N,/SERIAL_SW_D*%
X75750000Y-69937500D02*
X75750000Y-72900000D01*
X75400000Y-73250000D02*
X75430000Y-73220000D01*
X86100000Y-77350000D02*
X88075000Y-77350000D01*
X84750000Y-76000000D02*
X86100000Y-77350000D01*
X75750000Y-72900000D02*
X75400000Y-73250000D01*
X84750000Y-72624500D02*
X84750000Y-76000000D01*
X84200000Y-72074500D02*
X84750000Y-72624500D01*
%TO.N,/SW_SH_CLKEN*%
X75070000Y-72560000D02*
X75070000Y-72554598D01*
X88075000Y-73450000D02*
X87050000Y-73450000D01*
X87050000Y-73450000D02*
X86750000Y-73150000D01*
X75250000Y-72374598D02*
X75250000Y-69937500D01*
X75027617Y-72596981D02*
X75064598Y-72560000D01*
X75064598Y-72560000D02*
X75070000Y-72560000D01*
X75070000Y-72554598D02*
X75250000Y-72374598D01*
%TO.N,/SW_SH_CLK*%
X73750000Y-71150000D02*
X73750000Y-69937500D01*
X54910000Y-69660000D02*
X55260000Y-69310000D01*
X61390000Y-69310000D02*
X61950000Y-69310000D01*
X54672500Y-72172500D02*
X54672500Y-69897500D01*
X61390000Y-69310000D02*
X63400000Y-69310000D01*
X63400000Y-69310000D02*
X63760000Y-69670000D01*
X73080825Y-71819175D02*
X73750000Y-71150000D01*
X72989337Y-71819175D02*
X73080825Y-71819175D01*
X54672500Y-69897500D02*
X54910000Y-69660000D01*
X55780000Y-69310000D02*
X61390000Y-69310000D01*
X55260000Y-69310000D02*
X55780000Y-69310000D01*
X80400000Y-73450000D02*
X82350000Y-73450000D01*
%TD*%
%TA.AperFunction,Conductor*%
%TO.N,+5V*%
G36*
X30559804Y-28019685D02*
G01*
X30605559Y-28072489D01*
X30614225Y-28099032D01*
X30614924Y-28102434D01*
X30675837Y-28296579D01*
X30675844Y-28296594D01*
X30774589Y-28474499D01*
X30774592Y-28474504D01*
X30907132Y-28628893D01*
X30907134Y-28628895D01*
X31068037Y-28753445D01*
X31068038Y-28753445D01*
X31068042Y-28753448D01*
X31250729Y-28843060D01*
X31447715Y-28894063D01*
X31650936Y-28904369D01*
X31852071Y-28873556D01*
X32042887Y-28802886D01*
X32215571Y-28695252D01*
X32363053Y-28555059D01*
X32479295Y-28388049D01*
X32559540Y-28201058D01*
X32580505Y-28099038D01*
X32613282Y-28037335D01*
X32674215Y-28003145D01*
X32701967Y-28000000D01*
X39132765Y-28000000D01*
X39199804Y-28019685D01*
X39245559Y-28072489D01*
X39254225Y-28099032D01*
X39254924Y-28102434D01*
X39315837Y-28296579D01*
X39315844Y-28296594D01*
X39414589Y-28474499D01*
X39414592Y-28474504D01*
X39547132Y-28628893D01*
X39547134Y-28628895D01*
X39708037Y-28753445D01*
X39708038Y-28753445D01*
X39708042Y-28753448D01*
X39890729Y-28843060D01*
X40087715Y-28894063D01*
X40290936Y-28904369D01*
X40492071Y-28873556D01*
X40682887Y-28802886D01*
X40855571Y-28695252D01*
X41003053Y-28555059D01*
X41119295Y-28388049D01*
X41199540Y-28201058D01*
X41220505Y-28099038D01*
X41253282Y-28037335D01*
X41314215Y-28003145D01*
X41341967Y-28000000D01*
X42948638Y-28000000D01*
X43015677Y-28019685D01*
X43036319Y-28036319D01*
X47213681Y-32213681D01*
X47247166Y-32275004D01*
X47250000Y-32301362D01*
X47250000Y-35876000D01*
X47230315Y-35943039D01*
X47177511Y-35988794D01*
X47126000Y-36000000D01*
X45124000Y-36000000D01*
X45056961Y-35980315D01*
X45011206Y-35927511D01*
X45000000Y-35876000D01*
X45000000Y-33000000D01*
X42500000Y-30500000D01*
X41250000Y-30500000D01*
X41074739Y-30500000D01*
X41007700Y-30480315D01*
X40980653Y-30456770D01*
X40932867Y-30401105D01*
X40932865Y-30401104D01*
X40771962Y-30276554D01*
X40771959Y-30276553D01*
X40771958Y-30276552D01*
X40589271Y-30186940D01*
X40392285Y-30135937D01*
X40392287Y-30135937D01*
X40256804Y-30129066D01*
X40189064Y-30125631D01*
X40189063Y-30125631D01*
X40189061Y-30125631D01*
X39987936Y-30156442D01*
X39987924Y-30156445D01*
X39797118Y-30227111D01*
X39797111Y-30227115D01*
X39624432Y-30334745D01*
X39624427Y-30334749D01*
X39486485Y-30465874D01*
X39424334Y-30497795D01*
X39401053Y-30500000D01*
X36210723Y-30500000D01*
X36150991Y-30484665D01*
X36146188Y-30482024D01*
X36143030Y-30480288D01*
X36126763Y-30469604D01*
X36110936Y-30457327D01*
X36110935Y-30457326D01*
X36110933Y-30457325D01*
X36068168Y-30438818D01*
X36062922Y-30436248D01*
X36022093Y-30413803D01*
X36022092Y-30413802D01*
X36002693Y-30408822D01*
X35984281Y-30402518D01*
X35965898Y-30394562D01*
X35965892Y-30394560D01*
X35919874Y-30387272D01*
X35914152Y-30386087D01*
X35869021Y-30374500D01*
X35869019Y-30374500D01*
X35848984Y-30374500D01*
X35829586Y-30372973D01*
X35822162Y-30371797D01*
X35809805Y-30369840D01*
X35809804Y-30369840D01*
X35763416Y-30374225D01*
X35757578Y-30374500D01*
X35632738Y-30374500D01*
X35617121Y-30372776D01*
X35617094Y-30373062D01*
X35609332Y-30372327D01*
X35540204Y-30374500D01*
X35510650Y-30374500D01*
X35509929Y-30374590D01*
X35503757Y-30375369D01*
X35497945Y-30375826D01*
X35451373Y-30377290D01*
X35451372Y-30377290D01*
X35432129Y-30382881D01*
X35413079Y-30386825D01*
X35393211Y-30389334D01*
X35393209Y-30389335D01*
X35349884Y-30406488D01*
X35344357Y-30408380D01*
X35299610Y-30421381D01*
X35299609Y-30421382D01*
X35282367Y-30431579D01*
X35264899Y-30440137D01*
X35246269Y-30447513D01*
X35246266Y-30447515D01*
X35208577Y-30474897D01*
X35203697Y-30478103D01*
X35195877Y-30482728D01*
X35132749Y-30500000D01*
X32434739Y-30500000D01*
X32367700Y-30480315D01*
X32340653Y-30456770D01*
X32292867Y-30401105D01*
X32292865Y-30401104D01*
X32131962Y-30276554D01*
X32131959Y-30276553D01*
X32131958Y-30276552D01*
X31949271Y-30186940D01*
X31752285Y-30135937D01*
X31752287Y-30135937D01*
X31616804Y-30129066D01*
X31549064Y-30125631D01*
X31549063Y-30125631D01*
X31549061Y-30125631D01*
X31347936Y-30156442D01*
X31347924Y-30156445D01*
X31157118Y-30227111D01*
X31157111Y-30227115D01*
X30984432Y-30334745D01*
X30984427Y-30334749D01*
X30846485Y-30465874D01*
X30784334Y-30497795D01*
X30761053Y-30500000D01*
X28374000Y-30500000D01*
X28306961Y-30480315D01*
X28261206Y-30427511D01*
X28250000Y-30376000D01*
X28250000Y-28801361D01*
X28269685Y-28734322D01*
X28286314Y-28713685D01*
X28963681Y-28036318D01*
X29025004Y-28002834D01*
X29051362Y-28000000D01*
X30492765Y-28000000D01*
X30559804Y-28019685D01*
G37*
%TD.AperFunction*%
%TD*%
M02*
