%TF.GenerationSoftware,KiCad,Pcbnew,7.0.7*%
%TF.CreationDate,2024-01-22T13:38:32-08:00*%
%TF.ProjectId,ProgrammaGull_Sandpiper,50726f67-7261-46d6-9d61-47756c6c5f53,rev?*%
%TF.SameCoordinates,Original*%
%TF.FileFunction,Legend,Bot*%
%TF.FilePolarity,Positive*%
%FSLAX46Y46*%
G04 Gerber Fmt 4.6, Leading zero omitted, Abs format (unit mm)*
G04 Created by KiCad (PCBNEW 7.0.7) date 2024-01-22 13:38:32*
%MOMM*%
%LPD*%
G01*
G04 APERTURE LIST*
%ADD10C,0.300000*%
G04 APERTURE END LIST*
D10*
X121516917Y-71435828D02*
X121874060Y-71435828D01*
X121874060Y-71435828D02*
X121874060Y-69292971D01*
X121874060Y-69292971D02*
X121516917Y-69292971D01*
X119945489Y-71435828D02*
X119588346Y-71435828D01*
X119588346Y-71435828D02*
X119588346Y-69292971D01*
X119588346Y-69292971D02*
X119945489Y-69292971D01*
X116945489Y-69435828D02*
X117659775Y-69435828D01*
X117659775Y-69435828D02*
X117731203Y-70150114D01*
X117731203Y-70150114D02*
X117659775Y-70078685D01*
X117659775Y-70078685D02*
X117516918Y-70007257D01*
X117516918Y-70007257D02*
X117159775Y-70007257D01*
X117159775Y-70007257D02*
X117016918Y-70078685D01*
X117016918Y-70078685D02*
X116945489Y-70150114D01*
X116945489Y-70150114D02*
X116874060Y-70292971D01*
X116874060Y-70292971D02*
X116874060Y-70650114D01*
X116874060Y-70650114D02*
X116945489Y-70792971D01*
X116945489Y-70792971D02*
X117016918Y-70864400D01*
X117016918Y-70864400D02*
X117159775Y-70935828D01*
X117159775Y-70935828D02*
X117516918Y-70935828D01*
X117516918Y-70935828D02*
X117659775Y-70864400D01*
X117659775Y-70864400D02*
X117731203Y-70792971D01*
X115945489Y-69435828D02*
X115802632Y-69435828D01*
X115802632Y-69435828D02*
X115659775Y-69507257D01*
X115659775Y-69507257D02*
X115588347Y-69578685D01*
X115588347Y-69578685D02*
X115516918Y-69721542D01*
X115516918Y-69721542D02*
X115445489Y-70007257D01*
X115445489Y-70007257D02*
X115445489Y-70364400D01*
X115445489Y-70364400D02*
X115516918Y-70650114D01*
X115516918Y-70650114D02*
X115588347Y-70792971D01*
X115588347Y-70792971D02*
X115659775Y-70864400D01*
X115659775Y-70864400D02*
X115802632Y-70935828D01*
X115802632Y-70935828D02*
X115945489Y-70935828D01*
X115945489Y-70935828D02*
X116088347Y-70864400D01*
X116088347Y-70864400D02*
X116159775Y-70792971D01*
X116159775Y-70792971D02*
X116231204Y-70650114D01*
X116231204Y-70650114D02*
X116302632Y-70364400D01*
X116302632Y-70364400D02*
X116302632Y-70007257D01*
X116302632Y-70007257D02*
X116231204Y-69721542D01*
X116231204Y-69721542D02*
X116159775Y-69578685D01*
X116159775Y-69578685D02*
X116088347Y-69507257D01*
X116088347Y-69507257D02*
X115945489Y-69435828D01*
X114516918Y-69435828D02*
X114374061Y-69435828D01*
X114374061Y-69435828D02*
X114231204Y-69507257D01*
X114231204Y-69507257D02*
X114159776Y-69578685D01*
X114159776Y-69578685D02*
X114088347Y-69721542D01*
X114088347Y-69721542D02*
X114016918Y-70007257D01*
X114016918Y-70007257D02*
X114016918Y-70364400D01*
X114016918Y-70364400D02*
X114088347Y-70650114D01*
X114088347Y-70650114D02*
X114159776Y-70792971D01*
X114159776Y-70792971D02*
X114231204Y-70864400D01*
X114231204Y-70864400D02*
X114374061Y-70935828D01*
X114374061Y-70935828D02*
X114516918Y-70935828D01*
X114516918Y-70935828D02*
X114659776Y-70864400D01*
X114659776Y-70864400D02*
X114731204Y-70792971D01*
X114731204Y-70792971D02*
X114802633Y-70650114D01*
X114802633Y-70650114D02*
X114874061Y-70364400D01*
X114874061Y-70364400D02*
X114874061Y-70007257D01*
X114874061Y-70007257D02*
X114802633Y-69721542D01*
X114802633Y-69721542D02*
X114731204Y-69578685D01*
X114731204Y-69578685D02*
X114659776Y-69507257D01*
X114659776Y-69507257D02*
X114516918Y-69435828D01*
X113374062Y-70935828D02*
X113374062Y-69435828D01*
X113231205Y-70364400D02*
X112802633Y-70935828D01*
X112802633Y-69935828D02*
X113374062Y-70507257D01*
X112231204Y-70864400D02*
X112088347Y-70935828D01*
X112088347Y-70935828D02*
X111802633Y-70935828D01*
X111802633Y-70935828D02*
X111659776Y-70864400D01*
X111659776Y-70864400D02*
X111588347Y-70721542D01*
X111588347Y-70721542D02*
X111588347Y-70650114D01*
X111588347Y-70650114D02*
X111659776Y-70507257D01*
X111659776Y-70507257D02*
X111802633Y-70435828D01*
X111802633Y-70435828D02*
X112016919Y-70435828D01*
X112016919Y-70435828D02*
X112159776Y-70364400D01*
X112159776Y-70364400D02*
X112231204Y-70221542D01*
X112231204Y-70221542D02*
X112231204Y-70150114D01*
X112231204Y-70150114D02*
X112159776Y-70007257D01*
X112159776Y-70007257D02*
X112016919Y-69935828D01*
X112016919Y-69935828D02*
X111802633Y-69935828D01*
X111802633Y-69935828D02*
X111659776Y-70007257D01*
X110945490Y-69935828D02*
X110945490Y-71435828D01*
X110945490Y-70007257D02*
X110802633Y-69935828D01*
X110802633Y-69935828D02*
X110516918Y-69935828D01*
X110516918Y-69935828D02*
X110374061Y-70007257D01*
X110374061Y-70007257D02*
X110302633Y-70078685D01*
X110302633Y-70078685D02*
X110231204Y-70221542D01*
X110231204Y-70221542D02*
X110231204Y-70650114D01*
X110231204Y-70650114D02*
X110302633Y-70792971D01*
X110302633Y-70792971D02*
X110374061Y-70864400D01*
X110374061Y-70864400D02*
X110516918Y-70935828D01*
X110516918Y-70935828D02*
X110802633Y-70935828D01*
X110802633Y-70935828D02*
X110945490Y-70864400D01*
X109659775Y-70864400D02*
X109516918Y-70935828D01*
X109516918Y-70935828D02*
X109231204Y-70935828D01*
X109231204Y-70935828D02*
X109088347Y-70864400D01*
X109088347Y-70864400D02*
X109016918Y-70721542D01*
X109016918Y-70721542D02*
X109016918Y-70650114D01*
X109016918Y-70650114D02*
X109088347Y-70507257D01*
X109088347Y-70507257D02*
X109231204Y-70435828D01*
X109231204Y-70435828D02*
X109445490Y-70435828D01*
X109445490Y-70435828D02*
X109588347Y-70364400D01*
X109588347Y-70364400D02*
X109659775Y-70221542D01*
X109659775Y-70221542D02*
X109659775Y-70150114D01*
X109659775Y-70150114D02*
X109588347Y-70007257D01*
X109588347Y-70007257D02*
X109445490Y-69935828D01*
X109445490Y-69935828D02*
X109231204Y-69935828D01*
X109231204Y-69935828D02*
X109088347Y-70007257D01*
X121516917Y-73850828D02*
X121874060Y-73850828D01*
X121874060Y-73850828D02*
X121874060Y-71707971D01*
X121874060Y-71707971D02*
X121516917Y-71707971D01*
X119945489Y-73850828D02*
X119588346Y-73850828D01*
X119588346Y-73850828D02*
X119588346Y-71707971D01*
X119588346Y-71707971D02*
X119945489Y-71707971D01*
X116874060Y-73350828D02*
X117731203Y-73350828D01*
X117302632Y-73350828D02*
X117302632Y-71850828D01*
X117302632Y-71850828D02*
X117445489Y-72065114D01*
X117445489Y-72065114D02*
X117588346Y-72207971D01*
X117588346Y-72207971D02*
X117731203Y-72279400D01*
X116231204Y-73350828D02*
X116231204Y-71850828D01*
X116231204Y-71850828D02*
X115731204Y-72922257D01*
X115731204Y-72922257D02*
X115231204Y-71850828D01*
X115231204Y-71850828D02*
X115231204Y-73350828D01*
X114588346Y-73279400D02*
X114374061Y-73350828D01*
X114374061Y-73350828D02*
X114016918Y-73350828D01*
X114016918Y-73350828D02*
X113874061Y-73279400D01*
X113874061Y-73279400D02*
X113802632Y-73207971D01*
X113802632Y-73207971D02*
X113731203Y-73065114D01*
X113731203Y-73065114D02*
X113731203Y-72922257D01*
X113731203Y-72922257D02*
X113802632Y-72779400D01*
X113802632Y-72779400D02*
X113874061Y-72707971D01*
X113874061Y-72707971D02*
X114016918Y-72636542D01*
X114016918Y-72636542D02*
X114302632Y-72565114D01*
X114302632Y-72565114D02*
X114445489Y-72493685D01*
X114445489Y-72493685D02*
X114516918Y-72422257D01*
X114516918Y-72422257D02*
X114588346Y-72279400D01*
X114588346Y-72279400D02*
X114588346Y-72136542D01*
X114588346Y-72136542D02*
X114516918Y-71993685D01*
X114516918Y-71993685D02*
X114445489Y-71922257D01*
X114445489Y-71922257D02*
X114302632Y-71850828D01*
X114302632Y-71850828D02*
X113945489Y-71850828D01*
X113945489Y-71850828D02*
X113731203Y-71922257D01*
X113088347Y-73350828D02*
X113088347Y-71850828D01*
X113088347Y-71850828D02*
X112516918Y-71850828D01*
X112516918Y-71850828D02*
X112374061Y-71922257D01*
X112374061Y-71922257D02*
X112302632Y-71993685D01*
X112302632Y-71993685D02*
X112231204Y-72136542D01*
X112231204Y-72136542D02*
X112231204Y-72350828D01*
X112231204Y-72350828D02*
X112302632Y-72493685D01*
X112302632Y-72493685D02*
X112374061Y-72565114D01*
X112374061Y-72565114D02*
X112516918Y-72636542D01*
X112516918Y-72636542D02*
X113088347Y-72636542D01*
X111659775Y-73279400D02*
X111445490Y-73350828D01*
X111445490Y-73350828D02*
X111088347Y-73350828D01*
X111088347Y-73350828D02*
X110945490Y-73279400D01*
X110945490Y-73279400D02*
X110874061Y-73207971D01*
X110874061Y-73207971D02*
X110802632Y-73065114D01*
X110802632Y-73065114D02*
X110802632Y-72922257D01*
X110802632Y-72922257D02*
X110874061Y-72779400D01*
X110874061Y-72779400D02*
X110945490Y-72707971D01*
X110945490Y-72707971D02*
X111088347Y-72636542D01*
X111088347Y-72636542D02*
X111374061Y-72565114D01*
X111374061Y-72565114D02*
X111516918Y-72493685D01*
X111516918Y-72493685D02*
X111588347Y-72422257D01*
X111588347Y-72422257D02*
X111659775Y-72279400D01*
X111659775Y-72279400D02*
X111659775Y-72136542D01*
X111659775Y-72136542D02*
X111588347Y-71993685D01*
X111588347Y-71993685D02*
X111516918Y-71922257D01*
X111516918Y-71922257D02*
X111374061Y-71850828D01*
X111374061Y-71850828D02*
X111016918Y-71850828D01*
X111016918Y-71850828D02*
X110802632Y-71922257D01*
X102278346Y-61707257D02*
X102278346Y-58707257D01*
X102278346Y-58707257D02*
X101135489Y-58707257D01*
X101135489Y-58707257D02*
X100849774Y-58850114D01*
X100849774Y-58850114D02*
X100706917Y-58992971D01*
X100706917Y-58992971D02*
X100564060Y-59278685D01*
X100564060Y-59278685D02*
X100564060Y-59707257D01*
X100564060Y-59707257D02*
X100706917Y-59992971D01*
X100706917Y-59992971D02*
X100849774Y-60135828D01*
X100849774Y-60135828D02*
X101135489Y-60278685D01*
X101135489Y-60278685D02*
X102278346Y-60278685D01*
X97706917Y-58850114D02*
X97992632Y-58707257D01*
X97992632Y-58707257D02*
X98421203Y-58707257D01*
X98421203Y-58707257D02*
X98849774Y-58850114D01*
X98849774Y-58850114D02*
X99135489Y-59135828D01*
X99135489Y-59135828D02*
X99278346Y-59421542D01*
X99278346Y-59421542D02*
X99421203Y-59992971D01*
X99421203Y-59992971D02*
X99421203Y-60421542D01*
X99421203Y-60421542D02*
X99278346Y-60992971D01*
X99278346Y-60992971D02*
X99135489Y-61278685D01*
X99135489Y-61278685D02*
X98849774Y-61564400D01*
X98849774Y-61564400D02*
X98421203Y-61707257D01*
X98421203Y-61707257D02*
X98135489Y-61707257D01*
X98135489Y-61707257D02*
X97706917Y-61564400D01*
X97706917Y-61564400D02*
X97564060Y-61421542D01*
X97564060Y-61421542D02*
X97564060Y-60421542D01*
X97564060Y-60421542D02*
X98135489Y-60421542D01*
X94849774Y-61707257D02*
X96278346Y-61707257D01*
X96278346Y-61707257D02*
X96278346Y-58707257D01*
X91706918Y-61564400D02*
X91278347Y-61707257D01*
X91278347Y-61707257D02*
X90564061Y-61707257D01*
X90564061Y-61707257D02*
X90278347Y-61564400D01*
X90278347Y-61564400D02*
X90135489Y-61421542D01*
X90135489Y-61421542D02*
X89992632Y-61135828D01*
X89992632Y-61135828D02*
X89992632Y-60850114D01*
X89992632Y-60850114D02*
X90135489Y-60564400D01*
X90135489Y-60564400D02*
X90278347Y-60421542D01*
X90278347Y-60421542D02*
X90564061Y-60278685D01*
X90564061Y-60278685D02*
X91135489Y-60135828D01*
X91135489Y-60135828D02*
X91421204Y-59992971D01*
X91421204Y-59992971D02*
X91564061Y-59850114D01*
X91564061Y-59850114D02*
X91706918Y-59564400D01*
X91706918Y-59564400D02*
X91706918Y-59278685D01*
X91706918Y-59278685D02*
X91564061Y-58992971D01*
X91564061Y-58992971D02*
X91421204Y-58850114D01*
X91421204Y-58850114D02*
X91135489Y-58707257D01*
X91135489Y-58707257D02*
X90421204Y-58707257D01*
X90421204Y-58707257D02*
X89992632Y-58850114D01*
X87421204Y-61707257D02*
X87421204Y-60135828D01*
X87421204Y-60135828D02*
X87564061Y-59850114D01*
X87564061Y-59850114D02*
X87849775Y-59707257D01*
X87849775Y-59707257D02*
X88421204Y-59707257D01*
X88421204Y-59707257D02*
X88706918Y-59850114D01*
X87421204Y-61564400D02*
X87706918Y-61707257D01*
X87706918Y-61707257D02*
X88421204Y-61707257D01*
X88421204Y-61707257D02*
X88706918Y-61564400D01*
X88706918Y-61564400D02*
X88849775Y-61278685D01*
X88849775Y-61278685D02*
X88849775Y-60992971D01*
X88849775Y-60992971D02*
X88706918Y-60707257D01*
X88706918Y-60707257D02*
X88421204Y-60564400D01*
X88421204Y-60564400D02*
X87706918Y-60564400D01*
X87706918Y-60564400D02*
X87421204Y-60421542D01*
X85992632Y-59707257D02*
X85992632Y-61707257D01*
X85992632Y-59992971D02*
X85849775Y-59850114D01*
X85849775Y-59850114D02*
X85564060Y-59707257D01*
X85564060Y-59707257D02*
X85135489Y-59707257D01*
X85135489Y-59707257D02*
X84849775Y-59850114D01*
X84849775Y-59850114D02*
X84706918Y-60135828D01*
X84706918Y-60135828D02*
X84706918Y-61707257D01*
X81992632Y-61707257D02*
X81992632Y-58707257D01*
X81992632Y-61564400D02*
X82278346Y-61707257D01*
X82278346Y-61707257D02*
X82849774Y-61707257D01*
X82849774Y-61707257D02*
X83135489Y-61564400D01*
X83135489Y-61564400D02*
X83278346Y-61421542D01*
X83278346Y-61421542D02*
X83421203Y-61135828D01*
X83421203Y-61135828D02*
X83421203Y-60278685D01*
X83421203Y-60278685D02*
X83278346Y-59992971D01*
X83278346Y-59992971D02*
X83135489Y-59850114D01*
X83135489Y-59850114D02*
X82849774Y-59707257D01*
X82849774Y-59707257D02*
X82278346Y-59707257D01*
X82278346Y-59707257D02*
X81992632Y-59850114D01*
X80564060Y-59707257D02*
X80564060Y-62707257D01*
X80564060Y-59850114D02*
X80278346Y-59707257D01*
X80278346Y-59707257D02*
X79706917Y-59707257D01*
X79706917Y-59707257D02*
X79421203Y-59850114D01*
X79421203Y-59850114D02*
X79278346Y-59992971D01*
X79278346Y-59992971D02*
X79135488Y-60278685D01*
X79135488Y-60278685D02*
X79135488Y-61135828D01*
X79135488Y-61135828D02*
X79278346Y-61421542D01*
X79278346Y-61421542D02*
X79421203Y-61564400D01*
X79421203Y-61564400D02*
X79706917Y-61707257D01*
X79706917Y-61707257D02*
X80278346Y-61707257D01*
X80278346Y-61707257D02*
X80564060Y-61564400D01*
X77849774Y-61707257D02*
X77849774Y-59707257D01*
X77849774Y-58707257D02*
X77992631Y-58850114D01*
X77992631Y-58850114D02*
X77849774Y-58992971D01*
X77849774Y-58992971D02*
X77706917Y-58850114D01*
X77706917Y-58850114D02*
X77849774Y-58707257D01*
X77849774Y-58707257D02*
X77849774Y-58992971D01*
X76421203Y-59707257D02*
X76421203Y-62707257D01*
X76421203Y-59850114D02*
X76135489Y-59707257D01*
X76135489Y-59707257D02*
X75564060Y-59707257D01*
X75564060Y-59707257D02*
X75278346Y-59850114D01*
X75278346Y-59850114D02*
X75135489Y-59992971D01*
X75135489Y-59992971D02*
X74992631Y-60278685D01*
X74992631Y-60278685D02*
X74992631Y-61135828D01*
X74992631Y-61135828D02*
X75135489Y-61421542D01*
X75135489Y-61421542D02*
X75278346Y-61564400D01*
X75278346Y-61564400D02*
X75564060Y-61707257D01*
X75564060Y-61707257D02*
X76135489Y-61707257D01*
X76135489Y-61707257D02*
X76421203Y-61564400D01*
X72564060Y-61564400D02*
X72849774Y-61707257D01*
X72849774Y-61707257D02*
X73421203Y-61707257D01*
X73421203Y-61707257D02*
X73706917Y-61564400D01*
X73706917Y-61564400D02*
X73849774Y-61278685D01*
X73849774Y-61278685D02*
X73849774Y-60135828D01*
X73849774Y-60135828D02*
X73706917Y-59850114D01*
X73706917Y-59850114D02*
X73421203Y-59707257D01*
X73421203Y-59707257D02*
X72849774Y-59707257D01*
X72849774Y-59707257D02*
X72564060Y-59850114D01*
X72564060Y-59850114D02*
X72421203Y-60135828D01*
X72421203Y-60135828D02*
X72421203Y-60421542D01*
X72421203Y-60421542D02*
X73849774Y-60707257D01*
X71135488Y-61707257D02*
X71135488Y-59707257D01*
X71135488Y-60278685D02*
X70992631Y-59992971D01*
X70992631Y-59992971D02*
X70849774Y-59850114D01*
X70849774Y-59850114D02*
X70564059Y-59707257D01*
X70564059Y-59707257D02*
X70278345Y-59707257D01*
X67421202Y-58707257D02*
X66421202Y-61707257D01*
X66421202Y-61707257D02*
X65421202Y-58707257D01*
X63278345Y-61564400D02*
X63564059Y-61707257D01*
X63564059Y-61707257D02*
X64135488Y-61707257D01*
X64135488Y-61707257D02*
X64421202Y-61564400D01*
X64421202Y-61564400D02*
X64564059Y-61278685D01*
X64564059Y-61278685D02*
X64564059Y-60135828D01*
X64564059Y-60135828D02*
X64421202Y-59850114D01*
X64421202Y-59850114D02*
X64135488Y-59707257D01*
X64135488Y-59707257D02*
X63564059Y-59707257D01*
X63564059Y-59707257D02*
X63278345Y-59850114D01*
X63278345Y-59850114D02*
X63135488Y-60135828D01*
X63135488Y-60135828D02*
X63135488Y-60421542D01*
X63135488Y-60421542D02*
X64564059Y-60707257D01*
X61849773Y-61707257D02*
X61849773Y-59707257D01*
X61849773Y-60278685D02*
X61706916Y-59992971D01*
X61706916Y-59992971D02*
X61564059Y-59850114D01*
X61564059Y-59850114D02*
X61278344Y-59707257D01*
X61278344Y-59707257D02*
X60992630Y-59707257D01*
X60135487Y-61564400D02*
X59849773Y-61707257D01*
X59849773Y-61707257D02*
X59278344Y-61707257D01*
X59278344Y-61707257D02*
X58992630Y-61564400D01*
X58992630Y-61564400D02*
X58849773Y-61278685D01*
X58849773Y-61278685D02*
X58849773Y-61135828D01*
X58849773Y-61135828D02*
X58992630Y-60850114D01*
X58992630Y-60850114D02*
X59278344Y-60707257D01*
X59278344Y-60707257D02*
X59706916Y-60707257D01*
X59706916Y-60707257D02*
X59992630Y-60564400D01*
X59992630Y-60564400D02*
X60135487Y-60278685D01*
X60135487Y-60278685D02*
X60135487Y-60135828D01*
X60135487Y-60135828D02*
X59992630Y-59850114D01*
X59992630Y-59850114D02*
X59706916Y-59707257D01*
X59706916Y-59707257D02*
X59278344Y-59707257D01*
X59278344Y-59707257D02*
X58992630Y-59850114D01*
X57564059Y-61707257D02*
X57564059Y-59707257D01*
X57564059Y-58707257D02*
X57706916Y-58850114D01*
X57706916Y-58850114D02*
X57564059Y-58992971D01*
X57564059Y-58992971D02*
X57421202Y-58850114D01*
X57421202Y-58850114D02*
X57564059Y-58707257D01*
X57564059Y-58707257D02*
X57564059Y-58992971D01*
X55706916Y-61707257D02*
X55992631Y-61564400D01*
X55992631Y-61564400D02*
X56135488Y-61421542D01*
X56135488Y-61421542D02*
X56278345Y-61135828D01*
X56278345Y-61135828D02*
X56278345Y-60278685D01*
X56278345Y-60278685D02*
X56135488Y-59992971D01*
X56135488Y-59992971D02*
X55992631Y-59850114D01*
X55992631Y-59850114D02*
X55706916Y-59707257D01*
X55706916Y-59707257D02*
X55278345Y-59707257D01*
X55278345Y-59707257D02*
X54992631Y-59850114D01*
X54992631Y-59850114D02*
X54849774Y-59992971D01*
X54849774Y-59992971D02*
X54706916Y-60278685D01*
X54706916Y-60278685D02*
X54706916Y-61135828D01*
X54706916Y-61135828D02*
X54849774Y-61421542D01*
X54849774Y-61421542D02*
X54992631Y-61564400D01*
X54992631Y-61564400D02*
X55278345Y-61707257D01*
X55278345Y-61707257D02*
X55706916Y-61707257D01*
X53421202Y-59707257D02*
X53421202Y-61707257D01*
X53421202Y-59992971D02*
X53278345Y-59850114D01*
X53278345Y-59850114D02*
X52992630Y-59707257D01*
X52992630Y-59707257D02*
X52564059Y-59707257D01*
X52564059Y-59707257D02*
X52278345Y-59850114D01*
X52278345Y-59850114D02*
X52135488Y-60135828D01*
X52135488Y-60135828D02*
X52135488Y-61707257D01*
X46849773Y-61707257D02*
X48564059Y-61707257D01*
X47706916Y-61707257D02*
X47706916Y-58707257D01*
X47706916Y-58707257D02*
X47992630Y-59135828D01*
X47992630Y-59135828D02*
X48278345Y-59421542D01*
X48278345Y-59421542D02*
X48564059Y-59564400D01*
X45564059Y-61421542D02*
X45421202Y-61564400D01*
X45421202Y-61564400D02*
X45564059Y-61707257D01*
X45564059Y-61707257D02*
X45706916Y-61564400D01*
X45706916Y-61564400D02*
X45564059Y-61421542D01*
X45564059Y-61421542D02*
X45564059Y-61707257D01*
X43564059Y-58707257D02*
X43278345Y-58707257D01*
X43278345Y-58707257D02*
X42992631Y-58850114D01*
X42992631Y-58850114D02*
X42849774Y-58992971D01*
X42849774Y-58992971D02*
X42706916Y-59278685D01*
X42706916Y-59278685D02*
X42564059Y-59850114D01*
X42564059Y-59850114D02*
X42564059Y-60564400D01*
X42564059Y-60564400D02*
X42706916Y-61135828D01*
X42706916Y-61135828D02*
X42849774Y-61421542D01*
X42849774Y-61421542D02*
X42992631Y-61564400D01*
X42992631Y-61564400D02*
X43278345Y-61707257D01*
X43278345Y-61707257D02*
X43564059Y-61707257D01*
X43564059Y-61707257D02*
X43849774Y-61564400D01*
X43849774Y-61564400D02*
X43992631Y-61421542D01*
X43992631Y-61421542D02*
X44135488Y-61135828D01*
X44135488Y-61135828D02*
X44278345Y-60564400D01*
X44278345Y-60564400D02*
X44278345Y-59850114D01*
X44278345Y-59850114D02*
X44135488Y-59278685D01*
X44135488Y-59278685D02*
X43992631Y-58992971D01*
X43992631Y-58992971D02*
X43849774Y-58850114D01*
X43849774Y-58850114D02*
X43564059Y-58707257D01*
X101421203Y-63537257D02*
X101421203Y-65680114D01*
X101421203Y-65680114D02*
X101564060Y-66108685D01*
X101564060Y-66108685D02*
X101849774Y-66394400D01*
X101849774Y-66394400D02*
X102278346Y-66537257D01*
X102278346Y-66537257D02*
X102564060Y-66537257D01*
X99564060Y-66537257D02*
X99849775Y-66394400D01*
X99849775Y-66394400D02*
X99992632Y-66251542D01*
X99992632Y-66251542D02*
X100135489Y-65965828D01*
X100135489Y-65965828D02*
X100135489Y-65108685D01*
X100135489Y-65108685D02*
X99992632Y-64822971D01*
X99992632Y-64822971D02*
X99849775Y-64680114D01*
X99849775Y-64680114D02*
X99564060Y-64537257D01*
X99564060Y-64537257D02*
X99135489Y-64537257D01*
X99135489Y-64537257D02*
X98849775Y-64680114D01*
X98849775Y-64680114D02*
X98706918Y-64822971D01*
X98706918Y-64822971D02*
X98564060Y-65108685D01*
X98564060Y-65108685D02*
X98564060Y-65965828D01*
X98564060Y-65965828D02*
X98706918Y-66251542D01*
X98706918Y-66251542D02*
X98849775Y-66394400D01*
X98849775Y-66394400D02*
X99135489Y-66537257D01*
X99135489Y-66537257D02*
X99564060Y-66537257D01*
X97421203Y-66394400D02*
X97135489Y-66537257D01*
X97135489Y-66537257D02*
X96564060Y-66537257D01*
X96564060Y-66537257D02*
X96278346Y-66394400D01*
X96278346Y-66394400D02*
X96135489Y-66108685D01*
X96135489Y-66108685D02*
X96135489Y-65965828D01*
X96135489Y-65965828D02*
X96278346Y-65680114D01*
X96278346Y-65680114D02*
X96564060Y-65537257D01*
X96564060Y-65537257D02*
X96992632Y-65537257D01*
X96992632Y-65537257D02*
X97278346Y-65394400D01*
X97278346Y-65394400D02*
X97421203Y-65108685D01*
X97421203Y-65108685D02*
X97421203Y-64965828D01*
X97421203Y-64965828D02*
X97278346Y-64680114D01*
X97278346Y-64680114D02*
X96992632Y-64537257D01*
X96992632Y-64537257D02*
X96564060Y-64537257D01*
X96564060Y-64537257D02*
X96278346Y-64680114D01*
X93706918Y-66394400D02*
X93992632Y-66537257D01*
X93992632Y-66537257D02*
X94564061Y-66537257D01*
X94564061Y-66537257D02*
X94849775Y-66394400D01*
X94849775Y-66394400D02*
X94992632Y-66108685D01*
X94992632Y-66108685D02*
X94992632Y-64965828D01*
X94992632Y-64965828D02*
X94849775Y-64680114D01*
X94849775Y-64680114D02*
X94564061Y-64537257D01*
X94564061Y-64537257D02*
X93992632Y-64537257D01*
X93992632Y-64537257D02*
X93706918Y-64680114D01*
X93706918Y-64680114D02*
X93564061Y-64965828D01*
X93564061Y-64965828D02*
X93564061Y-65251542D01*
X93564061Y-65251542D02*
X94992632Y-65537257D01*
X92278346Y-64537257D02*
X92278346Y-67537257D01*
X92278346Y-64680114D02*
X91992632Y-64537257D01*
X91992632Y-64537257D02*
X91421203Y-64537257D01*
X91421203Y-64537257D02*
X91135489Y-64680114D01*
X91135489Y-64680114D02*
X90992632Y-64822971D01*
X90992632Y-64822971D02*
X90849774Y-65108685D01*
X90849774Y-65108685D02*
X90849774Y-65965828D01*
X90849774Y-65965828D02*
X90992632Y-66251542D01*
X90992632Y-66251542D02*
X91135489Y-66394400D01*
X91135489Y-66394400D02*
X91421203Y-66537257D01*
X91421203Y-66537257D02*
X91992632Y-66537257D01*
X91992632Y-66537257D02*
X92278346Y-66394400D01*
X89564060Y-66537257D02*
X89564060Y-63537257D01*
X88278346Y-66537257D02*
X88278346Y-64965828D01*
X88278346Y-64965828D02*
X88421203Y-64680114D01*
X88421203Y-64680114D02*
X88706917Y-64537257D01*
X88706917Y-64537257D02*
X89135488Y-64537257D01*
X89135488Y-64537257D02*
X89421203Y-64680114D01*
X89421203Y-64680114D02*
X89564060Y-64822971D01*
X84706917Y-65680114D02*
X83278346Y-65680114D01*
X84992631Y-66537257D02*
X83992631Y-63537257D01*
X83992631Y-63537257D02*
X82992631Y-66537257D01*
X81992631Y-66251542D02*
X81849774Y-66394400D01*
X81849774Y-66394400D02*
X81992631Y-66537257D01*
X81992631Y-66537257D02*
X82135488Y-66394400D01*
X82135488Y-66394400D02*
X81992631Y-66251542D01*
X81992631Y-66251542D02*
X81992631Y-66537257D01*
X78278346Y-66537257D02*
X78278346Y-63537257D01*
X78278346Y-63537257D02*
X77564060Y-63537257D01*
X77564060Y-63537257D02*
X77135489Y-63680114D01*
X77135489Y-63680114D02*
X76849774Y-63965828D01*
X76849774Y-63965828D02*
X76706917Y-64251542D01*
X76706917Y-64251542D02*
X76564060Y-64822971D01*
X76564060Y-64822971D02*
X76564060Y-65251542D01*
X76564060Y-65251542D02*
X76706917Y-65822971D01*
X76706917Y-65822971D02*
X76849774Y-66108685D01*
X76849774Y-66108685D02*
X77135489Y-66394400D01*
X77135489Y-66394400D02*
X77564060Y-66537257D01*
X77564060Y-66537257D02*
X78278346Y-66537257D01*
X74135489Y-66394400D02*
X74421203Y-66537257D01*
X74421203Y-66537257D02*
X74992632Y-66537257D01*
X74992632Y-66537257D02*
X75278346Y-66394400D01*
X75278346Y-66394400D02*
X75421203Y-66108685D01*
X75421203Y-66108685D02*
X75421203Y-64965828D01*
X75421203Y-64965828D02*
X75278346Y-64680114D01*
X75278346Y-64680114D02*
X74992632Y-64537257D01*
X74992632Y-64537257D02*
X74421203Y-64537257D01*
X74421203Y-64537257D02*
X74135489Y-64680114D01*
X74135489Y-64680114D02*
X73992632Y-64965828D01*
X73992632Y-64965828D02*
X73992632Y-65251542D01*
X73992632Y-65251542D02*
X75421203Y-65537257D01*
X70849774Y-63537257D02*
X69849774Y-66537257D01*
X69849774Y-66537257D02*
X68849774Y-63537257D01*
X67849774Y-66537257D02*
X67849774Y-64537257D01*
X67849774Y-63537257D02*
X67992631Y-63680114D01*
X67992631Y-63680114D02*
X67849774Y-63822971D01*
X67849774Y-63822971D02*
X67706917Y-63680114D01*
X67706917Y-63680114D02*
X67849774Y-63537257D01*
X67849774Y-63537257D02*
X67849774Y-63822971D01*
X65135489Y-66394400D02*
X65421203Y-66537257D01*
X65421203Y-66537257D02*
X65992631Y-66537257D01*
X65992631Y-66537257D02*
X66278346Y-66394400D01*
X66278346Y-66394400D02*
X66421203Y-66251542D01*
X66421203Y-66251542D02*
X66564060Y-65965828D01*
X66564060Y-65965828D02*
X66564060Y-65108685D01*
X66564060Y-65108685D02*
X66421203Y-64822971D01*
X66421203Y-64822971D02*
X66278346Y-64680114D01*
X66278346Y-64680114D02*
X65992631Y-64537257D01*
X65992631Y-64537257D02*
X65421203Y-64537257D01*
X65421203Y-64537257D02*
X65135489Y-64680114D01*
X63421202Y-66537257D02*
X63706917Y-66394400D01*
X63706917Y-66394400D02*
X63849774Y-66251542D01*
X63849774Y-66251542D02*
X63992631Y-65965828D01*
X63992631Y-65965828D02*
X63992631Y-65108685D01*
X63992631Y-65108685D02*
X63849774Y-64822971D01*
X63849774Y-64822971D02*
X63706917Y-64680114D01*
X63706917Y-64680114D02*
X63421202Y-64537257D01*
X63421202Y-64537257D02*
X62992631Y-64537257D01*
X62992631Y-64537257D02*
X62706917Y-64680114D01*
X62706917Y-64680114D02*
X62564060Y-64822971D01*
X62564060Y-64822971D02*
X62421202Y-65108685D01*
X62421202Y-65108685D02*
X62421202Y-65965828D01*
X62421202Y-65965828D02*
X62564060Y-66251542D01*
X62564060Y-66251542D02*
X62706917Y-66394400D01*
X62706917Y-66394400D02*
X62992631Y-66537257D01*
X62992631Y-66537257D02*
X63421202Y-66537257D01*
X101706917Y-68367257D02*
X101421203Y-68367257D01*
X101421203Y-68367257D02*
X101135489Y-68510114D01*
X101135489Y-68510114D02*
X100992632Y-68652971D01*
X100992632Y-68652971D02*
X100849774Y-68938685D01*
X100849774Y-68938685D02*
X100706917Y-69510114D01*
X100706917Y-69510114D02*
X100706917Y-70224400D01*
X100706917Y-70224400D02*
X100849774Y-70795828D01*
X100849774Y-70795828D02*
X100992632Y-71081542D01*
X100992632Y-71081542D02*
X101135489Y-71224400D01*
X101135489Y-71224400D02*
X101421203Y-71367257D01*
X101421203Y-71367257D02*
X101706917Y-71367257D01*
X101706917Y-71367257D02*
X101992632Y-71224400D01*
X101992632Y-71224400D02*
X102135489Y-71081542D01*
X102135489Y-71081542D02*
X102278346Y-70795828D01*
X102278346Y-70795828D02*
X102421203Y-70224400D01*
X102421203Y-70224400D02*
X102421203Y-69510114D01*
X102421203Y-69510114D02*
X102278346Y-68938685D01*
X102278346Y-68938685D02*
X102135489Y-68652971D01*
X102135489Y-68652971D02*
X101992632Y-68510114D01*
X101992632Y-68510114D02*
X101706917Y-68367257D01*
X97849774Y-71367257D02*
X99564060Y-71367257D01*
X98706917Y-71367257D02*
X98706917Y-68367257D01*
X98706917Y-68367257D02*
X98992631Y-68795828D01*
X98992631Y-68795828D02*
X99278346Y-69081542D01*
X99278346Y-69081542D02*
X99564060Y-69224400D01*
X94421203Y-68224400D02*
X96992631Y-72081542D01*
X92849774Y-68367257D02*
X92564060Y-68367257D01*
X92564060Y-68367257D02*
X92278346Y-68510114D01*
X92278346Y-68510114D02*
X92135489Y-68652971D01*
X92135489Y-68652971D02*
X91992631Y-68938685D01*
X91992631Y-68938685D02*
X91849774Y-69510114D01*
X91849774Y-69510114D02*
X91849774Y-70224400D01*
X91849774Y-70224400D02*
X91992631Y-70795828D01*
X91992631Y-70795828D02*
X92135489Y-71081542D01*
X92135489Y-71081542D02*
X92278346Y-71224400D01*
X92278346Y-71224400D02*
X92564060Y-71367257D01*
X92564060Y-71367257D02*
X92849774Y-71367257D01*
X92849774Y-71367257D02*
X93135489Y-71224400D01*
X93135489Y-71224400D02*
X93278346Y-71081542D01*
X93278346Y-71081542D02*
X93421203Y-70795828D01*
X93421203Y-70795828D02*
X93564060Y-70224400D01*
X93564060Y-70224400D02*
X93564060Y-69510114D01*
X93564060Y-69510114D02*
X93421203Y-68938685D01*
X93421203Y-68938685D02*
X93278346Y-68652971D01*
X93278346Y-68652971D02*
X93135489Y-68510114D01*
X93135489Y-68510114D02*
X92849774Y-68367257D01*
X90849774Y-68367257D02*
X88849774Y-68367257D01*
X88849774Y-68367257D02*
X90135488Y-71367257D01*
X85564060Y-68224400D02*
X88135488Y-72081542D01*
X84706917Y-68652971D02*
X84564060Y-68510114D01*
X84564060Y-68510114D02*
X84278346Y-68367257D01*
X84278346Y-68367257D02*
X83564060Y-68367257D01*
X83564060Y-68367257D02*
X83278346Y-68510114D01*
X83278346Y-68510114D02*
X83135488Y-68652971D01*
X83135488Y-68652971D02*
X82992631Y-68938685D01*
X82992631Y-68938685D02*
X82992631Y-69224400D01*
X82992631Y-69224400D02*
X83135488Y-69652971D01*
X83135488Y-69652971D02*
X84849774Y-71367257D01*
X84849774Y-71367257D02*
X82992631Y-71367257D01*
X81135488Y-68367257D02*
X80849774Y-68367257D01*
X80849774Y-68367257D02*
X80564060Y-68510114D01*
X80564060Y-68510114D02*
X80421203Y-68652971D01*
X80421203Y-68652971D02*
X80278345Y-68938685D01*
X80278345Y-68938685D02*
X80135488Y-69510114D01*
X80135488Y-69510114D02*
X80135488Y-70224400D01*
X80135488Y-70224400D02*
X80278345Y-70795828D01*
X80278345Y-70795828D02*
X80421203Y-71081542D01*
X80421203Y-71081542D02*
X80564060Y-71224400D01*
X80564060Y-71224400D02*
X80849774Y-71367257D01*
X80849774Y-71367257D02*
X81135488Y-71367257D01*
X81135488Y-71367257D02*
X81421203Y-71224400D01*
X81421203Y-71224400D02*
X81564060Y-71081542D01*
X81564060Y-71081542D02*
X81706917Y-70795828D01*
X81706917Y-70795828D02*
X81849774Y-70224400D01*
X81849774Y-70224400D02*
X81849774Y-69510114D01*
X81849774Y-69510114D02*
X81706917Y-68938685D01*
X81706917Y-68938685D02*
X81564060Y-68652971D01*
X81564060Y-68652971D02*
X81421203Y-68510114D01*
X81421203Y-68510114D02*
X81135488Y-68367257D01*
X78992631Y-68652971D02*
X78849774Y-68510114D01*
X78849774Y-68510114D02*
X78564060Y-68367257D01*
X78564060Y-68367257D02*
X77849774Y-68367257D01*
X77849774Y-68367257D02*
X77564060Y-68510114D01*
X77564060Y-68510114D02*
X77421202Y-68652971D01*
X77421202Y-68652971D02*
X77278345Y-68938685D01*
X77278345Y-68938685D02*
X77278345Y-69224400D01*
X77278345Y-69224400D02*
X77421202Y-69652971D01*
X77421202Y-69652971D02*
X79135488Y-71367257D01*
X79135488Y-71367257D02*
X77278345Y-71367257D01*
X76278345Y-68367257D02*
X74421202Y-68367257D01*
X74421202Y-68367257D02*
X75421202Y-69510114D01*
X75421202Y-69510114D02*
X74992631Y-69510114D01*
X74992631Y-69510114D02*
X74706917Y-69652971D01*
X74706917Y-69652971D02*
X74564059Y-69795828D01*
X74564059Y-69795828D02*
X74421202Y-70081542D01*
X74421202Y-70081542D02*
X74421202Y-70795828D01*
X74421202Y-70795828D02*
X74564059Y-71081542D01*
X74564059Y-71081542D02*
X74706917Y-71224400D01*
X74706917Y-71224400D02*
X74992631Y-71367257D01*
X74992631Y-71367257D02*
X75849774Y-71367257D01*
X75849774Y-71367257D02*
X76135488Y-71224400D01*
X76135488Y-71224400D02*
X76278345Y-71081542D01*
X84965489Y-27440828D02*
X84965489Y-26440828D01*
X84965489Y-25940828D02*
X85036917Y-26012257D01*
X85036917Y-26012257D02*
X84965489Y-26083685D01*
X84965489Y-26083685D02*
X84894060Y-26012257D01*
X84894060Y-26012257D02*
X84965489Y-25940828D01*
X84965489Y-25940828D02*
X84965489Y-26083685D01*
X83394060Y-27297971D02*
X83465488Y-27369400D01*
X83465488Y-27369400D02*
X83679774Y-27440828D01*
X83679774Y-27440828D02*
X83822631Y-27440828D01*
X83822631Y-27440828D02*
X84036917Y-27369400D01*
X84036917Y-27369400D02*
X84179774Y-27226542D01*
X84179774Y-27226542D02*
X84251203Y-27083685D01*
X84251203Y-27083685D02*
X84322631Y-26797971D01*
X84322631Y-26797971D02*
X84322631Y-26583685D01*
X84322631Y-26583685D02*
X84251203Y-26297971D01*
X84251203Y-26297971D02*
X84179774Y-26155114D01*
X84179774Y-26155114D02*
X84036917Y-26012257D01*
X84036917Y-26012257D02*
X83822631Y-25940828D01*
X83822631Y-25940828D02*
X83679774Y-25940828D01*
X83679774Y-25940828D02*
X83465488Y-26012257D01*
X83465488Y-26012257D02*
X83394060Y-26083685D01*
X82751203Y-26655114D02*
X82251203Y-26655114D01*
X82036917Y-27440828D02*
X82751203Y-27440828D01*
X82751203Y-27440828D02*
X82751203Y-25940828D01*
X82751203Y-25940828D02*
X82036917Y-25940828D01*
X80751203Y-26440828D02*
X80751203Y-27440828D01*
X81108345Y-25869400D02*
X81465488Y-26940828D01*
X81465488Y-26940828D02*
X80536917Y-26940828D01*
X79679774Y-25940828D02*
X79536917Y-25940828D01*
X79536917Y-25940828D02*
X79394060Y-26012257D01*
X79394060Y-26012257D02*
X79322632Y-26083685D01*
X79322632Y-26083685D02*
X79251203Y-26226542D01*
X79251203Y-26226542D02*
X79179774Y-26512257D01*
X79179774Y-26512257D02*
X79179774Y-26869400D01*
X79179774Y-26869400D02*
X79251203Y-27155114D01*
X79251203Y-27155114D02*
X79322632Y-27297971D01*
X79322632Y-27297971D02*
X79394060Y-27369400D01*
X79394060Y-27369400D02*
X79536917Y-27440828D01*
X79536917Y-27440828D02*
X79679774Y-27440828D01*
X79679774Y-27440828D02*
X79822632Y-27369400D01*
X79822632Y-27369400D02*
X79894060Y-27297971D01*
X79894060Y-27297971D02*
X79965489Y-27155114D01*
X79965489Y-27155114D02*
X80036917Y-26869400D01*
X80036917Y-26869400D02*
X80036917Y-26512257D01*
X80036917Y-26512257D02*
X79965489Y-26226542D01*
X79965489Y-26226542D02*
X79894060Y-26083685D01*
X79894060Y-26083685D02*
X79822632Y-26012257D01*
X79822632Y-26012257D02*
X79679774Y-25940828D01*
X78536918Y-26869400D02*
X77394061Y-26869400D01*
X76679775Y-25940828D02*
X76679775Y-27155114D01*
X76679775Y-27155114D02*
X76608346Y-27297971D01*
X76608346Y-27297971D02*
X76536918Y-27369400D01*
X76536918Y-27369400D02*
X76394060Y-27440828D01*
X76394060Y-27440828D02*
X76108346Y-27440828D01*
X76108346Y-27440828D02*
X75965489Y-27369400D01*
X75965489Y-27369400D02*
X75894060Y-27297971D01*
X75894060Y-27297971D02*
X75822632Y-27155114D01*
X75822632Y-27155114D02*
X75822632Y-25940828D01*
X75108346Y-27440828D02*
X75108346Y-25940828D01*
X75108346Y-25940828D02*
X74536917Y-25940828D01*
X74536917Y-25940828D02*
X74394060Y-26012257D01*
X74394060Y-26012257D02*
X74322631Y-26083685D01*
X74322631Y-26083685D02*
X74251203Y-26226542D01*
X74251203Y-26226542D02*
X74251203Y-26440828D01*
X74251203Y-26440828D02*
X74322631Y-26583685D01*
X74322631Y-26583685D02*
X74394060Y-26655114D01*
X74394060Y-26655114D02*
X74536917Y-26726542D01*
X74536917Y-26726542D02*
X75108346Y-26726542D01*
X72894060Y-25940828D02*
X73608346Y-25940828D01*
X73608346Y-25940828D02*
X73679774Y-26655114D01*
X73679774Y-26655114D02*
X73608346Y-26583685D01*
X73608346Y-26583685D02*
X73465489Y-26512257D01*
X73465489Y-26512257D02*
X73108346Y-26512257D01*
X73108346Y-26512257D02*
X72965489Y-26583685D01*
X72965489Y-26583685D02*
X72894060Y-26655114D01*
X72894060Y-26655114D02*
X72822631Y-26797971D01*
X72822631Y-26797971D02*
X72822631Y-27155114D01*
X72822631Y-27155114D02*
X72894060Y-27297971D01*
X72894060Y-27297971D02*
X72965489Y-27369400D01*
X72965489Y-27369400D02*
X73108346Y-27440828D01*
X73108346Y-27440828D02*
X73465489Y-27440828D01*
X73465489Y-27440828D02*
X73608346Y-27369400D01*
X73608346Y-27369400D02*
X73679774Y-27297971D01*
X72179775Y-27440828D02*
X72179775Y-25940828D01*
X72036918Y-26869400D02*
X71608346Y-27440828D01*
X71608346Y-26440828D02*
X72179775Y-27012257D01*
X69894060Y-27369400D02*
X69679775Y-27440828D01*
X69679775Y-27440828D02*
X69322632Y-27440828D01*
X69322632Y-27440828D02*
X69179775Y-27369400D01*
X69179775Y-27369400D02*
X69108346Y-27297971D01*
X69108346Y-27297971D02*
X69036917Y-27155114D01*
X69036917Y-27155114D02*
X69036917Y-27012257D01*
X69036917Y-27012257D02*
X69108346Y-26869400D01*
X69108346Y-26869400D02*
X69179775Y-26797971D01*
X69179775Y-26797971D02*
X69322632Y-26726542D01*
X69322632Y-26726542D02*
X69608346Y-26655114D01*
X69608346Y-26655114D02*
X69751203Y-26583685D01*
X69751203Y-26583685D02*
X69822632Y-26512257D01*
X69822632Y-26512257D02*
X69894060Y-26369400D01*
X69894060Y-26369400D02*
X69894060Y-26226542D01*
X69894060Y-26226542D02*
X69822632Y-26083685D01*
X69822632Y-26083685D02*
X69751203Y-26012257D01*
X69751203Y-26012257D02*
X69608346Y-25940828D01*
X69608346Y-25940828D02*
X69251203Y-25940828D01*
X69251203Y-25940828D02*
X69036917Y-26012257D01*
X67608346Y-26012257D02*
X67751204Y-25940828D01*
X67751204Y-25940828D02*
X67965489Y-25940828D01*
X67965489Y-25940828D02*
X68179775Y-26012257D01*
X68179775Y-26012257D02*
X68322632Y-26155114D01*
X68322632Y-26155114D02*
X68394061Y-26297971D01*
X68394061Y-26297971D02*
X68465489Y-26583685D01*
X68465489Y-26583685D02*
X68465489Y-26797971D01*
X68465489Y-26797971D02*
X68394061Y-27083685D01*
X68394061Y-27083685D02*
X68322632Y-27226542D01*
X68322632Y-27226542D02*
X68179775Y-27369400D01*
X68179775Y-27369400D02*
X67965489Y-27440828D01*
X67965489Y-27440828D02*
X67822632Y-27440828D01*
X67822632Y-27440828D02*
X67608346Y-27369400D01*
X67608346Y-27369400D02*
X67536918Y-27297971D01*
X67536918Y-27297971D02*
X67536918Y-26797971D01*
X67536918Y-26797971D02*
X67822632Y-26797971D01*
X66894061Y-26869400D02*
X65751204Y-26869400D01*
X64394061Y-26440828D02*
X64394061Y-27440828D01*
X64751203Y-25869400D02*
X65108346Y-26940828D01*
X65108346Y-26940828D02*
X64179775Y-26940828D01*
X63394061Y-26583685D02*
X63536918Y-26512257D01*
X63536918Y-26512257D02*
X63608347Y-26440828D01*
X63608347Y-26440828D02*
X63679775Y-26297971D01*
X63679775Y-26297971D02*
X63679775Y-26226542D01*
X63679775Y-26226542D02*
X63608347Y-26083685D01*
X63608347Y-26083685D02*
X63536918Y-26012257D01*
X63536918Y-26012257D02*
X63394061Y-25940828D01*
X63394061Y-25940828D02*
X63108347Y-25940828D01*
X63108347Y-25940828D02*
X62965490Y-26012257D01*
X62965490Y-26012257D02*
X62894061Y-26083685D01*
X62894061Y-26083685D02*
X62822632Y-26226542D01*
X62822632Y-26226542D02*
X62822632Y-26297971D01*
X62822632Y-26297971D02*
X62894061Y-26440828D01*
X62894061Y-26440828D02*
X62965490Y-26512257D01*
X62965490Y-26512257D02*
X63108347Y-26583685D01*
X63108347Y-26583685D02*
X63394061Y-26583685D01*
X63394061Y-26583685D02*
X63536918Y-26655114D01*
X63536918Y-26655114D02*
X63608347Y-26726542D01*
X63608347Y-26726542D02*
X63679775Y-26869400D01*
X63679775Y-26869400D02*
X63679775Y-27155114D01*
X63679775Y-27155114D02*
X63608347Y-27297971D01*
X63608347Y-27297971D02*
X63536918Y-27369400D01*
X63536918Y-27369400D02*
X63394061Y-27440828D01*
X63394061Y-27440828D02*
X63108347Y-27440828D01*
X63108347Y-27440828D02*
X62965490Y-27369400D01*
X62965490Y-27369400D02*
X62894061Y-27297971D01*
X62894061Y-27297971D02*
X62822632Y-27155114D01*
X62822632Y-27155114D02*
X62822632Y-26869400D01*
X62822632Y-26869400D02*
X62894061Y-26726542D01*
X62894061Y-26726542D02*
X62965490Y-26655114D01*
X62965490Y-26655114D02*
X63108347Y-26583685D01*
M02*
