M48
; DRILL file {KiCad 7.0.7} date Mon 22 Jan 2024 01:38:37 PM PST
; FORMAT={-:-/ absolute / inch / decimal}
; #@! TF.CreationDate,2024-01-22T13:38:37-08:00
; #@! TF.GenerationSoftware,Kicad,Pcbnew,7.0.7
; #@! TF.FileFunction,Plated,1,4,PTH
FMAT,2
INCH
; #@! TA.AperFunction,Plated,PTH,ViaDrill
T1C0.0098
; #@! TA.AperFunction,Plated,PTH,ViaDrill
T2C0.0157
; #@! TA.AperFunction,Plated,PTH,ComponentDrill
T3C0.0236
; #@! TA.AperFunction,Plated,PTH,ComponentDrill
T4C0.0300
; #@! TA.AperFunction,Plated,PTH,ComponentDrill
T5C0.0394
; #@! TA.AperFunction,Plated,PTH,ComponentDrill
T6C0.0591
%
G90
G05
T1
X1.6764Y-2.7717
X2.1111Y-2.7854
X2.565Y-2.3583
X2.626Y-2.2264
X2.6477Y-2.2441
X2.6693Y-2.2628
X2.7047Y-3.254
X2.7717Y-2.1614
X2.8177Y-2.7751
X2.8435Y-2.7894
X2.8721Y-2.7981
X2.8736Y-2.8275
X2.8907Y-2.3868
X2.9138Y-2.8689
X2.9154Y-2.3642
X2.9281Y-2.3317
X2.9555Y-2.8567
X2.9685Y-2.8839
X2.9862Y-2.3012
X2.9929Y-2.3472
X3.1654Y-2.8917
X3.1929Y-2.9429
X3.1929Y-2.9941
X3.2874Y-2.9173
X3.2874Y-2.9685
X3.315Y-2.8376
X3.3465Y-2.1713
X3.3674Y-2.1859
X3.3681Y-2.9174
X3.3821Y-2.9434
X3.3878Y-2.2013
X3.3985Y-2.9679
X3.409Y-2.2157
X3.4154Y-2.8799
X3.4173Y-2.9943
X3.7028Y-2.2894
X4.1614Y-2.3051
T2
X1.0315Y-1.1713
X1.0315Y-1.2421
X1.0315Y-1.3031
X1.0413Y-1.4055
X1.065Y-1.3622
X1.0846Y-1.6319
X1.1083Y-1.6102
X1.1083Y-1.6555
X1.1083Y-1.7106
X1.1319Y-1.3622
X1.1398Y-1.6102
X1.1398Y-1.6555
X1.1516Y-1.3031
X1.1555Y-1.4055
X1.1654Y-2.0551
X1.1654Y-2.126
X1.1673Y-2.25
X1.1713Y-1.6102
X1.1713Y-1.6555
X1.1713Y-1.9232
X1.189Y-1.9843
X1.2028Y-1.6102
X1.2028Y-1.6555
X1.2224Y-1.3622
X1.2224Y-1.4055
X1.237Y-2.8634
X1.237Y-2.9213
X1.2402Y-1.9282
X1.2461Y-1.8524
X1.248Y-1.3839
X1.2697Y-2.0354
X1.2913Y-2.2362
X1.2933Y-2.0039
X1.2976Y-2.8638
X1.3012Y-2.1142
X1.3012Y-2.1535
X1.311Y-1.7087
X1.3189Y-1.437
X1.3581Y-2.3487
X1.3583Y-2.3888
X1.3701Y-2.1201
X1.3728Y-2.8634
X1.3839Y-2.1752
X1.3858Y-1.7835
X1.3937Y-1.9724
X1.4173Y-2.1732
X1.4311Y-2.1063
X1.4331Y-2.863
X1.4335Y-2.9213
X1.437Y-2.0472
X1.4409Y-2.3386
X1.4508Y-2.1614
X1.4705Y-2.1339
X1.4783Y-2.0669
X1.4803Y-2.1004
X1.4961Y-1.8583
X1.503Y-2.3386
X1.5039Y-1.437
X1.5039Y-1.7431
X1.5079Y-1.9685
X1.5413Y-2.0768
X1.5413Y-2.128
X1.5413Y-2.1654
X1.5413Y-2.2047
X1.563Y-2.3386
X1.5719Y-2.5177
X1.5719Y-2.628
X1.577Y-1.8868
X1.6102Y-2.9764
X1.6319Y-1.7205
X1.6535Y-2.2441
X1.6772Y-2.1811
X1.6811Y-2.0256
X1.685Y-2.31
X1.7028Y-1.6619
X1.7047Y-1.9085
X1.7165Y-2.1811
X1.748Y-2.312
X1.8031Y-3.2259
X1.811Y-1.2992
X1.811Y-1.3386
X1.811Y-1.378
X1.8169Y-2.1358
X1.8642Y-2.3917
X1.8681Y-1.7874
X1.874Y-2.1457
X1.8898Y-3.2549
X1.8976Y-2.4961
X1.9283Y-2.9736
X1.9291Y-2.8996
X1.9724Y-2.2559
X1.998Y-2.9587
X2.0Y-2.5
X2.0157Y-1.7874
X2.0244Y-2.0539
X2.0244Y-2.1161
X2.0472Y-2.5079
X2.0512Y-2.7215
X2.0512Y-2.7864
X2.0748Y-3.2259
X2.1012Y-2.8886
X2.1102Y-1.3937
X2.1329Y-2.4961
X2.1445Y-2.8886
X2.1453Y-1.7165
X2.1453Y-1.7913
X2.1614Y-3.2549
X2.2087Y-1.2677
X2.2087Y-1.3622
X2.2264Y-1.7165
X2.2264Y-1.7913
X2.2465Y-2.9043
X2.2482Y-2.4134
X2.2677Y-2.0551
X2.2736Y-2.7843
X2.3067Y-1.7165
X2.3067Y-1.7913
X2.3071Y-1.4252
X2.3071Y-1.4882
X2.3465Y-3.2259
X2.348Y-2.772
X2.3593Y-2.878
X2.3593Y-2.9134
X2.3593Y-2.9528
X2.4085Y-2.7992
X2.4094Y-1.3307
X2.4331Y-3.2549
X2.4695Y-2.9134
X2.5039Y-2.252
X2.5079Y-1.4567
X2.5102Y-2.7429
X2.5256Y-2.061
X2.5256Y-2.1102
X2.5374Y-2.5236
X2.5394Y-1.7874
X2.5543Y-2.7217
X2.565Y-2.2539
X2.5728Y-2.9882
X2.5787Y-2.5807
X2.5846Y-2.5207
X2.6102Y-1.2992
X2.6102Y-1.2992
X2.6124Y-2.6011
X2.6161Y-2.0866
X2.6181Y-2.7864
X2.6181Y-3.2259
X2.6413Y-2.9276
X2.6417Y-3.0039
X2.6594Y-2.0866
X2.6772Y-2.7234
X2.6841Y-2.9646
X2.7323Y-2.2559
X2.7362Y-2.752
X2.7362Y-2.8701
X2.7441Y-1.7874
X2.7638Y-1.7362
X2.7638Y-2.0984
X2.7953Y-2.9961
X2.8346Y-2.0236
X2.8701Y-2.6142
X2.8701Y-2.7008
X2.8898Y-3.2259
X2.8937Y-1.2677
X2.9016Y-1.7894
X2.9094Y-2.6575
X2.9134Y-3.0094
X2.9252Y-1.2992
X2.9504Y-2.5323
X2.9528Y-2.7008
X2.9567Y-1.3307
X2.9764Y-3.2549
X2.9882Y-1.3622
X2.9937Y-2.5756
X3.0197Y-1.3937
X3.0197Y-2.8701
X3.0354Y-2.5354
X3.0354Y-2.6181
X3.0492Y-1.7874
X3.0512Y-1.4252
X3.0827Y-1.4567
X3.0827Y-2.8701
X3.0945Y-2.7598
X3.1004Y-2.2874
X3.1142Y-1.4882
X3.1457Y-2.4154
X3.1614Y-2.689
X3.1614Y-3.2259
X3.1811Y-1.8031
X3.2028Y-2.0709
X3.2032Y-2.7283
X3.2067Y-2.4154
X3.2067Y-2.4744
X3.2441Y-1.8031
X3.248Y-3.2549
X3.2618Y-2.0728
X3.2913Y-1.3937
X3.2992Y-3.0295
X3.3071Y-1.8031
X3.315Y-2.7244
X3.3642Y-2.0866
X3.3701Y-1.8031
X3.3898Y-2.6614
X3.3917Y-2.7382
X3.3937Y-1.2677
X3.3937Y-1.3622
X3.4055Y-2.0866
X3.4331Y-1.8031
X3.4331Y-3.2259
X3.4606Y-2.6772
X3.4921Y-1.4252
X3.4921Y-1.4882
X3.4961Y-1.8031
X3.5118Y-2.0906
X3.5197Y-3.2549
X3.5591Y-1.8031
X3.5591Y-2.8671
X3.5591Y-2.9281
X3.5807Y-2.0138
X3.5945Y-1.3307
X3.622Y-1.8031
X3.6929Y-1.4567
X3.7047Y-3.2259
X3.7835Y-1.7874
X3.7913Y-1.2992
X3.7913Y-1.7244
X3.7913Y-3.2549
X3.9272Y-1.5059
X3.9272Y-1.5453
X3.9272Y-1.5846
X3.9272Y-1.624
X3.9331Y-1.7874
X4.0551Y-3.3287
X4.0551Y-3.5598
X4.1043Y-1.8504
X4.1079Y-3.6319
X4.1486Y-2.6299
X4.1909Y-2.4691
X4.2096Y-2.6299
X4.2185Y-2.4494
X4.2352Y-2.05
X4.2372Y-1.5992
X4.2382Y-1.2587
X4.2392Y-1.4004
X4.2392Y-1.5402
X4.2392Y-1.6598
X4.2992Y-2.2085
X4.2992Y-2.2695
X4.3002Y-1.4004
X4.3134Y-3.7012
X4.3138Y-3.0705
X4.3146Y-3.3858
X4.4803Y-3.5846
X4.5441Y-3.7012
X4.5457Y-3.0709
X4.5461Y-3.3862
X4.6197Y-3.7535
X4.6205Y-3.124
X4.7508Y-3.6327
X4.8031Y-3.3283
X4.8031Y-3.5606
T4
X1.8031Y-3.4882
X1.8031Y-3.6063
X1.8031Y-3.7244
X2.0748Y-3.4882
X2.0748Y-3.6063
X2.0748Y-3.7244
X2.1102Y-1.1709
X2.1102Y-1.5748
X2.2102Y-1.1709
X2.2102Y-1.5748
X2.3102Y-1.1709
X2.3102Y-1.5748
X2.3465Y-3.4882
X2.3465Y-3.6063
X2.3465Y-3.7244
X2.4102Y-1.1709
X2.4102Y-1.5748
X2.5102Y-1.1709
X2.5102Y-1.5748
X2.6102Y-1.1709
X2.6102Y-1.5748
X2.6181Y-3.4882
X2.6181Y-3.6063
X2.6181Y-3.7244
X2.8898Y-3.4882
X2.8898Y-3.6063
X2.8898Y-3.7244
X3.1614Y-3.4882
X3.1614Y-3.6063
X3.1614Y-3.7244
X3.2953Y-1.1709
X3.2953Y-1.5748
X3.3953Y-1.1709
X3.3953Y-1.5748
X3.4331Y-3.4882
X3.4331Y-3.6063
X3.4331Y-3.7244
X3.4953Y-1.1709
X3.4953Y-1.5748
X3.5953Y-1.1709
X3.5953Y-1.5748
X3.6953Y-1.1709
X3.6953Y-1.5748
X3.7047Y-3.4882
X3.7047Y-3.6063
X3.7047Y-3.7244
X3.7953Y-1.1709
X3.7953Y-1.5748
T5
X1.2366Y-3.0937
X1.2366Y-3.6646
X1.335Y-3.0937
X1.4335Y-3.0937
X1.4335Y-3.6646
X4.4226Y-1.3
X4.4226Y-1.4
X4.4226Y-1.5
X4.4226Y-1.6
X4.4226Y-1.7
X4.4226Y-1.8
X4.4226Y-1.9
X4.4226Y-2.0
X4.4226Y-2.1
X4.4226Y-2.2
X4.4226Y-2.3
X4.4226Y-2.4
X4.4226Y-2.5
X4.4226Y-2.6
X4.5226Y-1.3
X4.5226Y-1.4
X4.5226Y-1.5
X4.5226Y-1.6
X4.5226Y-1.7
X4.5226Y-1.8
X4.5226Y-1.9
X4.5226Y-2.0
X4.5226Y-2.1
X4.5226Y-2.2
X4.5226Y-2.3
X4.5226Y-2.4
X4.5226Y-2.5
X4.5226Y-2.6
T3
G00X1.2441Y-1.0984
M15
G01X1.2441Y-1.0669
M16
G05
G00X1.2441Y-1.2689
M15
G01X1.2441Y-1.2256
M16
G05
G00X1.5843Y-1.0984
M15
G01X1.5843Y-1.0669
M16
G05
G00X1.5843Y-1.2689
M15
G01X1.5843Y-1.2256
M16
G05
T4
G00X1.8187Y-3.378
M15
G01X1.7876Y-3.378
M16
G05
G00X1.8187Y-3.8346
M15
G01X1.7876Y-3.8346
M16
G05
G00X2.0903Y-3.378
M15
G01X2.0593Y-3.378
M16
G05
G00X2.0903Y-3.8346
M15
G01X2.0593Y-3.8346
M16
G05
G00X2.362Y-3.378
M15
G01X2.3309Y-3.378
M16
G05
G00X2.362Y-3.8346
M15
G01X2.3309Y-3.8346
M16
G05
G00X2.6336Y-3.378
M15
G01X2.6026Y-3.378
M16
G05
G00X2.6336Y-3.8346
M15
G01X2.6026Y-3.8346
M16
G05
G00X2.9053Y-3.378
M15
G01X2.8743Y-3.378
M16
G05
G00X2.9053Y-3.8346
M15
G01X2.8743Y-3.8346
M16
G05
G00X3.1769Y-3.378
M15
G01X3.1459Y-3.378
M16
G05
G00X3.1769Y-3.8346
M15
G01X3.1459Y-3.8346
M16
G05
G00X3.4486Y-3.378
M15
G01X3.4176Y-3.378
M16
G05
G00X3.4486Y-3.8346
M15
G01X3.4176Y-3.8346
M16
G05
G00X3.7202Y-3.378
M15
G01X3.6892Y-3.378
M16
G05
G00X3.7202Y-3.8346
M15
G01X3.6892Y-3.8346
M16
G05
T6
G00X1.1146Y-3.3634
M15
G01X1.1146Y-3.4146
M16
G05
G00X1.5555Y-3.3634
M15
G01X1.5555Y-3.4146
M16
G05
T0
M30
