%TF.GenerationSoftware,KiCad,Pcbnew,7.0.7*%
%TF.CreationDate,2024-01-22T13:38:32-08:00*%
%TF.ProjectId,ProgrammaGull_Sandpiper,50726f67-7261-46d6-9d61-47756c6c5f53,rev?*%
%TF.SameCoordinates,Original*%
%TF.FileFunction,Copper,L4,Bot*%
%TF.FilePolarity,Positive*%
%FSLAX46Y46*%
G04 Gerber Fmt 4.6, Leading zero omitted, Abs format (unit mm)*
G04 Created by KiCad (PCBNEW 7.0.7) date 2024-01-22 13:38:32*
%MOMM*%
%LPD*%
G01*
G04 APERTURE LIST*
%ADD10C,0.400000*%
%TA.AperFunction,NonConductor*%
%ADD11C,0.400000*%
%TD*%
%TA.AperFunction,ComponentPad*%
%ADD12C,1.524000*%
%TD*%
%TA.AperFunction,ComponentPad*%
%ADD13O,2.500000X1.524000*%
%TD*%
%TA.AperFunction,ComponentPad*%
%ADD14O,1.000000X2.100000*%
%TD*%
%TA.AperFunction,ComponentPad*%
%ADD15O,1.000000X1.800000*%
%TD*%
%TA.AperFunction,ComponentPad*%
%ADD16O,1.700000X1.700000*%
%TD*%
%TA.AperFunction,ComponentPad*%
%ADD17R,1.700000X1.700000*%
%TD*%
%TA.AperFunction,ComponentPad*%
%ADD18R,2.000000X2.000000*%
%TD*%
%TA.AperFunction,ComponentPad*%
%ADD19C,2.000000*%
%TD*%
%TA.AperFunction,ComponentPad*%
%ADD20R,2.000000X3.200000*%
%TD*%
%TA.AperFunction,ViaPad*%
%ADD21C,0.550000*%
%TD*%
%TA.AperFunction,ViaPad*%
%ADD22C,0.800000*%
%TD*%
%TA.AperFunction,ViaPad*%
%ADD23C,0.450000*%
%TD*%
%TA.AperFunction,Conductor*%
%ADD24C,0.250000*%
%TD*%
%TA.AperFunction,Conductor*%
%ADD25C,0.500000*%
%TD*%
%TA.AperFunction,Conductor*%
%ADD26C,0.350000*%
%TD*%
G04 APERTURE END LIST*
D10*
D11*
X39513157Y-96612057D02*
X39513157Y-98612057D01*
X38798871Y-95469200D02*
X38084585Y-97612057D01*
X38084585Y-97612057D02*
X39941728Y-97612057D01*
D12*
%TO.P,SW5,1*%
%TO.N,+3V3*%
X59600000Y-88600000D03*
%TO.P,SW5,2*%
%TO.N,Net-(R10-Pad1)*%
X59600000Y-91600000D03*
%TO.P,SW5,3*%
%TO.N,GND*%
X59600000Y-94600000D03*
D13*
%TO.P,SW5,4,CASE*%
X59600000Y-85800000D03*
X59600000Y-97400000D03*
%TD*%
D12*
%TO.P,SW4,1*%
%TO.N,+3V3*%
X66500000Y-88600000D03*
%TO.P,SW4,2*%
%TO.N,Net-(R12-Pad1)*%
X66500000Y-91600000D03*
%TO.P,SW4,3*%
%TO.N,GND*%
X66500000Y-94600000D03*
D13*
%TO.P,SW4,4,CASE*%
X66500000Y-85800000D03*
X66500000Y-97400000D03*
%TD*%
D12*
%TO.P,SW0,1*%
%TO.N,+3V3*%
X94100000Y-88600000D03*
%TO.P,SW0,2*%
%TO.N,Net-(R20-Pad1)*%
X94100000Y-91600000D03*
%TO.P,SW0,3*%
%TO.N,GND*%
X94100000Y-94600000D03*
D13*
%TO.P,SW0,4,CASE*%
X94100000Y-85800000D03*
X94100000Y-97400000D03*
%TD*%
D14*
%TO.P,P1,S1,SHIELD*%
%TO.N,GND*%
X40240000Y-31680000D03*
D15*
X40240000Y-27500000D03*
D14*
X31600000Y-31680000D03*
D15*
X31600000Y-27500000D03*
%TD*%
D12*
%TO.P,SW2,1*%
%TO.N,+3V3*%
X80300000Y-88600000D03*
%TO.P,SW2,2*%
%TO.N,Net-(R16-Pad1)*%
X80300000Y-91600000D03*
%TO.P,SW2,3*%
%TO.N,GND*%
X80300000Y-94600000D03*
D13*
%TO.P,SW2,4,CASE*%
X80300000Y-85800000D03*
X80300000Y-97400000D03*
%TD*%
D12*
%TO.P,SW1,1*%
%TO.N,+3V3*%
X87200000Y-88600000D03*
%TO.P,SW1,2*%
%TO.N,Net-(R18-Pad1)*%
X87200000Y-91600000D03*
%TO.P,SW1,3*%
%TO.N,GND*%
X87200000Y-94600000D03*
D13*
%TO.P,SW1,4,CASE*%
X87200000Y-85800000D03*
X87200000Y-97400000D03*
%TD*%
D16*
%TO.P,J1,28,Pin_28*%
%TO.N,+5V*%
X114875000Y-33020000D03*
%TO.P,J1,27,Pin_27*%
X112335000Y-33020000D03*
%TO.P,J1,26,Pin_26*%
%TO.N,+3V3*%
X114875000Y-35560000D03*
%TO.P,J1,25,Pin_25*%
X112335000Y-35560000D03*
%TO.P,J1,24,Pin_24*%
%TO.N,GND*%
X114875000Y-38100000D03*
%TO.P,J1,23,Pin_23*%
X112335000Y-38100000D03*
%TO.P,J1,22,Pin_22*%
%TO.N,/RCLP_1*%
X114875000Y-40640000D03*
%TO.P,J1,21,Pin_21*%
%TO.N,/RCLP_0*%
X112335000Y-40640000D03*
%TO.P,J1,20,Pin_20*%
%TO.N,unconnected-(J1-Pin_20-Pad20)*%
X114875000Y-43180000D03*
%TO.P,J1,19,Pin_19*%
%TO.N,GND*%
X112335000Y-43180000D03*
%TO.P,J1,18,Pin_18*%
%TO.N,Net-(J1-Pin_18)*%
X114875000Y-45720000D03*
%TO.P,J1,17,Pin_17*%
%TO.N,Net-(J1-Pin_17)*%
X112335000Y-45720000D03*
%TO.P,J1,16,Pin_16*%
%TO.N,Net-(J1-Pin_16)*%
X114875000Y-48260000D03*
%TO.P,J1,15,Pin_15*%
%TO.N,Net-(J1-Pin_15)*%
X112335000Y-48260000D03*
%TO.P,J1,14,Pin_14*%
%TO.N,Net-(J1-Pin_14)*%
X114875000Y-50800000D03*
%TO.P,J1,13,Pin_13*%
%TO.N,Net-(J1-Pin_13)*%
X112335000Y-50800000D03*
%TO.P,J1,12,Pin_12*%
%TO.N,Net-(J1-Pin_12)*%
X114875000Y-53340000D03*
%TO.P,J1,11,Pin_11*%
%TO.N,Net-(J1-Pin_11)*%
X112335000Y-53340000D03*
%TO.P,J1,10,Pin_10*%
%TO.N,GND*%
X114875000Y-55880000D03*
%TO.P,J1,9,Pin_9*%
X112335000Y-55880000D03*
%TO.P,J1,8,Pin_8*%
%TO.N,+3V3*%
X114875000Y-58420000D03*
%TO.P,J1,7,Pin_7*%
X112335000Y-58420000D03*
%TO.P,J1,6,Pin_6*%
%TO.N,/UI_ADC_SE_CHAN_0*%
X114875000Y-60960000D03*
%TO.P,J1,5,Pin_5*%
%TO.N,/UI_ADC_SE_CHAN_1*%
X112335000Y-60960000D03*
%TO.P,J1,4,Pin_4*%
%TO.N,/UI_ADC_SE_CHAN_3*%
X114875000Y-63500000D03*
%TO.P,J1,3,Pin_3*%
%TO.N,/UI_ADC_SE_CHAN_2*%
X112335000Y-63500000D03*
%TO.P,J1,2,Pin_2*%
%TO.N,GND*%
X114875000Y-66040000D03*
D17*
%TO.P,J1,1,Pin_1*%
X112335000Y-66040000D03*
%TD*%
D12*
%TO.P,SW6,1*%
%TO.N,+3V3*%
X52700000Y-88600000D03*
%TO.P,SW6,2*%
%TO.N,Net-(R8-Pad1)*%
X52700000Y-91600000D03*
%TO.P,SW6,3*%
%TO.N,GND*%
X52700000Y-94600000D03*
D13*
%TO.P,SW6,4,CASE*%
X52700000Y-85800000D03*
X52700000Y-97400000D03*
%TD*%
D12*
%TO.P,SW7,1*%
%TO.N,+3V3*%
X45800000Y-88600000D03*
%TO.P,SW7,2*%
%TO.N,Net-(R6-Pad1)*%
X45800000Y-91600000D03*
%TO.P,SW7,3*%
%TO.N,GND*%
X45800000Y-94600000D03*
D13*
%TO.P,SW7,4,CASE*%
X45800000Y-85800000D03*
X45800000Y-97400000D03*
%TD*%
D12*
%TO.P,U8,1,E*%
%TO.N,/UI_SEG_E*%
X53600000Y-40000000D03*
%TO.P,U8,2,D*%
%TO.N,/UI_SEG_D*%
X56140000Y-40000000D03*
%TO.P,U8,3,DP*%
%TO.N,/UI_SEG_DP*%
X58680000Y-40000000D03*
%TO.P,U8,4,C*%
%TO.N,/UI_SEG_C*%
X61220000Y-40000000D03*
%TO.P,U8,5,G*%
%TO.N,/UI_SEG_G*%
X63760000Y-40000000D03*
%TO.P,U8,6,CA3*%
%TO.N,Net-(Q4-C)*%
X66300000Y-40000000D03*
%TO.P,U8,7,B*%
%TO.N,/UI_SEG_B*%
X66300000Y-29740000D03*
%TO.P,U8,8,CA2*%
%TO.N,Net-(Q3-C)*%
X63760000Y-29740000D03*
%TO.P,U8,9,CA1*%
%TO.N,Net-(Q2-C)*%
X61220000Y-29740000D03*
%TO.P,U8,10,F*%
%TO.N,/UI_SEG_F*%
X58680000Y-29740000D03*
%TO.P,U8,11,A*%
%TO.N,/UI_SEG_A*%
X56140000Y-29740000D03*
%TO.P,U8,12,CA0*%
%TO.N,Net-(Q1-C)*%
X53600000Y-29740000D03*
%TD*%
%TO.P,U10,1,E*%
%TO.N,/UI_SEG_E*%
X83700000Y-40000000D03*
%TO.P,U10,2,D*%
%TO.N,/UI_SEG_D*%
X86240000Y-40000000D03*
%TO.P,U10,3,DP*%
%TO.N,/UI_SEG_DP*%
X88780000Y-40000000D03*
%TO.P,U10,4,C*%
%TO.N,/UI_SEG_C*%
X91320000Y-40000000D03*
%TO.P,U10,5,G*%
%TO.N,/UI_SEG_G*%
X93860000Y-40000000D03*
%TO.P,U10,6,CA3*%
%TO.N,Net-(Q8-C)*%
X96400000Y-40000000D03*
%TO.P,U10,7,B*%
%TO.N,/UI_SEG_B*%
X96400000Y-29740000D03*
%TO.P,U10,8,CA2*%
%TO.N,Net-(Q7-C)*%
X93860000Y-29740000D03*
%TO.P,U10,9,CA1*%
%TO.N,Net-(Q6-C)*%
X91320000Y-29740000D03*
%TO.P,U10,10,F*%
%TO.N,/UI_SEG_F*%
X88780000Y-29740000D03*
%TO.P,U10,11,A*%
%TO.N,/UI_SEG_A*%
X86240000Y-29740000D03*
%TO.P,U10,12,CA0*%
%TO.N,Net-(Q5-C)*%
X83700000Y-29740000D03*
%TD*%
%TO.P,SW3,1*%
%TO.N,+3V3*%
X73400000Y-88600000D03*
%TO.P,SW3,2*%
%TO.N,Net-(R14-Pad1)*%
X73400000Y-91600000D03*
%TO.P,SW3,3*%
%TO.N,GND*%
X73400000Y-94600000D03*
D13*
%TO.P,SW3,4,CASE*%
X73400000Y-85800000D03*
X73400000Y-97400000D03*
%TD*%
D18*
%TO.P,SW8,A,A*%
%TO.N,Net-(R77-Pad2)*%
X36410000Y-78580000D03*
D19*
%TO.P,SW8,B,B*%
%TO.N,Net-(R75-Pad2)*%
X31410000Y-78580000D03*
%TO.P,SW8,C,C*%
%TO.N,GND*%
X33910000Y-78580000D03*
D20*
%TO.P,SW8,MP*%
%TO.N,N/C*%
X39510000Y-86080000D03*
X28310000Y-86080000D03*
D19*
%TO.P,SW8,S1,S1*%
%TO.N,+3V3*%
X31410000Y-93080000D03*
%TO.P,SW8,S2,S2*%
%TO.N,Net-(R63-Pad2)*%
X36410000Y-93080000D03*
%TD*%
D21*
%TO.N,/UI_ADC_DO*%
X105700000Y-58550000D03*
D22*
%TO.N,GND*%
X106925000Y-66800000D03*
%TO.N,/UI_GPIO0*%
X104250000Y-47000000D03*
%TO.N,+5V*%
X99750000Y-40250000D03*
X51200000Y-45400000D03*
X89200000Y-53100000D03*
X64500000Y-45400000D03*
X26450000Y-35700000D03*
X99900000Y-45400000D03*
X73700000Y-45450000D03*
X47450000Y-45400000D03*
X99750000Y-39250000D03*
X46000000Y-35000000D03*
X99750000Y-41250000D03*
X96100000Y-45400000D03*
X46000000Y-34000000D03*
X46000000Y-33000000D03*
X27050000Y-34600000D03*
X77450000Y-45400000D03*
X70200000Y-44100000D03*
X54490000Y-43600000D03*
X96300000Y-43800000D03*
X69700000Y-45400000D03*
X58590000Y-43600000D03*
X56550000Y-43600000D03*
X70200000Y-53300000D03*
X99750000Y-38250000D03*
X49000000Y-73650000D03*
%TO.N,GND*%
X39150000Y-56000000D03*
X81450000Y-62850000D03*
X33300000Y-43400000D03*
X47350000Y-60750000D03*
X58590000Y-45500000D03*
X80300000Y-81937500D03*
X59925000Y-74000000D03*
X31700000Y-35150000D03*
X48980000Y-75530000D03*
X35150000Y-55250000D03*
X26200000Y-29750000D03*
X38200000Y-44275000D03*
X117360000Y-79350000D03*
X38175000Y-59400000D03*
X71000000Y-76100000D03*
X41450000Y-43700000D03*
X37600000Y-53350000D03*
X74000000Y-76440000D03*
X74940000Y-64320000D03*
X107675000Y-35570000D03*
X37550000Y-52500000D03*
X45800000Y-81937500D03*
X56550000Y-45500000D03*
X86500000Y-53000000D03*
X35400000Y-50100000D03*
X38000000Y-47200000D03*
X43600000Y-55400000D03*
X36850000Y-54900000D03*
X36000000Y-55200000D03*
X35200000Y-45300000D03*
X82850000Y-52650000D03*
X73400000Y-81937500D03*
X65350000Y-75900000D03*
X85450000Y-53000000D03*
X31050000Y-34600000D03*
X113800000Y-91050000D03*
X78750000Y-58100000D03*
X47600000Y-54500000D03*
X54490000Y-45500000D03*
X87200000Y-81937500D03*
X50750000Y-75150000D03*
X117340000Y-95340000D03*
X52000000Y-63700000D03*
X26200000Y-31550000D03*
X31420000Y-72730000D03*
X26200000Y-33100000D03*
X36350000Y-53500000D03*
X120670000Y-92270000D03*
X52700000Y-81937500D03*
X40900000Y-75600000D03*
X51420000Y-52170000D03*
X75000000Y-68600000D03*
X59640000Y-70410000D03*
X29600000Y-54000000D03*
X67550000Y-53000000D03*
X39700000Y-59400000D03*
X57060000Y-73770000D03*
X66500000Y-70775000D03*
X34800000Y-53850000D03*
X107675000Y-42160000D03*
X76040000Y-65420000D03*
X87900000Y-68000000D03*
X36400000Y-72720000D03*
X64150000Y-52350000D03*
X37350000Y-54200000D03*
X29250000Y-33100000D03*
X68175500Y-75300000D03*
X90400000Y-74375000D03*
X107150000Y-62215000D03*
X107650000Y-31970000D03*
X78300000Y-72900000D03*
X66500000Y-81937500D03*
X81450000Y-61350000D03*
X107675000Y-39120000D03*
X32800000Y-56800000D03*
X36500000Y-52000000D03*
X94100000Y-81937500D03*
X28150000Y-43450000D03*
X31650000Y-47050000D03*
X66450000Y-53000000D03*
X62725000Y-74000000D03*
X54470000Y-73370000D03*
X57105000Y-61300000D03*
X31050000Y-35700000D03*
X53370000Y-73370000D03*
X38200000Y-36500000D03*
X72000000Y-51400000D03*
X40055497Y-47924500D03*
X86100000Y-67600000D03*
X106450000Y-62715000D03*
X33500000Y-36500000D03*
X69500000Y-72900000D03*
X73900000Y-67500000D03*
X104340000Y-92250000D03*
X83800000Y-76950000D03*
X109200000Y-56095000D03*
X77100000Y-64400000D03*
X77100000Y-66500000D03*
X63600000Y-57200000D03*
X72900000Y-66400000D03*
X42800000Y-58675000D03*
X72900000Y-68600000D03*
X59600000Y-81937500D03*
X90950000Y-51150000D03*
%TO.N,+3V3*%
X30550000Y-40900000D03*
X52100000Y-69125000D03*
X109225000Y-35570000D03*
X43250000Y-42212500D03*
X67090000Y-74360000D03*
X122000000Y-84540000D03*
X39925000Y-66750000D03*
X122000000Y-90440000D03*
X103000000Y-90420000D03*
X28150000Y-42050000D03*
X115420000Y-94010000D03*
X31420000Y-74200000D03*
X59925000Y-75000000D03*
X29750000Y-42050000D03*
X57750000Y-70720000D03*
X115470000Y-86010000D03*
X90400000Y-72825000D03*
X57600000Y-52200000D03*
X67100000Y-76300000D03*
X28750000Y-34600000D03*
X84200000Y-69200000D03*
X29750000Y-48850000D03*
X61175000Y-71100000D03*
X27550000Y-41450000D03*
X29350000Y-35700000D03*
X30550000Y-42050000D03*
D23*
X70400000Y-54900000D03*
D22*
X43300000Y-48475000D03*
X28950000Y-40900000D03*
X51420000Y-53750000D03*
X115460000Y-78000000D03*
X39925000Y-63950000D03*
X109560000Y-94010000D03*
X76700000Y-72900000D03*
X105375000Y-66800000D03*
X81350000Y-52600000D03*
X39150000Y-52750000D03*
X103000000Y-84550000D03*
X54175000Y-63400000D03*
X59925000Y-73100000D03*
X42000000Y-57000000D03*
X50100000Y-57300000D03*
X42700000Y-51450000D03*
X79900000Y-61350000D03*
X46150000Y-54250000D03*
X109590000Y-86000000D03*
X68000000Y-69175000D03*
X29650000Y-57150000D03*
X50800000Y-63500000D03*
X109570000Y-77990000D03*
X29600000Y-52200000D03*
X28950000Y-42050000D03*
X86150000Y-69550000D03*
X65150000Y-57250000D03*
X29750000Y-40900000D03*
X28150000Y-40900000D03*
X109200000Y-57645000D03*
X36600000Y-59400000D03*
X36410000Y-74200000D03*
D21*
%TO.N,+1V2*%
X74010000Y-72870000D03*
X76020000Y-59620000D03*
D22*
%TO.N,/UI_RGBLED_B*%
X81362500Y-69300000D03*
X80300000Y-68300000D03*
D21*
%TO.N,/UI_GPIO1*%
X75850000Y-58450000D03*
X94050000Y-58150000D03*
D22*
%TO.N,/UI_GPIO0*%
X107625000Y-40620000D03*
D21*
X73425000Y-60625000D03*
%TO.N,/UI_SW7*%
X81100000Y-76050000D03*
D22*
X48000000Y-82675000D03*
%TO.N,/UI_SW6*%
X54900000Y-82675000D03*
D21*
X83500000Y-75400000D03*
%TO.N,/UI_SW5*%
X81100000Y-74750000D03*
D22*
X61800000Y-82675000D03*
D21*
%TO.N,/UI_SW4*%
X68700000Y-82650500D03*
X83500000Y-74100000D03*
D22*
%TO.N,/UI_SW3*%
X75600000Y-82675000D03*
D21*
X85549500Y-74102205D03*
D22*
%TO.N,/UI_SW2*%
X82500000Y-82675000D03*
D21*
X85906169Y-74761402D03*
%TO.N,/UI_SW1*%
X86322967Y-75384325D03*
D22*
X89400000Y-82675000D03*
D21*
%TO.N,/UI_SW0*%
X86800000Y-76054556D03*
D22*
X96300000Y-82675000D03*
%TO.N,/FLASH_CS*%
X65500000Y-65550000D03*
X32250000Y-51700000D03*
%TO.N,/EEPROM_SPI_DO*%
X42600000Y-55400000D03*
X44400000Y-58725000D03*
%TO.N,/FLASH_SCK*%
X64450000Y-64100000D03*
X31500000Y-48975500D03*
%TO.N,/UI_SEG_A*%
X56100000Y-32200000D03*
X80800000Y-45800000D03*
X86200000Y-32200000D03*
X73500000Y-32200000D03*
%TO.N,/UI_SEG_B*%
X74300000Y-33000000D03*
X96300000Y-33000000D03*
X66300000Y-33000000D03*
X82400000Y-45800000D03*
X66300000Y-33000000D03*
%TO.N,/UI_SEG_C*%
X61200000Y-33800000D03*
X84000000Y-45800000D03*
X75100000Y-33800000D03*
X91300000Y-33800000D03*
%TO.N,/UI_SEG_D*%
X56100000Y-34600000D03*
X75900000Y-34600000D03*
X86200000Y-34600000D03*
X85600000Y-45800000D03*
%TO.N,/UI_SEG_E*%
X53600000Y-35400000D03*
X87200000Y-45800000D03*
X76700000Y-35400000D03*
X83600000Y-35400000D03*
%TO.N,/UI_SEG_F*%
X77500000Y-36200000D03*
X88800000Y-45800000D03*
X88700000Y-36200000D03*
X58600000Y-36200000D03*
%TO.N,/UI_SEG_G*%
X63700000Y-37000000D03*
X90400000Y-45800000D03*
X93800000Y-37000000D03*
X78300000Y-37000000D03*
%TO.N,/UI_SEG_DP*%
X79100000Y-37800000D03*
X58600000Y-37800000D03*
X92000000Y-45800000D03*
X88700000Y-37800000D03*
%TO.N,/~{UI_7SEGSR_OE}*%
X69400000Y-57300000D03*
D23*
X86050607Y-55913612D03*
X67800500Y-57475500D03*
D22*
%TO.N,/UI_ENC_B*%
X32960000Y-72740000D03*
D21*
X72225865Y-70849500D03*
D23*
%TO.N,/~{UI_ULEDSR_OE}*%
X53623000Y-70750000D03*
D22*
X52100000Y-70775000D03*
D21*
%TO.N,/UP5K_CDONE*%
X74375000Y-59225000D03*
D22*
X33050000Y-53700000D03*
D21*
%TO.N,/UP5K_CRESET*%
X74050000Y-60050000D03*
X65150000Y-59900000D03*
D22*
X33050000Y-54700000D03*
D23*
%TO.N,/UI_7SEGSR_CLK*%
X85000000Y-55150000D03*
X66701500Y-56550000D03*
%TO.N,/UI_7SEGSR_RCLK*%
X85532093Y-55522465D03*
X67251000Y-57000000D03*
D22*
%TO.N,/FLASH_MOSI*%
X65650000Y-64025500D03*
X32850000Y-50900000D03*
%TO.N,/FLASH_MISO*%
X30200000Y-50400000D03*
X66354143Y-66069079D03*
D21*
%TO.N,/UI_ENC_A*%
X71569655Y-70487364D03*
D22*
X34870000Y-72730000D03*
%TO.N,/UI_ADC_DO*%
X107575000Y-52070000D03*
%TO.N,/CLK_12M*%
X78600000Y-70100000D03*
X38300000Y-50000000D03*
X48200000Y-63400000D03*
%TO.N,/UI_7SEG_SER_CARRY*%
X64150000Y-53600000D03*
D23*
X86588555Y-56277570D03*
D22*
%TO.N,Net-(U7-BCBUS4)*%
X39150000Y-54050000D03*
X34495800Y-59656794D03*
%TO.N,Net-(U7-BCBUS3)*%
X39150000Y-55000000D03*
X34500895Y-60676297D03*
D21*
%TO.N,/UI_ENC_SW*%
X42580000Y-70400000D03*
X72950133Y-71070698D03*
D22*
%TO.N,/UI_ULEDSR_RCLK*%
X64880000Y-69130000D03*
X69500000Y-69900000D03*
D21*
%TO.N,/SERIAL_SW_D*%
X75400000Y-73250000D03*
X84200000Y-72074500D03*
%TO.N,/SW_SH_CLKEN*%
X75070000Y-72560000D03*
X86750000Y-73150000D03*
%TO.N,/SW_SH_CLK*%
X80400000Y-73450000D03*
D22*
X63760000Y-69670000D03*
D21*
X72989337Y-71819175D03*
%TD*%
D24*
%TO.N,/UI_GPIO1*%
X76700000Y-59300000D02*
X75850000Y-58450000D01*
X94050000Y-58150000D02*
X92900000Y-59300000D01*
X92900000Y-59300000D02*
X76700000Y-59300000D01*
%TO.N,/UI_GPIO0*%
X104280000Y-47030000D02*
X104280000Y-48800000D01*
X104250000Y-47000000D02*
X104280000Y-47030000D01*
X104280000Y-46970000D02*
X104250000Y-47000000D01*
X104280000Y-52320000D02*
X104280000Y-48800000D01*
X104280000Y-48800000D02*
X104280000Y-48095000D01*
X104280000Y-43965000D02*
X104280000Y-46970000D01*
X107625000Y-40620000D02*
X104280000Y-43965000D01*
D25*
%TO.N,+5V*%
X69700000Y-52800000D02*
X70200000Y-53300000D01*
X89200000Y-50180000D02*
X90870000Y-48510000D01*
X47350000Y-73650000D02*
X49000000Y-73650000D01*
X90870000Y-48510000D02*
X92890000Y-48510000D01*
X39600000Y-81400000D02*
X43250000Y-77750000D01*
X26000000Y-43950000D02*
X26000000Y-79550000D01*
X69700000Y-45400000D02*
X69700000Y-44600000D01*
X27050000Y-35100000D02*
X26450000Y-35700000D01*
X69700000Y-45400000D02*
X69700000Y-52800000D01*
X89200000Y-53100000D02*
X89200000Y-50180000D01*
X49000000Y-73650000D02*
X49050000Y-73650000D01*
X69700000Y-44600000D02*
X70200000Y-44100000D01*
X26000000Y-79550000D02*
X27850000Y-81400000D01*
X96000000Y-45400000D02*
X92890000Y-48510000D01*
X96100000Y-45400000D02*
X96000000Y-45400000D01*
X26000000Y-36150000D02*
X26000000Y-43950000D01*
X27850000Y-81400000D02*
X39600000Y-81400000D01*
X27050000Y-34600000D02*
X27050000Y-35100000D01*
X43250000Y-77750000D02*
X47350000Y-73650000D01*
X26450000Y-35700000D02*
X26000000Y-36150000D01*
X96300000Y-43800000D02*
X96300000Y-45200000D01*
X96300000Y-45200000D02*
X96100000Y-45400000D01*
D24*
%TO.N,/UI_RGBLED_B*%
X81300000Y-69300000D02*
X80300000Y-68300000D01*
X81062500Y-69000000D02*
X81000000Y-69000000D01*
%TO.N,/UI_GPIO0*%
X107625000Y-40620000D02*
X107675000Y-40620000D01*
X76850000Y-61050000D02*
X78000000Y-59900000D01*
X96700000Y-59900000D02*
X104280000Y-52320000D01*
X73850000Y-61050000D02*
X76850000Y-61050000D01*
X73425000Y-60625000D02*
X73850000Y-61050000D01*
X73425000Y-60625000D02*
X73700000Y-60900000D01*
X78000000Y-59900000D02*
X96700000Y-59900000D01*
%TO.N,/UI_SW7*%
X80950000Y-76050000D02*
X72850000Y-84150000D01*
X49475000Y-84150000D02*
X48000000Y-82675000D01*
X81100000Y-76050000D02*
X80950000Y-76050000D01*
X72850000Y-84150000D02*
X49475000Y-84150000D01*
%TO.N,/UI_SW6*%
X80800000Y-75400000D02*
X79850000Y-76350000D01*
X54900000Y-82675000D02*
X55925000Y-83700000D01*
X72663604Y-83700000D02*
X79850000Y-76513604D01*
X55925000Y-83700000D02*
X72663604Y-83700000D01*
X80800000Y-75400000D02*
X83500000Y-75400000D01*
X79850000Y-76350000D02*
X79850000Y-76513604D01*
%TO.N,/UI_SW5*%
X61800000Y-82675000D02*
X62375000Y-83250000D01*
X78125000Y-75975000D02*
X79125000Y-75975000D01*
X79125000Y-75975000D02*
X80350000Y-74750000D01*
X80350000Y-74750000D02*
X81100000Y-74750000D01*
X70850000Y-83250000D02*
X78125000Y-75975000D01*
X62375000Y-83250000D02*
X70850000Y-83250000D01*
%TO.N,/UI_SW4*%
X72431802Y-81031802D02*
X77981802Y-75481802D01*
X71863604Y-81600000D02*
X72431802Y-81031802D01*
X68849500Y-82800000D02*
X70663604Y-82800000D01*
X70663604Y-82800000D02*
X72431802Y-81031802D01*
X77981802Y-75481802D02*
X78981802Y-75481802D01*
X68700000Y-82650500D02*
X68849500Y-82800000D01*
X78981802Y-75481802D02*
X80363604Y-74100000D01*
X80363604Y-74100000D02*
X83500000Y-74100000D01*
%TO.N,/UI_SW3*%
X82163604Y-79950000D02*
X84750000Y-77363604D01*
X84750000Y-74901705D02*
X85549500Y-74102205D01*
X78325000Y-79950000D02*
X82163604Y-79950000D01*
X75600000Y-82675000D02*
X78325000Y-79950000D01*
X84750000Y-77363604D02*
X84750000Y-74901705D01*
%TO.N,/UI_SW2*%
X82500000Y-80250000D02*
X85200000Y-77550000D01*
X85200000Y-75467571D02*
X85906169Y-74761402D01*
X82500000Y-82675000D02*
X82500000Y-80250000D01*
X85200000Y-77550000D02*
X85200000Y-75467571D01*
%TO.N,/UI_SW1*%
X86950000Y-78400000D02*
X86200000Y-77650000D01*
X86200000Y-75507292D02*
X86322967Y-75384325D01*
X89400000Y-82675000D02*
X89400000Y-79800000D01*
X89400000Y-79800000D02*
X88000000Y-78400000D01*
X88000000Y-78400000D02*
X86950000Y-78400000D01*
X86200000Y-77650000D02*
X86200000Y-75507292D01*
%TO.N,/UI_SW0*%
X86800000Y-77500000D02*
X86800000Y-76054556D01*
X88136396Y-77900000D02*
X87200000Y-77900000D01*
X96300000Y-82675000D02*
X92911396Y-82675000D01*
X87200000Y-77900000D02*
X86800000Y-77500000D01*
X92911396Y-82675000D02*
X88136396Y-77900000D01*
%TO.N,/FLASH_CS*%
X42486396Y-62636396D02*
X34086396Y-62636396D01*
X47052208Y-66325000D02*
X46675000Y-66325000D01*
X34086396Y-62636396D02*
X30950000Y-59500000D01*
X65500000Y-65550000D02*
X64725000Y-66325000D01*
X64725000Y-66325000D02*
X47052208Y-66325000D01*
X46175000Y-66325000D02*
X42486396Y-62636396D01*
X30950000Y-59500000D02*
X30950000Y-53000000D01*
X46675000Y-66325000D02*
X46175000Y-66325000D01*
X30950000Y-53000000D02*
X32250000Y-51700000D01*
%TO.N,/EEPROM_SPI_DO*%
X42600000Y-56400000D02*
X42600000Y-55400000D01*
X44400000Y-58200000D02*
X42600000Y-56400000D01*
X44400000Y-58725000D02*
X44400000Y-58200000D01*
%TO.N,/FLASH_SCK*%
X42950000Y-61650000D02*
X34450000Y-61650000D01*
X46725000Y-65425000D02*
X42950000Y-61650000D01*
X34450000Y-61650000D02*
X31850000Y-59050000D01*
X31950805Y-48975500D02*
X31500000Y-48975500D01*
X63125000Y-65425000D02*
X46725000Y-65425000D01*
X33575000Y-50599695D02*
X31950805Y-48975500D01*
X31850000Y-59050000D02*
X31850000Y-53463604D01*
X64450000Y-64100000D02*
X63125000Y-65425000D01*
X32786396Y-52900000D02*
X33575000Y-52111396D01*
X32413604Y-52900000D02*
X32786396Y-52900000D01*
X31850000Y-53463604D02*
X32413604Y-52900000D01*
X33575000Y-52111396D02*
X33575000Y-50599695D01*
%TO.N,/UI_SEG_A*%
X66300000Y-32200000D02*
X56100000Y-32200000D01*
X86200000Y-32200000D02*
X66300000Y-32200000D01*
%TO.N,/UI_SEG_B*%
X69300000Y-33000000D02*
X66300000Y-33000000D01*
X96400000Y-33000000D02*
X96300000Y-33000000D01*
X96300000Y-33000000D02*
X69300000Y-33000000D01*
%TO.N,/UI_SEG_C*%
X91300000Y-33800000D02*
X70100000Y-33800000D01*
X70100000Y-33800000D02*
X61200000Y-33800000D01*
%TO.N,/UI_SEG_D*%
X70900000Y-34600000D02*
X56100000Y-34600000D01*
X86200000Y-34600000D02*
X70900000Y-34600000D01*
%TO.N,/UI_SEG_E*%
X71700000Y-35400000D02*
X83600000Y-35400000D01*
X53600000Y-35400000D02*
X71700000Y-35400000D01*
%TO.N,/UI_SEG_F*%
X88700000Y-36200000D02*
X72500000Y-36200000D01*
X72500000Y-36200000D02*
X58600000Y-36200000D01*
%TO.N,/UI_SEG_G*%
X73300000Y-37000000D02*
X63700000Y-37000000D01*
X93800000Y-37000000D02*
X73300000Y-37000000D01*
%TO.N,/UI_SEG_DP*%
X74100000Y-37800000D02*
X58600000Y-37800000D01*
X88700000Y-37800000D02*
X74100000Y-37800000D01*
%TO.N,/~{UI_7SEGSR_OE}*%
X72850000Y-56500000D02*
X85464219Y-56500000D01*
X69400000Y-57300000D02*
X67976000Y-57300000D01*
X85464219Y-56500000D02*
X86050607Y-55913612D01*
X72160000Y-57190000D02*
X72850000Y-56500000D01*
X72050000Y-57300000D02*
X69400000Y-57300000D01*
X72160000Y-57190000D02*
X72050000Y-57300000D01*
X67976000Y-57300000D02*
X67800500Y-57475500D01*
%TO.N,/UI_ENC_B*%
X49283604Y-67810000D02*
X45863604Y-71230000D01*
X34470000Y-71230000D02*
X32960000Y-72740000D01*
X72225865Y-70849500D02*
X72225865Y-70019814D01*
X70016051Y-67810000D02*
X49283604Y-67810000D01*
X72225865Y-70019814D02*
X70016051Y-67810000D01*
X45863604Y-71230000D02*
X34470000Y-71230000D01*
%TO.N,/~{UI_ULEDSR_OE}*%
X52125000Y-70750000D02*
X52100000Y-70775000D01*
X53623000Y-70750000D02*
X52125000Y-70750000D01*
%TO.N,/UP5K_CDONE*%
X40786396Y-49750000D02*
X39486396Y-48450000D01*
X36750000Y-49100000D02*
X36750000Y-50000000D01*
X37400000Y-48450000D02*
X36750000Y-49100000D01*
X74375000Y-59225000D02*
X74150000Y-59000000D01*
X45700000Y-49750000D02*
X40786396Y-49750000D01*
X36750000Y-50000000D02*
X33050000Y-53700000D01*
X39486396Y-48450000D02*
X37400000Y-48450000D01*
X54950000Y-59000000D02*
X45700000Y-49750000D01*
X74150000Y-59000000D02*
X54950000Y-59000000D01*
%TO.N,/UP5K_CRESET*%
X37800000Y-48900000D02*
X37200000Y-49500000D01*
X55213604Y-59900000D02*
X45513604Y-50200000D01*
X45513604Y-50200000D02*
X40600000Y-50200000D01*
X33900000Y-53500000D02*
X33900000Y-53875305D01*
X65150000Y-59900000D02*
X55213604Y-59900000D01*
X33900000Y-53875305D02*
X33075305Y-54700000D01*
X40600000Y-50200000D02*
X39300000Y-48900000D01*
X39300000Y-48900000D02*
X37800000Y-48900000D01*
X37200000Y-50200000D02*
X33900000Y-53500000D01*
X37200000Y-49500000D02*
X37200000Y-50200000D01*
X33075305Y-54700000D02*
X33050000Y-54700000D01*
X73900000Y-59900000D02*
X74050000Y-60050000D01*
X65150000Y-59900000D02*
X73900000Y-59900000D01*
%TO.N,/UI_7SEGSR_CLK*%
X68800000Y-56000000D02*
X71700000Y-56000000D01*
X72240000Y-55460000D02*
X84690000Y-55460000D01*
X71700000Y-56000000D02*
X72200000Y-55500000D01*
X67251500Y-56000000D02*
X68800000Y-56000000D01*
X71700000Y-56000000D02*
X72240000Y-55460000D01*
X84690000Y-55460000D02*
X85000000Y-55150000D01*
X66701500Y-56550000D02*
X67251500Y-56000000D01*
%TO.N,/UI_7SEGSR_RCLK*%
X69450000Y-56575000D02*
X71975000Y-56575000D01*
X72120000Y-56430000D02*
X72570000Y-55980000D01*
X67676000Y-56575000D02*
X69450000Y-56575000D01*
X72570000Y-55980000D02*
X85074558Y-55980000D01*
X85074558Y-55980000D02*
X85532093Y-55522465D01*
X71975000Y-56575000D02*
X72120000Y-56430000D01*
X67251000Y-57000000D02*
X67676000Y-56575000D01*
%TO.N,/FLASH_MOSI*%
X32600000Y-52450000D02*
X32150000Y-52450000D01*
X32150000Y-52450000D02*
X31400000Y-53200000D01*
X34263604Y-62100000D02*
X42675000Y-62100000D01*
X31400000Y-59236396D02*
X34263604Y-62100000D01*
X32850000Y-50900000D02*
X32975000Y-51025000D01*
X63800500Y-65875000D02*
X65650000Y-64025500D01*
X31400000Y-53200000D02*
X31400000Y-59236396D01*
X32975000Y-51025000D02*
X32975000Y-52075000D01*
X42675000Y-62100000D02*
X46450000Y-65875000D01*
X32975000Y-52075000D02*
X32600000Y-52450000D01*
X46450000Y-65875000D02*
X63800500Y-65875000D01*
%TO.N,/FLASH_MISO*%
X40450000Y-63086396D02*
X33900000Y-63086396D01*
X33900000Y-63086396D02*
X30500000Y-59686396D01*
X66354143Y-66069079D02*
X65648222Y-66775000D01*
X30500000Y-50700000D02*
X30500000Y-54800000D01*
X40677208Y-63086396D02*
X40450000Y-63086396D01*
X30500000Y-59686396D02*
X30500000Y-58750000D01*
X42236396Y-63086396D02*
X40450000Y-63086396D01*
X30500000Y-54800000D02*
X30500000Y-58750000D01*
X45925000Y-66775000D02*
X42236396Y-63086396D01*
X30200000Y-50400000D02*
X30500000Y-50700000D01*
X65648222Y-66775000D02*
X45925000Y-66775000D01*
%TO.N,/UI_ENC_A*%
X49470000Y-68260000D02*
X69829655Y-68260000D01*
X71569655Y-70000000D02*
X71569655Y-70487364D01*
X69829655Y-68260000D02*
X71569655Y-70000000D01*
X34870000Y-72730000D02*
X35920000Y-71680000D01*
X35920000Y-71680000D02*
X46050000Y-71680000D01*
X46050000Y-71680000D02*
X49470000Y-68260000D01*
%TO.N,/UI_ADC_DO*%
X107575000Y-52070000D02*
X105725755Y-53919245D01*
X105725755Y-53919245D02*
X105725755Y-58514971D01*
D25*
%TO.N,/CLK_12M*%
X46100000Y-61300000D02*
X48200000Y-63400000D01*
X73900000Y-65400000D02*
X70975000Y-62475000D01*
X70975000Y-62475000D02*
X69700000Y-62475000D01*
X42900000Y-52800000D02*
X46100000Y-56000000D01*
X41100000Y-52800000D02*
X42900000Y-52800000D01*
X46100000Y-56000000D02*
X46100000Y-61300000D01*
X54700000Y-62475000D02*
X49125000Y-62475000D01*
X69700000Y-62475000D02*
X61600000Y-62475000D01*
D24*
X38300000Y-50000000D02*
X38400000Y-50200000D01*
D25*
X78600000Y-70100000D02*
X73900000Y-65400000D01*
X38300000Y-50000000D02*
X41100000Y-52800000D01*
X49125000Y-62475000D02*
X48200000Y-63400000D01*
X61600000Y-62475000D02*
X54700000Y-62475000D01*
D24*
%TO.N,/UI_7SEG_SER_CARRY*%
X85841126Y-57025000D02*
X86588555Y-56277570D01*
X72855000Y-57315000D02*
X72145000Y-58025000D01*
X73145000Y-57025000D02*
X85841126Y-57025000D01*
X67075000Y-58025000D02*
X64150000Y-55100000D01*
X71270000Y-58025000D02*
X67075000Y-58025000D01*
X72855000Y-57315000D02*
X73145000Y-57025000D01*
X72520000Y-57650000D02*
X72150000Y-58020000D01*
X64150000Y-55100000D02*
X64150000Y-53600000D01*
X73150000Y-57020000D02*
X72520000Y-57650000D01*
X72520000Y-57650000D02*
X72855000Y-57315000D01*
X72145000Y-58025000D02*
X71270000Y-58025000D01*
%TO.N,Net-(U7-BCBUS4)*%
X35425000Y-58727594D02*
X35425000Y-57350305D01*
X34495800Y-59656794D02*
X35425000Y-58727594D01*
X35425000Y-57350305D02*
X38725305Y-54050000D01*
X38725305Y-54050000D02*
X39150000Y-54050000D01*
%TO.N,Net-(U7-BCBUS3)*%
X35875000Y-59302192D02*
X35875000Y-57675000D01*
X34500895Y-60676297D02*
X35875000Y-59302192D01*
X35875000Y-57675000D02*
X38550000Y-55000000D01*
X38550000Y-55000000D02*
X39150000Y-55000000D01*
%TO.N,/UI_ENC_SW*%
X49097208Y-67360000D02*
X48143604Y-68313604D01*
X69260000Y-67360000D02*
X49097208Y-67360000D01*
X42580000Y-70400000D02*
X42560000Y-70400000D01*
X48143604Y-68313604D02*
X46778604Y-69678604D01*
X46057208Y-70400000D02*
X42580000Y-70400000D01*
X46778604Y-69678604D02*
X46057208Y-70400000D01*
X72331223Y-69488776D02*
X70202447Y-67360000D01*
X72950133Y-71070698D02*
X72950133Y-70107686D01*
X72950133Y-70107686D02*
X72331223Y-69488776D01*
X70202447Y-67360000D02*
X69260000Y-67360000D01*
%TO.N,/UI_ULEDSR_RCLK*%
X64880000Y-69140000D02*
X64880000Y-69130000D01*
X65665000Y-69925000D02*
X64880000Y-69140000D01*
X65780000Y-69925000D02*
X65665000Y-69925000D01*
X69475000Y-69925000D02*
X65780000Y-69925000D01*
X64880000Y-69130000D02*
X64870000Y-69130000D01*
X64870000Y-69130000D02*
X64870000Y-69130000D01*
X69500000Y-69900000D02*
X69475000Y-69925000D01*
%TO.N,/SERIAL_SW_D*%
X75670000Y-72596396D02*
X75670000Y-72980000D01*
X84200000Y-72074500D02*
X84125500Y-72000000D01*
X75670000Y-72980000D02*
X75400000Y-73250000D01*
X84125500Y-72000000D02*
X76266396Y-72000000D01*
X76266396Y-72000000D02*
X75670000Y-72596396D01*
%TO.N,/SW_SH_CLKEN*%
X78250000Y-71450000D02*
X85050000Y-71450000D01*
X85050000Y-71450000D02*
X86750000Y-73150000D01*
X75070000Y-72560000D02*
X76180000Y-71450000D01*
X76180000Y-71450000D02*
X78250000Y-71450000D01*
D26*
%TO.N,/SW_SH_CLK*%
X72989337Y-71819175D02*
X65909175Y-71819175D01*
X65909175Y-71819175D02*
X63760000Y-69670000D01*
D24*
X64300000Y-70270000D02*
X63760000Y-69730000D01*
D26*
X78850000Y-74100000D02*
X79500000Y-73450000D01*
X74000000Y-74100000D02*
X72989337Y-73089337D01*
X72989337Y-73089337D02*
X72989337Y-71819175D01*
D24*
X63760000Y-69670000D02*
X63700000Y-69670000D01*
D26*
X79500000Y-73450000D02*
X79100000Y-73850000D01*
D24*
X63700000Y-69670000D02*
X63700000Y-69670000D01*
D26*
X74900000Y-74100000D02*
X74000000Y-74100000D01*
D24*
X63760000Y-69730000D02*
X63760000Y-69670000D01*
D26*
X80400000Y-73450000D02*
X79500000Y-73450000D01*
X78300000Y-74100000D02*
X74900000Y-74100000D01*
X78300000Y-74100000D02*
X78850000Y-74100000D01*
X79100000Y-73850000D02*
X79050000Y-73900000D01*
%TD*%
M02*
