%TF.GenerationSoftware,KiCad,Pcbnew,7.0.7*%
%TF.CreationDate,2023-11-08T14:01:29-08:00*%
%TF.ProjectId,ProgrammaGull_Sandpiper,50726f67-7261-46d6-9d61-47756c6c5f53,rev?*%
%TF.SameCoordinates,Original*%
%TF.FileFunction,Soldermask,Bot*%
%TF.FilePolarity,Negative*%
%FSLAX46Y46*%
G04 Gerber Fmt 4.6, Leading zero omitted, Abs format (unit mm)*
G04 Created by KiCad (PCBNEW 7.0.7) date 2023-11-08 14:01:29*
%MOMM*%
%LPD*%
G01*
G04 APERTURE LIST*
%ADD10C,1.524000*%
%ADD11O,2.500000X1.524000*%
%ADD12C,0.650000*%
%ADD13O,1.000000X2.100000*%
%ADD14O,1.000000X1.800000*%
%ADD15R,1.700000X1.700000*%
%ADD16O,1.700000X1.700000*%
G04 APERTURE END LIST*
D10*
%TO.C,SW5*%
X59600000Y-88600000D03*
X59600000Y-91600000D03*
X59600000Y-94600000D03*
D11*
X59600000Y-85800000D03*
X59600000Y-97400000D03*
%TD*%
D10*
%TO.C,SW4*%
X66500000Y-88600000D03*
X66500000Y-91600000D03*
X66500000Y-94600000D03*
D11*
X66500000Y-85800000D03*
X66500000Y-97400000D03*
%TD*%
D10*
%TO.C,SW0*%
X94100000Y-88600000D03*
X94100000Y-91600000D03*
X94100000Y-94600000D03*
D11*
X94100000Y-85800000D03*
X94100000Y-97400000D03*
%TD*%
D12*
%TO.C,P1*%
X38810000Y-31180000D03*
X33030000Y-31180000D03*
D13*
X40240000Y-31680000D03*
D14*
X40240000Y-27500000D03*
D13*
X31600000Y-31680000D03*
D14*
X31600000Y-27500000D03*
%TD*%
D10*
%TO.C,SW2*%
X80300000Y-88600000D03*
X80300000Y-91600000D03*
X80300000Y-94600000D03*
D11*
X80300000Y-85800000D03*
X80300000Y-97400000D03*
%TD*%
D10*
%TO.C,SW1*%
X87200000Y-88600000D03*
X87200000Y-91600000D03*
X87200000Y-94600000D03*
D11*
X87200000Y-85800000D03*
X87200000Y-97400000D03*
%TD*%
D10*
%TO.C,SW6*%
X52700000Y-88600000D03*
X52700000Y-91600000D03*
X52700000Y-94600000D03*
D11*
X52700000Y-85800000D03*
X52700000Y-97400000D03*
%TD*%
D10*
%TO.C,SW7*%
X45800000Y-88600000D03*
X45800000Y-91600000D03*
X45800000Y-94600000D03*
D11*
X45800000Y-85800000D03*
X45800000Y-97400000D03*
%TD*%
D10*
%TO.C,U8*%
X53600000Y-40000000D03*
X56140000Y-40000000D03*
X58680000Y-40000000D03*
X61220000Y-40000000D03*
X63760000Y-40000000D03*
X66300000Y-40000000D03*
X66300000Y-29740000D03*
X63760000Y-29740000D03*
X61220000Y-29740000D03*
X58680000Y-29740000D03*
X56140000Y-29740000D03*
X53600000Y-29740000D03*
%TD*%
%TO.C,U10*%
X83700000Y-40000000D03*
X86240000Y-40000000D03*
X88780000Y-40000000D03*
X91320000Y-40000000D03*
X93860000Y-40000000D03*
X96400000Y-40000000D03*
X96400000Y-29740000D03*
X93860000Y-29740000D03*
X91320000Y-29740000D03*
X88780000Y-29740000D03*
X86240000Y-29740000D03*
X83700000Y-29740000D03*
%TD*%
%TO.C,SW3*%
X73400000Y-88600000D03*
X73400000Y-91600000D03*
X73400000Y-94600000D03*
D11*
X73400000Y-85800000D03*
X73400000Y-97400000D03*
%TD*%
D15*
%TO.C,J4*%
X116397500Y-82670000D03*
D16*
X116397500Y-80130000D03*
X116397500Y-77590000D03*
X116397500Y-75050000D03*
X116397500Y-72510000D03*
X116397500Y-69970000D03*
X116397500Y-67430000D03*
X116397500Y-64890000D03*
X116397500Y-62350000D03*
X116397500Y-59810000D03*
X116397500Y-57270000D03*
X116397500Y-54730000D03*
X116397500Y-52190000D03*
X116397500Y-49650000D03*
X116397500Y-47110000D03*
X116397500Y-44570000D03*
X116397500Y-42030000D03*
X116397500Y-39490000D03*
X116397500Y-36950000D03*
X116397500Y-34410000D03*
X116397500Y-31870000D03*
X116397500Y-29330000D03*
%TD*%
M02*
