%TF.GenerationSoftware,KiCad,Pcbnew,7.0.7*%
%TF.CreationDate,2023-11-08T14:01:29-08:00*%
%TF.ProjectId,ProgrammaGull_Sandpiper,50726f67-7261-46d6-9d61-47756c6c5f53,rev?*%
%TF.SameCoordinates,Original*%
%TF.FileFunction,Paste,Top*%
%TF.FilePolarity,Positive*%
%FSLAX46Y46*%
G04 Gerber Fmt 4.6, Leading zero omitted, Abs format (unit mm)*
G04 Created by KiCad (PCBNEW 7.0.7) date 2023-11-08 14:01:29*
%MOMM*%
%LPD*%
G01*
G04 APERTURE LIST*
G04 Aperture macros list*
%AMRoundRect*
0 Rectangle with rounded corners*
0 $1 Rounding radius*
0 $2 $3 $4 $5 $6 $7 $8 $9 X,Y pos of 4 corners*
0 Add a 4 corners polygon primitive as box body*
4,1,4,$2,$3,$4,$5,$6,$7,$8,$9,$2,$3,0*
0 Add four circle primitives for the rounded corners*
1,1,$1+$1,$2,$3*
1,1,$1+$1,$4,$5*
1,1,$1+$1,$6,$7*
1,1,$1+$1,$8,$9*
0 Add four rect primitives between the rounded corners*
20,1,$1+$1,$2,$3,$4,$5,0*
20,1,$1+$1,$4,$5,$6,$7,0*
20,1,$1+$1,$6,$7,$8,$9,0*
20,1,$1+$1,$8,$9,$2,$3,0*%
G04 Aperture macros list end*
%ADD10RoundRect,0.200000X-0.200000X-0.275000X0.200000X-0.275000X0.200000X0.275000X-0.200000X0.275000X0*%
%ADD11RoundRect,0.100000X-0.100000X0.637500X-0.100000X-0.637500X0.100000X-0.637500X0.100000X0.637500X0*%
%ADD12RoundRect,0.200000X-0.275000X0.200000X-0.275000X-0.200000X0.275000X-0.200000X0.275000X0.200000X0*%
%ADD13RoundRect,0.200000X0.200000X0.275000X-0.200000X0.275000X-0.200000X-0.275000X0.200000X-0.275000X0*%
%ADD14RoundRect,0.225000X0.250000X-0.225000X0.250000X0.225000X-0.250000X0.225000X-0.250000X-0.225000X0*%
%ADD15R,1.500000X2.000000*%
%ADD16R,3.800000X2.000000*%
%ADD17RoundRect,0.225000X-0.250000X0.225000X-0.250000X-0.225000X0.250000X-0.225000X0.250000X0.225000X0*%
%ADD18R,1.100000X1.800000*%
%ADD19RoundRect,0.200000X0.275000X-0.200000X0.275000X0.200000X-0.275000X0.200000X-0.275000X-0.200000X0*%
%ADD20RoundRect,0.048000X-0.152000X0.427000X-0.152000X-0.427000X0.152000X-0.427000X0.152000X0.427000X0*%
%ADD21RoundRect,0.150000X0.150000X-0.587500X0.150000X0.587500X-0.150000X0.587500X-0.150000X-0.587500X0*%
%ADD22R,0.600000X1.150000*%
%ADD23R,0.300000X1.150000*%
%ADD24O,1.000000X2.100000*%
%ADD25O,1.000000X1.800000*%
%ADD26RoundRect,0.243750X0.456250X-0.243750X0.456250X0.243750X-0.456250X0.243750X-0.456250X-0.243750X0*%
%ADD27RoundRect,0.150000X-0.512500X-0.150000X0.512500X-0.150000X0.512500X0.150000X-0.512500X0.150000X0*%
%ADD28RoundRect,0.250000X0.250000X0.475000X-0.250000X0.475000X-0.250000X-0.475000X0.250000X-0.475000X0*%
%ADD29RoundRect,0.250000X0.475000X-0.250000X0.475000X0.250000X-0.475000X0.250000X-0.475000X-0.250000X0*%
%ADD30RoundRect,0.225000X-0.225000X-0.250000X0.225000X-0.250000X0.225000X0.250000X-0.225000X0.250000X0*%
%ADD31R,1.800000X1.100000*%
%ADD32RoundRect,0.075000X0.075000X-0.650000X0.075000X0.650000X-0.075000X0.650000X-0.075000X-0.650000X0*%
%ADD33RoundRect,0.225000X0.225000X0.250000X-0.225000X0.250000X-0.225000X-0.250000X0.225000X-0.250000X0*%
%ADD34RoundRect,0.243750X0.243750X0.456250X-0.243750X0.456250X-0.243750X-0.456250X0.243750X-0.456250X0*%
%ADD35RoundRect,0.250000X-0.315000X0.315000X-0.315000X-0.315000X0.315000X-0.315000X0.315000X0.315000X0*%
%ADD36RoundRect,0.062500X-0.062500X0.375000X-0.062500X-0.375000X0.062500X-0.375000X0.062500X0.375000X0*%
%ADD37RoundRect,0.062500X-0.375000X0.062500X-0.375000X-0.062500X0.375000X-0.062500X0.375000X0.062500X0*%
%ADD38RoundRect,0.225000X0.225000X0.375000X-0.225000X0.375000X-0.225000X-0.375000X0.225000X-0.375000X0*%
%ADD39RoundRect,0.218750X0.256250X-0.218750X0.256250X0.218750X-0.256250X0.218750X-0.256250X-0.218750X0*%
%ADD40R,0.900000X1.100000*%
%ADD41RoundRect,0.150000X0.150000X-0.512500X0.150000X0.512500X-0.150000X0.512500X-0.150000X-0.512500X0*%
%ADD42RoundRect,0.250000X-0.250000X-0.475000X0.250000X-0.475000X0.250000X0.475000X-0.250000X0.475000X0*%
%ADD43RoundRect,0.250000X-0.335000X0.335000X-0.335000X-0.335000X0.335000X-0.335000X0.335000X0.335000X0*%
%ADD44RoundRect,0.062500X-0.062500X0.337500X-0.062500X-0.337500X0.062500X-0.337500X0.062500X0.337500X0*%
%ADD45RoundRect,0.062500X-0.337500X0.062500X-0.337500X-0.062500X0.337500X-0.062500X0.337500X0.062500X0*%
%ADD46RoundRect,0.150000X0.150000X-0.650000X0.150000X0.650000X-0.150000X0.650000X-0.150000X-0.650000X0*%
%ADD47R,1.000000X0.800000*%
%ADD48RoundRect,0.250000X-0.475000X0.250000X-0.475000X-0.250000X0.475000X-0.250000X0.475000X0.250000X0*%
%ADD49RoundRect,0.100000X0.100000X-0.637500X0.100000X0.637500X-0.100000X0.637500X-0.100000X-0.637500X0*%
G04 APERTURE END LIST*
D10*
%TO.C,R69*%
X68075000Y-47300000D03*
X69725000Y-47300000D03*
%TD*%
D11*
%TO.C,U3*%
X69050000Y-51100000D03*
X68400000Y-51100000D03*
X67750000Y-51100000D03*
X67100000Y-51100000D03*
X66450000Y-51100000D03*
X65800000Y-51100000D03*
X65150000Y-51100000D03*
X64500000Y-51100000D03*
X64500000Y-56825000D03*
X65150000Y-56825000D03*
X65800000Y-56825000D03*
X66450000Y-56825000D03*
X67100000Y-56825000D03*
X67750000Y-56825000D03*
X68400000Y-56825000D03*
X69050000Y-56825000D03*
%TD*%
D12*
%TO.C,R91*%
X66150000Y-46475000D03*
X66150000Y-48125000D03*
%TD*%
D13*
%TO.C,R90*%
X75825000Y-51950000D03*
X74175000Y-51950000D03*
%TD*%
D12*
%TO.C,R89*%
X61000000Y-46475000D03*
X61000000Y-48125000D03*
%TD*%
D13*
%TO.C,R88*%
X75825000Y-50400000D03*
X74175000Y-50400000D03*
%TD*%
D10*
%TO.C,R87*%
X52475000Y-49000000D03*
X54125000Y-49000000D03*
%TD*%
D13*
%TO.C,R54*%
X75825000Y-48850000D03*
X74175000Y-48850000D03*
%TD*%
D10*
%TO.C,R35*%
X49375000Y-50250000D03*
X51025000Y-50250000D03*
%TD*%
D13*
%TO.C,R2*%
X71875000Y-48850000D03*
X70225000Y-48850000D03*
%TD*%
D14*
%TO.C,C3*%
X65350000Y-75875000D03*
X65350000Y-74325000D03*
%TD*%
D15*
%TO.C,U15*%
X33550000Y-69800000D03*
D16*
X31250000Y-76100000D03*
D15*
X31250000Y-69800000D03*
X28950000Y-69800000D03*
%TD*%
D17*
%TO.C,C56*%
X74000000Y-76475000D03*
X74000000Y-74925000D03*
%TD*%
D18*
%TO.C,SW14*%
X35950000Y-87100000D03*
X35950000Y-93300000D03*
X32250000Y-87100000D03*
X32250000Y-93300000D03*
%TD*%
D14*
%TO.C,C42*%
X113597500Y-44200000D03*
X113597500Y-42650000D03*
%TD*%
D13*
%TO.C,R81*%
X113822500Y-59850000D03*
X112172500Y-59850000D03*
%TD*%
D12*
%TO.C,R12*%
X64300000Y-82675000D03*
X64300000Y-84325000D03*
%TD*%
D19*
%TO.C,R19*%
X89400000Y-84325000D03*
X89400000Y-82675000D03*
%TD*%
D20*
%TO.C,U2*%
X49500000Y-61200000D03*
X48850000Y-61200000D03*
X48200000Y-61200000D03*
X48200000Y-63400000D03*
X49500000Y-63400000D03*
%TD*%
D19*
%TO.C,R63*%
X30400000Y-88725000D03*
X30400000Y-87075000D03*
%TD*%
D14*
%TO.C,C28*%
X87900000Y-69575000D03*
X87900000Y-68025000D03*
%TD*%
D19*
%TO.C,R13*%
X68700000Y-84325000D03*
X68700000Y-82675000D03*
%TD*%
%TO.C,R55*%
X43600000Y-81225000D03*
X43600000Y-79575000D03*
%TD*%
D17*
%TO.C,C5*%
X69500000Y-71325000D03*
X69500000Y-72875000D03*
%TD*%
D19*
%TO.C,R17*%
X82500000Y-84325000D03*
X82500000Y-82675000D03*
%TD*%
D12*
%TO.C,R51*%
X63300000Y-58550000D03*
X63300000Y-60200000D03*
%TD*%
D21*
%TO.C,Q4*%
X67800000Y-45437500D03*
X69700000Y-45437500D03*
X68750000Y-43562500D03*
%TD*%
D22*
%TO.C,P1*%
X39120000Y-32255000D03*
X38320000Y-32255000D03*
D23*
X37170000Y-32255000D03*
X36170000Y-32255000D03*
X35670000Y-32255000D03*
X34670000Y-32255000D03*
D22*
X33520000Y-32255000D03*
X32720000Y-32255000D03*
X32720000Y-32255000D03*
X33520000Y-32255000D03*
D23*
X34170000Y-32255000D03*
X35170000Y-32255000D03*
X36670000Y-32255000D03*
X37670000Y-32255000D03*
D22*
X38320000Y-32255000D03*
X39120000Y-32255000D03*
D24*
X40240000Y-31680000D03*
D25*
X40240000Y-27500000D03*
D24*
X31600000Y-31680000D03*
D25*
X31600000Y-27500000D03*
%TD*%
D19*
%TO.C,R33*%
X46000000Y-56225000D03*
X46000000Y-54575000D03*
%TD*%
D14*
%TO.C,C32*%
X94300000Y-56800000D03*
X94300000Y-55250000D03*
%TD*%
%TO.C,C13*%
X35200000Y-44350000D03*
X35200000Y-42800000D03*
%TD*%
%TO.C,C9*%
X43300000Y-44575000D03*
X43300000Y-43025000D03*
%TD*%
D13*
%TO.C,R5*%
X72587500Y-73075000D03*
X70937500Y-73075000D03*
%TD*%
D17*
%TO.C,C16*%
X42800000Y-54625000D03*
X42800000Y-56175000D03*
%TD*%
D14*
%TO.C,C11*%
X41700000Y-46825000D03*
X41700000Y-45275000D03*
%TD*%
D10*
%TO.C,R70*%
X62775000Y-47300000D03*
X64425000Y-47300000D03*
%TD*%
D13*
%TO.C,R85*%
X36600000Y-64000000D03*
X34950000Y-64000000D03*
%TD*%
D12*
%TO.C,R16*%
X78100000Y-82675000D03*
X78100000Y-84325000D03*
%TD*%
D17*
%TO.C,C46*%
X29850000Y-56075000D03*
X29850000Y-57625000D03*
%TD*%
D12*
%TO.C,R83*%
X113597500Y-45700000D03*
X113597500Y-47350000D03*
%TD*%
D19*
%TO.C,R6*%
X48000000Y-84325000D03*
X48000000Y-82675000D03*
%TD*%
D26*
%TO.C,D9*%
X94100000Y-81937500D03*
X94100000Y-80062500D03*
%TD*%
D27*
%TO.C,U5*%
X61350000Y-73100000D03*
X61350000Y-74050000D03*
X61350000Y-75000000D03*
X63625000Y-75000000D03*
X63625000Y-73100000D03*
%TD*%
D19*
%TO.C,R9*%
X54900000Y-84325000D03*
X54900000Y-82675000D03*
%TD*%
D12*
%TO.C,R10*%
X57400000Y-82675000D03*
X57400000Y-84325000D03*
%TD*%
D28*
%TO.C,C10*%
X33600000Y-44650000D03*
X31700000Y-44650000D03*
%TD*%
D29*
%TO.C,C15*%
X41500000Y-43150000D03*
X41500000Y-41250000D03*
%TD*%
D19*
%TO.C,R34*%
X43300000Y-47625000D03*
X43300000Y-45975000D03*
%TD*%
D29*
%TO.C,C27*%
X86150000Y-69550000D03*
X86150000Y-67650000D03*
%TD*%
D19*
%TO.C,R4*%
X33510000Y-36480000D03*
X33510000Y-34830000D03*
%TD*%
%TO.C,R3*%
X38210000Y-36480000D03*
X38210000Y-34830000D03*
%TD*%
D26*
%TO.C,D2*%
X45800000Y-81937500D03*
X45800000Y-80062500D03*
%TD*%
D14*
%TO.C,C55*%
X29850000Y-54625000D03*
X29850000Y-53075000D03*
%TD*%
D30*
%TO.C,C19*%
X79925000Y-62850000D03*
X81475000Y-62850000D03*
%TD*%
D14*
%TO.C,C40*%
X109100000Y-78875000D03*
X109100000Y-77325000D03*
%TD*%
D12*
%TO.C,R47*%
X87200000Y-45775000D03*
X87200000Y-47425000D03*
%TD*%
D21*
%TO.C,Q6*%
X75525000Y-45437500D03*
X77425000Y-45437500D03*
X76475000Y-43562500D03*
%TD*%
D31*
%TO.C,SW10*%
X112600000Y-98750000D03*
X106400000Y-98750000D03*
X112600000Y-95050000D03*
X106400000Y-95050000D03*
%TD*%
D19*
%TO.C,R21*%
X96300000Y-84325000D03*
X96300000Y-82675000D03*
%TD*%
D17*
%TO.C,C31*%
X55200000Y-73625000D03*
X55200000Y-75175000D03*
%TD*%
D19*
%TO.C,R60*%
X78100000Y-79550000D03*
X78100000Y-81200000D03*
%TD*%
%TO.C,R24*%
X114600000Y-97925000D03*
X114600000Y-96275000D03*
%TD*%
D32*
%TO.C,U11*%
X110697500Y-78570000D03*
X111197500Y-78570000D03*
X111697500Y-78570000D03*
X112197500Y-78570000D03*
X112697500Y-78570000D03*
X112697500Y-74170000D03*
X112197500Y-74170000D03*
X111697500Y-74170000D03*
X111197500Y-74170000D03*
X110697500Y-74170000D03*
%TD*%
D27*
%TO.C,U4*%
X67062500Y-74375000D03*
X67062500Y-75325000D03*
X67062500Y-76275000D03*
X69337500Y-76275000D03*
X69337500Y-74375000D03*
%TD*%
D10*
%TO.C,R25*%
X95575000Y-74000000D03*
X97225000Y-74000000D03*
%TD*%
D17*
%TO.C,C29*%
X48000000Y-69125000D03*
X48000000Y-70675000D03*
%TD*%
D29*
%TO.C,C35*%
X72200000Y-56750000D03*
X72200000Y-54850000D03*
%TD*%
D30*
%TO.C,C23*%
X76725000Y-74400000D03*
X78275000Y-74400000D03*
%TD*%
D12*
%TO.C,R64*%
X32200000Y-83275000D03*
X32200000Y-84925000D03*
%TD*%
D10*
%TO.C,R67*%
X45775000Y-47300000D03*
X47425000Y-47300000D03*
%TD*%
D26*
%TO.C,D6*%
X73400000Y-81937500D03*
X73400000Y-80062500D03*
%TD*%
D13*
%TO.C,R79*%
X113797500Y-54750000D03*
X112147500Y-54750000D03*
%TD*%
D33*
%TO.C,C47*%
X41250000Y-56900000D03*
X39700000Y-56900000D03*
%TD*%
D17*
%TO.C,C20*%
X68000000Y-69200000D03*
X68000000Y-70750000D03*
%TD*%
D10*
%TO.C,R23*%
X95575000Y-75500000D03*
X97225000Y-75500000D03*
%TD*%
D34*
%TO.C,D11*%
X39925000Y-64250000D03*
X38050000Y-64250000D03*
%TD*%
D11*
%TO.C,U12*%
X89975000Y-51037500D03*
X89325000Y-51037500D03*
X88675000Y-51037500D03*
X88025000Y-51037500D03*
X87375000Y-51037500D03*
X86725000Y-51037500D03*
X86075000Y-51037500D03*
X85425000Y-51037500D03*
X85425000Y-56762500D03*
X86075000Y-56762500D03*
X86725000Y-56762500D03*
X87375000Y-56762500D03*
X88025000Y-56762500D03*
X88675000Y-56762500D03*
X89325000Y-56762500D03*
X89975000Y-56762500D03*
%TD*%
D21*
%TO.C,Q2*%
X49300000Y-45437500D03*
X51200000Y-45437500D03*
X50250000Y-43562500D03*
%TD*%
D35*
%TO.C,U1*%
X77100000Y-64400000D03*
X75700000Y-64400000D03*
X74300000Y-64400000D03*
X72900000Y-64400000D03*
X77100000Y-65800000D03*
X75700000Y-65800000D03*
X74300000Y-65800000D03*
X72900000Y-65800000D03*
X77100000Y-67200000D03*
X75700000Y-67200000D03*
X74300000Y-67200000D03*
X72900000Y-67200000D03*
X77100000Y-68600000D03*
X75700000Y-68600000D03*
X74300000Y-68600000D03*
X72900000Y-68600000D03*
D36*
X77750000Y-63062500D03*
X77250000Y-63062500D03*
X76750000Y-63062500D03*
X76250000Y-63062500D03*
X75750000Y-63062500D03*
X75250000Y-63062500D03*
X74750000Y-63062500D03*
X74250000Y-63062500D03*
X73750000Y-63062500D03*
X73250000Y-63062500D03*
X72750000Y-63062500D03*
X72250000Y-63062500D03*
D37*
X71562500Y-63750000D03*
X71562500Y-64250000D03*
X71562500Y-64750000D03*
X71562500Y-65250000D03*
X71562500Y-65750000D03*
X71562500Y-66250000D03*
X71562500Y-66750000D03*
X71562500Y-67250000D03*
X71562500Y-67750000D03*
X71562500Y-68250000D03*
X71562500Y-68750000D03*
X71562500Y-69250000D03*
D36*
X72250000Y-69937500D03*
X72750000Y-69937500D03*
X73250000Y-69937500D03*
X73750000Y-69937500D03*
X74250000Y-69937500D03*
X74750000Y-69937500D03*
X75250000Y-69937500D03*
X75750000Y-69937500D03*
X76250000Y-69937500D03*
X76750000Y-69937500D03*
X77250000Y-69937500D03*
X77750000Y-69937500D03*
D37*
X78437500Y-69250000D03*
X78437500Y-68750000D03*
X78437500Y-68250000D03*
X78437500Y-67750000D03*
X78437500Y-67250000D03*
X78437500Y-66750000D03*
X78437500Y-66250000D03*
X78437500Y-65750000D03*
X78437500Y-65250000D03*
X78437500Y-64750000D03*
X78437500Y-64250000D03*
X78437500Y-63750000D03*
%TD*%
D18*
%TO.C,SW11*%
X118150000Y-87000000D03*
X118150000Y-93200000D03*
X114450000Y-87000000D03*
X114450000Y-93200000D03*
%TD*%
D19*
%TO.C,R37*%
X44400000Y-56225000D03*
X44400000Y-54575000D03*
%TD*%
D33*
%TO.C,C46*%
X33325000Y-56900000D03*
X31775000Y-56900000D03*
%TD*%
D12*
%TO.C,R43*%
X80800000Y-45775000D03*
X80800000Y-47425000D03*
%TD*%
D14*
%TO.C,C45*%
X113897500Y-31900000D03*
X113897500Y-30350000D03*
%TD*%
D17*
%TO.C,C8*%
X72500000Y-74525000D03*
X72500000Y-76075000D03*
%TD*%
D14*
%TO.C,C14*%
X39700000Y-43175000D03*
X39700000Y-41625000D03*
%TD*%
D33*
%TO.C,C44*%
X113750000Y-52200000D03*
X112200000Y-52200000D03*
%TD*%
D12*
%TO.C,R18*%
X85000000Y-82675000D03*
X85000000Y-84325000D03*
%TD*%
D21*
%TO.C,Q8*%
X97900000Y-45437500D03*
X99800000Y-45437500D03*
X98850000Y-43562500D03*
%TD*%
D13*
%TO.C,R86*%
X36650000Y-61700000D03*
X35000000Y-61700000D03*
%TD*%
D38*
%TO.C,D1*%
X64475000Y-71100000D03*
X61175000Y-71100000D03*
%TD*%
D26*
%TO.C,D7*%
X80300000Y-81937500D03*
X80300000Y-80062500D03*
%TD*%
D12*
%TO.C,R44*%
X82400000Y-45775000D03*
X82400000Y-47425000D03*
%TD*%
D10*
%TO.C,R68*%
X49600000Y-47300000D03*
X51250000Y-47300000D03*
%TD*%
%TO.C,R29*%
X95575000Y-77000000D03*
X97225000Y-77000000D03*
%TD*%
D14*
%TO.C,C48*%
X78300000Y-57975000D03*
X78300000Y-56425000D03*
%TD*%
D19*
%TO.C,R57*%
X57400000Y-81225000D03*
X57400000Y-79575000D03*
%TD*%
D39*
%TO.C,FB1*%
X31500000Y-42887500D03*
X31500000Y-41312500D03*
%TD*%
D10*
%TO.C,R74*%
X98075000Y-47300000D03*
X99725000Y-47300000D03*
%TD*%
D21*
%TO.C,Q7*%
X94150000Y-45437500D03*
X96050000Y-45437500D03*
X95100000Y-43562500D03*
%TD*%
D12*
%TO.C,R52*%
X84000000Y-52875000D03*
X84000000Y-54525000D03*
%TD*%
%TO.C,R49*%
X90400000Y-45775000D03*
X90400000Y-47425000D03*
%TD*%
D30*
%TO.C,C22*%
X76725000Y-72900000D03*
X78275000Y-72900000D03*
%TD*%
D19*
%TO.C,R59*%
X71200000Y-81225000D03*
X71200000Y-79575000D03*
%TD*%
D31*
%TO.C,SW9*%
X112600000Y-85150000D03*
X106400000Y-85150000D03*
X112600000Y-81450000D03*
X106400000Y-81450000D03*
%TD*%
D40*
%TO.C,X1*%
X47550000Y-57750000D03*
X47550000Y-59450000D03*
X48850000Y-59450000D03*
X48850000Y-57750000D03*
%TD*%
D19*
%TO.C,R22*%
X104400000Y-83100000D03*
X104400000Y-81450000D03*
%TD*%
D33*
%TO.C,C1*%
X31075000Y-36200000D03*
X29525000Y-36200000D03*
%TD*%
D26*
%TO.C,D4*%
X59600000Y-81937500D03*
X59600000Y-80062500D03*
%TD*%
%TO.C,D5*%
X66500000Y-80062500D03*
X66500000Y-81937500D03*
%TD*%
D13*
%TO.C,R40*%
X55825000Y-63200000D03*
X54175000Y-63200000D03*
%TD*%
D41*
%TO.C,U6*%
X42650000Y-51537500D03*
X43600000Y-51537500D03*
X44550000Y-51537500D03*
X44550000Y-49262500D03*
X43600000Y-49262500D03*
X42650000Y-49262500D03*
%TD*%
D29*
%TO.C,C12*%
X33300000Y-42850000D03*
X33300000Y-40950000D03*
%TD*%
D19*
%TO.C,R15*%
X75600000Y-84325000D03*
X75600000Y-82675000D03*
%TD*%
D17*
%TO.C,C37*%
X82400000Y-52925000D03*
X82400000Y-54475000D03*
%TD*%
D42*
%TO.C,C25*%
X28950000Y-67350000D03*
X30850000Y-67350000D03*
%TD*%
D14*
%TO.C,C41*%
X113597500Y-67425000D03*
X113597500Y-65875000D03*
%TD*%
D43*
%TO.C,U7*%
X37300000Y-49500000D03*
X35850000Y-49500000D03*
X34400000Y-49500000D03*
X37300000Y-50950000D03*
X35850000Y-50950000D03*
X34400000Y-50950000D03*
X37300000Y-52400000D03*
X35850000Y-52400000D03*
X34400000Y-52400000D03*
D44*
X39600000Y-46500000D03*
X39100000Y-46500000D03*
X38600000Y-46500000D03*
X38100000Y-46500000D03*
X37600000Y-46500000D03*
X37100000Y-46500000D03*
X36600000Y-46500000D03*
X36100000Y-46500000D03*
X35600000Y-46500000D03*
X35100000Y-46500000D03*
X34600000Y-46500000D03*
X34100000Y-46500000D03*
X33600000Y-46500000D03*
X33100000Y-46500000D03*
X32600000Y-46500000D03*
X32100000Y-46500000D03*
D45*
X31400000Y-47200000D03*
X31400000Y-47700000D03*
X31400000Y-48200000D03*
X31400000Y-48700000D03*
X31400000Y-49200000D03*
X31400000Y-49700000D03*
X31400000Y-50200000D03*
X31400000Y-50700000D03*
X31400000Y-51200000D03*
X31400000Y-51700000D03*
X31400000Y-52200000D03*
X31400000Y-52700000D03*
X31400000Y-53200000D03*
X31400000Y-53700000D03*
X31400000Y-54200000D03*
X31400000Y-54700000D03*
D44*
X32100000Y-55400000D03*
X32600000Y-55400000D03*
X33100000Y-55400000D03*
X33600000Y-55400000D03*
X34100000Y-55400000D03*
X34600000Y-55400000D03*
X35100000Y-55400000D03*
X35600000Y-55400000D03*
X36100000Y-55400000D03*
X36600000Y-55400000D03*
X37100000Y-55400000D03*
X37600000Y-55400000D03*
X38100000Y-55400000D03*
X38600000Y-55400000D03*
X39100000Y-55400000D03*
X39600000Y-55400000D03*
D45*
X40300000Y-54700000D03*
X40300000Y-54200000D03*
X40300000Y-53700000D03*
X40300000Y-53200000D03*
X40300000Y-52700000D03*
X40300000Y-52200000D03*
X40300000Y-51700000D03*
X40300000Y-51200000D03*
X40300000Y-50700000D03*
X40300000Y-50200000D03*
X40300000Y-49700000D03*
X40300000Y-49200000D03*
X40300000Y-48700000D03*
X40300000Y-48200000D03*
X40300000Y-47700000D03*
X40300000Y-47200000D03*
%TD*%
D19*
%TO.C,R26*%
X116200000Y-96525000D03*
X116200000Y-94875000D03*
%TD*%
D12*
%TO.C,R36*%
X46150000Y-50125000D03*
X46150000Y-51775000D03*
%TD*%
D10*
%TO.C,R71*%
X72000000Y-47300000D03*
X73650000Y-47300000D03*
%TD*%
D19*
%TO.C,R61*%
X85000000Y-81225000D03*
X85000000Y-79575000D03*
%TD*%
D30*
%TO.C,C26*%
X28925000Y-65550000D03*
X30475000Y-65550000D03*
%TD*%
D29*
%TO.C,C33*%
X92500000Y-56800000D03*
X92500000Y-54900000D03*
%TD*%
D17*
%TO.C,C36*%
X64900000Y-58600000D03*
X64900000Y-60150000D03*
%TD*%
D19*
%TO.C,R58*%
X64300000Y-81225000D03*
X64300000Y-79575000D03*
%TD*%
D12*
%TO.C,R84*%
X113897500Y-33400000D03*
X113897500Y-35050000D03*
%TD*%
D17*
%TO.C,C21*%
X66500000Y-69200000D03*
X66500000Y-70750000D03*
%TD*%
D10*
%TO.C,R27*%
X95575000Y-72500000D03*
X97225000Y-72500000D03*
%TD*%
D13*
%TO.C,R41*%
X54525000Y-52200000D03*
X52875000Y-52200000D03*
%TD*%
D46*
%TO.C,U14*%
X53295000Y-61300000D03*
X54565000Y-61300000D03*
X55835000Y-61300000D03*
X57105000Y-61300000D03*
X57105000Y-54100000D03*
X55835000Y-54100000D03*
X54565000Y-54100000D03*
X53295000Y-54100000D03*
%TD*%
D47*
%TO.C,D10*%
X84162500Y-69200000D03*
X82662500Y-69200000D03*
X82662500Y-68100000D03*
X84162500Y-68100000D03*
%TD*%
D30*
%TO.C,C53*%
X50825000Y-65000000D03*
X52375000Y-65000000D03*
%TD*%
D12*
%TO.C,R38*%
X38200000Y-41775000D03*
X38200000Y-43425000D03*
%TD*%
%TO.C,R8*%
X50500000Y-82675000D03*
X50500000Y-84325000D03*
%TD*%
D19*
%TO.C,R65*%
X55200000Y-72225000D03*
X55200000Y-70575000D03*
%TD*%
D10*
%TO.C,R73*%
X94275000Y-47300000D03*
X95925000Y-47300000D03*
%TD*%
D12*
%TO.C,R14*%
X71200000Y-82675000D03*
X71200000Y-84325000D03*
%TD*%
D19*
%TO.C,R32*%
X51500000Y-57125000D03*
X51500000Y-55475000D03*
%TD*%
%TO.C,R11*%
X61800000Y-84325000D03*
X61800000Y-82675000D03*
%TD*%
D30*
%TO.C,C4*%
X30075000Y-78200000D03*
X31625000Y-78200000D03*
%TD*%
D12*
%TO.C,R7*%
X43600000Y-82675000D03*
X43600000Y-84325000D03*
%TD*%
D13*
%TO.C,R80*%
X113822500Y-57250000D03*
X112172500Y-57250000D03*
%TD*%
D33*
%TO.C,C2*%
X59700000Y-71600000D03*
X58150000Y-71600000D03*
%TD*%
D13*
%TO.C,R82*%
X113822500Y-62350000D03*
X112172500Y-62350000D03*
%TD*%
D21*
%TO.C,Q3*%
X62550000Y-45437500D03*
X64450000Y-45437500D03*
X63500000Y-43562500D03*
%TD*%
D14*
%TO.C,C49*%
X79900000Y-57975000D03*
X79900000Y-56425000D03*
%TD*%
D19*
%TO.C,R62*%
X91900000Y-81225000D03*
X91900000Y-79575000D03*
%TD*%
D12*
%TO.C,R48*%
X88800000Y-45775000D03*
X88800000Y-47425000D03*
%TD*%
D48*
%TO.C,C30*%
X46200000Y-69150000D03*
X46200000Y-71050000D03*
%TD*%
D19*
%TO.C,R28*%
X100800000Y-96925000D03*
X100800000Y-95275000D03*
%TD*%
D39*
%TO.C,FB2*%
X43250000Y-41287500D03*
X43250000Y-39712500D03*
%TD*%
D18*
%TO.C,SW12*%
X104550000Y-87000000D03*
X104550000Y-93200000D03*
X100850000Y-87000000D03*
X100850000Y-93200000D03*
%TD*%
D34*
%TO.C,D12*%
X39925000Y-61450000D03*
X38050000Y-61450000D03*
%TD*%
D26*
%TO.C,D8*%
X87200000Y-81937500D03*
X87200000Y-80062500D03*
%TD*%
D30*
%TO.C,C18*%
X79925000Y-61350000D03*
X81475000Y-61350000D03*
%TD*%
D19*
%TO.C,R1*%
X50750000Y-60225000D03*
X50750000Y-58575000D03*
%TD*%
D14*
%TO.C,C34*%
X70400000Y-56775000D03*
X70400000Y-55225000D03*
%TD*%
D21*
%TO.C,Q5*%
X71775000Y-45437500D03*
X73675000Y-45437500D03*
X72725000Y-43562500D03*
%TD*%
D19*
%TO.C,R66*%
X48000000Y-75325000D03*
X48000000Y-73675000D03*
%TD*%
D14*
%TO.C,C50*%
X47600000Y-56075000D03*
X47600000Y-54525000D03*
%TD*%
D49*
%TO.C,U13*%
X49325000Y-75162500D03*
X49975000Y-75162500D03*
X50625000Y-75162500D03*
X51275000Y-75162500D03*
X51925000Y-75162500D03*
X52575000Y-75162500D03*
X53225000Y-75162500D03*
X53875000Y-75162500D03*
X53875000Y-69437500D03*
X53225000Y-69437500D03*
X52575000Y-69437500D03*
X51925000Y-69437500D03*
X51275000Y-69437500D03*
X50625000Y-69437500D03*
X49975000Y-69437500D03*
X49325000Y-69437500D03*
%TD*%
D12*
%TO.C,R50*%
X92000000Y-45775000D03*
X92000000Y-47425000D03*
%TD*%
D14*
%TO.C,C52*%
X50800000Y-63475000D03*
X50800000Y-61925000D03*
%TD*%
D30*
%TO.C,C24*%
X28925000Y-64000000D03*
X30475000Y-64000000D03*
%TD*%
D14*
%TO.C,C43*%
X113800000Y-39525000D03*
X113800000Y-37975000D03*
%TD*%
D12*
%TO.C,R39*%
X29800000Y-44725000D03*
X29800000Y-46375000D03*
%TD*%
%TO.C,R20*%
X91900000Y-82675000D03*
X91900000Y-84325000D03*
%TD*%
D10*
%TO.C,R72*%
X75800000Y-47300000D03*
X77450000Y-47300000D03*
%TD*%
D21*
%TO.C,Q1*%
X45550000Y-45437500D03*
X47450000Y-45437500D03*
X46500000Y-43562500D03*
%TD*%
D19*
%TO.C,R56*%
X50500000Y-81225000D03*
X50500000Y-79575000D03*
%TD*%
D17*
%TO.C,C6*%
X71000000Y-74550000D03*
X71000000Y-76100000D03*
%TD*%
D10*
%TO.C,R42*%
X55975000Y-52200000D03*
X57625000Y-52200000D03*
%TD*%
D30*
%TO.C,C54*%
X36625000Y-56900000D03*
X38175000Y-56900000D03*
%TD*%
D48*
%TO.C,C17*%
X29600000Y-49650000D03*
X29600000Y-51550000D03*
%TD*%
D12*
%TO.C,R46*%
X85600000Y-45775000D03*
X85600000Y-47425000D03*
%TD*%
%TO.C,R45*%
X84000000Y-45775000D03*
X84000000Y-47425000D03*
%TD*%
D26*
%TO.C,D3*%
X52700000Y-81937500D03*
X52700000Y-80062500D03*
%TD*%
D13*
%TO.C,R53*%
X72025000Y-58700000D03*
X70375000Y-58700000D03*
%TD*%
D14*
%TO.C,C51*%
X49100000Y-56075000D03*
X49100000Y-54525000D03*
%TD*%
M02*
