M48
; DRILL file {KiCad 7.0.7} date Wed 08 Nov 2023 02:01:26 PM PST
; FORMAT={-:-/ absolute / inch / decimal}
; #@! TF.CreationDate,2023-11-08T14:01:26-08:00
; #@! TF.GenerationSoftware,Kicad,Pcbnew,7.0.7
; #@! TF.FileFunction,Plated,1,4,PTH
FMAT,2
INCH
; #@! TA.AperFunction,Plated,PTH,ViaDrill
T1C0.0157
; #@! TA.AperFunction,Plated,PTH,ComponentDrill
T2C0.0236
; #@! TA.AperFunction,Plated,PTH,ComponentDrill
T3C0.0300
; #@! TA.AperFunction,Plated,PTH,ComponentDrill
T4C0.0394
%
G90
G05
T1
X1.1634Y-1.4272
X1.1654Y-1.9567
X1.1654Y-2.0276
X1.1673Y-2.1516
X1.1713Y-1.8248
X1.1732Y-2.9744
X1.187Y-3.0177
X1.189Y-1.8858
X1.1969Y-3.4921
X1.2008Y-2.5197
X1.2008Y-2.5807
X1.2067Y-2.9744
X1.2146Y-2.6496
X1.2185Y-2.7264
X1.2205Y-3.0177
X1.2402Y-1.5787
X1.2402Y-1.8297
X1.2402Y-2.9744
X1.2421Y-2.7697
X1.2441Y-3.0787
X1.2461Y-1.7539
X1.2539Y-3.0177
X1.2697Y-1.937
X1.2736Y-2.9744
X1.2874Y-3.0177
X1.2913Y-2.1378
X1.2933Y-1.9055
X1.3012Y-2.0157
X1.3012Y-2.0551
X1.3051Y-2.7224
X1.3051Y-2.7736
X1.3193Y-1.4795
X1.3366Y-2.7224
X1.3366Y-2.7736
X1.3581Y-2.2503
X1.3583Y-2.2904
X1.3701Y-1.6024
X1.3701Y-2.0217
X1.3839Y-2.0768
X1.3858Y-1.6378
X1.3937Y-1.874
X1.4173Y-2.0748
X1.4173Y-3.4252
X1.4173Y-3.6732
X1.4311Y-2.0079
X1.437Y-1.9488
X1.4409Y-2.2402
X1.4508Y-2.063
X1.4705Y-2.0354
X1.4783Y-1.9685
X1.4803Y-2.002
X1.4961Y-1.7598
X1.5043Y-1.4795
X1.5079Y-1.8701
X1.5197Y-1.5984
X1.5413Y-1.9783
X1.5413Y-2.0295
X1.5413Y-2.0669
X1.5413Y-2.1063
X1.5551Y-2.2874
X1.5719Y-2.4193
X1.5719Y-2.5295
X1.577Y-1.7884
X1.5906Y-2.2874
X1.6319Y-1.622
X1.6516Y-1.5492
X1.6535Y-2.1457
X1.6772Y-2.0827
X1.6811Y-1.9272
X1.685Y-2.2598
X1.7028Y-1.6929
X1.7165Y-2.0827
X1.7343Y-1.7343
X1.748Y-2.252
X1.748Y-2.8425
X1.8031Y-3.2795
X1.8189Y-2.0335
X1.8189Y-2.7992
X1.8642Y-2.3917
X1.8701Y-1.7874
X1.874Y-2.1457
X1.8898Y-2.7205
X1.8898Y-2.9646
X1.8898Y-3.2126
X1.8976Y-1.5827
X1.8976Y-2.4961
X1.9331Y-2.1457
X1.9528Y-2.5472
X1.9724Y-2.2559
X2.0197Y-1.7874
X2.0472Y-2.5079
X2.0512Y-2.126
X2.0748Y-3.2795
X2.0866Y-2.4882
X2.1102Y-1.3937
X2.1614Y-3.2126
X2.1732Y-2.7795
X2.1732Y-2.9606
X2.2087Y-1.2677
X2.2087Y-1.3622
X2.252Y-2.4882
X2.2677Y-2.0551
X2.2904Y-2.8189
X2.3071Y-1.4252
X2.3071Y-1.4882
X2.3071Y-2.4134
X2.3465Y-3.2795
X2.3514Y-2.8209
X2.3593Y-2.878
X2.3593Y-2.9134
X2.3593Y-2.9528
X2.4085Y-2.7992
X2.4094Y-1.3307
X2.4331Y-3.2126
X2.4528Y-2.3465
X2.4695Y-2.9134
X2.5Y-2.0
X2.5039Y-2.4213
X2.5079Y-1.4567
X2.5374Y-2.5236
X2.5394Y-2.1063
X2.5413Y-1.7874
X2.5728Y-2.9272
X2.5787Y-2.5807
X2.5846Y-2.5207
X2.5906Y-2.0906
X2.6102Y-1.2992
X2.6102Y-1.2992
X2.6124Y-2.6011
X2.6181Y-2.7864
X2.6181Y-3.2795
X2.6299Y-2.1378
X2.6417Y-2.9252
X2.6417Y-3.0039
X2.6772Y-2.7234
X2.6841Y-2.9646
X2.6929Y-2.1398
X2.7047Y-3.2126
X2.7362Y-2.752
X2.7362Y-2.8701
X2.748Y-1.7874
X2.7953Y-2.9961
X2.8031Y-2.2756
X2.8031Y-2.7835
X2.811Y-2.8228
X2.8543Y-2.8307
X2.8593Y-2.2775
X2.8701Y-2.6142
X2.8701Y-2.7008
X2.8898Y-3.2795
X2.8937Y-1.2677
X2.8937Y-2.189
X2.8937Y-2.811
X2.9016Y-1.7913
X2.9094Y-2.3583
X2.9094Y-2.6575
X2.9134Y-2.8799
X2.9134Y-3.0
X2.9252Y-1.2992
X2.9331Y-2.3228
X2.9528Y-2.5354
X2.9528Y-2.7008
X2.9538Y-2.8581
X2.9567Y-1.3307
X2.9724Y-2.8976
X2.9764Y-3.2126
X2.9882Y-1.3622
X2.9921Y-2.5748
X3.002Y-2.3051
X3.0197Y-1.3937
X3.0197Y-2.8701
X3.0276Y-2.248
X3.0354Y-2.5354
X3.0354Y-2.6181
X3.0363Y-2.8207
X3.0512Y-1.4252
X3.0512Y-1.7874
X3.0827Y-1.4567
X3.0827Y-2.8701
X3.0827Y-2.9291
X3.0945Y-2.7598
X3.1142Y-1.4882
X3.1142Y-2.8307
X3.1457Y-2.4154
X3.1614Y-2.689
X3.1614Y-3.2795
X3.1811Y-1.8031
X3.2032Y-2.7283
X3.2067Y-2.4154
X3.2067Y-2.4744
X3.2441Y-1.8031
X3.248Y-1.9685
X3.248Y-3.2126
X3.2835Y-2.1929
X3.2913Y-1.3937
X3.3071Y-1.8031
X3.315Y-1.9724
X3.315Y-2.7244
X3.3268Y-2.1929
X3.3701Y-1.8031
X3.3898Y-2.0797
X3.3898Y-2.6614
X3.3937Y-1.2677
X3.3937Y-1.3622
X3.4331Y-1.8031
X3.4331Y-3.2795
X3.437Y-2.1142
X3.4606Y-2.6772
X3.4606Y-2.7402
X3.4803Y-2.1457
X3.4921Y-1.4252
X3.4921Y-1.4882
X3.4921Y-2.0669
X3.4961Y-1.8031
X3.5197Y-3.2126
X3.5591Y-1.8031
X3.5827Y-2.1614
X3.5827Y-2.2362
X3.5945Y-1.3307
X3.622Y-1.8031
X3.6929Y-1.4567
X3.7047Y-3.2795
X3.7835Y-1.7874
X3.7913Y-1.2992
X3.7913Y-3.2126
X3.9331Y-1.7874
X3.9685Y-3.815
X4.1102Y-3.2717
X4.1181Y-3.4213
X4.1181Y-3.6693
X4.189Y-3.3504
X4.189Y-3.8898
X4.2953Y-3.0433
X4.3307Y-3.1417
X4.3975Y-3.0248
X4.4193Y-2.0571
X4.4251Y-3.0051
X4.4331Y-3.3543
X4.4331Y-3.8898
X4.4803Y-1.4961
X4.5118Y-3.8543
X4.5748Y-3.7992
X4.6496Y-3.4213
X4.6535Y-3.6693
T3
X1.8031Y-3.4882
X1.8031Y-3.6063
X1.8031Y-3.7244
X2.0748Y-3.4882
X2.0748Y-3.6063
X2.0748Y-3.7244
X2.1102Y-1.1709
X2.1102Y-1.5748
X2.2102Y-1.1709
X2.2102Y-1.5748
X2.3102Y-1.1709
X2.3102Y-1.5748
X2.3465Y-3.4882
X2.3465Y-3.6063
X2.3465Y-3.7244
X2.4102Y-1.1709
X2.4102Y-1.5748
X2.5102Y-1.1709
X2.5102Y-1.5748
X2.6102Y-1.1709
X2.6102Y-1.5748
X2.6181Y-3.4882
X2.6181Y-3.6063
X2.6181Y-3.7244
X2.8898Y-3.4882
X2.8898Y-3.6063
X2.8898Y-3.7244
X3.1614Y-3.4882
X3.1614Y-3.6063
X3.1614Y-3.7244
X3.2953Y-1.1709
X3.2953Y-1.5748
X3.3953Y-1.1709
X3.3953Y-1.5748
X3.4331Y-3.4882
X3.4331Y-3.6063
X3.4331Y-3.7244
X3.4953Y-1.1709
X3.4953Y-1.5748
X3.5953Y-1.1709
X3.5953Y-1.5748
X3.6953Y-1.1709
X3.6953Y-1.5748
X3.7047Y-3.4882
X3.7047Y-3.6063
X3.7047Y-3.7244
X3.7953Y-1.1709
X3.7953Y-1.5748
T4
X4.5826Y-1.1547
X4.5826Y-1.2547
X4.5826Y-1.3547
X4.5826Y-1.4547
X4.5826Y-1.5547
X4.5826Y-1.6547
X4.5826Y-1.7547
X4.5826Y-1.8547
X4.5826Y-1.9547
X4.5826Y-2.0547
X4.5826Y-2.1547
X4.5826Y-2.2547
X4.5826Y-2.3547
X4.5826Y-2.4547
X4.5826Y-2.5547
X4.5826Y-2.6547
X4.5826Y-2.7547
X4.5826Y-2.8547
X4.5826Y-2.9547
X4.5826Y-3.0547
X4.5826Y-3.1547
X4.5826Y-3.2547
T2
G00X1.2441Y-1.0984
M15
G01X1.2441Y-1.0669
M16
G05
G00X1.2441Y-1.2689
M15
G01X1.2441Y-1.2256
M16
G05
G00X1.5843Y-1.0984
M15
G01X1.5843Y-1.0669
M16
G05
G00X1.5843Y-1.2689
M15
G01X1.5843Y-1.2256
M16
G05
T3
G00X1.8187Y-3.378
M15
G01X1.7876Y-3.378
M16
G05
G00X1.8187Y-3.8346
M15
G01X1.7876Y-3.8346
M16
G05
G00X2.0903Y-3.378
M15
G01X2.0593Y-3.378
M16
G05
G00X2.0903Y-3.8346
M15
G01X2.0593Y-3.8346
M16
G05
G00X2.362Y-3.378
M15
G01X2.3309Y-3.378
M16
G05
G00X2.362Y-3.8346
M15
G01X2.3309Y-3.8346
M16
G05
G00X2.6336Y-3.378
M15
G01X2.6026Y-3.378
M16
G05
G00X2.6336Y-3.8346
M15
G01X2.6026Y-3.8346
M16
G05
G00X2.9053Y-3.378
M15
G01X2.8743Y-3.378
M16
G05
G00X2.9053Y-3.8346
M15
G01X2.8743Y-3.8346
M16
G05
G00X3.1769Y-3.378
M15
G01X3.1459Y-3.378
M16
G05
G00X3.1769Y-3.8346
M15
G01X3.1459Y-3.8346
M16
G05
G00X3.4486Y-3.378
M15
G01X3.4176Y-3.378
M16
G05
G00X3.4486Y-3.8346
M15
G01X3.4176Y-3.8346
M16
G05
G00X3.7202Y-3.378
M15
G01X3.6892Y-3.378
M16
G05
G00X3.7202Y-3.8346
M15
G01X3.6892Y-3.8346
M16
G05
T0
M30
