%TF.GenerationSoftware,KiCad,Pcbnew,7.0.7*%
%TF.CreationDate,2023-11-08T14:01:29-08:00*%
%TF.ProjectId,ProgrammaGull_Sandpiper,50726f67-7261-46d6-9d61-47756c6c5f53,rev?*%
%TF.SameCoordinates,Original*%
%TF.FileFunction,Legend,Bot*%
%TF.FilePolarity,Positive*%
%FSLAX46Y46*%
G04 Gerber Fmt 4.6, Leading zero omitted, Abs format (unit mm)*
G04 Created by KiCad (PCBNEW 7.0.7) date 2023-11-08 14:01:29*
%MOMM*%
%LPD*%
G01*
G04 APERTURE LIST*
%ADD10C,0.300000*%
G04 APERTURE END LIST*
D10*
X94612155Y-73189638D02*
X93945489Y-75189638D01*
X93945489Y-75189638D02*
X93278822Y-73189638D01*
X91850250Y-75094400D02*
X92040726Y-75189638D01*
X92040726Y-75189638D02*
X92421679Y-75189638D01*
X92421679Y-75189638D02*
X92612155Y-75094400D01*
X92612155Y-75094400D02*
X92707393Y-74903923D01*
X92707393Y-74903923D02*
X92707393Y-74142019D01*
X92707393Y-74142019D02*
X92612155Y-73951542D01*
X92612155Y-73951542D02*
X92421679Y-73856304D01*
X92421679Y-73856304D02*
X92040726Y-73856304D01*
X92040726Y-73856304D02*
X91850250Y-73951542D01*
X91850250Y-73951542D02*
X91755012Y-74142019D01*
X91755012Y-74142019D02*
X91755012Y-74332495D01*
X91755012Y-74332495D02*
X92707393Y-74522971D01*
X90897869Y-75189638D02*
X90897869Y-73856304D01*
X90897869Y-74237257D02*
X90802631Y-74046780D01*
X90802631Y-74046780D02*
X90707393Y-73951542D01*
X90707393Y-73951542D02*
X90516917Y-73856304D01*
X90516917Y-73856304D02*
X90326440Y-73856304D01*
X89755012Y-75094400D02*
X89564536Y-75189638D01*
X89564536Y-75189638D02*
X89183584Y-75189638D01*
X89183584Y-75189638D02*
X88993107Y-75094400D01*
X88993107Y-75094400D02*
X88897869Y-74903923D01*
X88897869Y-74903923D02*
X88897869Y-74808685D01*
X88897869Y-74808685D02*
X88993107Y-74618209D01*
X88993107Y-74618209D02*
X89183584Y-74522971D01*
X89183584Y-74522971D02*
X89469298Y-74522971D01*
X89469298Y-74522971D02*
X89659774Y-74427733D01*
X89659774Y-74427733D02*
X89755012Y-74237257D01*
X89755012Y-74237257D02*
X89755012Y-74142019D01*
X89755012Y-74142019D02*
X89659774Y-73951542D01*
X89659774Y-73951542D02*
X89469298Y-73856304D01*
X89469298Y-73856304D02*
X89183584Y-73856304D01*
X89183584Y-73856304D02*
X88993107Y-73951542D01*
X88040726Y-75189638D02*
X88040726Y-73856304D01*
X88040726Y-73189638D02*
X88135964Y-73284876D01*
X88135964Y-73284876D02*
X88040726Y-73380114D01*
X88040726Y-73380114D02*
X87945488Y-73284876D01*
X87945488Y-73284876D02*
X88040726Y-73189638D01*
X88040726Y-73189638D02*
X88040726Y-73380114D01*
X86802631Y-75189638D02*
X86993107Y-75094400D01*
X86993107Y-75094400D02*
X87088345Y-74999161D01*
X87088345Y-74999161D02*
X87183583Y-74808685D01*
X87183583Y-74808685D02*
X87183583Y-74237257D01*
X87183583Y-74237257D02*
X87088345Y-74046780D01*
X87088345Y-74046780D02*
X86993107Y-73951542D01*
X86993107Y-73951542D02*
X86802631Y-73856304D01*
X86802631Y-73856304D02*
X86516916Y-73856304D01*
X86516916Y-73856304D02*
X86326440Y-73951542D01*
X86326440Y-73951542D02*
X86231202Y-74046780D01*
X86231202Y-74046780D02*
X86135964Y-74237257D01*
X86135964Y-74237257D02*
X86135964Y-74808685D01*
X86135964Y-74808685D02*
X86231202Y-74999161D01*
X86231202Y-74999161D02*
X86326440Y-75094400D01*
X86326440Y-75094400D02*
X86516916Y-75189638D01*
X86516916Y-75189638D02*
X86802631Y-75189638D01*
X85278821Y-73856304D02*
X85278821Y-75189638D01*
X85278821Y-74046780D02*
X85183583Y-73951542D01*
X85183583Y-73951542D02*
X84993107Y-73856304D01*
X84993107Y-73856304D02*
X84707392Y-73856304D01*
X84707392Y-73856304D02*
X84516916Y-73951542D01*
X84516916Y-73951542D02*
X84421678Y-74142019D01*
X84421678Y-74142019D02*
X84421678Y-75189638D01*
X83469297Y-74999161D02*
X83374059Y-75094400D01*
X83374059Y-75094400D02*
X83469297Y-75189638D01*
X83469297Y-75189638D02*
X83564535Y-75094400D01*
X83564535Y-75094400D02*
X83469297Y-74999161D01*
X83469297Y-74999161D02*
X83469297Y-75189638D01*
X83469297Y-73951542D02*
X83374059Y-74046780D01*
X83374059Y-74046780D02*
X83469297Y-74142019D01*
X83469297Y-74142019D02*
X83564535Y-74046780D01*
X83564535Y-74046780D02*
X83469297Y-73951542D01*
X83469297Y-73951542D02*
X83469297Y-74142019D01*
X81088344Y-74618209D02*
X80135963Y-74618209D01*
X81278820Y-75189638D02*
X80612154Y-73189638D01*
X80612154Y-73189638D02*
X79945487Y-75189638D01*
X78993106Y-75189638D02*
X79183582Y-75094400D01*
X79183582Y-75094400D02*
X79278820Y-74903923D01*
X79278820Y-74903923D02*
X79278820Y-73189638D01*
X78231201Y-73856304D02*
X78231201Y-75856304D01*
X78231201Y-73951542D02*
X78040725Y-73856304D01*
X78040725Y-73856304D02*
X77659772Y-73856304D01*
X77659772Y-73856304D02*
X77469296Y-73951542D01*
X77469296Y-73951542D02*
X77374058Y-74046780D01*
X77374058Y-74046780D02*
X77278820Y-74237257D01*
X77278820Y-74237257D02*
X77278820Y-74808685D01*
X77278820Y-74808685D02*
X77374058Y-74999161D01*
X77374058Y-74999161D02*
X77469296Y-75094400D01*
X77469296Y-75094400D02*
X77659772Y-75189638D01*
X77659772Y-75189638D02*
X78040725Y-75189638D01*
X78040725Y-75189638D02*
X78231201Y-75094400D01*
X76421677Y-75189638D02*
X76421677Y-73189638D01*
X75564534Y-75189638D02*
X75564534Y-74142019D01*
X75564534Y-74142019D02*
X75659772Y-73951542D01*
X75659772Y-73951542D02*
X75850248Y-73856304D01*
X75850248Y-73856304D02*
X76135963Y-73856304D01*
X76135963Y-73856304D02*
X76326439Y-73951542D01*
X76326439Y-73951542D02*
X76421677Y-74046780D01*
X73755010Y-75189638D02*
X73755010Y-74142019D01*
X73755010Y-74142019D02*
X73850248Y-73951542D01*
X73850248Y-73951542D02*
X74040724Y-73856304D01*
X74040724Y-73856304D02*
X74421677Y-73856304D01*
X74421677Y-73856304D02*
X74612153Y-73951542D01*
X73755010Y-75094400D02*
X73945486Y-75189638D01*
X73945486Y-75189638D02*
X74421677Y-75189638D01*
X74421677Y-75189638D02*
X74612153Y-75094400D01*
X74612153Y-75094400D02*
X74707391Y-74903923D01*
X74707391Y-74903923D02*
X74707391Y-74713447D01*
X74707391Y-74713447D02*
X74612153Y-74522971D01*
X74612153Y-74522971D02*
X74421677Y-74427733D01*
X74421677Y-74427733D02*
X73945486Y-74427733D01*
X73945486Y-74427733D02*
X73755010Y-74332495D01*
X70897867Y-73189638D02*
X70707390Y-73189638D01*
X70707390Y-73189638D02*
X70516914Y-73284876D01*
X70516914Y-73284876D02*
X70421676Y-73380114D01*
X70421676Y-73380114D02*
X70326438Y-73570590D01*
X70326438Y-73570590D02*
X70231200Y-73951542D01*
X70231200Y-73951542D02*
X70231200Y-74427733D01*
X70231200Y-74427733D02*
X70326438Y-74808685D01*
X70326438Y-74808685D02*
X70421676Y-74999161D01*
X70421676Y-74999161D02*
X70516914Y-75094400D01*
X70516914Y-75094400D02*
X70707390Y-75189638D01*
X70707390Y-75189638D02*
X70897867Y-75189638D01*
X70897867Y-75189638D02*
X71088343Y-75094400D01*
X71088343Y-75094400D02*
X71183581Y-74999161D01*
X71183581Y-74999161D02*
X71278819Y-74808685D01*
X71278819Y-74808685D02*
X71374057Y-74427733D01*
X71374057Y-74427733D02*
X71374057Y-73951542D01*
X71374057Y-73951542D02*
X71278819Y-73570590D01*
X71278819Y-73570590D02*
X71183581Y-73380114D01*
X71183581Y-73380114D02*
X71088343Y-73284876D01*
X71088343Y-73284876D02*
X70897867Y-73189638D01*
X69374057Y-74999161D02*
X69278819Y-75094400D01*
X69278819Y-75094400D02*
X69374057Y-75189638D01*
X69374057Y-75189638D02*
X69469295Y-75094400D01*
X69469295Y-75094400D02*
X69374057Y-74999161D01*
X69374057Y-74999161D02*
X69374057Y-75189638D01*
X67374057Y-75189638D02*
X68516914Y-75189638D01*
X67945486Y-75189638D02*
X67945486Y-73189638D01*
X67945486Y-73189638D02*
X68135962Y-73475352D01*
X68135962Y-73475352D02*
X68326438Y-73665828D01*
X68326438Y-73665828D02*
X68516914Y-73761066D01*
X104600828Y-51254510D02*
X103600828Y-51254510D01*
X103100828Y-51254510D02*
X103172257Y-51183082D01*
X103172257Y-51183082D02*
X103243685Y-51254510D01*
X103243685Y-51254510D02*
X103172257Y-51325939D01*
X103172257Y-51325939D02*
X103100828Y-51254510D01*
X103100828Y-51254510D02*
X103243685Y-51254510D01*
X104457971Y-52825939D02*
X104529400Y-52754511D01*
X104529400Y-52754511D02*
X104600828Y-52540225D01*
X104600828Y-52540225D02*
X104600828Y-52397368D01*
X104600828Y-52397368D02*
X104529400Y-52183082D01*
X104529400Y-52183082D02*
X104386542Y-52040225D01*
X104386542Y-52040225D02*
X104243685Y-51968796D01*
X104243685Y-51968796D02*
X103957971Y-51897368D01*
X103957971Y-51897368D02*
X103743685Y-51897368D01*
X103743685Y-51897368D02*
X103457971Y-51968796D01*
X103457971Y-51968796D02*
X103315114Y-52040225D01*
X103315114Y-52040225D02*
X103172257Y-52183082D01*
X103172257Y-52183082D02*
X103100828Y-52397368D01*
X103100828Y-52397368D02*
X103100828Y-52540225D01*
X103100828Y-52540225D02*
X103172257Y-52754511D01*
X103172257Y-52754511D02*
X103243685Y-52825939D01*
X103815114Y-53468796D02*
X103815114Y-53968796D01*
X104600828Y-54183082D02*
X104600828Y-53468796D01*
X104600828Y-53468796D02*
X103100828Y-53468796D01*
X103100828Y-53468796D02*
X103100828Y-54183082D01*
X103600828Y-55468797D02*
X104600828Y-55468797D01*
X103029400Y-55111654D02*
X104100828Y-54754511D01*
X104100828Y-54754511D02*
X104100828Y-55683082D01*
X103100828Y-56540225D02*
X103100828Y-56683082D01*
X103100828Y-56683082D02*
X103172257Y-56825939D01*
X103172257Y-56825939D02*
X103243685Y-56897368D01*
X103243685Y-56897368D02*
X103386542Y-56968796D01*
X103386542Y-56968796D02*
X103672257Y-57040225D01*
X103672257Y-57040225D02*
X104029400Y-57040225D01*
X104029400Y-57040225D02*
X104315114Y-56968796D01*
X104315114Y-56968796D02*
X104457971Y-56897368D01*
X104457971Y-56897368D02*
X104529400Y-56825939D01*
X104529400Y-56825939D02*
X104600828Y-56683082D01*
X104600828Y-56683082D02*
X104600828Y-56540225D01*
X104600828Y-56540225D02*
X104529400Y-56397368D01*
X104529400Y-56397368D02*
X104457971Y-56325939D01*
X104457971Y-56325939D02*
X104315114Y-56254510D01*
X104315114Y-56254510D02*
X104029400Y-56183082D01*
X104029400Y-56183082D02*
X103672257Y-56183082D01*
X103672257Y-56183082D02*
X103386542Y-56254510D01*
X103386542Y-56254510D02*
X103243685Y-56325939D01*
X103243685Y-56325939D02*
X103172257Y-56397368D01*
X103172257Y-56397368D02*
X103100828Y-56540225D01*
X104029400Y-57683081D02*
X104029400Y-58825939D01*
X103100828Y-59540224D02*
X104315114Y-59540224D01*
X104315114Y-59540224D02*
X104457971Y-59611653D01*
X104457971Y-59611653D02*
X104529400Y-59683082D01*
X104529400Y-59683082D02*
X104600828Y-59825939D01*
X104600828Y-59825939D02*
X104600828Y-60111653D01*
X104600828Y-60111653D02*
X104529400Y-60254510D01*
X104529400Y-60254510D02*
X104457971Y-60325939D01*
X104457971Y-60325939D02*
X104315114Y-60397367D01*
X104315114Y-60397367D02*
X103100828Y-60397367D01*
X104600828Y-61111653D02*
X103100828Y-61111653D01*
X103100828Y-61111653D02*
X103100828Y-61683082D01*
X103100828Y-61683082D02*
X103172257Y-61825939D01*
X103172257Y-61825939D02*
X103243685Y-61897368D01*
X103243685Y-61897368D02*
X103386542Y-61968796D01*
X103386542Y-61968796D02*
X103600828Y-61968796D01*
X103600828Y-61968796D02*
X103743685Y-61897368D01*
X103743685Y-61897368D02*
X103815114Y-61825939D01*
X103815114Y-61825939D02*
X103886542Y-61683082D01*
X103886542Y-61683082D02*
X103886542Y-61111653D01*
X103100828Y-63325939D02*
X103100828Y-62611653D01*
X103100828Y-62611653D02*
X103815114Y-62540225D01*
X103815114Y-62540225D02*
X103743685Y-62611653D01*
X103743685Y-62611653D02*
X103672257Y-62754511D01*
X103672257Y-62754511D02*
X103672257Y-63111653D01*
X103672257Y-63111653D02*
X103743685Y-63254511D01*
X103743685Y-63254511D02*
X103815114Y-63325939D01*
X103815114Y-63325939D02*
X103957971Y-63397368D01*
X103957971Y-63397368D02*
X104315114Y-63397368D01*
X104315114Y-63397368D02*
X104457971Y-63325939D01*
X104457971Y-63325939D02*
X104529400Y-63254511D01*
X104529400Y-63254511D02*
X104600828Y-63111653D01*
X104600828Y-63111653D02*
X104600828Y-62754511D01*
X104600828Y-62754511D02*
X104529400Y-62611653D01*
X104529400Y-62611653D02*
X104457971Y-62540225D01*
X104600828Y-64040224D02*
X103100828Y-64040224D01*
X104029400Y-64183082D02*
X104600828Y-64611653D01*
X103600828Y-64611653D02*
X104172257Y-64040224D01*
X104529400Y-66325939D02*
X104600828Y-66540225D01*
X104600828Y-66540225D02*
X104600828Y-66897367D01*
X104600828Y-66897367D02*
X104529400Y-67040225D01*
X104529400Y-67040225D02*
X104457971Y-67111653D01*
X104457971Y-67111653D02*
X104315114Y-67183082D01*
X104315114Y-67183082D02*
X104172257Y-67183082D01*
X104172257Y-67183082D02*
X104029400Y-67111653D01*
X104029400Y-67111653D02*
X103957971Y-67040225D01*
X103957971Y-67040225D02*
X103886542Y-66897367D01*
X103886542Y-66897367D02*
X103815114Y-66611653D01*
X103815114Y-66611653D02*
X103743685Y-66468796D01*
X103743685Y-66468796D02*
X103672257Y-66397367D01*
X103672257Y-66397367D02*
X103529400Y-66325939D01*
X103529400Y-66325939D02*
X103386542Y-66325939D01*
X103386542Y-66325939D02*
X103243685Y-66397367D01*
X103243685Y-66397367D02*
X103172257Y-66468796D01*
X103172257Y-66468796D02*
X103100828Y-66611653D01*
X103100828Y-66611653D02*
X103100828Y-66968796D01*
X103100828Y-66968796D02*
X103172257Y-67183082D01*
X103172257Y-68611653D02*
X103100828Y-68468796D01*
X103100828Y-68468796D02*
X103100828Y-68254510D01*
X103100828Y-68254510D02*
X103172257Y-68040224D01*
X103172257Y-68040224D02*
X103315114Y-67897367D01*
X103315114Y-67897367D02*
X103457971Y-67825938D01*
X103457971Y-67825938D02*
X103743685Y-67754510D01*
X103743685Y-67754510D02*
X103957971Y-67754510D01*
X103957971Y-67754510D02*
X104243685Y-67825938D01*
X104243685Y-67825938D02*
X104386542Y-67897367D01*
X104386542Y-67897367D02*
X104529400Y-68040224D01*
X104529400Y-68040224D02*
X104600828Y-68254510D01*
X104600828Y-68254510D02*
X104600828Y-68397367D01*
X104600828Y-68397367D02*
X104529400Y-68611653D01*
X104529400Y-68611653D02*
X104457971Y-68683081D01*
X104457971Y-68683081D02*
X103957971Y-68683081D01*
X103957971Y-68683081D02*
X103957971Y-68397367D01*
X104029400Y-69325938D02*
X104029400Y-70468796D01*
X103600828Y-71825939D02*
X104600828Y-71825939D01*
X103029400Y-71468796D02*
X104100828Y-71111653D01*
X104100828Y-71111653D02*
X104100828Y-72040224D01*
X103743685Y-72825938D02*
X103672257Y-72683081D01*
X103672257Y-72683081D02*
X103600828Y-72611652D01*
X103600828Y-72611652D02*
X103457971Y-72540224D01*
X103457971Y-72540224D02*
X103386542Y-72540224D01*
X103386542Y-72540224D02*
X103243685Y-72611652D01*
X103243685Y-72611652D02*
X103172257Y-72683081D01*
X103172257Y-72683081D02*
X103100828Y-72825938D01*
X103100828Y-72825938D02*
X103100828Y-73111652D01*
X103100828Y-73111652D02*
X103172257Y-73254510D01*
X103172257Y-73254510D02*
X103243685Y-73325938D01*
X103243685Y-73325938D02*
X103386542Y-73397367D01*
X103386542Y-73397367D02*
X103457971Y-73397367D01*
X103457971Y-73397367D02*
X103600828Y-73325938D01*
X103600828Y-73325938D02*
X103672257Y-73254510D01*
X103672257Y-73254510D02*
X103743685Y-73111652D01*
X103743685Y-73111652D02*
X103743685Y-72825938D01*
X103743685Y-72825938D02*
X103815114Y-72683081D01*
X103815114Y-72683081D02*
X103886542Y-72611652D01*
X103886542Y-72611652D02*
X104029400Y-72540224D01*
X104029400Y-72540224D02*
X104315114Y-72540224D01*
X104315114Y-72540224D02*
X104457971Y-72611652D01*
X104457971Y-72611652D02*
X104529400Y-72683081D01*
X104529400Y-72683081D02*
X104600828Y-72825938D01*
X104600828Y-72825938D02*
X104600828Y-73111652D01*
X104600828Y-73111652D02*
X104529400Y-73254510D01*
X104529400Y-73254510D02*
X104457971Y-73325938D01*
X104457971Y-73325938D02*
X104315114Y-73397367D01*
X104315114Y-73397367D02*
X104029400Y-73397367D01*
X104029400Y-73397367D02*
X103886542Y-73325938D01*
X103886542Y-73325938D02*
X103815114Y-73254510D01*
X103815114Y-73254510D02*
X103743685Y-73111652D01*
X94638346Y-48977257D02*
X94638346Y-45977257D01*
X94638346Y-45977257D02*
X93495489Y-45977257D01*
X93495489Y-45977257D02*
X93209774Y-46120114D01*
X93209774Y-46120114D02*
X93066917Y-46262971D01*
X93066917Y-46262971D02*
X92924060Y-46548685D01*
X92924060Y-46548685D02*
X92924060Y-46977257D01*
X92924060Y-46977257D02*
X93066917Y-47262971D01*
X93066917Y-47262971D02*
X93209774Y-47405828D01*
X93209774Y-47405828D02*
X93495489Y-47548685D01*
X93495489Y-47548685D02*
X94638346Y-47548685D01*
X91638346Y-48977257D02*
X91638346Y-46977257D01*
X91638346Y-47548685D02*
X91495489Y-47262971D01*
X91495489Y-47262971D02*
X91352632Y-47120114D01*
X91352632Y-47120114D02*
X91066917Y-46977257D01*
X91066917Y-46977257D02*
X90781203Y-46977257D01*
X89352631Y-48977257D02*
X89638346Y-48834400D01*
X89638346Y-48834400D02*
X89781203Y-48691542D01*
X89781203Y-48691542D02*
X89924060Y-48405828D01*
X89924060Y-48405828D02*
X89924060Y-47548685D01*
X89924060Y-47548685D02*
X89781203Y-47262971D01*
X89781203Y-47262971D02*
X89638346Y-47120114D01*
X89638346Y-47120114D02*
X89352631Y-46977257D01*
X89352631Y-46977257D02*
X88924060Y-46977257D01*
X88924060Y-46977257D02*
X88638346Y-47120114D01*
X88638346Y-47120114D02*
X88495489Y-47262971D01*
X88495489Y-47262971D02*
X88352631Y-47548685D01*
X88352631Y-47548685D02*
X88352631Y-48405828D01*
X88352631Y-48405828D02*
X88495489Y-48691542D01*
X88495489Y-48691542D02*
X88638346Y-48834400D01*
X88638346Y-48834400D02*
X88924060Y-48977257D01*
X88924060Y-48977257D02*
X89352631Y-48977257D01*
X85781203Y-46977257D02*
X85781203Y-49405828D01*
X85781203Y-49405828D02*
X85924060Y-49691542D01*
X85924060Y-49691542D02*
X86066917Y-49834400D01*
X86066917Y-49834400D02*
X86352631Y-49977257D01*
X86352631Y-49977257D02*
X86781203Y-49977257D01*
X86781203Y-49977257D02*
X87066917Y-49834400D01*
X85781203Y-48834400D02*
X86066917Y-48977257D01*
X86066917Y-48977257D02*
X86638345Y-48977257D01*
X86638345Y-48977257D02*
X86924060Y-48834400D01*
X86924060Y-48834400D02*
X87066917Y-48691542D01*
X87066917Y-48691542D02*
X87209774Y-48405828D01*
X87209774Y-48405828D02*
X87209774Y-47548685D01*
X87209774Y-47548685D02*
X87066917Y-47262971D01*
X87066917Y-47262971D02*
X86924060Y-47120114D01*
X86924060Y-47120114D02*
X86638345Y-46977257D01*
X86638345Y-46977257D02*
X86066917Y-46977257D01*
X86066917Y-46977257D02*
X85781203Y-47120114D01*
X84352631Y-48977257D02*
X84352631Y-46977257D01*
X84352631Y-47548685D02*
X84209774Y-47262971D01*
X84209774Y-47262971D02*
X84066917Y-47120114D01*
X84066917Y-47120114D02*
X83781202Y-46977257D01*
X83781202Y-46977257D02*
X83495488Y-46977257D01*
X81209774Y-48977257D02*
X81209774Y-47405828D01*
X81209774Y-47405828D02*
X81352631Y-47120114D01*
X81352631Y-47120114D02*
X81638345Y-46977257D01*
X81638345Y-46977257D02*
X82209774Y-46977257D01*
X82209774Y-46977257D02*
X82495488Y-47120114D01*
X81209774Y-48834400D02*
X81495488Y-48977257D01*
X81495488Y-48977257D02*
X82209774Y-48977257D01*
X82209774Y-48977257D02*
X82495488Y-48834400D01*
X82495488Y-48834400D02*
X82638345Y-48548685D01*
X82638345Y-48548685D02*
X82638345Y-48262971D01*
X82638345Y-48262971D02*
X82495488Y-47977257D01*
X82495488Y-47977257D02*
X82209774Y-47834400D01*
X82209774Y-47834400D02*
X81495488Y-47834400D01*
X81495488Y-47834400D02*
X81209774Y-47691542D01*
X79781202Y-48977257D02*
X79781202Y-46977257D01*
X79781202Y-47262971D02*
X79638345Y-47120114D01*
X79638345Y-47120114D02*
X79352630Y-46977257D01*
X79352630Y-46977257D02*
X78924059Y-46977257D01*
X78924059Y-46977257D02*
X78638345Y-47120114D01*
X78638345Y-47120114D02*
X78495488Y-47405828D01*
X78495488Y-47405828D02*
X78495488Y-48977257D01*
X78495488Y-47405828D02*
X78352630Y-47120114D01*
X78352630Y-47120114D02*
X78066916Y-46977257D01*
X78066916Y-46977257D02*
X77638345Y-46977257D01*
X77638345Y-46977257D02*
X77352630Y-47120114D01*
X77352630Y-47120114D02*
X77209773Y-47405828D01*
X77209773Y-47405828D02*
X77209773Y-48977257D01*
X75781202Y-48977257D02*
X75781202Y-46977257D01*
X75781202Y-47262971D02*
X75638345Y-47120114D01*
X75638345Y-47120114D02*
X75352630Y-46977257D01*
X75352630Y-46977257D02*
X74924059Y-46977257D01*
X74924059Y-46977257D02*
X74638345Y-47120114D01*
X74638345Y-47120114D02*
X74495488Y-47405828D01*
X74495488Y-47405828D02*
X74495488Y-48977257D01*
X74495488Y-47405828D02*
X74352630Y-47120114D01*
X74352630Y-47120114D02*
X74066916Y-46977257D01*
X74066916Y-46977257D02*
X73638345Y-46977257D01*
X73638345Y-46977257D02*
X73352630Y-47120114D01*
X73352630Y-47120114D02*
X73209773Y-47405828D01*
X73209773Y-47405828D02*
X73209773Y-48977257D01*
X70495488Y-48977257D02*
X70495488Y-47405828D01*
X70495488Y-47405828D02*
X70638345Y-47120114D01*
X70638345Y-47120114D02*
X70924059Y-46977257D01*
X70924059Y-46977257D02*
X71495488Y-46977257D01*
X71495488Y-46977257D02*
X71781202Y-47120114D01*
X70495488Y-48834400D02*
X70781202Y-48977257D01*
X70781202Y-48977257D02*
X71495488Y-48977257D01*
X71495488Y-48977257D02*
X71781202Y-48834400D01*
X71781202Y-48834400D02*
X71924059Y-48548685D01*
X71924059Y-48548685D02*
X71924059Y-48262971D01*
X71924059Y-48262971D02*
X71781202Y-47977257D01*
X71781202Y-47977257D02*
X71495488Y-47834400D01*
X71495488Y-47834400D02*
X70781202Y-47834400D01*
X70781202Y-47834400D02*
X70495488Y-47691542D01*
X67495487Y-46120114D02*
X67781202Y-45977257D01*
X67781202Y-45977257D02*
X68209773Y-45977257D01*
X68209773Y-45977257D02*
X68638344Y-46120114D01*
X68638344Y-46120114D02*
X68924059Y-46405828D01*
X68924059Y-46405828D02*
X69066916Y-46691542D01*
X69066916Y-46691542D02*
X69209773Y-47262971D01*
X69209773Y-47262971D02*
X69209773Y-47691542D01*
X69209773Y-47691542D02*
X69066916Y-48262971D01*
X69066916Y-48262971D02*
X68924059Y-48548685D01*
X68924059Y-48548685D02*
X68638344Y-48834400D01*
X68638344Y-48834400D02*
X68209773Y-48977257D01*
X68209773Y-48977257D02*
X67924059Y-48977257D01*
X67924059Y-48977257D02*
X67495487Y-48834400D01*
X67495487Y-48834400D02*
X67352630Y-48691542D01*
X67352630Y-48691542D02*
X67352630Y-47691542D01*
X67352630Y-47691542D02*
X67924059Y-47691542D01*
X64781202Y-46977257D02*
X64781202Y-48977257D01*
X66066916Y-46977257D02*
X66066916Y-48548685D01*
X66066916Y-48548685D02*
X65924059Y-48834400D01*
X65924059Y-48834400D02*
X65638344Y-48977257D01*
X65638344Y-48977257D02*
X65209773Y-48977257D01*
X65209773Y-48977257D02*
X64924059Y-48834400D01*
X64924059Y-48834400D02*
X64781202Y-48691542D01*
X62924058Y-48977257D02*
X63209773Y-48834400D01*
X63209773Y-48834400D02*
X63352630Y-48548685D01*
X63352630Y-48548685D02*
X63352630Y-45977257D01*
X61352629Y-48977257D02*
X61638344Y-48834400D01*
X61638344Y-48834400D02*
X61781201Y-48548685D01*
X61781201Y-48548685D02*
X61781201Y-45977257D01*
X56495486Y-48977257D02*
X57924058Y-48977257D01*
X57924058Y-48977257D02*
X57924058Y-45977257D01*
X55066915Y-48977257D02*
X55352630Y-48834400D01*
X55352630Y-48834400D02*
X55495487Y-48691542D01*
X55495487Y-48691542D02*
X55638344Y-48405828D01*
X55638344Y-48405828D02*
X55638344Y-47548685D01*
X55638344Y-47548685D02*
X55495487Y-47262971D01*
X55495487Y-47262971D02*
X55352630Y-47120114D01*
X55352630Y-47120114D02*
X55066915Y-46977257D01*
X55066915Y-46977257D02*
X54638344Y-46977257D01*
X54638344Y-46977257D02*
X54352630Y-47120114D01*
X54352630Y-47120114D02*
X54209773Y-47262971D01*
X54209773Y-47262971D02*
X54066915Y-47548685D01*
X54066915Y-47548685D02*
X54066915Y-48405828D01*
X54066915Y-48405828D02*
X54209773Y-48691542D01*
X54209773Y-48691542D02*
X54352630Y-48834400D01*
X54352630Y-48834400D02*
X54638344Y-48977257D01*
X54638344Y-48977257D02*
X55066915Y-48977257D01*
X51495487Y-46977257D02*
X51495487Y-49405828D01*
X51495487Y-49405828D02*
X51638344Y-49691542D01*
X51638344Y-49691542D02*
X51781201Y-49834400D01*
X51781201Y-49834400D02*
X52066915Y-49977257D01*
X52066915Y-49977257D02*
X52495487Y-49977257D01*
X52495487Y-49977257D02*
X52781201Y-49834400D01*
X51495487Y-48834400D02*
X51781201Y-48977257D01*
X51781201Y-48977257D02*
X52352629Y-48977257D01*
X52352629Y-48977257D02*
X52638344Y-48834400D01*
X52638344Y-48834400D02*
X52781201Y-48691542D01*
X52781201Y-48691542D02*
X52924058Y-48405828D01*
X52924058Y-48405828D02*
X52924058Y-47548685D01*
X52924058Y-47548685D02*
X52781201Y-47262971D01*
X52781201Y-47262971D02*
X52638344Y-47120114D01*
X52638344Y-47120114D02*
X52352629Y-46977257D01*
X52352629Y-46977257D02*
X51781201Y-46977257D01*
X51781201Y-46977257D02*
X51495487Y-47120114D01*
X50066915Y-48977257D02*
X50066915Y-46977257D01*
X50066915Y-45977257D02*
X50209772Y-46120114D01*
X50209772Y-46120114D02*
X50066915Y-46262971D01*
X50066915Y-46262971D02*
X49924058Y-46120114D01*
X49924058Y-46120114D02*
X50066915Y-45977257D01*
X50066915Y-45977257D02*
X50066915Y-46262971D01*
X47352630Y-48834400D02*
X47638344Y-48977257D01*
X47638344Y-48977257D02*
X48209772Y-48977257D01*
X48209772Y-48977257D02*
X48495487Y-48834400D01*
X48495487Y-48834400D02*
X48638344Y-48691542D01*
X48638344Y-48691542D02*
X48781201Y-48405828D01*
X48781201Y-48405828D02*
X48781201Y-47548685D01*
X48781201Y-47548685D02*
X48638344Y-47262971D01*
X48638344Y-47262971D02*
X48495487Y-47120114D01*
X48495487Y-47120114D02*
X48209772Y-46977257D01*
X48209772Y-46977257D02*
X47638344Y-46977257D01*
X47638344Y-46977257D02*
X47352630Y-47120114D01*
X94781203Y-53664400D02*
X94352632Y-53807257D01*
X94352632Y-53807257D02*
X93638346Y-53807257D01*
X93638346Y-53807257D02*
X93352632Y-53664400D01*
X93352632Y-53664400D02*
X93209774Y-53521542D01*
X93209774Y-53521542D02*
X93066917Y-53235828D01*
X93066917Y-53235828D02*
X93066917Y-52950114D01*
X93066917Y-52950114D02*
X93209774Y-52664400D01*
X93209774Y-52664400D02*
X93352632Y-52521542D01*
X93352632Y-52521542D02*
X93638346Y-52378685D01*
X93638346Y-52378685D02*
X94209774Y-52235828D01*
X94209774Y-52235828D02*
X94495489Y-52092971D01*
X94495489Y-52092971D02*
X94638346Y-51950114D01*
X94638346Y-51950114D02*
X94781203Y-51664400D01*
X94781203Y-51664400D02*
X94781203Y-51378685D01*
X94781203Y-51378685D02*
X94638346Y-51092971D01*
X94638346Y-51092971D02*
X94495489Y-50950114D01*
X94495489Y-50950114D02*
X94209774Y-50807257D01*
X94209774Y-50807257D02*
X93495489Y-50807257D01*
X93495489Y-50807257D02*
X93066917Y-50950114D01*
X90495489Y-53807257D02*
X90495489Y-52235828D01*
X90495489Y-52235828D02*
X90638346Y-51950114D01*
X90638346Y-51950114D02*
X90924060Y-51807257D01*
X90924060Y-51807257D02*
X91495489Y-51807257D01*
X91495489Y-51807257D02*
X91781203Y-51950114D01*
X90495489Y-53664400D02*
X90781203Y-53807257D01*
X90781203Y-53807257D02*
X91495489Y-53807257D01*
X91495489Y-53807257D02*
X91781203Y-53664400D01*
X91781203Y-53664400D02*
X91924060Y-53378685D01*
X91924060Y-53378685D02*
X91924060Y-53092971D01*
X91924060Y-53092971D02*
X91781203Y-52807257D01*
X91781203Y-52807257D02*
X91495489Y-52664400D01*
X91495489Y-52664400D02*
X90781203Y-52664400D01*
X90781203Y-52664400D02*
X90495489Y-52521542D01*
X89066917Y-51807257D02*
X89066917Y-53807257D01*
X89066917Y-52092971D02*
X88924060Y-51950114D01*
X88924060Y-51950114D02*
X88638345Y-51807257D01*
X88638345Y-51807257D02*
X88209774Y-51807257D01*
X88209774Y-51807257D02*
X87924060Y-51950114D01*
X87924060Y-51950114D02*
X87781203Y-52235828D01*
X87781203Y-52235828D02*
X87781203Y-53807257D01*
X85066917Y-53807257D02*
X85066917Y-50807257D01*
X85066917Y-53664400D02*
X85352631Y-53807257D01*
X85352631Y-53807257D02*
X85924059Y-53807257D01*
X85924059Y-53807257D02*
X86209774Y-53664400D01*
X86209774Y-53664400D02*
X86352631Y-53521542D01*
X86352631Y-53521542D02*
X86495488Y-53235828D01*
X86495488Y-53235828D02*
X86495488Y-52378685D01*
X86495488Y-52378685D02*
X86352631Y-52092971D01*
X86352631Y-52092971D02*
X86209774Y-51950114D01*
X86209774Y-51950114D02*
X85924059Y-51807257D01*
X85924059Y-51807257D02*
X85352631Y-51807257D01*
X85352631Y-51807257D02*
X85066917Y-51950114D01*
X83638345Y-51807257D02*
X83638345Y-54807257D01*
X83638345Y-51950114D02*
X83352631Y-51807257D01*
X83352631Y-51807257D02*
X82781202Y-51807257D01*
X82781202Y-51807257D02*
X82495488Y-51950114D01*
X82495488Y-51950114D02*
X82352631Y-52092971D01*
X82352631Y-52092971D02*
X82209773Y-52378685D01*
X82209773Y-52378685D02*
X82209773Y-53235828D01*
X82209773Y-53235828D02*
X82352631Y-53521542D01*
X82352631Y-53521542D02*
X82495488Y-53664400D01*
X82495488Y-53664400D02*
X82781202Y-53807257D01*
X82781202Y-53807257D02*
X83352631Y-53807257D01*
X83352631Y-53807257D02*
X83638345Y-53664400D01*
X80924059Y-53807257D02*
X80924059Y-51807257D01*
X80924059Y-50807257D02*
X81066916Y-50950114D01*
X81066916Y-50950114D02*
X80924059Y-51092971D01*
X80924059Y-51092971D02*
X80781202Y-50950114D01*
X80781202Y-50950114D02*
X80924059Y-50807257D01*
X80924059Y-50807257D02*
X80924059Y-51092971D01*
X79495488Y-51807257D02*
X79495488Y-54807257D01*
X79495488Y-51950114D02*
X79209774Y-51807257D01*
X79209774Y-51807257D02*
X78638345Y-51807257D01*
X78638345Y-51807257D02*
X78352631Y-51950114D01*
X78352631Y-51950114D02*
X78209774Y-52092971D01*
X78209774Y-52092971D02*
X78066916Y-52378685D01*
X78066916Y-52378685D02*
X78066916Y-53235828D01*
X78066916Y-53235828D02*
X78209774Y-53521542D01*
X78209774Y-53521542D02*
X78352631Y-53664400D01*
X78352631Y-53664400D02*
X78638345Y-53807257D01*
X78638345Y-53807257D02*
X79209774Y-53807257D01*
X79209774Y-53807257D02*
X79495488Y-53664400D01*
X75638345Y-53664400D02*
X75924059Y-53807257D01*
X75924059Y-53807257D02*
X76495488Y-53807257D01*
X76495488Y-53807257D02*
X76781202Y-53664400D01*
X76781202Y-53664400D02*
X76924059Y-53378685D01*
X76924059Y-53378685D02*
X76924059Y-52235828D01*
X76924059Y-52235828D02*
X76781202Y-51950114D01*
X76781202Y-51950114D02*
X76495488Y-51807257D01*
X76495488Y-51807257D02*
X75924059Y-51807257D01*
X75924059Y-51807257D02*
X75638345Y-51950114D01*
X75638345Y-51950114D02*
X75495488Y-52235828D01*
X75495488Y-52235828D02*
X75495488Y-52521542D01*
X75495488Y-52521542D02*
X76924059Y-52807257D01*
X74209773Y-53807257D02*
X74209773Y-51807257D01*
X74209773Y-52378685D02*
X74066916Y-52092971D01*
X74066916Y-52092971D02*
X73924059Y-51950114D01*
X73924059Y-51950114D02*
X73638344Y-51807257D01*
X73638344Y-51807257D02*
X73352630Y-51807257D01*
X93781203Y-55637257D02*
X93781203Y-57780114D01*
X93781203Y-57780114D02*
X93924060Y-58208685D01*
X93924060Y-58208685D02*
X94209774Y-58494400D01*
X94209774Y-58494400D02*
X94638346Y-58637257D01*
X94638346Y-58637257D02*
X94924060Y-58637257D01*
X91924060Y-58637257D02*
X92209775Y-58494400D01*
X92209775Y-58494400D02*
X92352632Y-58351542D01*
X92352632Y-58351542D02*
X92495489Y-58065828D01*
X92495489Y-58065828D02*
X92495489Y-57208685D01*
X92495489Y-57208685D02*
X92352632Y-56922971D01*
X92352632Y-56922971D02*
X92209775Y-56780114D01*
X92209775Y-56780114D02*
X91924060Y-56637257D01*
X91924060Y-56637257D02*
X91495489Y-56637257D01*
X91495489Y-56637257D02*
X91209775Y-56780114D01*
X91209775Y-56780114D02*
X91066918Y-56922971D01*
X91066918Y-56922971D02*
X90924060Y-57208685D01*
X90924060Y-57208685D02*
X90924060Y-58065828D01*
X90924060Y-58065828D02*
X91066918Y-58351542D01*
X91066918Y-58351542D02*
X91209775Y-58494400D01*
X91209775Y-58494400D02*
X91495489Y-58637257D01*
X91495489Y-58637257D02*
X91924060Y-58637257D01*
X89781203Y-58494400D02*
X89495489Y-58637257D01*
X89495489Y-58637257D02*
X88924060Y-58637257D01*
X88924060Y-58637257D02*
X88638346Y-58494400D01*
X88638346Y-58494400D02*
X88495489Y-58208685D01*
X88495489Y-58208685D02*
X88495489Y-58065828D01*
X88495489Y-58065828D02*
X88638346Y-57780114D01*
X88638346Y-57780114D02*
X88924060Y-57637257D01*
X88924060Y-57637257D02*
X89352632Y-57637257D01*
X89352632Y-57637257D02*
X89638346Y-57494400D01*
X89638346Y-57494400D02*
X89781203Y-57208685D01*
X89781203Y-57208685D02*
X89781203Y-57065828D01*
X89781203Y-57065828D02*
X89638346Y-56780114D01*
X89638346Y-56780114D02*
X89352632Y-56637257D01*
X89352632Y-56637257D02*
X88924060Y-56637257D01*
X88924060Y-56637257D02*
X88638346Y-56780114D01*
X86066918Y-58494400D02*
X86352632Y-58637257D01*
X86352632Y-58637257D02*
X86924061Y-58637257D01*
X86924061Y-58637257D02*
X87209775Y-58494400D01*
X87209775Y-58494400D02*
X87352632Y-58208685D01*
X87352632Y-58208685D02*
X87352632Y-57065828D01*
X87352632Y-57065828D02*
X87209775Y-56780114D01*
X87209775Y-56780114D02*
X86924061Y-56637257D01*
X86924061Y-56637257D02*
X86352632Y-56637257D01*
X86352632Y-56637257D02*
X86066918Y-56780114D01*
X86066918Y-56780114D02*
X85924061Y-57065828D01*
X85924061Y-57065828D02*
X85924061Y-57351542D01*
X85924061Y-57351542D02*
X87352632Y-57637257D01*
X84638346Y-56637257D02*
X84638346Y-59637257D01*
X84638346Y-56780114D02*
X84352632Y-56637257D01*
X84352632Y-56637257D02*
X83781203Y-56637257D01*
X83781203Y-56637257D02*
X83495489Y-56780114D01*
X83495489Y-56780114D02*
X83352632Y-56922971D01*
X83352632Y-56922971D02*
X83209774Y-57208685D01*
X83209774Y-57208685D02*
X83209774Y-58065828D01*
X83209774Y-58065828D02*
X83352632Y-58351542D01*
X83352632Y-58351542D02*
X83495489Y-58494400D01*
X83495489Y-58494400D02*
X83781203Y-58637257D01*
X83781203Y-58637257D02*
X84352632Y-58637257D01*
X84352632Y-58637257D02*
X84638346Y-58494400D01*
X81924060Y-58637257D02*
X81924060Y-55637257D01*
X80638346Y-58637257D02*
X80638346Y-57065828D01*
X80638346Y-57065828D02*
X80781203Y-56780114D01*
X80781203Y-56780114D02*
X81066917Y-56637257D01*
X81066917Y-56637257D02*
X81495488Y-56637257D01*
X81495488Y-56637257D02*
X81781203Y-56780114D01*
X81781203Y-56780114D02*
X81924060Y-56922971D01*
X77066917Y-57780114D02*
X75638346Y-57780114D01*
X77352631Y-58637257D02*
X76352631Y-55637257D01*
X76352631Y-55637257D02*
X75352631Y-58637257D01*
X74352631Y-58351542D02*
X74209774Y-58494400D01*
X74209774Y-58494400D02*
X74352631Y-58637257D01*
X74352631Y-58637257D02*
X74495488Y-58494400D01*
X74495488Y-58494400D02*
X74352631Y-58351542D01*
X74352631Y-58351542D02*
X74352631Y-58637257D01*
X70638346Y-58637257D02*
X70638346Y-55637257D01*
X70638346Y-55637257D02*
X69924060Y-55637257D01*
X69924060Y-55637257D02*
X69495489Y-55780114D01*
X69495489Y-55780114D02*
X69209774Y-56065828D01*
X69209774Y-56065828D02*
X69066917Y-56351542D01*
X69066917Y-56351542D02*
X68924060Y-56922971D01*
X68924060Y-56922971D02*
X68924060Y-57351542D01*
X68924060Y-57351542D02*
X69066917Y-57922971D01*
X69066917Y-57922971D02*
X69209774Y-58208685D01*
X69209774Y-58208685D02*
X69495489Y-58494400D01*
X69495489Y-58494400D02*
X69924060Y-58637257D01*
X69924060Y-58637257D02*
X70638346Y-58637257D01*
X66495489Y-58494400D02*
X66781203Y-58637257D01*
X66781203Y-58637257D02*
X67352632Y-58637257D01*
X67352632Y-58637257D02*
X67638346Y-58494400D01*
X67638346Y-58494400D02*
X67781203Y-58208685D01*
X67781203Y-58208685D02*
X67781203Y-57065828D01*
X67781203Y-57065828D02*
X67638346Y-56780114D01*
X67638346Y-56780114D02*
X67352632Y-56637257D01*
X67352632Y-56637257D02*
X66781203Y-56637257D01*
X66781203Y-56637257D02*
X66495489Y-56780114D01*
X66495489Y-56780114D02*
X66352632Y-57065828D01*
X66352632Y-57065828D02*
X66352632Y-57351542D01*
X66352632Y-57351542D02*
X67781203Y-57637257D01*
X63209774Y-55637257D02*
X62209774Y-58637257D01*
X62209774Y-58637257D02*
X61209774Y-55637257D01*
X60209774Y-58637257D02*
X60209774Y-56637257D01*
X60209774Y-55637257D02*
X60352631Y-55780114D01*
X60352631Y-55780114D02*
X60209774Y-55922971D01*
X60209774Y-55922971D02*
X60066917Y-55780114D01*
X60066917Y-55780114D02*
X60209774Y-55637257D01*
X60209774Y-55637257D02*
X60209774Y-55922971D01*
X57495489Y-58494400D02*
X57781203Y-58637257D01*
X57781203Y-58637257D02*
X58352631Y-58637257D01*
X58352631Y-58637257D02*
X58638346Y-58494400D01*
X58638346Y-58494400D02*
X58781203Y-58351542D01*
X58781203Y-58351542D02*
X58924060Y-58065828D01*
X58924060Y-58065828D02*
X58924060Y-57208685D01*
X58924060Y-57208685D02*
X58781203Y-56922971D01*
X58781203Y-56922971D02*
X58638346Y-56780114D01*
X58638346Y-56780114D02*
X58352631Y-56637257D01*
X58352631Y-56637257D02*
X57781203Y-56637257D01*
X57781203Y-56637257D02*
X57495489Y-56780114D01*
X55781202Y-58637257D02*
X56066917Y-58494400D01*
X56066917Y-58494400D02*
X56209774Y-58351542D01*
X56209774Y-58351542D02*
X56352631Y-58065828D01*
X56352631Y-58065828D02*
X56352631Y-57208685D01*
X56352631Y-57208685D02*
X56209774Y-56922971D01*
X56209774Y-56922971D02*
X56066917Y-56780114D01*
X56066917Y-56780114D02*
X55781202Y-56637257D01*
X55781202Y-56637257D02*
X55352631Y-56637257D01*
X55352631Y-56637257D02*
X55066917Y-56780114D01*
X55066917Y-56780114D02*
X54924060Y-56922971D01*
X54924060Y-56922971D02*
X54781202Y-57208685D01*
X54781202Y-57208685D02*
X54781202Y-58065828D01*
X54781202Y-58065828D02*
X54924060Y-58351542D01*
X54924060Y-58351542D02*
X55066917Y-58494400D01*
X55066917Y-58494400D02*
X55352631Y-58637257D01*
X55352631Y-58637257D02*
X55781202Y-58637257D01*
X93066917Y-63467257D02*
X94781203Y-63467257D01*
X93924060Y-63467257D02*
X93924060Y-60467257D01*
X93924060Y-60467257D02*
X94209774Y-60895828D01*
X94209774Y-60895828D02*
X94495489Y-61181542D01*
X94495489Y-61181542D02*
X94781203Y-61324400D01*
X90209774Y-63467257D02*
X91924060Y-63467257D01*
X91066917Y-63467257D02*
X91066917Y-60467257D01*
X91066917Y-60467257D02*
X91352631Y-60895828D01*
X91352631Y-60895828D02*
X91638346Y-61181542D01*
X91638346Y-61181542D02*
X91924060Y-61324400D01*
X86781203Y-60324400D02*
X89352631Y-64181542D01*
X85209774Y-60467257D02*
X84924060Y-60467257D01*
X84924060Y-60467257D02*
X84638346Y-60610114D01*
X84638346Y-60610114D02*
X84495489Y-60752971D01*
X84495489Y-60752971D02*
X84352631Y-61038685D01*
X84352631Y-61038685D02*
X84209774Y-61610114D01*
X84209774Y-61610114D02*
X84209774Y-62324400D01*
X84209774Y-62324400D02*
X84352631Y-62895828D01*
X84352631Y-62895828D02*
X84495489Y-63181542D01*
X84495489Y-63181542D02*
X84638346Y-63324400D01*
X84638346Y-63324400D02*
X84924060Y-63467257D01*
X84924060Y-63467257D02*
X85209774Y-63467257D01*
X85209774Y-63467257D02*
X85495489Y-63324400D01*
X85495489Y-63324400D02*
X85638346Y-63181542D01*
X85638346Y-63181542D02*
X85781203Y-62895828D01*
X85781203Y-62895828D02*
X85924060Y-62324400D01*
X85924060Y-62324400D02*
X85924060Y-61610114D01*
X85924060Y-61610114D02*
X85781203Y-61038685D01*
X85781203Y-61038685D02*
X85638346Y-60752971D01*
X85638346Y-60752971D02*
X85495489Y-60610114D01*
X85495489Y-60610114D02*
X85209774Y-60467257D01*
X81638346Y-60467257D02*
X82209774Y-60467257D01*
X82209774Y-60467257D02*
X82495488Y-60610114D01*
X82495488Y-60610114D02*
X82638346Y-60752971D01*
X82638346Y-60752971D02*
X82924060Y-61181542D01*
X82924060Y-61181542D02*
X83066917Y-61752971D01*
X83066917Y-61752971D02*
X83066917Y-62895828D01*
X83066917Y-62895828D02*
X82924060Y-63181542D01*
X82924060Y-63181542D02*
X82781203Y-63324400D01*
X82781203Y-63324400D02*
X82495488Y-63467257D01*
X82495488Y-63467257D02*
X81924060Y-63467257D01*
X81924060Y-63467257D02*
X81638346Y-63324400D01*
X81638346Y-63324400D02*
X81495488Y-63181542D01*
X81495488Y-63181542D02*
X81352631Y-62895828D01*
X81352631Y-62895828D02*
X81352631Y-62181542D01*
X81352631Y-62181542D02*
X81495488Y-61895828D01*
X81495488Y-61895828D02*
X81638346Y-61752971D01*
X81638346Y-61752971D02*
X81924060Y-61610114D01*
X81924060Y-61610114D02*
X82495488Y-61610114D01*
X82495488Y-61610114D02*
X82781203Y-61752971D01*
X82781203Y-61752971D02*
X82924060Y-61895828D01*
X82924060Y-61895828D02*
X83066917Y-62181542D01*
X77924060Y-60324400D02*
X80495488Y-64181542D01*
X77066917Y-60752971D02*
X76924060Y-60610114D01*
X76924060Y-60610114D02*
X76638346Y-60467257D01*
X76638346Y-60467257D02*
X75924060Y-60467257D01*
X75924060Y-60467257D02*
X75638346Y-60610114D01*
X75638346Y-60610114D02*
X75495488Y-60752971D01*
X75495488Y-60752971D02*
X75352631Y-61038685D01*
X75352631Y-61038685D02*
X75352631Y-61324400D01*
X75352631Y-61324400D02*
X75495488Y-61752971D01*
X75495488Y-61752971D02*
X77209774Y-63467257D01*
X77209774Y-63467257D02*
X75352631Y-63467257D01*
X73495488Y-60467257D02*
X73209774Y-60467257D01*
X73209774Y-60467257D02*
X72924060Y-60610114D01*
X72924060Y-60610114D02*
X72781203Y-60752971D01*
X72781203Y-60752971D02*
X72638345Y-61038685D01*
X72638345Y-61038685D02*
X72495488Y-61610114D01*
X72495488Y-61610114D02*
X72495488Y-62324400D01*
X72495488Y-62324400D02*
X72638345Y-62895828D01*
X72638345Y-62895828D02*
X72781203Y-63181542D01*
X72781203Y-63181542D02*
X72924060Y-63324400D01*
X72924060Y-63324400D02*
X73209774Y-63467257D01*
X73209774Y-63467257D02*
X73495488Y-63467257D01*
X73495488Y-63467257D02*
X73781203Y-63324400D01*
X73781203Y-63324400D02*
X73924060Y-63181542D01*
X73924060Y-63181542D02*
X74066917Y-62895828D01*
X74066917Y-62895828D02*
X74209774Y-62324400D01*
X74209774Y-62324400D02*
X74209774Y-61610114D01*
X74209774Y-61610114D02*
X74066917Y-61038685D01*
X74066917Y-61038685D02*
X73924060Y-60752971D01*
X73924060Y-60752971D02*
X73781203Y-60610114D01*
X73781203Y-60610114D02*
X73495488Y-60467257D01*
X71352631Y-60752971D02*
X71209774Y-60610114D01*
X71209774Y-60610114D02*
X70924060Y-60467257D01*
X70924060Y-60467257D02*
X70209774Y-60467257D01*
X70209774Y-60467257D02*
X69924060Y-60610114D01*
X69924060Y-60610114D02*
X69781202Y-60752971D01*
X69781202Y-60752971D02*
X69638345Y-61038685D01*
X69638345Y-61038685D02*
X69638345Y-61324400D01*
X69638345Y-61324400D02*
X69781202Y-61752971D01*
X69781202Y-61752971D02*
X71495488Y-63467257D01*
X71495488Y-63467257D02*
X69638345Y-63467257D01*
X68638345Y-60467257D02*
X66781202Y-60467257D01*
X66781202Y-60467257D02*
X67781202Y-61610114D01*
X67781202Y-61610114D02*
X67352631Y-61610114D01*
X67352631Y-61610114D02*
X67066917Y-61752971D01*
X67066917Y-61752971D02*
X66924059Y-61895828D01*
X66924059Y-61895828D02*
X66781202Y-62181542D01*
X66781202Y-62181542D02*
X66781202Y-62895828D01*
X66781202Y-62895828D02*
X66924059Y-63181542D01*
X66924059Y-63181542D02*
X67066917Y-63324400D01*
X67066917Y-63324400D02*
X67352631Y-63467257D01*
X67352631Y-63467257D02*
X68209774Y-63467257D01*
X68209774Y-63467257D02*
X68495488Y-63324400D01*
X68495488Y-63324400D02*
X68638345Y-63181542D01*
M02*
