M48
; DRILL file {KiCad 7.0.7} date Sun 11 Feb 2024 09:42:09 PM PST
; FORMAT={-:-/ absolute / inch / decimal}
; #@! TF.CreationDate,2024-02-11T21:42:09-08:00
; #@! TF.GenerationSoftware,Kicad,Pcbnew,7.0.7
; #@! TF.FileFunction,Plated,1,4,PTH
FMAT,2
INCH
; #@! TA.AperFunction,Plated,PTH,ViaDrill
T1C0.0118
; #@! TA.AperFunction,Plated,PTH,ComponentDrill
T2C0.0236
; #@! TA.AperFunction,Plated,PTH,ComponentDrill
T3C0.0315
; #@! TA.AperFunction,Plated,PTH,ComponentDrill
T4C0.0394
%
G90
G05
T1
X2.687Y-2.6496
X2.748Y-2.6484
X2.748Y-2.763
X2.815Y-2.3504
X2.815Y-2.374
X2.815Y-2.3976
X2.815Y-2.4213
X2.8548Y-2.0059
X2.8548Y-2.1004
X2.8967Y-2.6614
X2.8967Y-2.7362
X2.9803Y-2.6614
X2.9803Y-2.7362
X3.0295Y-2.4065
X3.0536Y-2.189
X3.0551Y-2.248
X3.0846Y-2.5598
X3.0915Y-2.0217
X3.0915Y-2.0846
X3.1024Y-2.4693
X3.1024Y-2.5071
X3.1161Y-2.248
X3.126Y-2.5598
X3.1535Y-2.497
X3.178Y-2.1161
X3.185Y-2.1841
X3.1988Y-1.9941
X3.2193Y-2.5728
X3.2224Y-2.5098
X3.2441Y-2.2321
X3.2571Y-2.5728
X3.2815Y-2.4598
X3.2854Y-2.061
X3.3071Y-2.5738
X3.3327Y-2.4181
X3.3465Y-1.9791
X3.3839Y-2.1772
X3.4154Y-1.9843
X3.4193Y-2.0992
X3.4193Y-2.4213
X3.4193Y-2.4803
X3.4193Y-2.5098
X3.4213Y-2.313
X3.4636Y-2.0453
X3.4724Y-2.5197
X3.4961Y-2.4055
X3.5157Y-2.4252
X3.5236Y-2.3228
X3.5244Y-2.1476
X3.5374Y-2.6122
X3.5394Y-2.4409
X3.5418Y-2.0276
X3.5418Y-2.065
X3.5622Y-2.1476
X3.563Y-2.3858
X3.5669Y-2.3543
X3.5669Y-2.4409
X3.5728Y-2.6161
X3.5805Y-2.5251
X3.5827Y-2.374
X3.5945Y-2.437
X3.6102Y-2.3228
X3.6142Y-2.4173
X3.6201Y-2.1201
X3.622Y-2.1516
X3.6299Y-2.3976
X3.6314Y-2.0276
X3.6621Y-2.2374
X3.6732Y-2.1181
X3.6732Y-2.1559
X3.689Y-2.6083
X3.6988Y-2.4902
X3.7268Y-2.6083
X3.7618Y-1.9951
X3.7697Y-2.2441
X3.7874Y-2.3098
X3.7874Y-2.3476
X3.7874Y-2.4992
X3.8012Y-2.1339
X3.8465Y-2.2067
X3.8465Y-2.2815
T3
X4.0476Y-2.2319
X4.0476Y-2.3319
X4.0476Y-2.4319
X4.0476Y-2.5319
X4.0476Y-2.6319
X4.1476Y-2.2319
X4.1476Y-2.3319
X4.1476Y-2.4319
X4.1476Y-2.5319
X4.1476Y-2.6319
T4
X3.1063Y-2.6969
X3.2063Y-2.6969
X3.3063Y-2.6969
X3.4063Y-2.6969
X3.9433Y-2.002
X4.0433Y-2.002
X4.1433Y-2.002
T2
G00X2.749Y-2.2118
M15
G01X2.7175Y-2.2118
M16
G05
G00X2.749Y-2.552
M15
G01X2.7175Y-2.552
M16
G05
G00X2.9195Y-2.2118
M15
G01X2.8762Y-2.2118
M16
G05
G00X2.9195Y-2.552
M15
G01X2.8762Y-2.552
M16
G05
T0
M30
