%TF.GenerationSoftware,KiCad,Pcbnew,7.0.7*%
%TF.CreationDate,2024-02-11T21:42:05-08:00*%
%TF.ProjectId,PGL_FTDI_Prog,50474c5f-4654-4444-995f-50726f672e6b,rev?*%
%TF.SameCoordinates,Original*%
%TF.FileFunction,Copper,L2,Inr*%
%TF.FilePolarity,Positive*%
%FSLAX46Y46*%
G04 Gerber Fmt 4.6, Leading zero omitted, Abs format (unit mm)*
G04 Created by KiCad (PCBNEW 7.0.7) date 2024-02-11 21:42:05*
%MOMM*%
%LPD*%
G01*
G04 APERTURE LIST*
%TA.AperFunction,ComponentPad*%
%ADD10C,1.524000*%
%TD*%
%TA.AperFunction,ComponentPad*%
%ADD11R,1.700000X1.700000*%
%TD*%
%TA.AperFunction,ComponentPad*%
%ADD12O,1.700000X1.700000*%
%TD*%
%TA.AperFunction,ComponentPad*%
%ADD13O,2.100000X1.000000*%
%TD*%
%TA.AperFunction,ComponentPad*%
%ADD14O,1.800000X1.000000*%
%TD*%
%TA.AperFunction,ViaPad*%
%ADD15C,0.500000*%
%TD*%
G04 APERTURE END LIST*
D10*
%TO.N,Net-(J1-Pin_2)*%
%TO.C,U7*%
X102810000Y-56690000D03*
%TO.N,/UP5K_CDONE*%
X105350000Y-56690000D03*
%TO.N,/UP5K_CRESET*%
X102810000Y-59230000D03*
%TO.N,GND*%
X105350000Y-59230000D03*
%TO.N,/UP5K_UART_RX*%
X102810000Y-61770000D03*
%TO.N,/UP5K_UART_TX*%
X105350000Y-61770000D03*
%TO.N,/FLASH_CS*%
X102810000Y-64310000D03*
%TO.N,/FLASH_MISO*%
X105350000Y-64310000D03*
%TO.N,/FLASH_MOSI*%
X102810000Y-66850000D03*
%TO.N,/FLASH_SCK*%
X105350000Y-66850000D03*
%TD*%
D11*
%TO.N,+5V*%
%TO.C,J1*%
X100160000Y-50850000D03*
D12*
%TO.N,Net-(J1-Pin_2)*%
X102700000Y-50850000D03*
%TO.N,+3V3*%
X105240000Y-50850000D03*
%TD*%
D13*
%TO.N,GND*%
%TO.C,P1*%
X73605000Y-56180000D03*
D14*
X69425000Y-56180000D03*
D13*
X73605000Y-64820000D03*
D14*
X69425000Y-64820000D03*
%TD*%
D11*
%TO.N,GND*%
%TO.C,J3*%
X86520000Y-68500000D03*
D12*
%TO.N,+3V3*%
X83980000Y-68500000D03*
%TO.N,GND*%
X81440000Y-68500000D03*
%TO.N,+5V*%
X78900000Y-68500000D03*
%TD*%
D15*
%TO.N,+3V3*%
X73575000Y-67600000D03*
X75700000Y-67600000D03*
X95550000Y-50675000D03*
X77562500Y-55600000D03*
X72512500Y-53350000D03*
X84000000Y-65375000D03*
X93700000Y-66250000D03*
X88200000Y-64000000D03*
X93300000Y-54760000D03*
X80100000Y-63425000D03*
X89962500Y-52450000D03*
X72512500Y-50950000D03*
X97700000Y-57950000D03*
X96200000Y-59630000D03*
X86750000Y-50400000D03*
X82730000Y-65350000D03*
X78800000Y-63680000D03*
X90480000Y-54550000D03*
%TO.N,GND*%
X81850000Y-63750000D03*
X79150000Y-57100000D03*
X95750000Y-57000000D03*
X86850000Y-53320000D03*
X93017970Y-56831211D03*
X83450000Y-52350000D03*
X77600000Y-57100000D03*
X82400000Y-56695000D03*
X86850000Y-63750000D03*
X88800000Y-61100000D03*
X85950000Y-55300000D03*
X91000000Y-60300000D03*
X91300000Y-61900000D03*
X78800000Y-62720000D03*
X86900000Y-58750000D03*
X90945139Y-64138009D03*
X89500000Y-59000000D03*
X69800000Y-70180000D03*
X94660000Y-66250000D03*
X76950000Y-61125000D03*
X80900000Y-55475000D03*
X89900000Y-62000000D03*
X96550000Y-54200000D03*
X75700000Y-69500000D03*
X85000000Y-50270000D03*
X89520000Y-54550000D03*
X86850000Y-63000000D03*
X69800000Y-67270000D03*
X92200000Y-60900000D03*
X93950000Y-63250000D03*
X89300000Y-61600000D03*
X90500000Y-60600000D03*
X90600000Y-59800000D03*
X96200000Y-58670000D03*
X93300000Y-53800000D03*
X86850000Y-61500000D03*
X73575000Y-69500000D03*
X84650000Y-61420000D03*
X97700000Y-56050000D03*
X78350000Y-65020000D03*
X81770000Y-65350000D03*
X90600000Y-62000000D03*
X96200000Y-63480000D03*
X91700000Y-59000000D03*
X79400000Y-65020000D03*
X92237500Y-51500000D03*
X91800000Y-61400000D03*
X80720000Y-53750000D03*
X81250000Y-50650000D03*
X68250000Y-67300000D03*
X83350000Y-62480000D03*
%TO.N,+5V*%
X71500000Y-60300000D03*
X71500000Y-61500000D03*
X71500000Y-60900000D03*
X71500000Y-59700000D03*
%TO.N,Net-(U5-BCBUS4)*%
X78525000Y-51350000D03*
X91950000Y-53850000D03*
%TO.N,Net-(U5-BCBUS3)*%
X78525000Y-52950000D03*
X92000000Y-54650000D03*
%TO.N,/UP5K_CDONE*%
X89850000Y-66350000D03*
%TO.N,/UP5K_CRESET*%
X90750000Y-66450000D03*
%TO.N,/EEPROM_SPI_CS*%
X89962500Y-51500000D03*
X87975000Y-51950000D03*
%TD*%
%TA.AperFunction,Conductor*%
%TO.N,+3V3*%
G36*
X108942539Y-49020185D02*
G01*
X108988294Y-49072989D01*
X108999500Y-49124500D01*
X108999500Y-70875500D01*
X108979815Y-70942539D01*
X108927011Y-70988294D01*
X108875500Y-70999500D01*
X70336815Y-70999500D01*
X70269776Y-70979815D01*
X70224021Y-70927011D01*
X70214077Y-70857853D01*
X70243102Y-70794297D01*
X70265593Y-70775008D01*
X70265444Y-70774820D01*
X70270714Y-70770616D01*
X70270843Y-70770506D01*
X70270890Y-70770477D01*
X70390477Y-70650890D01*
X70480452Y-70507697D01*
X70480454Y-70507694D01*
X70480454Y-70507692D01*
X70480456Y-70507690D01*
X70536313Y-70348059D01*
X70536313Y-70348058D01*
X70536314Y-70348056D01*
X70555249Y-70180002D01*
X70555249Y-70179997D01*
X70536314Y-70011943D01*
X70480454Y-69852305D01*
X70480452Y-69852302D01*
X70390481Y-69709115D01*
X70390476Y-69709109D01*
X70270890Y-69589523D01*
X70270884Y-69589518D01*
X70128421Y-69500002D01*
X72819751Y-69500002D01*
X72838685Y-69668056D01*
X72894545Y-69827694D01*
X72894547Y-69827697D01*
X72984518Y-69970884D01*
X72984523Y-69970890D01*
X73104109Y-70090476D01*
X73104115Y-70090481D01*
X73247302Y-70180452D01*
X73247305Y-70180454D01*
X73247309Y-70180455D01*
X73247310Y-70180456D01*
X73319913Y-70205860D01*
X73406943Y-70236314D01*
X73574997Y-70255249D01*
X73575000Y-70255249D01*
X73575003Y-70255249D01*
X73743056Y-70236314D01*
X73743059Y-70236313D01*
X73902690Y-70180456D01*
X73902692Y-70180454D01*
X73902694Y-70180454D01*
X73902697Y-70180452D01*
X74045884Y-70090481D01*
X74045885Y-70090480D01*
X74045890Y-70090477D01*
X74165477Y-69970890D01*
X74237882Y-69855659D01*
X74255452Y-69827697D01*
X74255454Y-69827694D01*
X74255454Y-69827692D01*
X74255456Y-69827690D01*
X74311313Y-69668059D01*
X74311313Y-69668058D01*
X74311314Y-69668056D01*
X74330249Y-69500002D01*
X74944751Y-69500002D01*
X74963685Y-69668056D01*
X75019545Y-69827694D01*
X75019547Y-69827697D01*
X75109518Y-69970884D01*
X75109523Y-69970890D01*
X75229109Y-70090476D01*
X75229115Y-70090481D01*
X75372302Y-70180452D01*
X75372305Y-70180454D01*
X75372309Y-70180455D01*
X75372310Y-70180456D01*
X75444913Y-70205860D01*
X75531943Y-70236314D01*
X75699997Y-70255249D01*
X75700000Y-70255249D01*
X75700003Y-70255249D01*
X75868056Y-70236314D01*
X75868059Y-70236313D01*
X76027690Y-70180456D01*
X76027692Y-70180454D01*
X76027694Y-70180454D01*
X76027697Y-70180452D01*
X76170884Y-70090481D01*
X76170885Y-70090480D01*
X76170890Y-70090477D01*
X76290477Y-69970890D01*
X76362882Y-69855659D01*
X76380452Y-69827697D01*
X76380454Y-69827694D01*
X76380454Y-69827692D01*
X76380456Y-69827690D01*
X76436313Y-69668059D01*
X76436313Y-69668058D01*
X76436314Y-69668056D01*
X76455249Y-69500002D01*
X76455249Y-69499997D01*
X76436314Y-69331943D01*
X76382389Y-69177834D01*
X76380456Y-69172310D01*
X76380455Y-69172309D01*
X76380454Y-69172305D01*
X76380452Y-69172302D01*
X76290481Y-69029115D01*
X76290476Y-69029109D01*
X76170890Y-68909523D01*
X76170884Y-68909518D01*
X76027697Y-68819547D01*
X76027694Y-68819545D01*
X75868056Y-68763685D01*
X75700003Y-68744751D01*
X75699997Y-68744751D01*
X75531943Y-68763685D01*
X75372305Y-68819545D01*
X75372302Y-68819547D01*
X75229115Y-68909518D01*
X75229109Y-68909523D01*
X75109523Y-69029109D01*
X75109518Y-69029115D01*
X75019547Y-69172302D01*
X75019545Y-69172305D01*
X74963685Y-69331943D01*
X74944751Y-69499997D01*
X74944751Y-69500002D01*
X74330249Y-69500002D01*
X74330249Y-69499997D01*
X74311314Y-69331943D01*
X74257389Y-69177834D01*
X74255456Y-69172310D01*
X74255455Y-69172309D01*
X74255454Y-69172305D01*
X74255452Y-69172302D01*
X74165481Y-69029115D01*
X74165476Y-69029109D01*
X74045890Y-68909523D01*
X74045884Y-68909518D01*
X73902697Y-68819547D01*
X73902694Y-68819545D01*
X73743056Y-68763685D01*
X73575003Y-68744751D01*
X73574997Y-68744751D01*
X73406943Y-68763685D01*
X73247305Y-68819545D01*
X73247302Y-68819547D01*
X73104115Y-68909518D01*
X73104109Y-68909523D01*
X72984523Y-69029109D01*
X72984518Y-69029115D01*
X72894547Y-69172302D01*
X72894545Y-69172305D01*
X72838685Y-69331943D01*
X72819751Y-69499997D01*
X72819751Y-69500002D01*
X70128421Y-69500002D01*
X70127697Y-69499547D01*
X70127694Y-69499545D01*
X69968056Y-69443685D01*
X69800003Y-69424751D01*
X69799997Y-69424751D01*
X69631943Y-69443685D01*
X69472305Y-69499545D01*
X69472302Y-69499547D01*
X69329115Y-69589518D01*
X69329109Y-69589523D01*
X69209523Y-69709109D01*
X69209518Y-69709115D01*
X69119547Y-69852302D01*
X69119545Y-69852305D01*
X69063685Y-70011943D01*
X69044751Y-70179997D01*
X69044751Y-70180002D01*
X69063685Y-70348056D01*
X69119545Y-70507694D01*
X69119547Y-70507697D01*
X69209518Y-70650884D01*
X69209523Y-70650890D01*
X69329110Y-70770477D01*
X69329155Y-70770505D01*
X69329177Y-70770530D01*
X69334556Y-70774820D01*
X69333804Y-70775761D01*
X69375447Y-70822838D01*
X69386097Y-70891891D01*
X69357724Y-70955740D01*
X69299335Y-70994114D01*
X69263185Y-70999500D01*
X67124500Y-70999500D01*
X67057461Y-70979815D01*
X67011706Y-70927011D01*
X67000500Y-70875500D01*
X67000500Y-68500000D01*
X77544341Y-68500000D01*
X77564936Y-68735403D01*
X77564938Y-68735413D01*
X77626094Y-68963655D01*
X77626096Y-68963659D01*
X77626097Y-68963663D01*
X77706004Y-69135023D01*
X77725965Y-69177830D01*
X77725967Y-69177834D01*
X77833875Y-69331941D01*
X77861505Y-69371401D01*
X78028599Y-69538495D01*
X78125384Y-69606264D01*
X78222165Y-69674032D01*
X78222167Y-69674033D01*
X78222170Y-69674035D01*
X78436337Y-69773903D01*
X78664592Y-69835063D01*
X78841034Y-69850500D01*
X78899999Y-69855659D01*
X78900000Y-69855659D01*
X78900001Y-69855659D01*
X78958966Y-69850500D01*
X79135408Y-69835063D01*
X79363663Y-69773903D01*
X79577830Y-69674035D01*
X79771401Y-69538495D01*
X79938495Y-69371401D01*
X80068424Y-69185842D01*
X80123002Y-69142217D01*
X80192500Y-69135023D01*
X80254855Y-69166546D01*
X80271575Y-69185842D01*
X80401500Y-69371395D01*
X80401505Y-69371401D01*
X80568599Y-69538495D01*
X80665384Y-69606264D01*
X80762165Y-69674032D01*
X80762167Y-69674033D01*
X80762170Y-69674035D01*
X80976337Y-69773903D01*
X81204592Y-69835063D01*
X81381034Y-69850500D01*
X81439999Y-69855659D01*
X81440000Y-69855659D01*
X81440001Y-69855659D01*
X81498966Y-69850500D01*
X81675408Y-69835063D01*
X81903663Y-69773903D01*
X82117830Y-69674035D01*
X82311401Y-69538495D01*
X82478495Y-69371401D01*
X82608730Y-69185405D01*
X82663307Y-69141781D01*
X82732805Y-69134587D01*
X82795160Y-69166110D01*
X82811879Y-69185405D01*
X82941890Y-69371078D01*
X83108917Y-69538105D01*
X83302421Y-69673600D01*
X83516507Y-69773429D01*
X83516516Y-69773433D01*
X83730000Y-69830634D01*
X83730000Y-69112301D01*
X83749685Y-69045262D01*
X83802489Y-68999507D01*
X83871647Y-68989563D01*
X83944237Y-69000000D01*
X83944238Y-69000000D01*
X84015762Y-69000000D01*
X84015763Y-69000000D01*
X84088353Y-68989563D01*
X84157512Y-68999507D01*
X84210315Y-69045262D01*
X84230000Y-69112301D01*
X84230000Y-69830633D01*
X84443483Y-69773433D01*
X84443492Y-69773429D01*
X84657578Y-69673600D01*
X84851078Y-69538108D01*
X84973133Y-69416053D01*
X85034456Y-69382568D01*
X85104148Y-69387552D01*
X85160082Y-69429423D01*
X85176997Y-69460401D01*
X85226202Y-69592328D01*
X85226206Y-69592335D01*
X85312452Y-69707544D01*
X85312455Y-69707547D01*
X85427664Y-69793793D01*
X85427671Y-69793797D01*
X85562517Y-69844091D01*
X85562516Y-69844091D01*
X85569444Y-69844835D01*
X85622127Y-69850500D01*
X87417872Y-69850499D01*
X87477483Y-69844091D01*
X87612331Y-69793796D01*
X87727546Y-69707546D01*
X87813796Y-69592331D01*
X87864091Y-69457483D01*
X87870500Y-69397873D01*
X87870499Y-67602128D01*
X87864091Y-67542517D01*
X87863002Y-67539598D01*
X87813797Y-67407671D01*
X87813793Y-67407664D01*
X87727547Y-67292455D01*
X87727544Y-67292452D01*
X87612335Y-67206206D01*
X87612328Y-67206202D01*
X87477482Y-67155908D01*
X87477483Y-67155908D01*
X87417883Y-67149501D01*
X87417881Y-67149500D01*
X87417873Y-67149500D01*
X87417864Y-67149500D01*
X85622129Y-67149500D01*
X85622123Y-67149501D01*
X85562516Y-67155908D01*
X85427671Y-67206202D01*
X85427664Y-67206206D01*
X85312455Y-67292452D01*
X85312452Y-67292455D01*
X85226206Y-67407664D01*
X85226202Y-67407671D01*
X85176997Y-67539598D01*
X85135126Y-67595532D01*
X85069661Y-67619949D01*
X85001388Y-67605097D01*
X84973134Y-67583946D01*
X84851082Y-67461894D01*
X84657578Y-67326399D01*
X84443492Y-67226570D01*
X84443486Y-67226567D01*
X84230000Y-67169364D01*
X84230000Y-67887698D01*
X84210315Y-67954737D01*
X84157511Y-68000492D01*
X84088355Y-68010436D01*
X84015766Y-68000000D01*
X84015763Y-68000000D01*
X83944237Y-68000000D01*
X83944233Y-68000000D01*
X83871645Y-68010436D01*
X83802487Y-68000492D01*
X83749684Y-67954736D01*
X83730000Y-67887698D01*
X83730000Y-67169364D01*
X83729999Y-67169364D01*
X83516513Y-67226567D01*
X83516507Y-67226570D01*
X83302422Y-67326399D01*
X83302420Y-67326400D01*
X83108926Y-67461886D01*
X83108920Y-67461891D01*
X82941891Y-67628920D01*
X82941890Y-67628922D01*
X82811880Y-67814595D01*
X82757303Y-67858219D01*
X82687804Y-67865412D01*
X82625450Y-67833890D01*
X82608730Y-67814594D01*
X82478494Y-67628597D01*
X82311402Y-67461506D01*
X82311395Y-67461501D01*
X82117834Y-67325967D01*
X82117830Y-67325965D01*
X82069514Y-67303435D01*
X81903663Y-67226097D01*
X81903659Y-67226096D01*
X81903655Y-67226094D01*
X81675413Y-67164938D01*
X81675403Y-67164936D01*
X81440001Y-67144341D01*
X81439999Y-67144341D01*
X81204596Y-67164936D01*
X81204586Y-67164938D01*
X80976344Y-67226094D01*
X80976335Y-67226098D01*
X80762171Y-67325964D01*
X80762169Y-67325965D01*
X80568597Y-67461505D01*
X80401505Y-67628597D01*
X80271575Y-67814158D01*
X80216998Y-67857783D01*
X80147500Y-67864977D01*
X80085145Y-67833454D01*
X80068425Y-67814158D01*
X79938494Y-67628597D01*
X79771402Y-67461506D01*
X79771395Y-67461501D01*
X79577834Y-67325967D01*
X79577830Y-67325965D01*
X79529514Y-67303435D01*
X79363663Y-67226097D01*
X79363659Y-67226096D01*
X79363655Y-67226094D01*
X79135413Y-67164938D01*
X79135403Y-67164936D01*
X78900001Y-67144341D01*
X78899999Y-67144341D01*
X78664596Y-67164936D01*
X78664586Y-67164938D01*
X78436344Y-67226094D01*
X78436335Y-67226098D01*
X78222171Y-67325964D01*
X78222169Y-67325965D01*
X78028597Y-67461505D01*
X77861505Y-67628597D01*
X77725965Y-67822169D01*
X77725964Y-67822171D01*
X77626098Y-68036335D01*
X77626094Y-68036344D01*
X77564938Y-68264586D01*
X77564936Y-68264596D01*
X77544341Y-68499999D01*
X77544341Y-68500000D01*
X67000500Y-68500000D01*
X67000500Y-67300002D01*
X67494751Y-67300002D01*
X67513685Y-67468056D01*
X67569545Y-67627694D01*
X67569547Y-67627697D01*
X67659518Y-67770884D01*
X67659523Y-67770890D01*
X67779109Y-67890476D01*
X67779115Y-67890481D01*
X67922302Y-67980452D01*
X67922305Y-67980454D01*
X67922309Y-67980455D01*
X67922310Y-67980456D01*
X67978164Y-68000000D01*
X68081943Y-68036314D01*
X68249997Y-68055249D01*
X68250000Y-68055249D01*
X68250003Y-68055249D01*
X68418056Y-68036314D01*
X68418059Y-68036313D01*
X68577690Y-67980456D01*
X68577692Y-67980454D01*
X68577694Y-67980454D01*
X68577697Y-67980452D01*
X68720884Y-67890481D01*
X68720885Y-67890480D01*
X68720890Y-67890477D01*
X68840477Y-67770890D01*
X68929431Y-67629320D01*
X68981766Y-67583030D01*
X69050820Y-67572382D01*
X69114668Y-67600757D01*
X69139418Y-67629320D01*
X69209521Y-67740888D01*
X69329109Y-67860476D01*
X69329115Y-67860481D01*
X69472302Y-67950452D01*
X69472305Y-67950454D01*
X69472309Y-67950455D01*
X69472310Y-67950456D01*
X69544913Y-67975860D01*
X69631943Y-68006314D01*
X69799997Y-68025249D01*
X69800000Y-68025249D01*
X69800003Y-68025249D01*
X69968056Y-68006314D01*
X69968059Y-68006313D01*
X70127690Y-67950456D01*
X70127692Y-67950454D01*
X70127694Y-67950454D01*
X70127697Y-67950452D01*
X70270884Y-67860481D01*
X70270885Y-67860480D01*
X70270890Y-67860477D01*
X70390477Y-67740890D01*
X70390481Y-67740884D01*
X70480452Y-67597697D01*
X70480454Y-67597694D01*
X70480454Y-67597692D01*
X70480456Y-67597690D01*
X70536313Y-67438059D01*
X70536313Y-67438058D01*
X70536314Y-67438056D01*
X70555249Y-67270002D01*
X70555249Y-67269997D01*
X70536314Y-67101943D01*
X70496083Y-66986970D01*
X70480456Y-66942310D01*
X70480455Y-66942309D01*
X70480454Y-66942305D01*
X70480452Y-66942302D01*
X70390481Y-66799115D01*
X70390476Y-66799109D01*
X70270890Y-66679523D01*
X70270884Y-66679518D01*
X70127697Y-66589547D01*
X70127694Y-66589545D01*
X69968056Y-66533685D01*
X69800003Y-66514751D01*
X69799997Y-66514751D01*
X69631943Y-66533685D01*
X69472305Y-66589545D01*
X69472302Y-66589547D01*
X69329115Y-66679518D01*
X69329109Y-66679523D01*
X69209523Y-66799109D01*
X69209521Y-66799112D01*
X69120567Y-66940679D01*
X69068232Y-66986970D01*
X68999178Y-66997617D01*
X68935330Y-66969241D01*
X68910580Y-66940678D01*
X68904155Y-66930452D01*
X68840477Y-66829110D01*
X68720890Y-66709523D01*
X68720884Y-66709518D01*
X68577697Y-66619547D01*
X68577694Y-66619545D01*
X68418056Y-66563685D01*
X68250003Y-66544751D01*
X68249997Y-66544751D01*
X68081943Y-66563685D01*
X67922305Y-66619545D01*
X67922302Y-66619547D01*
X67779115Y-66709518D01*
X67779109Y-66709523D01*
X67659523Y-66829109D01*
X67659518Y-66829115D01*
X67569547Y-66972302D01*
X67569545Y-66972305D01*
X67513685Y-67131943D01*
X67494751Y-67299997D01*
X67494751Y-67300002D01*
X67000500Y-67300002D01*
X67000500Y-66350002D01*
X89094751Y-66350002D01*
X89113685Y-66518056D01*
X89169545Y-66677694D01*
X89169547Y-66677697D01*
X89259518Y-66820884D01*
X89259523Y-66820890D01*
X89379109Y-66940476D01*
X89379115Y-66940481D01*
X89522302Y-67030452D01*
X89522305Y-67030454D01*
X89522309Y-67030455D01*
X89522310Y-67030456D01*
X89550946Y-67040476D01*
X89681943Y-67086314D01*
X89849997Y-67105249D01*
X89850000Y-67105249D01*
X89850003Y-67105249D01*
X89976044Y-67091047D01*
X90018059Y-67086313D01*
X90176227Y-67030967D01*
X90246002Y-67027405D01*
X90283148Y-67043014D01*
X90326204Y-67070068D01*
X90422306Y-67130454D01*
X90422307Y-67130454D01*
X90422310Y-67130456D01*
X90528730Y-67167694D01*
X90581943Y-67186314D01*
X90749997Y-67205249D01*
X90750000Y-67205249D01*
X90750003Y-67205249D01*
X90918056Y-67186314D01*
X90918059Y-67186313D01*
X91077690Y-67130456D01*
X91077692Y-67130454D01*
X91077694Y-67130454D01*
X91077697Y-67130452D01*
X91220884Y-67040481D01*
X91220885Y-67040480D01*
X91220890Y-67040477D01*
X91340477Y-66920890D01*
X91385019Y-66850002D01*
X91430452Y-66777697D01*
X91430454Y-66777694D01*
X91430454Y-66777692D01*
X91430456Y-66777690D01*
X91486313Y-66618059D01*
X91486313Y-66618058D01*
X91486314Y-66618056D01*
X91505249Y-66450002D01*
X91505249Y-66449997D01*
X91486314Y-66281943D01*
X91475137Y-66250002D01*
X93904751Y-66250002D01*
X93923685Y-66418056D01*
X93979545Y-66577694D01*
X93979547Y-66577697D01*
X94069518Y-66720884D01*
X94069523Y-66720890D01*
X94189109Y-66840476D01*
X94189115Y-66840481D01*
X94332302Y-66930452D01*
X94332305Y-66930454D01*
X94332309Y-66930455D01*
X94332310Y-66930456D01*
X94360946Y-66940476D01*
X94491943Y-66986314D01*
X94659997Y-67005249D01*
X94660000Y-67005249D01*
X94660003Y-67005249D01*
X94828056Y-66986314D01*
X94868077Y-66972310D01*
X94987690Y-66930456D01*
X94987692Y-66930454D01*
X94987694Y-66930454D01*
X94987697Y-66930452D01*
X95115732Y-66850002D01*
X101542677Y-66850002D01*
X101561929Y-67070062D01*
X101561930Y-67070070D01*
X101619104Y-67283445D01*
X101619105Y-67283447D01*
X101619106Y-67283450D01*
X101705189Y-67468056D01*
X101712466Y-67483662D01*
X101712468Y-67483666D01*
X101839170Y-67664615D01*
X101839175Y-67664621D01*
X101995378Y-67820824D01*
X101995384Y-67820829D01*
X102176333Y-67947531D01*
X102176335Y-67947532D01*
X102176338Y-67947534D01*
X102376550Y-68040894D01*
X102589932Y-68098070D01*
X102747123Y-68111822D01*
X102809998Y-68117323D01*
X102810000Y-68117323D01*
X102810002Y-68117323D01*
X102865016Y-68112509D01*
X103030068Y-68098070D01*
X103243450Y-68040894D01*
X103443662Y-67947534D01*
X103624620Y-67820826D01*
X103780826Y-67664620D01*
X103907534Y-67483662D01*
X103967617Y-67354811D01*
X104013790Y-67302371D01*
X104080983Y-67283219D01*
X104147865Y-67303435D01*
X104192382Y-67354811D01*
X104252464Y-67483658D01*
X104252468Y-67483666D01*
X104379170Y-67664615D01*
X104379175Y-67664621D01*
X104535378Y-67820824D01*
X104535384Y-67820829D01*
X104716333Y-67947531D01*
X104716335Y-67947532D01*
X104716338Y-67947534D01*
X104916550Y-68040894D01*
X105129932Y-68098070D01*
X105287123Y-68111822D01*
X105349998Y-68117323D01*
X105350000Y-68117323D01*
X105350002Y-68117323D01*
X105405017Y-68112509D01*
X105570068Y-68098070D01*
X105783450Y-68040894D01*
X105983662Y-67947534D01*
X106164620Y-67820826D01*
X106320826Y-67664620D01*
X106447534Y-67483662D01*
X106540894Y-67283450D01*
X106598070Y-67070068D01*
X106617323Y-66850000D01*
X106615495Y-66829110D01*
X106610103Y-66767474D01*
X106598070Y-66629932D01*
X106540894Y-66416550D01*
X106447534Y-66216339D01*
X106381689Y-66122302D01*
X106320827Y-66035381D01*
X106264555Y-65979109D01*
X106164620Y-65879174D01*
X106164616Y-65879171D01*
X106164615Y-65879170D01*
X105983666Y-65752468D01*
X105983658Y-65752464D01*
X105854811Y-65692382D01*
X105802371Y-65646210D01*
X105783219Y-65579017D01*
X105803435Y-65512135D01*
X105854811Y-65467618D01*
X105860802Y-65464824D01*
X105983662Y-65407534D01*
X106164620Y-65280826D01*
X106320826Y-65124620D01*
X106447534Y-64943662D01*
X106540894Y-64743450D01*
X106598070Y-64530068D01*
X106617323Y-64310000D01*
X106598070Y-64089932D01*
X106540894Y-63876550D01*
X106447534Y-63676339D01*
X106378465Y-63577697D01*
X106320827Y-63495381D01*
X106243502Y-63418056D01*
X106164620Y-63339174D01*
X106164616Y-63339171D01*
X106164615Y-63339170D01*
X105983666Y-63212468D01*
X105983658Y-63212464D01*
X105854811Y-63152382D01*
X105802371Y-63106210D01*
X105783219Y-63039017D01*
X105803435Y-62972135D01*
X105854811Y-62927618D01*
X105866211Y-62922302D01*
X105983662Y-62867534D01*
X106164620Y-62740826D01*
X106320826Y-62584620D01*
X106447534Y-62403662D01*
X106540894Y-62203450D01*
X106598070Y-61990068D01*
X106617323Y-61770000D01*
X106613621Y-61727690D01*
X106610103Y-61687474D01*
X106598070Y-61549932D01*
X106540894Y-61336550D01*
X106447534Y-61136339D01*
X106379694Y-61039453D01*
X106320827Y-60955381D01*
X106246825Y-60881379D01*
X106164620Y-60799174D01*
X106164616Y-60799171D01*
X106164615Y-60799170D01*
X105983666Y-60672468D01*
X105983658Y-60672464D01*
X105854811Y-60612382D01*
X105802371Y-60566210D01*
X105783219Y-60499017D01*
X105803435Y-60432135D01*
X105854811Y-60387618D01*
X105860802Y-60384824D01*
X105983662Y-60327534D01*
X106164620Y-60200826D01*
X106320826Y-60044620D01*
X106447534Y-59863662D01*
X106540894Y-59663450D01*
X106598070Y-59450068D01*
X106617323Y-59230000D01*
X106616525Y-59220884D01*
X106609466Y-59140189D01*
X106598070Y-59009932D01*
X106540894Y-58796550D01*
X106447534Y-58596339D01*
X106381436Y-58501941D01*
X106320827Y-58415381D01*
X106247748Y-58342302D01*
X106164620Y-58259174D01*
X106164616Y-58259171D01*
X106164615Y-58259170D01*
X105983666Y-58132468D01*
X105983658Y-58132464D01*
X105854811Y-58072382D01*
X105802371Y-58026210D01*
X105783219Y-57959017D01*
X105803435Y-57892135D01*
X105854811Y-57847618D01*
X105860802Y-57844824D01*
X105983662Y-57787534D01*
X106164620Y-57660826D01*
X106320826Y-57504620D01*
X106447534Y-57323662D01*
X106540894Y-57123450D01*
X106598070Y-56910068D01*
X106615402Y-56711958D01*
X106617323Y-56690002D01*
X106617323Y-56689997D01*
X106603261Y-56529271D01*
X106598070Y-56469932D01*
X106540894Y-56256550D01*
X106447534Y-56056339D01*
X106357621Y-55927929D01*
X106320827Y-55875381D01*
X106248136Y-55802690D01*
X106164620Y-55719174D01*
X106164616Y-55719171D01*
X106164615Y-55719170D01*
X105983666Y-55592468D01*
X105983662Y-55592466D01*
X105983661Y-55592465D01*
X105783450Y-55499106D01*
X105783447Y-55499105D01*
X105783445Y-55499104D01*
X105570070Y-55441930D01*
X105570062Y-55441929D01*
X105350002Y-55422677D01*
X105349998Y-55422677D01*
X105129937Y-55441929D01*
X105129929Y-55441930D01*
X104916554Y-55499104D01*
X104916548Y-55499107D01*
X104716340Y-55592465D01*
X104716338Y-55592466D01*
X104535377Y-55719175D01*
X104379175Y-55875377D01*
X104252466Y-56056338D01*
X104252465Y-56056340D01*
X104192382Y-56185189D01*
X104146209Y-56237628D01*
X104079016Y-56256780D01*
X104012135Y-56236564D01*
X103967618Y-56185189D01*
X103941445Y-56129061D01*
X103907534Y-56056339D01*
X103817621Y-55927929D01*
X103780827Y-55875381D01*
X103708136Y-55802690D01*
X103624620Y-55719174D01*
X103624616Y-55719171D01*
X103624615Y-55719170D01*
X103443666Y-55592468D01*
X103443662Y-55592466D01*
X103443662Y-55592465D01*
X103243450Y-55499106D01*
X103243447Y-55499105D01*
X103243445Y-55499104D01*
X103030070Y-55441930D01*
X103030062Y-55441929D01*
X102810002Y-55422677D01*
X102809998Y-55422677D01*
X102589937Y-55441929D01*
X102589929Y-55441930D01*
X102376554Y-55499104D01*
X102376548Y-55499107D01*
X102176340Y-55592465D01*
X102176338Y-55592466D01*
X101995377Y-55719175D01*
X101839175Y-55875377D01*
X101712466Y-56056338D01*
X101712465Y-56056340D01*
X101619107Y-56256548D01*
X101619104Y-56256554D01*
X101561930Y-56469929D01*
X101561929Y-56469937D01*
X101542677Y-56689997D01*
X101542677Y-56690002D01*
X101561929Y-56910062D01*
X101561930Y-56910070D01*
X101619104Y-57123445D01*
X101619105Y-57123447D01*
X101619106Y-57123450D01*
X101664130Y-57220004D01*
X101712466Y-57323662D01*
X101712468Y-57323666D01*
X101839170Y-57504615D01*
X101839175Y-57504621D01*
X101995378Y-57660824D01*
X101995384Y-57660829D01*
X102176333Y-57787531D01*
X102176335Y-57787532D01*
X102176338Y-57787534D01*
X102295748Y-57843215D01*
X102305189Y-57847618D01*
X102357628Y-57893790D01*
X102376780Y-57960984D01*
X102356564Y-58027865D01*
X102305189Y-58072382D01*
X102176340Y-58132465D01*
X102176338Y-58132466D01*
X101995377Y-58259175D01*
X101839175Y-58415377D01*
X101712466Y-58596338D01*
X101712465Y-58596340D01*
X101619107Y-58796548D01*
X101619104Y-58796554D01*
X101561930Y-59009929D01*
X101561929Y-59009937D01*
X101542677Y-59229997D01*
X101542677Y-59230002D01*
X101561929Y-59450062D01*
X101561930Y-59450070D01*
X101619104Y-59663445D01*
X101619105Y-59663447D01*
X101619106Y-59663450D01*
X101682780Y-59800000D01*
X101712466Y-59863662D01*
X101712468Y-59863666D01*
X101839170Y-60044615D01*
X101839175Y-60044621D01*
X101995378Y-60200824D01*
X101995384Y-60200829D01*
X102176333Y-60327531D01*
X102176335Y-60327532D01*
X102176338Y-60327534D01*
X102253869Y-60363687D01*
X102305189Y-60387618D01*
X102357628Y-60433790D01*
X102376780Y-60500984D01*
X102356564Y-60567865D01*
X102305189Y-60612382D01*
X102176340Y-60672465D01*
X102176338Y-60672466D01*
X101995377Y-60799175D01*
X101839175Y-60955377D01*
X101712466Y-61136338D01*
X101712465Y-61136340D01*
X101652382Y-61265189D01*
X101627992Y-61317495D01*
X101619107Y-61336548D01*
X101619104Y-61336554D01*
X101561930Y-61549929D01*
X101561929Y-61549937D01*
X101542677Y-61769997D01*
X101542677Y-61770002D01*
X101561929Y-61990062D01*
X101561930Y-61990070D01*
X101619104Y-62203445D01*
X101619105Y-62203447D01*
X101619106Y-62203450D01*
X101709897Y-62398153D01*
X101712466Y-62403662D01*
X101712468Y-62403666D01*
X101839170Y-62584615D01*
X101839175Y-62584621D01*
X101995378Y-62740824D01*
X101995384Y-62740829D01*
X102176333Y-62867531D01*
X102176335Y-62867532D01*
X102176338Y-62867534D01*
X102223494Y-62889523D01*
X102305189Y-62927618D01*
X102357628Y-62973790D01*
X102376780Y-63040984D01*
X102356564Y-63107865D01*
X102305189Y-63152382D01*
X102176340Y-63212465D01*
X102176338Y-63212466D01*
X101995377Y-63339175D01*
X101839175Y-63495377D01*
X101712466Y-63676338D01*
X101712465Y-63676340D01*
X101619107Y-63876548D01*
X101619104Y-63876554D01*
X101561930Y-64089929D01*
X101561929Y-64089937D01*
X101542677Y-64309997D01*
X101542677Y-64310002D01*
X101561929Y-64530062D01*
X101561930Y-64530070D01*
X101619104Y-64743445D01*
X101619105Y-64743447D01*
X101619106Y-64743450D01*
X101688962Y-64893258D01*
X101712466Y-64943662D01*
X101712468Y-64943666D01*
X101839170Y-65124615D01*
X101839175Y-65124621D01*
X101995378Y-65280824D01*
X101995384Y-65280829D01*
X102176333Y-65407531D01*
X102176335Y-65407532D01*
X102176338Y-65407534D01*
X102295748Y-65463215D01*
X102305189Y-65467618D01*
X102357628Y-65513790D01*
X102376780Y-65580984D01*
X102356564Y-65647865D01*
X102305189Y-65692382D01*
X102176340Y-65752465D01*
X102176338Y-65752466D01*
X101995377Y-65879175D01*
X101839175Y-66035377D01*
X101712466Y-66216338D01*
X101712465Y-66216340D01*
X101619107Y-66416548D01*
X101619104Y-66416554D01*
X101561930Y-66629929D01*
X101561929Y-66629937D01*
X101542677Y-66849997D01*
X101542677Y-66850002D01*
X95115732Y-66850002D01*
X95130884Y-66840481D01*
X95130885Y-66840480D01*
X95130890Y-66840477D01*
X95250477Y-66720890D01*
X95250481Y-66720884D01*
X95340452Y-66577697D01*
X95340454Y-66577694D01*
X95340454Y-66577692D01*
X95340456Y-66577690D01*
X95396313Y-66418059D01*
X95396313Y-66418058D01*
X95396314Y-66418056D01*
X95415249Y-66250002D01*
X95415249Y-66249997D01*
X95396314Y-66081943D01*
X95346813Y-65940477D01*
X95340456Y-65922310D01*
X95340455Y-65922309D01*
X95340454Y-65922305D01*
X95340452Y-65922302D01*
X95250481Y-65779115D01*
X95250476Y-65779109D01*
X95130890Y-65659523D01*
X95130884Y-65659518D01*
X94987697Y-65569547D01*
X94987694Y-65569545D01*
X94828056Y-65513685D01*
X94660003Y-65494751D01*
X94659997Y-65494751D01*
X94491943Y-65513685D01*
X94332305Y-65569545D01*
X94332302Y-65569547D01*
X94189115Y-65659518D01*
X94189109Y-65659523D01*
X94069523Y-65779109D01*
X94069518Y-65779115D01*
X93979547Y-65922302D01*
X93979545Y-65922305D01*
X93923685Y-66081943D01*
X93904751Y-66249997D01*
X93904751Y-66250002D01*
X91475137Y-66250002D01*
X91430454Y-66122305D01*
X91430452Y-66122302D01*
X91340481Y-65979115D01*
X91340476Y-65979109D01*
X91220890Y-65859523D01*
X91220884Y-65859518D01*
X91077697Y-65769547D01*
X91077694Y-65769545D01*
X90918056Y-65713685D01*
X90750003Y-65694751D01*
X90749997Y-65694751D01*
X90581942Y-65713686D01*
X90423774Y-65769031D01*
X90353995Y-65772592D01*
X90316848Y-65756983D01*
X90177692Y-65669545D01*
X90177691Y-65669544D01*
X90177690Y-65669544D01*
X90115735Y-65647865D01*
X90018056Y-65613685D01*
X89850003Y-65594751D01*
X89849997Y-65594751D01*
X89681943Y-65613685D01*
X89522305Y-65669545D01*
X89522302Y-65669547D01*
X89379115Y-65759518D01*
X89379109Y-65759523D01*
X89259523Y-65879109D01*
X89259518Y-65879115D01*
X89169547Y-66022302D01*
X89169545Y-66022305D01*
X89113685Y-66181943D01*
X89094751Y-66349997D01*
X89094751Y-66350002D01*
X67000500Y-66350002D01*
X67000500Y-64870936D01*
X68020631Y-64870936D01*
X68051442Y-65072063D01*
X68051445Y-65072075D01*
X68122111Y-65262881D01*
X68122113Y-65262884D01*
X68122114Y-65262887D01*
X68168005Y-65336513D01*
X68229745Y-65435567D01*
X68229749Y-65435572D01*
X68369583Y-65582677D01*
X68369941Y-65583053D01*
X68479210Y-65659106D01*
X68536949Y-65699294D01*
X68536950Y-65699294D01*
X68536951Y-65699295D01*
X68723942Y-65779540D01*
X68923259Y-65820500D01*
X69875743Y-65820500D01*
X70027439Y-65805074D01*
X70221579Y-65744162D01*
X70221580Y-65744161D01*
X70221588Y-65744159D01*
X70399502Y-65645409D01*
X70553895Y-65512866D01*
X70678448Y-65351958D01*
X70768060Y-65169271D01*
X70819063Y-64972285D01*
X70824203Y-64870936D01*
X72050631Y-64870936D01*
X72081442Y-65072063D01*
X72081445Y-65072075D01*
X72152111Y-65262881D01*
X72152113Y-65262884D01*
X72152114Y-65262887D01*
X72198005Y-65336513D01*
X72259745Y-65435567D01*
X72259749Y-65435572D01*
X72399583Y-65582677D01*
X72399941Y-65583053D01*
X72509210Y-65659106D01*
X72566949Y-65699294D01*
X72566950Y-65699294D01*
X72566951Y-65699295D01*
X72753942Y-65779540D01*
X72953259Y-65820500D01*
X74205743Y-65820500D01*
X74357439Y-65805074D01*
X74551579Y-65744162D01*
X74551580Y-65744161D01*
X74551588Y-65744159D01*
X74729502Y-65645409D01*
X74883895Y-65512866D01*
X75008448Y-65351958D01*
X75098060Y-65169271D01*
X75136708Y-65020002D01*
X77594751Y-65020002D01*
X77613685Y-65188056D01*
X77669545Y-65347694D01*
X77669547Y-65347697D01*
X77759518Y-65490884D01*
X77759523Y-65490890D01*
X77879109Y-65610476D01*
X77879115Y-65610481D01*
X78022302Y-65700452D01*
X78022305Y-65700454D01*
X78022309Y-65700455D01*
X78022310Y-65700456D01*
X78094913Y-65725860D01*
X78181943Y-65756314D01*
X78349997Y-65775249D01*
X78350000Y-65775249D01*
X78350003Y-65775249D01*
X78518056Y-65756314D01*
X78529059Y-65752464D01*
X78677690Y-65700456D01*
X78809027Y-65617930D01*
X78876264Y-65598930D01*
X78940972Y-65617930D01*
X79059460Y-65692382D01*
X79072307Y-65700454D01*
X79072305Y-65700454D01*
X79072309Y-65700455D01*
X79072310Y-65700456D01*
X79144913Y-65725860D01*
X79231943Y-65756314D01*
X79399997Y-65775249D01*
X79400000Y-65775249D01*
X79400003Y-65775249D01*
X79568056Y-65756314D01*
X79579059Y-65752464D01*
X79727690Y-65700456D01*
X79727692Y-65700454D01*
X79727694Y-65700454D01*
X79727697Y-65700452D01*
X79870884Y-65610481D01*
X79870885Y-65610480D01*
X79870890Y-65610477D01*
X79990477Y-65490890D01*
X80025236Y-65435572D01*
X80079004Y-65350002D01*
X81014751Y-65350002D01*
X81033685Y-65518056D01*
X81089545Y-65677694D01*
X81089547Y-65677697D01*
X81179518Y-65820884D01*
X81179523Y-65820890D01*
X81299109Y-65940476D01*
X81299115Y-65940481D01*
X81442302Y-66030452D01*
X81442305Y-66030454D01*
X81442309Y-66030455D01*
X81442310Y-66030456D01*
X81456385Y-66035381D01*
X81601943Y-66086314D01*
X81769997Y-66105249D01*
X81770000Y-66105249D01*
X81770003Y-66105249D01*
X81938056Y-66086314D01*
X81950548Y-66081943D01*
X82097690Y-66030456D01*
X82097692Y-66030454D01*
X82097694Y-66030454D01*
X82097697Y-66030452D01*
X82240884Y-65940481D01*
X82240885Y-65940480D01*
X82240890Y-65940477D01*
X82360477Y-65820890D01*
X82386726Y-65779115D01*
X82450452Y-65677697D01*
X82450454Y-65677694D01*
X82450454Y-65677692D01*
X82450456Y-65677690D01*
X82506313Y-65518059D01*
X82506313Y-65518058D01*
X82506314Y-65518056D01*
X82525249Y-65350002D01*
X82525249Y-65349997D01*
X82506314Y-65181943D01*
X82450454Y-65022305D01*
X82450452Y-65022302D01*
X82360481Y-64879115D01*
X82360476Y-64879109D01*
X82240888Y-64759521D01*
X82099924Y-64670947D01*
X82053634Y-64618613D01*
X82042986Y-64549559D01*
X82071361Y-64485711D01*
X82124942Y-64448913D01*
X82177690Y-64430456D01*
X82177693Y-64430453D01*
X82177697Y-64430452D01*
X82320884Y-64340481D01*
X82320885Y-64340480D01*
X82320890Y-64340477D01*
X82440477Y-64220890D01*
X82440481Y-64220884D01*
X82530452Y-64077697D01*
X82530454Y-64077694D01*
X82530454Y-64077692D01*
X82530456Y-64077690D01*
X82586313Y-63918059D01*
X82586313Y-63918058D01*
X82586314Y-63918056D01*
X82605249Y-63750002D01*
X86094751Y-63750002D01*
X86113685Y-63918056D01*
X86169545Y-64077694D01*
X86169547Y-64077697D01*
X86259518Y-64220884D01*
X86259523Y-64220890D01*
X86379109Y-64340476D01*
X86379115Y-64340481D01*
X86522302Y-64430452D01*
X86522305Y-64430454D01*
X86522309Y-64430455D01*
X86522310Y-64430456D01*
X86575055Y-64448912D01*
X86681943Y-64486314D01*
X86849997Y-64505249D01*
X86850000Y-64505249D01*
X86850003Y-64505249D01*
X87018056Y-64486314D01*
X87025718Y-64483633D01*
X87177690Y-64430456D01*
X87177692Y-64430454D01*
X87177694Y-64430454D01*
X87177697Y-64430452D01*
X87320884Y-64340481D01*
X87320885Y-64340480D01*
X87320890Y-64340477D01*
X87440477Y-64220890D01*
X87440481Y-64220884D01*
X87492554Y-64138011D01*
X90189890Y-64138011D01*
X90208824Y-64306065D01*
X90264684Y-64465703D01*
X90264686Y-64465706D01*
X90354657Y-64608893D01*
X90354662Y-64608899D01*
X90474248Y-64728485D01*
X90474254Y-64728490D01*
X90617441Y-64818461D01*
X90617444Y-64818463D01*
X90617448Y-64818464D01*
X90617449Y-64818465D01*
X90690052Y-64843869D01*
X90777082Y-64874323D01*
X90945136Y-64893258D01*
X90945139Y-64893258D01*
X90945142Y-64893258D01*
X91113195Y-64874323D01*
X91113198Y-64874322D01*
X91272829Y-64818465D01*
X91272831Y-64818463D01*
X91272833Y-64818463D01*
X91272836Y-64818461D01*
X91416023Y-64728490D01*
X91416024Y-64728489D01*
X91416029Y-64728486D01*
X91535616Y-64608899D01*
X91561355Y-64567936D01*
X91625591Y-64465706D01*
X91625593Y-64465703D01*
X91625593Y-64465701D01*
X91625595Y-64465699D01*
X91681452Y-64306068D01*
X91681452Y-64306067D01*
X91681453Y-64306065D01*
X91700388Y-64138011D01*
X91700388Y-64138006D01*
X91681453Y-63969952D01*
X91648851Y-63876780D01*
X91625595Y-63810319D01*
X91625594Y-63810318D01*
X91625593Y-63810314D01*
X91625591Y-63810311D01*
X91535620Y-63667124D01*
X91535615Y-63667118D01*
X91416029Y-63547532D01*
X91416023Y-63547527D01*
X91272836Y-63457556D01*
X91272833Y-63457554D01*
X91113195Y-63401694D01*
X90945142Y-63382760D01*
X90945136Y-63382760D01*
X90777082Y-63401694D01*
X90617444Y-63457554D01*
X90617441Y-63457556D01*
X90474254Y-63547527D01*
X90474248Y-63547532D01*
X90354662Y-63667118D01*
X90354657Y-63667124D01*
X90264686Y-63810311D01*
X90264684Y-63810314D01*
X90208824Y-63969952D01*
X90189890Y-64138006D01*
X90189890Y-64138011D01*
X87492554Y-64138011D01*
X87530452Y-64077697D01*
X87530454Y-64077694D01*
X87530454Y-64077692D01*
X87530456Y-64077690D01*
X87586313Y-63918059D01*
X87586313Y-63918058D01*
X87586314Y-63918056D01*
X87605249Y-63750002D01*
X87605249Y-63749997D01*
X87586313Y-63581940D01*
X87586313Y-63581938D01*
X87528232Y-63415954D01*
X87524670Y-63346175D01*
X87528232Y-63334044D01*
X87530454Y-63327692D01*
X87530456Y-63327690D01*
X87557640Y-63250002D01*
X93194751Y-63250002D01*
X93213685Y-63418056D01*
X93269545Y-63577694D01*
X93269547Y-63577697D01*
X93359518Y-63720884D01*
X93359523Y-63720890D01*
X93479109Y-63840476D01*
X93479115Y-63840481D01*
X93622302Y-63930452D01*
X93622305Y-63930454D01*
X93622309Y-63930455D01*
X93622310Y-63930456D01*
X93680690Y-63950884D01*
X93781943Y-63986314D01*
X93949997Y-64005249D01*
X93950000Y-64005249D01*
X93950003Y-64005249D01*
X94118056Y-63986314D01*
X94164816Y-63969952D01*
X94277690Y-63930456D01*
X94277692Y-63930454D01*
X94277694Y-63930454D01*
X94277697Y-63930452D01*
X94420884Y-63840481D01*
X94420885Y-63840480D01*
X94420890Y-63840477D01*
X94540477Y-63720890D01*
X94568470Y-63676340D01*
X94630452Y-63577697D01*
X94630454Y-63577694D01*
X94630454Y-63577692D01*
X94630456Y-63577690D01*
X94664638Y-63480002D01*
X95444751Y-63480002D01*
X95463685Y-63648056D01*
X95519545Y-63807694D01*
X95519547Y-63807697D01*
X95609518Y-63950884D01*
X95609523Y-63950890D01*
X95729109Y-64070476D01*
X95729115Y-64070481D01*
X95872302Y-64160452D01*
X95872305Y-64160454D01*
X95872309Y-64160455D01*
X95872310Y-64160456D01*
X95944913Y-64185860D01*
X96031943Y-64216314D01*
X96199997Y-64235249D01*
X96200000Y-64235249D01*
X96200003Y-64235249D01*
X96368056Y-64216314D01*
X96402013Y-64204432D01*
X96527690Y-64160456D01*
X96527692Y-64160454D01*
X96527694Y-64160454D01*
X96527697Y-64160452D01*
X96670884Y-64070481D01*
X96670885Y-64070480D01*
X96670890Y-64070477D01*
X96790477Y-63950890D01*
X96807951Y-63923081D01*
X96880452Y-63807697D01*
X96880454Y-63807694D01*
X96880454Y-63807692D01*
X96880456Y-63807690D01*
X96936313Y-63648059D01*
X96936313Y-63648058D01*
X96936314Y-63648056D01*
X96955249Y-63480002D01*
X96955249Y-63479997D01*
X96936314Y-63311943D01*
X96893956Y-63190890D01*
X96880456Y-63152310D01*
X96880455Y-63152309D01*
X96880454Y-63152305D01*
X96880452Y-63152302D01*
X96790481Y-63009115D01*
X96790476Y-63009109D01*
X96670890Y-62889523D01*
X96670884Y-62889518D01*
X96527697Y-62799547D01*
X96527694Y-62799545D01*
X96368056Y-62743685D01*
X96200003Y-62724751D01*
X96199997Y-62724751D01*
X96031943Y-62743685D01*
X95872305Y-62799545D01*
X95872302Y-62799547D01*
X95729115Y-62889518D01*
X95729109Y-62889523D01*
X95609523Y-63009109D01*
X95609518Y-63009115D01*
X95519547Y-63152302D01*
X95519545Y-63152305D01*
X95463685Y-63311943D01*
X95444751Y-63479997D01*
X95444751Y-63480002D01*
X94664638Y-63480002D01*
X94686313Y-63418059D01*
X94686313Y-63418058D01*
X94686314Y-63418056D01*
X94705249Y-63250002D01*
X94705249Y-63249997D01*
X94686314Y-63081943D01*
X94650485Y-62979549D01*
X94630456Y-62922310D01*
X94630455Y-62922309D01*
X94630454Y-62922305D01*
X94630452Y-62922302D01*
X94540481Y-62779115D01*
X94540476Y-62779109D01*
X94420890Y-62659523D01*
X94420884Y-62659518D01*
X94277697Y-62569547D01*
X94277694Y-62569545D01*
X94118056Y-62513685D01*
X93950003Y-62494751D01*
X93949997Y-62494751D01*
X93781943Y-62513685D01*
X93622305Y-62569545D01*
X93622302Y-62569547D01*
X93479115Y-62659518D01*
X93479109Y-62659523D01*
X93359523Y-62779109D01*
X93359518Y-62779115D01*
X93269547Y-62922302D01*
X93269545Y-62922305D01*
X93213685Y-63081943D01*
X93194751Y-63249997D01*
X93194751Y-63250002D01*
X87557640Y-63250002D01*
X87586313Y-63168059D01*
X87593282Y-63106210D01*
X87605249Y-63000002D01*
X87605249Y-62999997D01*
X87586314Y-62831943D01*
X87533306Y-62680456D01*
X87530456Y-62672310D01*
X87530455Y-62672309D01*
X87530454Y-62672305D01*
X87530452Y-62672302D01*
X87440481Y-62529115D01*
X87440476Y-62529109D01*
X87320890Y-62409523D01*
X87234108Y-62354994D01*
X87187817Y-62302659D01*
X87177169Y-62233605D01*
X87205544Y-62169757D01*
X87234108Y-62145006D01*
X87320890Y-62090477D01*
X87440477Y-61970890D01*
X87440481Y-61970884D01*
X87530452Y-61827697D01*
X87530454Y-61827694D01*
X87530454Y-61827692D01*
X87530456Y-61827690D01*
X87586313Y-61668059D01*
X87586313Y-61668058D01*
X87586314Y-61668056D01*
X87605249Y-61500002D01*
X87605249Y-61499997D01*
X87586314Y-61331943D01*
X87530454Y-61172305D01*
X87530452Y-61172302D01*
X87485023Y-61100002D01*
X88044751Y-61100002D01*
X88063685Y-61268056D01*
X88119545Y-61427694D01*
X88119547Y-61427697D01*
X88209518Y-61570884D01*
X88209523Y-61570890D01*
X88329109Y-61690476D01*
X88329115Y-61690481D01*
X88472302Y-61780452D01*
X88472310Y-61780456D01*
X88525013Y-61798897D01*
X88581790Y-61839618D01*
X88601101Y-61874984D01*
X88602944Y-61880249D01*
X88619544Y-61927691D01*
X88619547Y-61927697D01*
X88709518Y-62070884D01*
X88709523Y-62070890D01*
X88829109Y-62190476D01*
X88829115Y-62190481D01*
X88972302Y-62280452D01*
X88972308Y-62280455D01*
X88972310Y-62280456D01*
X89131941Y-62336313D01*
X89172709Y-62340906D01*
X89237120Y-62367971D01*
X89263818Y-62398153D01*
X89309520Y-62470886D01*
X89309521Y-62470888D01*
X89429109Y-62590476D01*
X89429115Y-62590481D01*
X89572302Y-62680452D01*
X89572305Y-62680454D01*
X89572309Y-62680455D01*
X89572310Y-62680456D01*
X89590955Y-62686980D01*
X89731943Y-62736314D01*
X89899997Y-62755249D01*
X89900000Y-62755249D01*
X89900003Y-62755249D01*
X90068059Y-62736313D01*
X90068060Y-62736313D01*
X90127343Y-62715568D01*
X90209045Y-62686979D01*
X90278822Y-62683417D01*
X90290954Y-62686980D01*
X90431939Y-62736313D01*
X90599997Y-62755249D01*
X90600000Y-62755249D01*
X90600003Y-62755249D01*
X90702632Y-62743685D01*
X90768059Y-62736313D01*
X90927690Y-62680456D01*
X90995310Y-62637966D01*
X91062546Y-62618966D01*
X91102237Y-62625919D01*
X91131943Y-62636314D01*
X91299997Y-62655249D01*
X91300000Y-62655249D01*
X91300003Y-62655249D01*
X91468056Y-62636314D01*
X91468059Y-62636313D01*
X91627690Y-62580456D01*
X91627692Y-62580454D01*
X91627694Y-62580454D01*
X91627697Y-62580452D01*
X91770884Y-62490481D01*
X91770885Y-62490480D01*
X91770890Y-62490477D01*
X91890477Y-62370890D01*
X91909318Y-62340905D01*
X91980452Y-62227697D01*
X91980457Y-62227687D01*
X91998897Y-62174987D01*
X92039617Y-62118210D01*
X92074987Y-62098897D01*
X92127687Y-62080457D01*
X92127686Y-62080457D01*
X92127690Y-62080456D01*
X92127693Y-62080453D01*
X92127697Y-62080452D01*
X92270884Y-61990481D01*
X92270885Y-61990480D01*
X92270890Y-61990477D01*
X92390477Y-61870890D01*
X92396495Y-61861313D01*
X92480452Y-61727697D01*
X92480456Y-61727689D01*
X92484730Y-61715476D01*
X92518851Y-61617959D01*
X92559572Y-61561183D01*
X92569922Y-61553919D01*
X92670887Y-61490479D01*
X92670887Y-61490478D01*
X92670890Y-61490477D01*
X92790477Y-61370890D01*
X92812052Y-61336554D01*
X92880452Y-61227697D01*
X92880454Y-61227694D01*
X92880454Y-61227692D01*
X92880456Y-61227690D01*
X92936313Y-61068059D01*
X92936313Y-61068058D01*
X92936314Y-61068056D01*
X92955249Y-60900002D01*
X92955249Y-60899997D01*
X92936314Y-60731943D01*
X92880454Y-60572305D01*
X92880452Y-60572302D01*
X92790481Y-60429115D01*
X92790476Y-60429109D01*
X92670890Y-60309523D01*
X92670884Y-60309518D01*
X92527697Y-60219547D01*
X92527694Y-60219545D01*
X92368056Y-60163685D01*
X92200003Y-60144751D01*
X92199997Y-60144751D01*
X92031942Y-60163686D01*
X91895499Y-60211429D01*
X91825720Y-60214990D01*
X91765093Y-60180261D01*
X91737503Y-60135342D01*
X91732596Y-60121318D01*
X91680456Y-59972310D01*
X91659371Y-59938753D01*
X91640371Y-59871516D01*
X91660739Y-59804681D01*
X91714007Y-59759467D01*
X91750482Y-59749561D01*
X91868055Y-59736314D01*
X91868057Y-59736313D01*
X91868059Y-59736313D01*
X92027690Y-59680456D01*
X92027692Y-59680454D01*
X92027694Y-59680454D01*
X92027697Y-59680452D01*
X92170884Y-59590481D01*
X92170885Y-59590480D01*
X92170890Y-59590477D01*
X92290477Y-59470890D01*
X92303559Y-59450070D01*
X92380452Y-59327697D01*
X92380454Y-59327694D01*
X92380454Y-59327692D01*
X92380456Y-59327690D01*
X92436313Y-59168059D01*
X92436313Y-59168058D01*
X92436314Y-59168056D01*
X92455249Y-59000002D01*
X92455249Y-58999997D01*
X92436314Y-58831943D01*
X92380454Y-58672305D01*
X92380452Y-58672302D01*
X92290481Y-58529115D01*
X92290476Y-58529109D01*
X92170890Y-58409523D01*
X92170884Y-58409518D01*
X92027697Y-58319547D01*
X92027694Y-58319545D01*
X91868056Y-58263685D01*
X91700003Y-58244751D01*
X91699997Y-58244751D01*
X91531943Y-58263685D01*
X91372305Y-58319545D01*
X91372302Y-58319547D01*
X91229115Y-58409518D01*
X91229109Y-58409523D01*
X91109523Y-58529109D01*
X91109518Y-58529115D01*
X91019547Y-58672302D01*
X91019545Y-58672305D01*
X90963685Y-58831944D01*
X90948554Y-58966239D01*
X90921487Y-59030653D01*
X90863892Y-59070208D01*
X90794055Y-59072345D01*
X90784382Y-59069398D01*
X90768057Y-59063686D01*
X90600003Y-59044751D01*
X90599997Y-59044751D01*
X90431940Y-59063686D01*
X90431938Y-59063686D01*
X90415615Y-59069398D01*
X90345836Y-59072957D01*
X90285210Y-59038226D01*
X90252985Y-58976231D01*
X90251445Y-58966238D01*
X90236314Y-58831944D01*
X90223929Y-58796550D01*
X90180456Y-58672310D01*
X90180455Y-58672309D01*
X90180454Y-58672305D01*
X90180452Y-58672302D01*
X90090481Y-58529115D01*
X90090476Y-58529109D01*
X89970890Y-58409523D01*
X89970884Y-58409518D01*
X89827697Y-58319547D01*
X89827694Y-58319545D01*
X89668056Y-58263685D01*
X89500003Y-58244751D01*
X89499997Y-58244751D01*
X89331943Y-58263685D01*
X89172305Y-58319545D01*
X89172302Y-58319547D01*
X89029115Y-58409518D01*
X89029109Y-58409523D01*
X88909523Y-58529109D01*
X88909518Y-58529115D01*
X88819547Y-58672302D01*
X88819545Y-58672305D01*
X88763685Y-58831943D01*
X88744751Y-58999997D01*
X88744751Y-59000002D01*
X88763685Y-59168056D01*
X88819545Y-59327694D01*
X88819547Y-59327697D01*
X88909518Y-59470884D01*
X88909523Y-59470890D01*
X89029109Y-59590476D01*
X89029115Y-59590481D01*
X89172302Y-59680452D01*
X89172305Y-59680454D01*
X89172309Y-59680455D01*
X89172310Y-59680456D01*
X89177783Y-59682371D01*
X89331943Y-59736314D01*
X89499997Y-59755249D01*
X89500000Y-59755249D01*
X89500003Y-59755249D01*
X89626044Y-59741047D01*
X89668059Y-59736313D01*
X89677835Y-59732891D01*
X89684378Y-59730603D01*
X89754156Y-59727040D01*
X89814784Y-59761768D01*
X89847012Y-59823761D01*
X89848554Y-59833760D01*
X89863685Y-59968054D01*
X89863686Y-59968057D01*
X89896556Y-60061994D01*
X89900117Y-60131773D01*
X89884508Y-60168920D01*
X89819545Y-60272307D01*
X89763685Y-60431943D01*
X89744751Y-60599997D01*
X89744751Y-60600002D01*
X89764466Y-60774979D01*
X89762558Y-60775193D01*
X89758869Y-60835411D01*
X89717571Y-60891769D01*
X89652359Y-60916853D01*
X89601300Y-60910309D01*
X89574988Y-60901103D01*
X89518211Y-60860383D01*
X89498897Y-60825013D01*
X89496984Y-60819547D01*
X89480456Y-60772310D01*
X89480452Y-60772302D01*
X89390481Y-60629115D01*
X89390476Y-60629109D01*
X89270890Y-60509523D01*
X89270884Y-60509518D01*
X89127697Y-60419547D01*
X89127694Y-60419545D01*
X88968056Y-60363685D01*
X88800003Y-60344751D01*
X88799997Y-60344751D01*
X88631943Y-60363685D01*
X88472305Y-60419545D01*
X88472302Y-60419547D01*
X88329115Y-60509518D01*
X88329109Y-60509523D01*
X88209523Y-60629109D01*
X88209518Y-60629115D01*
X88119547Y-60772302D01*
X88119545Y-60772305D01*
X88063685Y-60931943D01*
X88044751Y-61099997D01*
X88044751Y-61100002D01*
X87485023Y-61100002D01*
X87440481Y-61029115D01*
X87440476Y-61029109D01*
X87320890Y-60909523D01*
X87320884Y-60909518D01*
X87177697Y-60819547D01*
X87177694Y-60819545D01*
X87018056Y-60763685D01*
X86850003Y-60744751D01*
X86849997Y-60744751D01*
X86681943Y-60763685D01*
X86522305Y-60819545D01*
X86522302Y-60819547D01*
X86379115Y-60909518D01*
X86379109Y-60909523D01*
X86259523Y-61029109D01*
X86259518Y-61029115D01*
X86169547Y-61172302D01*
X86169545Y-61172305D01*
X86113685Y-61331943D01*
X86094751Y-61499997D01*
X86094751Y-61500002D01*
X86113685Y-61668056D01*
X86169545Y-61827694D01*
X86169547Y-61827697D01*
X86259518Y-61970884D01*
X86259523Y-61970890D01*
X86379110Y-62090477D01*
X86392510Y-62098897D01*
X86465892Y-62145007D01*
X86512183Y-62197342D01*
X86522830Y-62266395D01*
X86494455Y-62330244D01*
X86465892Y-62354993D01*
X86379112Y-62409521D01*
X86379109Y-62409523D01*
X86259523Y-62529109D01*
X86259518Y-62529115D01*
X86169547Y-62672302D01*
X86169545Y-62672305D01*
X86113685Y-62831943D01*
X86094751Y-62999997D01*
X86094751Y-63000002D01*
X86113686Y-63168057D01*
X86171767Y-63334046D01*
X86175328Y-63403825D01*
X86171767Y-63415954D01*
X86113686Y-63581942D01*
X86094751Y-63749997D01*
X86094751Y-63750002D01*
X82605249Y-63750002D01*
X82605249Y-63749997D01*
X82586314Y-63581943D01*
X82530454Y-63422305D01*
X82530452Y-63422302D01*
X82440481Y-63279115D01*
X82440476Y-63279109D01*
X82320890Y-63159523D01*
X82320884Y-63159518D01*
X82177697Y-63069547D01*
X82177694Y-63069545D01*
X82018056Y-63013685D01*
X81850003Y-62994751D01*
X81849997Y-62994751D01*
X81681943Y-63013685D01*
X81522305Y-63069545D01*
X81522302Y-63069547D01*
X81379115Y-63159518D01*
X81379109Y-63159523D01*
X81259523Y-63279109D01*
X81259518Y-63279115D01*
X81169547Y-63422302D01*
X81169545Y-63422305D01*
X81113685Y-63581943D01*
X81094751Y-63749997D01*
X81094751Y-63750002D01*
X81113685Y-63918056D01*
X81169545Y-64077694D01*
X81169547Y-64077697D01*
X81259518Y-64220884D01*
X81259523Y-64220890D01*
X81379110Y-64340477D01*
X81437416Y-64377113D01*
X81520074Y-64429051D01*
X81566365Y-64481386D01*
X81577013Y-64550440D01*
X81548638Y-64614288D01*
X81495057Y-64651086D01*
X81442313Y-64669542D01*
X81442302Y-64669547D01*
X81299115Y-64759518D01*
X81299109Y-64759523D01*
X81179523Y-64879109D01*
X81179518Y-64879115D01*
X81089547Y-65022302D01*
X81089545Y-65022305D01*
X81033685Y-65181943D01*
X81014751Y-65349997D01*
X81014751Y-65350002D01*
X80079004Y-65350002D01*
X80080452Y-65347697D01*
X80080454Y-65347694D01*
X80080454Y-65347692D01*
X80080456Y-65347690D01*
X80136313Y-65188059D01*
X80136313Y-65188058D01*
X80136314Y-65188056D01*
X80155249Y-65020002D01*
X80155249Y-65019997D01*
X80136314Y-64851943D01*
X80098351Y-64743451D01*
X80080456Y-64692310D01*
X80080455Y-64692309D01*
X80080454Y-64692305D01*
X80080452Y-64692302D01*
X79990481Y-64549115D01*
X79990476Y-64549109D01*
X79870890Y-64429523D01*
X79870884Y-64429518D01*
X79727697Y-64339547D01*
X79727694Y-64339545D01*
X79568056Y-64283685D01*
X79400003Y-64264751D01*
X79399997Y-64264751D01*
X79231943Y-64283685D01*
X79072307Y-64339545D01*
X78940971Y-64422069D01*
X78873734Y-64441069D01*
X78809027Y-64422069D01*
X78677692Y-64339545D01*
X78677691Y-64339544D01*
X78677690Y-64339544D01*
X78639370Y-64326135D01*
X78518056Y-64283685D01*
X78350003Y-64264751D01*
X78349997Y-64264751D01*
X78181943Y-64283685D01*
X78022305Y-64339545D01*
X78022302Y-64339547D01*
X77879115Y-64429518D01*
X77879109Y-64429523D01*
X77759523Y-64549109D01*
X77759518Y-64549115D01*
X77669547Y-64692302D01*
X77669545Y-64692305D01*
X77613685Y-64851943D01*
X77594751Y-65019997D01*
X77594751Y-65020002D01*
X75136708Y-65020002D01*
X75149063Y-64972285D01*
X75159369Y-64769064D01*
X75128556Y-64567929D01*
X75077641Y-64430454D01*
X75057888Y-64377118D01*
X75057887Y-64377117D01*
X75057886Y-64377113D01*
X74950252Y-64204429D01*
X74841411Y-64089929D01*
X74810061Y-64056949D01*
X74810060Y-64056948D01*
X74810059Y-64056947D01*
X74711587Y-63988409D01*
X74643050Y-63940705D01*
X74456056Y-63860459D01*
X74256741Y-63819500D01*
X73735591Y-63819500D01*
X73668552Y-63799815D01*
X73622797Y-63747011D01*
X73612853Y-63677853D01*
X73621030Y-63648047D01*
X73648411Y-63581943D01*
X73665687Y-63540236D01*
X73685466Y-63390000D01*
X73678099Y-63334046D01*
X73667035Y-63250002D01*
X73665687Y-63239764D01*
X73607698Y-63099767D01*
X73515451Y-62979549D01*
X73395233Y-62887302D01*
X73395229Y-62887300D01*
X73331801Y-62861027D01*
X73255236Y-62829313D01*
X73241171Y-62827461D01*
X73142727Y-62814500D01*
X73142720Y-62814500D01*
X73067280Y-62814500D01*
X73067272Y-62814500D01*
X72954764Y-62829313D01*
X72954763Y-62829313D01*
X72814770Y-62887300D01*
X72814767Y-62887301D01*
X72814767Y-62887302D01*
X72694549Y-62979549D01*
X72615981Y-63081941D01*
X72602300Y-63099770D01*
X72544313Y-63239763D01*
X72544312Y-63239765D01*
X72524534Y-63389999D01*
X72524534Y-63390000D01*
X72544312Y-63540234D01*
X72544313Y-63540236D01*
X72602300Y-63680230D01*
X72602302Y-63680234D01*
X72647530Y-63739175D01*
X72672725Y-63804344D01*
X72658687Y-63872789D01*
X72609873Y-63922779D01*
X72609333Y-63923081D01*
X72480496Y-63994591D01*
X72480495Y-63994592D01*
X72326106Y-64127132D01*
X72326104Y-64127134D01*
X72201554Y-64288037D01*
X72201553Y-64288040D01*
X72111940Y-64470728D01*
X72060937Y-64667714D01*
X72050631Y-64870936D01*
X70824203Y-64870936D01*
X70829369Y-64769064D01*
X70798556Y-64567929D01*
X70747641Y-64430454D01*
X70727888Y-64377118D01*
X70727887Y-64377117D01*
X70727886Y-64377113D01*
X70620252Y-64204429D01*
X70511411Y-64089929D01*
X70480061Y-64056949D01*
X70480060Y-64056948D01*
X70480059Y-64056947D01*
X70381587Y-63988409D01*
X70313050Y-63940705D01*
X70126056Y-63860459D01*
X69926741Y-63819500D01*
X68974258Y-63819500D01*
X68974257Y-63819500D01*
X68822560Y-63834925D01*
X68628420Y-63895837D01*
X68628405Y-63895844D01*
X68450500Y-63994589D01*
X68450495Y-63994592D01*
X68296106Y-64127132D01*
X68296104Y-64127134D01*
X68171554Y-64288037D01*
X68171553Y-64288040D01*
X68081940Y-64470728D01*
X68030937Y-64667714D01*
X68020631Y-64870936D01*
X67000500Y-64870936D01*
X67000500Y-62720002D01*
X78044751Y-62720002D01*
X78063685Y-62888056D01*
X78119545Y-63047694D01*
X78119547Y-63047697D01*
X78209518Y-63190884D01*
X78209523Y-63190890D01*
X78329109Y-63310476D01*
X78329115Y-63310481D01*
X78472302Y-63400452D01*
X78472305Y-63400454D01*
X78472309Y-63400455D01*
X78472310Y-63400456D01*
X78544913Y-63425860D01*
X78631943Y-63456314D01*
X78799997Y-63475249D01*
X78800000Y-63475249D01*
X78800003Y-63475249D01*
X78968056Y-63456314D01*
X78968059Y-63456313D01*
X79127690Y-63400456D01*
X79127692Y-63400454D01*
X79127694Y-63400454D01*
X79127697Y-63400452D01*
X79270884Y-63310481D01*
X79270885Y-63310480D01*
X79270890Y-63310477D01*
X79390477Y-63190890D01*
X79409600Y-63160456D01*
X79480452Y-63047697D01*
X79480454Y-63047694D01*
X79480454Y-63047692D01*
X79480456Y-63047690D01*
X79536313Y-62888059D01*
X79536313Y-62888058D01*
X79536314Y-62888056D01*
X79555249Y-62720002D01*
X79555249Y-62719997D01*
X79536314Y-62551943D01*
X79511141Y-62480002D01*
X82594751Y-62480002D01*
X82613685Y-62648056D01*
X82669545Y-62807694D01*
X82669547Y-62807697D01*
X82759518Y-62950884D01*
X82759523Y-62950890D01*
X82879109Y-63070476D01*
X82879115Y-63070481D01*
X83022302Y-63160452D01*
X83022305Y-63160454D01*
X83022309Y-63160455D01*
X83022310Y-63160456D01*
X83094913Y-63185860D01*
X83181943Y-63216314D01*
X83349997Y-63235249D01*
X83350000Y-63235249D01*
X83350003Y-63235249D01*
X83518056Y-63216314D01*
X83529059Y-63212464D01*
X83677690Y-63160456D01*
X83677692Y-63160454D01*
X83677694Y-63160454D01*
X83677697Y-63160452D01*
X83820884Y-63070481D01*
X83820885Y-63070480D01*
X83820890Y-63070477D01*
X83940477Y-62950890D01*
X83958435Y-62922310D01*
X84030452Y-62807697D01*
X84030454Y-62807694D01*
X84030454Y-62807692D01*
X84030456Y-62807690D01*
X84086313Y-62648059D01*
X84086313Y-62648058D01*
X84086314Y-62648056D01*
X84105249Y-62480002D01*
X84105249Y-62479997D01*
X84086313Y-62311940D01*
X84086313Y-62311938D01*
X84041986Y-62185260D01*
X84038424Y-62115481D01*
X84073152Y-62054854D01*
X84135146Y-62022626D01*
X84204721Y-62029031D01*
X84225000Y-62039312D01*
X84322307Y-62100454D01*
X84322305Y-62100454D01*
X84322309Y-62100455D01*
X84322310Y-62100456D01*
X84374220Y-62118620D01*
X84481943Y-62156314D01*
X84649997Y-62175249D01*
X84650000Y-62175249D01*
X84650003Y-62175249D01*
X84818056Y-62156314D01*
X84829522Y-62152302D01*
X84977690Y-62100456D01*
X84977692Y-62100454D01*
X84977694Y-62100454D01*
X84977697Y-62100452D01*
X85120884Y-62010481D01*
X85120885Y-62010480D01*
X85120890Y-62010477D01*
X85240477Y-61890890D01*
X85247163Y-61880249D01*
X85330452Y-61747697D01*
X85330454Y-61747694D01*
X85330454Y-61747692D01*
X85330456Y-61747690D01*
X85386313Y-61588059D01*
X85386313Y-61588058D01*
X85386314Y-61588056D01*
X85405249Y-61420002D01*
X85405249Y-61419997D01*
X85386314Y-61251943D01*
X85341895Y-61125000D01*
X85330456Y-61092310D01*
X85330455Y-61092309D01*
X85330454Y-61092305D01*
X85330452Y-61092302D01*
X85240481Y-60949115D01*
X85240476Y-60949109D01*
X85120890Y-60829523D01*
X85120884Y-60829518D01*
X84977697Y-60739547D01*
X84977694Y-60739545D01*
X84818056Y-60683685D01*
X84650003Y-60664751D01*
X84649997Y-60664751D01*
X84481943Y-60683685D01*
X84322305Y-60739545D01*
X84322302Y-60739547D01*
X84179115Y-60829518D01*
X84179109Y-60829523D01*
X84059523Y-60949109D01*
X84059518Y-60949115D01*
X83969547Y-61092302D01*
X83969545Y-61092305D01*
X83913685Y-61251943D01*
X83894751Y-61419997D01*
X83894751Y-61420002D01*
X83913686Y-61588057D01*
X83958014Y-61714740D01*
X83961575Y-61784518D01*
X83926846Y-61845146D01*
X83864853Y-61877373D01*
X83795277Y-61870968D01*
X83775000Y-61860688D01*
X83677692Y-61799545D01*
X83677691Y-61799544D01*
X83677690Y-61799544D01*
X83634748Y-61784518D01*
X83518056Y-61743685D01*
X83350003Y-61724751D01*
X83349997Y-61724751D01*
X83181943Y-61743685D01*
X83022305Y-61799545D01*
X83022302Y-61799547D01*
X82879115Y-61889518D01*
X82879109Y-61889523D01*
X82759523Y-62009109D01*
X82759518Y-62009115D01*
X82669547Y-62152302D01*
X82669545Y-62152305D01*
X82613685Y-62311943D01*
X82594751Y-62479997D01*
X82594751Y-62480002D01*
X79511141Y-62480002D01*
X79486478Y-62409521D01*
X79480456Y-62392310D01*
X79480455Y-62392309D01*
X79480454Y-62392305D01*
X79480452Y-62392302D01*
X79390481Y-62249115D01*
X79390476Y-62249109D01*
X79270890Y-62129523D01*
X79270884Y-62129518D01*
X79127697Y-62039547D01*
X79127694Y-62039545D01*
X78968056Y-61983685D01*
X78800003Y-61964751D01*
X78799997Y-61964751D01*
X78631943Y-61983685D01*
X78472305Y-62039545D01*
X78472302Y-62039547D01*
X78329115Y-62129518D01*
X78329109Y-62129523D01*
X78209523Y-62249109D01*
X78209518Y-62249115D01*
X78119547Y-62392302D01*
X78119545Y-62392305D01*
X78063685Y-62551943D01*
X78044751Y-62719997D01*
X78044751Y-62720002D01*
X67000500Y-62720002D01*
X67000500Y-61500002D01*
X70744751Y-61500002D01*
X70763685Y-61668056D01*
X70819545Y-61827694D01*
X70819547Y-61827697D01*
X70909518Y-61970884D01*
X70909523Y-61970890D01*
X71029109Y-62090476D01*
X71029115Y-62090481D01*
X71172302Y-62180452D01*
X71172305Y-62180454D01*
X71172309Y-62180455D01*
X71172310Y-62180456D01*
X71238026Y-62203451D01*
X71331943Y-62236314D01*
X71499997Y-62255249D01*
X71500000Y-62255249D01*
X71500003Y-62255249D01*
X71668056Y-62236314D01*
X71692702Y-62227690D01*
X71827690Y-62180456D01*
X71827692Y-62180454D01*
X71827694Y-62180454D01*
X71827697Y-62180452D01*
X71970884Y-62090481D01*
X71970888Y-62090478D01*
X71970890Y-62090477D01*
X72090477Y-61970890D01*
X72090481Y-61970884D01*
X72180452Y-61827697D01*
X72180454Y-61827694D01*
X72180454Y-61827692D01*
X72180456Y-61827690D01*
X72236313Y-61668059D01*
X72236313Y-61668058D01*
X72236314Y-61668056D01*
X72255249Y-61500002D01*
X72255249Y-61499997D01*
X72236314Y-61331945D01*
X72236313Y-61331941D01*
X72204475Y-61240952D01*
X72200914Y-61171173D01*
X72204476Y-61159043D01*
X72216388Y-61125002D01*
X76194751Y-61125002D01*
X76213685Y-61293056D01*
X76269545Y-61452694D01*
X76269547Y-61452697D01*
X76359518Y-61595884D01*
X76359523Y-61595890D01*
X76479109Y-61715476D01*
X76479115Y-61715481D01*
X76622302Y-61805452D01*
X76622305Y-61805454D01*
X76622309Y-61805455D01*
X76622310Y-61805456D01*
X76694913Y-61830860D01*
X76781943Y-61861314D01*
X76949997Y-61880249D01*
X76950000Y-61880249D01*
X76950003Y-61880249D01*
X77118056Y-61861314D01*
X77119845Y-61860688D01*
X77277690Y-61805456D01*
X77277692Y-61805454D01*
X77277694Y-61805454D01*
X77277697Y-61805452D01*
X77420884Y-61715481D01*
X77420885Y-61715480D01*
X77420890Y-61715477D01*
X77540477Y-61595890D01*
X77545399Y-61588057D01*
X77630452Y-61452697D01*
X77630454Y-61452694D01*
X77630454Y-61452692D01*
X77630456Y-61452690D01*
X77686313Y-61293059D01*
X77686313Y-61293058D01*
X77686314Y-61293056D01*
X77705249Y-61125002D01*
X77705249Y-61124997D01*
X77686314Y-60956943D01*
X77641726Y-60829518D01*
X77630456Y-60797310D01*
X77630455Y-60797309D01*
X77630454Y-60797305D01*
X77630452Y-60797302D01*
X77540481Y-60654115D01*
X77540476Y-60654109D01*
X77420890Y-60534523D01*
X77420884Y-60534518D01*
X77277697Y-60444547D01*
X77277694Y-60444545D01*
X77118056Y-60388685D01*
X76950003Y-60369751D01*
X76949997Y-60369751D01*
X76781943Y-60388685D01*
X76622305Y-60444545D01*
X76622302Y-60444547D01*
X76479115Y-60534518D01*
X76479109Y-60534523D01*
X76359523Y-60654109D01*
X76359518Y-60654115D01*
X76269547Y-60797302D01*
X76269545Y-60797305D01*
X76213685Y-60956943D01*
X76194751Y-61124997D01*
X76194751Y-61125002D01*
X72216388Y-61125002D01*
X72234826Y-61072310D01*
X72236313Y-61068059D01*
X72236313Y-61068058D01*
X72236314Y-61068056D01*
X72255249Y-60900002D01*
X72255249Y-60899997D01*
X72236314Y-60731945D01*
X72236313Y-60731941D01*
X72204475Y-60640952D01*
X72200914Y-60571173D01*
X72204476Y-60559043D01*
X72224200Y-60502677D01*
X72236313Y-60468059D01*
X72236313Y-60468058D01*
X72236314Y-60468056D01*
X72255249Y-60300002D01*
X72255249Y-60299997D01*
X72236313Y-60131940D01*
X72236313Y-60131939D01*
X72204476Y-60040955D01*
X72200914Y-59971176D01*
X72204476Y-59959045D01*
X72236313Y-59868060D01*
X72236313Y-59868059D01*
X72255249Y-59700002D01*
X72255249Y-59699997D01*
X72236314Y-59531943D01*
X72180454Y-59372305D01*
X72180452Y-59372302D01*
X72090481Y-59229115D01*
X72090476Y-59229109D01*
X71970890Y-59109523D01*
X71970884Y-59109518D01*
X71827697Y-59019547D01*
X71827694Y-59019545D01*
X71668056Y-58963685D01*
X71500003Y-58944751D01*
X71499997Y-58944751D01*
X71331943Y-58963685D01*
X71172305Y-59019545D01*
X71172302Y-59019547D01*
X71029115Y-59109518D01*
X71029109Y-59109523D01*
X70909523Y-59229109D01*
X70909518Y-59229115D01*
X70819547Y-59372302D01*
X70819545Y-59372305D01*
X70763685Y-59531943D01*
X70744751Y-59699997D01*
X70744751Y-59700002D01*
X70763686Y-59868058D01*
X70795523Y-59959047D01*
X70799084Y-60028826D01*
X70795523Y-60040953D01*
X70763686Y-60131941D01*
X70744751Y-60299997D01*
X70744751Y-60300002D01*
X70763686Y-60468056D01*
X70763686Y-60468058D01*
X70763687Y-60468059D01*
X70786941Y-60534518D01*
X70795524Y-60559045D01*
X70799085Y-60628824D01*
X70795524Y-60640952D01*
X70763686Y-60731941D01*
X70744751Y-60899997D01*
X70744751Y-60900002D01*
X70763686Y-61068056D01*
X70763686Y-61068058D01*
X70763687Y-61068059D01*
X70787578Y-61136338D01*
X70795524Y-61159045D01*
X70799085Y-61228824D01*
X70795524Y-61240952D01*
X70763686Y-61331941D01*
X70744751Y-61499997D01*
X70744751Y-61500002D01*
X67000500Y-61500002D01*
X67000500Y-58750002D01*
X86144751Y-58750002D01*
X86163685Y-58918056D01*
X86219545Y-59077694D01*
X86219547Y-59077697D01*
X86309518Y-59220884D01*
X86309523Y-59220890D01*
X86429109Y-59340476D01*
X86429115Y-59340481D01*
X86572302Y-59430452D01*
X86572305Y-59430454D01*
X86572309Y-59430455D01*
X86572310Y-59430456D01*
X86628341Y-59450062D01*
X86731943Y-59486314D01*
X86899997Y-59505249D01*
X86900000Y-59505249D01*
X86900003Y-59505249D01*
X87068056Y-59486314D01*
X87068059Y-59486313D01*
X87227690Y-59430456D01*
X87227692Y-59430454D01*
X87227694Y-59430454D01*
X87227697Y-59430452D01*
X87370884Y-59340481D01*
X87370885Y-59340480D01*
X87370890Y-59340477D01*
X87490477Y-59220890D01*
X87540745Y-59140890D01*
X87580452Y-59077697D01*
X87580454Y-59077694D01*
X87580454Y-59077692D01*
X87580456Y-59077690D01*
X87636313Y-58918059D01*
X87636313Y-58918058D01*
X87636314Y-58918056D01*
X87655249Y-58750002D01*
X87655249Y-58749997D01*
X87636314Y-58581943D01*
X87580454Y-58422305D01*
X87580452Y-58422302D01*
X87490481Y-58279115D01*
X87490476Y-58279109D01*
X87370890Y-58159523D01*
X87370884Y-58159518D01*
X87227697Y-58069547D01*
X87227694Y-58069545D01*
X87068056Y-58013685D01*
X86900003Y-57994751D01*
X86899997Y-57994751D01*
X86731943Y-58013685D01*
X86572305Y-58069545D01*
X86572302Y-58069547D01*
X86429115Y-58159518D01*
X86429109Y-58159523D01*
X86309523Y-58279109D01*
X86309518Y-58279115D01*
X86219547Y-58422302D01*
X86219545Y-58422305D01*
X86163685Y-58581943D01*
X86144751Y-58749997D01*
X86144751Y-58750002D01*
X67000500Y-58750002D01*
X67000500Y-56230936D01*
X68020631Y-56230936D01*
X68051442Y-56432063D01*
X68051445Y-56432075D01*
X68122111Y-56622881D01*
X68122113Y-56622884D01*
X68122114Y-56622887D01*
X68152916Y-56672305D01*
X68229745Y-56795567D01*
X68229749Y-56795572D01*
X68338580Y-56910062D01*
X68369941Y-56943053D01*
X68484359Y-57022690D01*
X68536949Y-57059294D01*
X68536950Y-57059294D01*
X68536951Y-57059295D01*
X68723942Y-57139540D01*
X68923259Y-57180500D01*
X69875743Y-57180500D01*
X70027439Y-57165074D01*
X70221579Y-57104162D01*
X70221580Y-57104161D01*
X70221588Y-57104159D01*
X70399502Y-57005409D01*
X70553895Y-56872866D01*
X70678448Y-56711958D01*
X70768060Y-56529271D01*
X70819063Y-56332285D01*
X70824203Y-56230936D01*
X72050631Y-56230936D01*
X72081442Y-56432063D01*
X72081445Y-56432075D01*
X72152111Y-56622881D01*
X72152113Y-56622884D01*
X72152114Y-56622887D01*
X72182916Y-56672305D01*
X72259745Y-56795567D01*
X72259749Y-56795572D01*
X72368580Y-56910062D01*
X72399941Y-56943053D01*
X72566951Y-57059295D01*
X72597329Y-57072331D01*
X72651173Y-57116857D01*
X72672396Y-57183426D01*
X72654261Y-57250901D01*
X72646806Y-57261767D01*
X72602301Y-57319767D01*
X72602300Y-57319769D01*
X72544313Y-57459763D01*
X72544312Y-57459765D01*
X72524534Y-57609999D01*
X72524534Y-57610000D01*
X72544312Y-57760234D01*
X72544313Y-57760236D01*
X72598947Y-57892135D01*
X72602302Y-57900233D01*
X72694549Y-58020451D01*
X72814767Y-58112698D01*
X72954764Y-58170687D01*
X73067280Y-58185500D01*
X73067287Y-58185500D01*
X73142713Y-58185500D01*
X73142720Y-58185500D01*
X73255236Y-58170687D01*
X73395233Y-58112698D01*
X73515451Y-58020451D01*
X73607698Y-57900233D01*
X73665687Y-57760236D01*
X73685466Y-57610000D01*
X73665687Y-57459764D01*
X73621030Y-57351953D01*
X73613561Y-57282483D01*
X73644836Y-57220004D01*
X73704925Y-57184352D01*
X73735591Y-57180500D01*
X74205743Y-57180500D01*
X74357439Y-57165074D01*
X74551579Y-57104162D01*
X74551580Y-57104161D01*
X74551588Y-57104159D01*
X74559078Y-57100002D01*
X76844751Y-57100002D01*
X76863685Y-57268056D01*
X76919545Y-57427694D01*
X76919547Y-57427697D01*
X77009518Y-57570884D01*
X77009523Y-57570890D01*
X77129109Y-57690476D01*
X77129115Y-57690481D01*
X77272302Y-57780452D01*
X77272305Y-57780454D01*
X77272309Y-57780455D01*
X77272310Y-57780456D01*
X77344913Y-57805860D01*
X77431943Y-57836314D01*
X77599997Y-57855249D01*
X77600000Y-57855249D01*
X77600003Y-57855249D01*
X77768056Y-57836314D01*
X77768059Y-57836313D01*
X77927690Y-57780456D01*
X77927692Y-57780454D01*
X77927694Y-57780454D01*
X77927697Y-57780452D01*
X78070884Y-57690481D01*
X78070885Y-57690480D01*
X78070890Y-57690477D01*
X78190477Y-57570890D01*
X78270005Y-57444321D01*
X78322341Y-57398030D01*
X78391395Y-57387382D01*
X78455243Y-57415757D01*
X78479994Y-57444321D01*
X78559523Y-57570890D01*
X78679109Y-57690476D01*
X78679115Y-57690481D01*
X78822302Y-57780452D01*
X78822305Y-57780454D01*
X78822309Y-57780455D01*
X78822310Y-57780456D01*
X78894913Y-57805860D01*
X78981943Y-57836314D01*
X79149997Y-57855249D01*
X79150000Y-57855249D01*
X79150003Y-57855249D01*
X79318056Y-57836314D01*
X79318059Y-57836313D01*
X79477690Y-57780456D01*
X79477692Y-57780454D01*
X79477694Y-57780454D01*
X79477697Y-57780452D01*
X79620884Y-57690481D01*
X79620885Y-57690480D01*
X79620890Y-57690477D01*
X79740477Y-57570890D01*
X79740481Y-57570884D01*
X79830452Y-57427697D01*
X79830454Y-57427694D01*
X79830454Y-57427692D01*
X79830456Y-57427690D01*
X79886313Y-57268059D01*
X79886313Y-57268058D01*
X79886314Y-57268056D01*
X79905249Y-57100002D01*
X79905249Y-57099997D01*
X79886314Y-56931943D01*
X79830454Y-56772305D01*
X79830452Y-56772302D01*
X79781881Y-56695002D01*
X81644751Y-56695002D01*
X81663685Y-56863056D01*
X81719545Y-57022694D01*
X81719547Y-57022697D01*
X81809518Y-57165884D01*
X81809523Y-57165890D01*
X81929109Y-57285476D01*
X81929115Y-57285481D01*
X82072302Y-57375452D01*
X82072305Y-57375454D01*
X82072309Y-57375455D01*
X82072310Y-57375456D01*
X82106393Y-57387382D01*
X82231943Y-57431314D01*
X82399997Y-57450249D01*
X82400000Y-57450249D01*
X82400003Y-57450249D01*
X82568056Y-57431314D01*
X82578393Y-57427697D01*
X82727690Y-57375456D01*
X82727692Y-57375454D01*
X82727694Y-57375454D01*
X82727697Y-57375452D01*
X82870884Y-57285481D01*
X82870885Y-57285480D01*
X82870890Y-57285477D01*
X82990477Y-57165890D01*
X82994869Y-57158901D01*
X83080452Y-57022697D01*
X83080454Y-57022694D01*
X83080454Y-57022692D01*
X83080456Y-57022690D01*
X83136313Y-56863059D01*
X83136313Y-56863058D01*
X83136314Y-56863056D01*
X83139902Y-56831213D01*
X92262721Y-56831213D01*
X92281655Y-56999267D01*
X92337515Y-57158905D01*
X92337517Y-57158908D01*
X92427488Y-57302095D01*
X92427493Y-57302101D01*
X92547079Y-57421687D01*
X92547085Y-57421692D01*
X92690272Y-57511663D01*
X92690275Y-57511665D01*
X92690279Y-57511666D01*
X92690280Y-57511667D01*
X92762883Y-57537071D01*
X92849913Y-57567525D01*
X93017967Y-57586460D01*
X93017970Y-57586460D01*
X93017973Y-57586460D01*
X93186026Y-57567525D01*
X93186029Y-57567524D01*
X93345660Y-57511667D01*
X93345662Y-57511665D01*
X93345664Y-57511665D01*
X93345667Y-57511663D01*
X93488854Y-57421692D01*
X93488855Y-57421691D01*
X93488860Y-57421688D01*
X93608447Y-57302101D01*
X93633791Y-57261767D01*
X93698422Y-57158908D01*
X93698424Y-57158905D01*
X93698424Y-57158903D01*
X93698426Y-57158901D01*
X93754027Y-57000002D01*
X94994751Y-57000002D01*
X95013685Y-57168056D01*
X95069545Y-57327694D01*
X95069547Y-57327697D01*
X95159518Y-57470884D01*
X95159523Y-57470890D01*
X95279109Y-57590476D01*
X95279115Y-57590481D01*
X95422302Y-57680452D01*
X95422305Y-57680454D01*
X95422309Y-57680455D01*
X95422310Y-57680456D01*
X95450946Y-57690476D01*
X95581943Y-57736314D01*
X95749997Y-57755249D01*
X95750000Y-57755249D01*
X95750001Y-57755249D01*
X95771186Y-57752861D01*
X95824362Y-57746870D01*
X95893184Y-57758924D01*
X95944564Y-57806273D01*
X95962189Y-57873883D01*
X95940463Y-57940289D01*
X95886284Y-57984407D01*
X95879207Y-57987130D01*
X95872310Y-57989543D01*
X95872302Y-57989547D01*
X95729115Y-58079518D01*
X95729109Y-58079523D01*
X95609523Y-58199109D01*
X95609518Y-58199115D01*
X95519547Y-58342302D01*
X95519545Y-58342305D01*
X95463685Y-58501943D01*
X95444751Y-58669997D01*
X95444751Y-58670002D01*
X95463685Y-58838056D01*
X95519545Y-58997694D01*
X95519547Y-58997697D01*
X95609518Y-59140884D01*
X95609523Y-59140890D01*
X95729109Y-59260476D01*
X95729115Y-59260481D01*
X95872302Y-59350452D01*
X95872305Y-59350454D01*
X95872309Y-59350455D01*
X95872310Y-59350456D01*
X95944913Y-59375860D01*
X96031943Y-59406314D01*
X96199997Y-59425249D01*
X96200000Y-59425249D01*
X96200003Y-59425249D01*
X96368056Y-59406314D01*
X96368059Y-59406313D01*
X96527690Y-59350456D01*
X96527692Y-59350454D01*
X96527694Y-59350454D01*
X96527697Y-59350452D01*
X96670884Y-59260481D01*
X96670885Y-59260480D01*
X96670890Y-59260477D01*
X96790477Y-59140890D01*
X96790481Y-59140884D01*
X96880452Y-58997697D01*
X96880454Y-58997694D01*
X96880454Y-58997692D01*
X96880456Y-58997690D01*
X96936313Y-58838059D01*
X96936313Y-58838058D01*
X96936314Y-58838056D01*
X96955249Y-58670002D01*
X96955249Y-58669997D01*
X96936314Y-58501943D01*
X96880454Y-58342305D01*
X96880452Y-58342302D01*
X96790481Y-58199115D01*
X96790476Y-58199109D01*
X96670890Y-58079523D01*
X96670884Y-58079518D01*
X96527697Y-57989547D01*
X96527694Y-57989545D01*
X96368056Y-57933685D01*
X96200003Y-57914751D01*
X96199996Y-57914751D01*
X96125635Y-57923129D01*
X96056813Y-57911074D01*
X96005434Y-57863725D01*
X95987810Y-57796114D01*
X96009537Y-57729709D01*
X96063716Y-57685591D01*
X96070796Y-57682868D01*
X96077690Y-57680456D01*
X96077695Y-57680452D01*
X96077697Y-57680452D01*
X96220884Y-57590481D01*
X96220885Y-57590480D01*
X96220890Y-57590477D01*
X96340477Y-57470890D01*
X96340481Y-57470884D01*
X96430452Y-57327697D01*
X96430454Y-57327694D01*
X96430454Y-57327692D01*
X96430456Y-57327690D01*
X96486313Y-57168059D01*
X96486313Y-57168058D01*
X96486314Y-57168056D01*
X96505249Y-57000002D01*
X96505249Y-56999997D01*
X96486314Y-56831943D01*
X96438396Y-56695002D01*
X96430456Y-56672310D01*
X96430455Y-56672309D01*
X96430454Y-56672305D01*
X96430452Y-56672302D01*
X96340481Y-56529115D01*
X96340476Y-56529109D01*
X96220890Y-56409523D01*
X96220884Y-56409518D01*
X96077697Y-56319547D01*
X96077694Y-56319545D01*
X95918056Y-56263685D01*
X95750003Y-56244751D01*
X95749997Y-56244751D01*
X95581943Y-56263685D01*
X95422305Y-56319545D01*
X95422302Y-56319547D01*
X95279115Y-56409518D01*
X95279109Y-56409523D01*
X95159523Y-56529109D01*
X95159518Y-56529115D01*
X95069547Y-56672302D01*
X95069545Y-56672305D01*
X95013685Y-56831943D01*
X94994751Y-56999997D01*
X94994751Y-57000002D01*
X93754027Y-57000002D01*
X93754283Y-56999270D01*
X93754283Y-56999269D01*
X93754284Y-56999267D01*
X93773219Y-56831213D01*
X93773219Y-56831208D01*
X93754284Y-56663154D01*
X93707380Y-56529110D01*
X93698426Y-56503521D01*
X93698425Y-56503520D01*
X93698424Y-56503516D01*
X93698422Y-56503513D01*
X93608451Y-56360326D01*
X93608446Y-56360320D01*
X93488860Y-56240734D01*
X93488854Y-56240729D01*
X93345667Y-56150758D01*
X93345664Y-56150756D01*
X93186026Y-56094896D01*
X93017973Y-56075962D01*
X93017967Y-56075962D01*
X92849913Y-56094896D01*
X92690275Y-56150756D01*
X92690272Y-56150758D01*
X92547085Y-56240729D01*
X92547079Y-56240734D01*
X92427493Y-56360320D01*
X92427488Y-56360326D01*
X92337517Y-56503513D01*
X92337515Y-56503516D01*
X92281655Y-56663154D01*
X92262721Y-56831208D01*
X92262721Y-56831213D01*
X83139902Y-56831213D01*
X83155249Y-56695002D01*
X83155249Y-56694997D01*
X83136314Y-56526943D01*
X83095225Y-56409518D01*
X83080456Y-56367310D01*
X83080455Y-56367309D01*
X83080454Y-56367305D01*
X83080452Y-56367302D01*
X82990481Y-56224115D01*
X82990476Y-56224109D01*
X82870890Y-56104523D01*
X82870884Y-56104518D01*
X82727697Y-56014547D01*
X82727694Y-56014545D01*
X82568056Y-55958685D01*
X82400003Y-55939751D01*
X82399997Y-55939751D01*
X82231943Y-55958685D01*
X82072305Y-56014545D01*
X82072302Y-56014547D01*
X81929115Y-56104518D01*
X81929109Y-56104523D01*
X81809523Y-56224109D01*
X81809518Y-56224115D01*
X81719547Y-56367302D01*
X81719545Y-56367305D01*
X81663685Y-56526943D01*
X81644751Y-56694997D01*
X81644751Y-56695002D01*
X79781881Y-56695002D01*
X79740481Y-56629115D01*
X79740476Y-56629109D01*
X79620890Y-56509523D01*
X79620884Y-56509518D01*
X79477697Y-56419547D01*
X79477694Y-56419545D01*
X79318056Y-56363685D01*
X79150003Y-56344751D01*
X79149997Y-56344751D01*
X78981943Y-56363685D01*
X78822305Y-56419545D01*
X78822302Y-56419547D01*
X78679115Y-56509518D01*
X78679109Y-56509523D01*
X78559523Y-56629109D01*
X78559521Y-56629112D01*
X78479992Y-56755679D01*
X78427657Y-56801970D01*
X78358603Y-56812617D01*
X78294755Y-56784241D01*
X78270005Y-56755678D01*
X78254156Y-56730454D01*
X78190477Y-56629110D01*
X78070890Y-56509523D01*
X78070884Y-56509518D01*
X77927697Y-56419547D01*
X77927694Y-56419545D01*
X77768056Y-56363685D01*
X77600003Y-56344751D01*
X77599997Y-56344751D01*
X77431943Y-56363685D01*
X77272305Y-56419545D01*
X77272302Y-56419547D01*
X77129115Y-56509518D01*
X77129109Y-56509523D01*
X77009523Y-56629109D01*
X77009518Y-56629115D01*
X76919547Y-56772302D01*
X76919545Y-56772305D01*
X76863685Y-56931943D01*
X76844751Y-57099997D01*
X76844751Y-57100002D01*
X74559078Y-57100002D01*
X74729502Y-57005409D01*
X74883895Y-56872866D01*
X75008448Y-56711958D01*
X75098060Y-56529271D01*
X75149063Y-56332285D01*
X75159369Y-56129064D01*
X75128556Y-55927929D01*
X75092557Y-55830728D01*
X75057888Y-55737118D01*
X75057887Y-55737117D01*
X75057886Y-55737113D01*
X74950252Y-55564429D01*
X74810059Y-55416947D01*
X74685788Y-55330452D01*
X74643050Y-55300705D01*
X74456056Y-55220459D01*
X74256741Y-55179500D01*
X73004258Y-55179500D01*
X73004257Y-55179500D01*
X72852560Y-55194925D01*
X72658420Y-55255837D01*
X72658405Y-55255844D01*
X72480500Y-55354589D01*
X72480495Y-55354592D01*
X72326106Y-55487132D01*
X72326104Y-55487134D01*
X72201554Y-55648037D01*
X72201553Y-55648040D01*
X72111940Y-55830728D01*
X72060937Y-56027714D01*
X72050631Y-56230936D01*
X70824203Y-56230936D01*
X70829369Y-56129064D01*
X70798556Y-55927929D01*
X70762557Y-55830728D01*
X70727888Y-55737118D01*
X70727887Y-55737117D01*
X70727886Y-55737113D01*
X70620252Y-55564429D01*
X70480059Y-55416947D01*
X70355788Y-55330452D01*
X70313050Y-55300705D01*
X70126056Y-55220459D01*
X69926741Y-55179500D01*
X68974258Y-55179500D01*
X68974257Y-55179500D01*
X68822560Y-55194925D01*
X68628420Y-55255837D01*
X68628405Y-55255844D01*
X68450500Y-55354589D01*
X68450495Y-55354592D01*
X68296106Y-55487132D01*
X68296104Y-55487134D01*
X68171554Y-55648037D01*
X68171553Y-55648040D01*
X68081940Y-55830728D01*
X68030937Y-56027714D01*
X68020631Y-56230936D01*
X67000500Y-56230936D01*
X67000500Y-54200000D01*
X79900000Y-54200000D01*
X80057271Y-54200000D01*
X80124310Y-54219685D01*
X80144952Y-54236319D01*
X80249109Y-54340476D01*
X80249115Y-54340481D01*
X80392302Y-54430452D01*
X80392305Y-54430454D01*
X80392309Y-54430455D01*
X80392310Y-54430456D01*
X80540873Y-54482440D01*
X80551944Y-54486314D01*
X80693801Y-54502297D01*
X80758215Y-54529363D01*
X80797770Y-54586958D01*
X80799908Y-54656795D01*
X80763950Y-54716701D01*
X80720873Y-54742558D01*
X80572313Y-54794542D01*
X80572302Y-54794547D01*
X80429115Y-54884518D01*
X80429109Y-54884523D01*
X80309523Y-55004109D01*
X80309518Y-55004115D01*
X80219547Y-55147302D01*
X80219545Y-55147305D01*
X80163685Y-55306943D01*
X80144751Y-55474997D01*
X80144751Y-55475002D01*
X80163685Y-55643056D01*
X80219545Y-55802694D01*
X80219547Y-55802697D01*
X80309518Y-55945884D01*
X80309523Y-55945890D01*
X80429109Y-56065476D01*
X80429115Y-56065481D01*
X80572302Y-56155452D01*
X80572305Y-56155454D01*
X80572309Y-56155455D01*
X80572310Y-56155456D01*
X80644913Y-56180860D01*
X80731943Y-56211314D01*
X80899997Y-56230249D01*
X80900000Y-56230249D01*
X80900003Y-56230249D01*
X81068056Y-56211314D01*
X81068059Y-56211313D01*
X81227690Y-56155456D01*
X81227692Y-56155454D01*
X81227694Y-56155454D01*
X81227697Y-56155452D01*
X81370884Y-56065481D01*
X81370885Y-56065480D01*
X81370890Y-56065477D01*
X81490477Y-55945890D01*
X81490481Y-55945884D01*
X81580452Y-55802697D01*
X81580454Y-55802694D01*
X81580454Y-55802692D01*
X81580456Y-55802690D01*
X81636313Y-55643059D01*
X81636313Y-55643058D01*
X81636314Y-55643056D01*
X81655249Y-55475002D01*
X81655249Y-55474997D01*
X81636314Y-55306943D01*
X81633885Y-55300002D01*
X85194751Y-55300002D01*
X85213685Y-55468056D01*
X85269545Y-55627694D01*
X85269547Y-55627697D01*
X85359518Y-55770884D01*
X85359523Y-55770890D01*
X85479109Y-55890476D01*
X85479115Y-55890481D01*
X85622302Y-55980452D01*
X85622305Y-55980454D01*
X85622309Y-55980455D01*
X85622310Y-55980456D01*
X85694913Y-56005860D01*
X85781943Y-56036314D01*
X85949997Y-56055249D01*
X85950000Y-56055249D01*
X85950003Y-56055249D01*
X85996571Y-56050002D01*
X96944751Y-56050002D01*
X96963685Y-56218056D01*
X97019545Y-56377694D01*
X97019547Y-56377697D01*
X97109518Y-56520884D01*
X97109523Y-56520890D01*
X97229109Y-56640476D01*
X97229115Y-56640481D01*
X97372302Y-56730452D01*
X97372305Y-56730454D01*
X97372309Y-56730455D01*
X97372310Y-56730456D01*
X97444391Y-56755678D01*
X97531943Y-56786314D01*
X97699997Y-56805249D01*
X97700000Y-56805249D01*
X97700003Y-56805249D01*
X97868056Y-56786314D01*
X97908077Y-56772310D01*
X98027690Y-56730456D01*
X98027692Y-56730454D01*
X98027694Y-56730454D01*
X98027697Y-56730452D01*
X98170884Y-56640481D01*
X98170885Y-56640480D01*
X98170890Y-56640477D01*
X98290477Y-56520890D01*
X98290481Y-56520884D01*
X98380452Y-56377697D01*
X98380454Y-56377694D01*
X98380454Y-56377692D01*
X98380456Y-56377690D01*
X98436313Y-56218059D01*
X98436313Y-56218058D01*
X98436314Y-56218056D01*
X98455249Y-56050002D01*
X98455249Y-56049997D01*
X98436314Y-55881943D01*
X98397453Y-55770884D01*
X98380456Y-55722310D01*
X98380455Y-55722309D01*
X98380454Y-55722305D01*
X98380452Y-55722302D01*
X98290481Y-55579115D01*
X98290476Y-55579109D01*
X98170890Y-55459523D01*
X98170884Y-55459518D01*
X98027697Y-55369547D01*
X98027694Y-55369545D01*
X97868056Y-55313685D01*
X97700003Y-55294751D01*
X97699997Y-55294751D01*
X97531943Y-55313685D01*
X97372305Y-55369545D01*
X97372302Y-55369547D01*
X97229115Y-55459518D01*
X97229109Y-55459523D01*
X97109523Y-55579109D01*
X97109518Y-55579115D01*
X97019547Y-55722302D01*
X97019545Y-55722305D01*
X96963685Y-55881943D01*
X96944751Y-56049997D01*
X96944751Y-56050002D01*
X85996571Y-56050002D01*
X86118056Y-56036314D01*
X86118059Y-56036313D01*
X86277690Y-55980456D01*
X86277692Y-55980454D01*
X86277694Y-55980454D01*
X86277697Y-55980452D01*
X86420884Y-55890481D01*
X86420885Y-55890480D01*
X86420890Y-55890477D01*
X86540477Y-55770890D01*
X86540481Y-55770884D01*
X86630452Y-55627697D01*
X86630454Y-55627694D01*
X86630454Y-55627692D01*
X86630456Y-55627690D01*
X86686313Y-55468059D01*
X86686313Y-55468058D01*
X86686314Y-55468056D01*
X86705249Y-55300002D01*
X86705249Y-55299997D01*
X86686314Y-55131943D01*
X86632340Y-54977694D01*
X86630456Y-54972310D01*
X86630455Y-54972309D01*
X86630454Y-54972305D01*
X86630452Y-54972302D01*
X86540481Y-54829115D01*
X86540476Y-54829109D01*
X86420890Y-54709523D01*
X86420884Y-54709518D01*
X86277697Y-54619547D01*
X86277694Y-54619545D01*
X86118056Y-54563685D01*
X85996609Y-54550002D01*
X88764751Y-54550002D01*
X88783685Y-54718056D01*
X88839545Y-54877694D01*
X88839547Y-54877697D01*
X88929518Y-55020884D01*
X88929523Y-55020890D01*
X89049109Y-55140476D01*
X89049115Y-55140481D01*
X89192302Y-55230452D01*
X89192305Y-55230454D01*
X89192309Y-55230455D01*
X89192310Y-55230456D01*
X89220946Y-55240476D01*
X89351943Y-55286314D01*
X89519997Y-55305249D01*
X89520000Y-55305249D01*
X89520003Y-55305249D01*
X89688056Y-55286314D01*
X89688059Y-55286313D01*
X89847690Y-55230456D01*
X89847692Y-55230454D01*
X89847694Y-55230454D01*
X89847697Y-55230452D01*
X89990884Y-55140481D01*
X89990885Y-55140480D01*
X89990890Y-55140477D01*
X90110477Y-55020890D01*
X90110481Y-55020884D01*
X90200452Y-54877697D01*
X90200454Y-54877694D01*
X90200454Y-54877692D01*
X90200456Y-54877690D01*
X90256313Y-54718059D01*
X90256313Y-54718058D01*
X90256314Y-54718056D01*
X90275249Y-54550002D01*
X90275249Y-54549997D01*
X90256314Y-54381943D01*
X90200454Y-54222305D01*
X90200452Y-54222302D01*
X90110481Y-54079115D01*
X90110476Y-54079109D01*
X89990890Y-53959523D01*
X89990884Y-53959518D01*
X89847697Y-53869547D01*
X89847694Y-53869545D01*
X89791844Y-53850002D01*
X91194751Y-53850002D01*
X91213685Y-54018056D01*
X91235051Y-54079115D01*
X91262209Y-54156729D01*
X91269545Y-54177692D01*
X91302392Y-54229969D01*
X91321392Y-54297206D01*
X91314440Y-54336894D01*
X91263686Y-54481942D01*
X91244751Y-54649997D01*
X91244751Y-54650002D01*
X91263685Y-54818056D01*
X91319545Y-54977694D01*
X91319547Y-54977697D01*
X91409518Y-55120884D01*
X91409523Y-55120890D01*
X91529109Y-55240476D01*
X91529115Y-55240481D01*
X91672302Y-55330452D01*
X91672305Y-55330454D01*
X91672309Y-55330455D01*
X91672310Y-55330456D01*
X91741279Y-55354589D01*
X91831943Y-55386314D01*
X91999997Y-55405249D01*
X92000000Y-55405249D01*
X92000003Y-55405249D01*
X92168056Y-55386314D01*
X92168059Y-55386313D01*
X92327690Y-55330456D01*
X92327692Y-55330454D01*
X92327694Y-55330454D01*
X92327697Y-55330452D01*
X92470884Y-55240481D01*
X92470885Y-55240480D01*
X92470890Y-55240477D01*
X92590477Y-55120890D01*
X92590481Y-55120884D01*
X92680452Y-54977697D01*
X92680454Y-54977694D01*
X92680454Y-54977692D01*
X92680456Y-54977690D01*
X92736313Y-54818059D01*
X92736313Y-54818058D01*
X92736314Y-54818056D01*
X92755249Y-54650002D01*
X92755249Y-54649997D01*
X92746982Y-54576628D01*
X92759036Y-54507806D01*
X92806385Y-54456427D01*
X92873995Y-54438802D01*
X92936175Y-54457751D01*
X92972306Y-54480454D01*
X92972307Y-54480454D01*
X92972310Y-54480456D01*
X93078730Y-54517693D01*
X93131943Y-54536314D01*
X93299997Y-54555249D01*
X93300000Y-54555249D01*
X93300003Y-54555249D01*
X93468056Y-54536314D01*
X93492682Y-54527697D01*
X93627690Y-54480456D01*
X93627692Y-54480454D01*
X93627694Y-54480454D01*
X93627697Y-54480452D01*
X93770884Y-54390481D01*
X93770885Y-54390480D01*
X93770890Y-54390477D01*
X93890477Y-54270890D01*
X93921007Y-54222302D01*
X93935020Y-54200000D01*
X95794751Y-54200000D01*
X95813685Y-54368056D01*
X95869545Y-54527694D01*
X95869547Y-54527697D01*
X95959518Y-54670884D01*
X95959523Y-54670890D01*
X96079109Y-54790476D01*
X96079115Y-54790481D01*
X96222302Y-54880452D01*
X96222305Y-54880454D01*
X96222309Y-54880455D01*
X96222310Y-54880456D01*
X96233919Y-54884518D01*
X96381943Y-54936314D01*
X96549997Y-54955249D01*
X96550000Y-54955249D01*
X96550003Y-54955249D01*
X96718056Y-54936314D01*
X96718059Y-54936313D01*
X96877690Y-54880456D01*
X96877692Y-54880454D01*
X96877694Y-54880454D01*
X96877697Y-54880452D01*
X97020884Y-54790481D01*
X97020885Y-54790480D01*
X97020890Y-54790477D01*
X97140477Y-54670890D01*
X97172738Y-54619547D01*
X97230452Y-54527697D01*
X97230454Y-54527694D01*
X97230454Y-54527692D01*
X97230456Y-54527690D01*
X97286313Y-54368059D01*
X97286313Y-54368058D01*
X97286314Y-54368056D01*
X97305249Y-54200000D01*
X97305249Y-54199997D01*
X97286314Y-54031943D01*
X97246463Y-53918056D01*
X97230456Y-53872310D01*
X97230455Y-53872309D01*
X97230454Y-53872305D01*
X97230452Y-53872302D01*
X97140481Y-53729115D01*
X97140476Y-53729109D01*
X97020890Y-53609523D01*
X97020884Y-53609518D01*
X96877697Y-53519547D01*
X96877694Y-53519545D01*
X96718056Y-53463685D01*
X96550003Y-53444751D01*
X96549997Y-53444751D01*
X96381943Y-53463685D01*
X96222305Y-53519545D01*
X96222302Y-53519547D01*
X96079115Y-53609518D01*
X96079109Y-53609523D01*
X95959523Y-53729109D01*
X95959518Y-53729115D01*
X95869547Y-53872302D01*
X95869545Y-53872305D01*
X95813685Y-54031943D01*
X95794751Y-54199997D01*
X95794751Y-54200000D01*
X93935020Y-54200000D01*
X93980452Y-54127697D01*
X93980454Y-54127694D01*
X93980454Y-54127692D01*
X93980456Y-54127690D01*
X94036313Y-53968059D01*
X94036313Y-53968058D01*
X94036314Y-53968056D01*
X94055249Y-53800002D01*
X94055249Y-53799997D01*
X94036314Y-53631943D01*
X93980454Y-53472305D01*
X93980452Y-53472302D01*
X93890481Y-53329115D01*
X93890476Y-53329109D01*
X93770890Y-53209523D01*
X93770884Y-53209518D01*
X93627697Y-53119547D01*
X93627694Y-53119545D01*
X93468056Y-53063685D01*
X93300003Y-53044751D01*
X93299997Y-53044751D01*
X93131943Y-53063685D01*
X92972305Y-53119545D01*
X92972302Y-53119547D01*
X92829115Y-53209518D01*
X92829109Y-53209523D01*
X92709523Y-53329109D01*
X92709522Y-53329111D01*
X92707722Y-53331976D01*
X92706077Y-53333430D01*
X92705180Y-53334556D01*
X92704982Y-53334398D01*
X92655386Y-53378266D01*
X92586332Y-53388912D01*
X92522485Y-53360535D01*
X92515049Y-53353682D01*
X92420890Y-53259523D01*
X92420884Y-53259518D01*
X92277697Y-53169547D01*
X92277694Y-53169545D01*
X92118056Y-53113685D01*
X91950003Y-53094751D01*
X91949997Y-53094751D01*
X91781943Y-53113685D01*
X91622305Y-53169545D01*
X91622302Y-53169547D01*
X91479115Y-53259518D01*
X91479109Y-53259523D01*
X91359523Y-53379109D01*
X91359518Y-53379115D01*
X91269547Y-53522302D01*
X91269545Y-53522305D01*
X91213685Y-53681943D01*
X91194751Y-53849997D01*
X91194751Y-53850002D01*
X89791844Y-53850002D01*
X89688056Y-53813685D01*
X89520003Y-53794751D01*
X89519997Y-53794751D01*
X89351943Y-53813685D01*
X89192305Y-53869545D01*
X89192302Y-53869547D01*
X89049115Y-53959518D01*
X89049109Y-53959523D01*
X88929523Y-54079109D01*
X88929518Y-54079115D01*
X88839547Y-54222302D01*
X88839545Y-54222305D01*
X88783685Y-54381943D01*
X88764751Y-54549997D01*
X88764751Y-54550002D01*
X85996609Y-54550002D01*
X85950003Y-54544751D01*
X85949997Y-54544751D01*
X85781943Y-54563685D01*
X85622305Y-54619545D01*
X85622302Y-54619547D01*
X85479115Y-54709518D01*
X85479109Y-54709523D01*
X85359523Y-54829109D01*
X85359518Y-54829115D01*
X85269547Y-54972302D01*
X85269545Y-54972305D01*
X85213685Y-55131943D01*
X85194751Y-55299997D01*
X85194751Y-55300002D01*
X81633885Y-55300002D01*
X81580454Y-55147305D01*
X81580452Y-55147302D01*
X81490481Y-55004115D01*
X81490476Y-55004109D01*
X81370890Y-54884523D01*
X81370884Y-54884518D01*
X81227697Y-54794547D01*
X81227694Y-54794545D01*
X81068056Y-54738685D01*
X80926197Y-54722702D01*
X80861783Y-54695635D01*
X80822228Y-54638040D01*
X80820091Y-54568203D01*
X80856049Y-54508297D01*
X80899127Y-54482440D01*
X81047690Y-54430456D01*
X81047693Y-54430453D01*
X81047697Y-54430452D01*
X81190884Y-54340481D01*
X81190885Y-54340480D01*
X81190890Y-54340477D01*
X81310477Y-54220890D01*
X81311234Y-54219685D01*
X81400452Y-54077697D01*
X81400454Y-54077694D01*
X81400454Y-54077692D01*
X81400456Y-54077690D01*
X81456313Y-53918059D01*
X81456313Y-53918058D01*
X81456314Y-53918056D01*
X81475249Y-53750002D01*
X81475249Y-53749997D01*
X81456314Y-53581943D01*
X81400454Y-53422305D01*
X81400452Y-53422302D01*
X81336172Y-53320002D01*
X86094751Y-53320002D01*
X86113685Y-53488056D01*
X86169545Y-53647694D01*
X86169547Y-53647697D01*
X86259518Y-53790884D01*
X86259523Y-53790890D01*
X86379109Y-53910476D01*
X86379115Y-53910481D01*
X86522302Y-54000452D01*
X86522305Y-54000454D01*
X86522309Y-54000455D01*
X86522310Y-54000456D01*
X86572608Y-54018056D01*
X86681943Y-54056314D01*
X86849997Y-54075249D01*
X86850000Y-54075249D01*
X86850003Y-54075249D01*
X87018056Y-54056314D01*
X87018059Y-54056313D01*
X87177690Y-54000456D01*
X87177692Y-54000454D01*
X87177694Y-54000454D01*
X87177697Y-54000452D01*
X87320884Y-53910481D01*
X87320885Y-53910480D01*
X87320890Y-53910477D01*
X87440477Y-53790890D01*
X87506187Y-53686314D01*
X87530452Y-53647697D01*
X87530454Y-53647694D01*
X87530454Y-53647692D01*
X87530456Y-53647690D01*
X87586313Y-53488059D01*
X87586313Y-53488058D01*
X87586314Y-53488056D01*
X87605249Y-53320002D01*
X87605249Y-53319997D01*
X87586314Y-53151943D01*
X87530454Y-52992305D01*
X87530452Y-52992302D01*
X87440481Y-52849115D01*
X87440476Y-52849109D01*
X87320890Y-52729523D01*
X87320884Y-52729518D01*
X87177697Y-52639547D01*
X87177694Y-52639545D01*
X87018056Y-52583685D01*
X86850003Y-52564751D01*
X86849997Y-52564751D01*
X86681943Y-52583685D01*
X86522305Y-52639545D01*
X86522302Y-52639547D01*
X86379115Y-52729518D01*
X86379109Y-52729523D01*
X86259523Y-52849109D01*
X86259518Y-52849115D01*
X86169547Y-52992302D01*
X86169545Y-52992305D01*
X86113685Y-53151943D01*
X86094751Y-53319997D01*
X86094751Y-53320002D01*
X81336172Y-53320002D01*
X81310481Y-53279115D01*
X81310476Y-53279109D01*
X81190890Y-53159523D01*
X81190884Y-53159518D01*
X81047697Y-53069547D01*
X81047694Y-53069545D01*
X80888056Y-53013685D01*
X80720003Y-52994751D01*
X80719997Y-52994751D01*
X80551943Y-53013685D01*
X80392307Y-53069545D01*
X80292589Y-53132203D01*
X80225353Y-53151203D01*
X80158517Y-53130835D01*
X80113303Y-53077568D01*
X80102617Y-53027310D01*
X80102554Y-52950002D01*
X80102068Y-52350002D01*
X82694751Y-52350002D01*
X82713685Y-52518056D01*
X82769545Y-52677694D01*
X82769547Y-52677697D01*
X82859518Y-52820884D01*
X82859523Y-52820890D01*
X82979109Y-52940476D01*
X82979115Y-52940481D01*
X83122302Y-53030452D01*
X83122305Y-53030454D01*
X83122309Y-53030455D01*
X83122310Y-53030456D01*
X83163163Y-53044751D01*
X83281943Y-53086314D01*
X83449997Y-53105249D01*
X83450000Y-53105249D01*
X83450003Y-53105249D01*
X83618056Y-53086314D01*
X83643051Y-53077568D01*
X83777690Y-53030456D01*
X83777692Y-53030454D01*
X83777694Y-53030454D01*
X83777697Y-53030452D01*
X83920884Y-52940481D01*
X83920885Y-52940480D01*
X83920890Y-52940477D01*
X84040477Y-52820890D01*
X84064949Y-52781943D01*
X84130452Y-52677697D01*
X84130454Y-52677694D01*
X84130454Y-52677692D01*
X84130456Y-52677690D01*
X84186313Y-52518059D01*
X84186313Y-52518058D01*
X84186314Y-52518056D01*
X84205249Y-52350002D01*
X84205249Y-52349997D01*
X84186314Y-52181943D01*
X84142786Y-52057547D01*
X84130456Y-52022310D01*
X84130455Y-52022309D01*
X84130454Y-52022305D01*
X84130452Y-52022302D01*
X84040481Y-51879115D01*
X84040476Y-51879109D01*
X83920890Y-51759523D01*
X83920884Y-51759518D01*
X83777697Y-51669547D01*
X83777694Y-51669545D01*
X83618056Y-51613685D01*
X83450003Y-51594751D01*
X83449997Y-51594751D01*
X83281943Y-51613685D01*
X83122305Y-51669545D01*
X83122302Y-51669547D01*
X82979115Y-51759518D01*
X82979109Y-51759523D01*
X82859523Y-51879109D01*
X82859518Y-51879115D01*
X82769547Y-52022302D01*
X82769545Y-52022305D01*
X82713685Y-52181943D01*
X82694751Y-52349997D01*
X82694751Y-52350002D01*
X80102068Y-52350002D01*
X80101054Y-51100000D01*
X80100101Y-49924101D01*
X80119731Y-49857045D01*
X80172498Y-49811247D01*
X80224101Y-49800000D01*
X80761724Y-49800000D01*
X80828763Y-49819685D01*
X80874518Y-49872489D01*
X80884462Y-49941647D01*
X80855437Y-50005203D01*
X80827697Y-50028993D01*
X80779112Y-50059521D01*
X80779109Y-50059523D01*
X80659523Y-50179109D01*
X80659518Y-50179115D01*
X80569547Y-50322302D01*
X80569545Y-50322305D01*
X80513685Y-50481943D01*
X80494751Y-50649997D01*
X80494751Y-50650002D01*
X80513685Y-50818056D01*
X80569545Y-50977694D01*
X80569547Y-50977697D01*
X80659518Y-51120884D01*
X80659523Y-51120890D01*
X80779109Y-51240476D01*
X80779115Y-51240481D01*
X80922302Y-51330452D01*
X80922305Y-51330454D01*
X80922309Y-51330455D01*
X80922310Y-51330456D01*
X80976755Y-51349507D01*
X81081943Y-51386314D01*
X81249997Y-51405249D01*
X81250000Y-51405249D01*
X81250003Y-51405249D01*
X81418056Y-51386314D01*
X81418059Y-51386313D01*
X81577690Y-51330456D01*
X81577692Y-51330454D01*
X81577694Y-51330454D01*
X81577697Y-51330452D01*
X81720884Y-51240481D01*
X81720885Y-51240480D01*
X81720890Y-51240477D01*
X81840477Y-51120890D01*
X81865972Y-51080315D01*
X81930452Y-50977697D01*
X81930454Y-50977694D01*
X81930454Y-50977692D01*
X81930456Y-50977690D01*
X81986313Y-50818059D01*
X81986313Y-50818058D01*
X81986314Y-50818056D01*
X82005249Y-50650002D01*
X82005249Y-50649997D01*
X81986314Y-50481943D01*
X81930454Y-50322305D01*
X81930452Y-50322302D01*
X81840481Y-50179115D01*
X81840476Y-50179109D01*
X81720890Y-50059523D01*
X81720887Y-50059521D01*
X81672303Y-50028993D01*
X81626012Y-49976658D01*
X81615365Y-49907605D01*
X81643740Y-49843756D01*
X81702131Y-49805385D01*
X81738276Y-49800000D01*
X84194579Y-49800000D01*
X84261618Y-49819685D01*
X84307373Y-49872489D01*
X84317317Y-49941647D01*
X84311620Y-49964955D01*
X84263686Y-50101938D01*
X84263686Y-50101940D01*
X84244751Y-50269997D01*
X84244751Y-50270002D01*
X84263685Y-50438056D01*
X84319545Y-50597694D01*
X84319547Y-50597697D01*
X84409518Y-50740884D01*
X84409523Y-50740890D01*
X84529109Y-50860476D01*
X84529115Y-50860481D01*
X84672302Y-50950452D01*
X84672305Y-50950454D01*
X84672309Y-50950455D01*
X84672310Y-50950456D01*
X84726432Y-50969394D01*
X84831943Y-51006314D01*
X84999997Y-51025249D01*
X85000000Y-51025249D01*
X85000003Y-51025249D01*
X85168056Y-51006314D01*
X85249839Y-50977697D01*
X85327690Y-50950456D01*
X85327691Y-50950455D01*
X85334262Y-50948156D01*
X85335247Y-50950972D01*
X85391021Y-50941733D01*
X85455183Y-50969394D01*
X85494204Y-51027352D01*
X85500000Y-51064820D01*
X85500000Y-53300000D01*
X85700000Y-53300000D01*
X85700000Y-51950002D01*
X87219751Y-51950002D01*
X87238685Y-52118056D01*
X87294545Y-52277694D01*
X87294547Y-52277697D01*
X87384518Y-52420884D01*
X87384523Y-52420890D01*
X87504109Y-52540476D01*
X87504115Y-52540481D01*
X87647302Y-52630452D01*
X87647305Y-52630454D01*
X87647309Y-52630455D01*
X87647310Y-52630456D01*
X87673285Y-52639545D01*
X87806943Y-52686314D01*
X87974997Y-52705249D01*
X87975000Y-52705249D01*
X87975003Y-52705249D01*
X88143056Y-52686314D01*
X88167682Y-52677697D01*
X88302690Y-52630456D01*
X88302692Y-52630454D01*
X88302694Y-52630454D01*
X88302697Y-52630452D01*
X88445884Y-52540481D01*
X88445885Y-52540480D01*
X88445890Y-52540477D01*
X88565477Y-52420890D01*
X88610019Y-52350002D01*
X88655452Y-52277697D01*
X88655454Y-52277694D01*
X88655454Y-52277692D01*
X88655456Y-52277690D01*
X88711313Y-52118059D01*
X88711313Y-52118058D01*
X88711314Y-52118056D01*
X88730249Y-51950002D01*
X88730249Y-51949997D01*
X88711314Y-51781943D01*
X88655454Y-51622305D01*
X88655452Y-51622302D01*
X88578605Y-51500002D01*
X89207251Y-51500002D01*
X89226185Y-51668056D01*
X89282045Y-51827694D01*
X89282047Y-51827697D01*
X89372018Y-51970884D01*
X89372023Y-51970890D01*
X89491609Y-52090476D01*
X89491615Y-52090481D01*
X89634802Y-52180452D01*
X89634805Y-52180454D01*
X89634809Y-52180455D01*
X89634810Y-52180456D01*
X89673777Y-52194091D01*
X89794443Y-52236314D01*
X89962497Y-52255249D01*
X89962500Y-52255249D01*
X89962503Y-52255249D01*
X90130556Y-52236314D01*
X90130559Y-52236313D01*
X90290190Y-52180456D01*
X90290192Y-52180454D01*
X90290194Y-52180454D01*
X90290197Y-52180452D01*
X90433384Y-52090481D01*
X90433385Y-52090480D01*
X90433390Y-52090477D01*
X90552977Y-51970890D01*
X90566105Y-51949997D01*
X90642952Y-51827697D01*
X90642954Y-51827694D01*
X90642954Y-51827692D01*
X90642956Y-51827690D01*
X90698813Y-51668059D01*
X90698813Y-51668058D01*
X90698814Y-51668056D01*
X90717749Y-51500002D01*
X91482251Y-51500002D01*
X91501185Y-51668056D01*
X91557045Y-51827694D01*
X91557047Y-51827697D01*
X91647018Y-51970884D01*
X91647023Y-51970890D01*
X91766609Y-52090476D01*
X91766615Y-52090481D01*
X91909802Y-52180452D01*
X91909805Y-52180454D01*
X91909809Y-52180455D01*
X91909810Y-52180456D01*
X91948777Y-52194091D01*
X92069443Y-52236314D01*
X92237497Y-52255249D01*
X92237500Y-52255249D01*
X92237503Y-52255249D01*
X92405556Y-52236314D01*
X92405559Y-52236313D01*
X92565190Y-52180456D01*
X92565192Y-52180454D01*
X92565194Y-52180454D01*
X92565197Y-52180452D01*
X92708384Y-52090481D01*
X92708385Y-52090480D01*
X92708390Y-52090477D01*
X92827977Y-51970890D01*
X92841105Y-51949997D01*
X92917952Y-51827697D01*
X92917954Y-51827694D01*
X92917954Y-51827692D01*
X92917956Y-51827690D01*
X92945886Y-51747870D01*
X98809500Y-51747870D01*
X98809501Y-51747876D01*
X98815908Y-51807483D01*
X98866202Y-51942328D01*
X98866206Y-51942335D01*
X98952452Y-52057544D01*
X98952455Y-52057547D01*
X99067664Y-52143793D01*
X99067671Y-52143797D01*
X99202517Y-52194091D01*
X99202516Y-52194091D01*
X99208656Y-52194751D01*
X99262127Y-52200500D01*
X101057872Y-52200499D01*
X101117483Y-52194091D01*
X101252331Y-52143796D01*
X101367546Y-52057546D01*
X101453796Y-51942331D01*
X101502810Y-51810916D01*
X101544681Y-51754984D01*
X101610145Y-51730566D01*
X101678418Y-51745417D01*
X101706672Y-51766569D01*
X101828599Y-51888495D01*
X101916433Y-51949997D01*
X102022165Y-52024032D01*
X102022167Y-52024033D01*
X102022170Y-52024035D01*
X102236337Y-52123903D01*
X102464592Y-52185063D01*
X102641034Y-52200500D01*
X102699999Y-52205659D01*
X102700000Y-52205659D01*
X102700001Y-52205659D01*
X102758966Y-52200500D01*
X102935408Y-52185063D01*
X103163663Y-52123903D01*
X103377830Y-52024035D01*
X103571401Y-51888495D01*
X103738495Y-51721401D01*
X103868730Y-51535405D01*
X103923307Y-51491781D01*
X103992805Y-51484587D01*
X104055160Y-51516110D01*
X104071879Y-51535405D01*
X104201890Y-51721078D01*
X104368917Y-51888105D01*
X104562421Y-52023600D01*
X104776507Y-52123429D01*
X104776516Y-52123433D01*
X104989999Y-52180633D01*
X104989999Y-51462301D01*
X105009683Y-51395262D01*
X105062487Y-51349507D01*
X105131646Y-51339563D01*
X105138380Y-51340531D01*
X105204237Y-51350000D01*
X105204238Y-51350000D01*
X105275762Y-51350000D01*
X105275763Y-51350000D01*
X105348353Y-51339563D01*
X105417512Y-51349507D01*
X105470315Y-51395262D01*
X105490000Y-51462301D01*
X105490000Y-52180633D01*
X105703483Y-52123433D01*
X105703492Y-52123429D01*
X105917578Y-52023600D01*
X106111082Y-51888105D01*
X106278105Y-51721082D01*
X106413600Y-51527578D01*
X106513429Y-51313492D01*
X106513432Y-51313486D01*
X106570636Y-51100000D01*
X105853347Y-51100000D01*
X105786308Y-51080315D01*
X105740553Y-51027511D01*
X105730609Y-50958353D01*
X105734369Y-50941067D01*
X105740000Y-50921888D01*
X105740000Y-50778111D01*
X105734369Y-50758933D01*
X105734370Y-50689064D01*
X105772145Y-50630286D01*
X105835701Y-50601262D01*
X105853347Y-50600000D01*
X106570636Y-50600000D01*
X106570635Y-50599999D01*
X106513432Y-50386513D01*
X106513429Y-50386507D01*
X106413600Y-50172422D01*
X106413599Y-50172420D01*
X106278113Y-49978926D01*
X106278108Y-49978920D01*
X106111082Y-49811894D01*
X105917578Y-49676399D01*
X105703492Y-49576570D01*
X105703486Y-49576567D01*
X105490000Y-49519364D01*
X105490000Y-50237698D01*
X105470315Y-50304737D01*
X105417511Y-50350492D01*
X105348355Y-50360436D01*
X105275766Y-50350000D01*
X105275763Y-50350000D01*
X105204237Y-50350000D01*
X105204233Y-50350000D01*
X105131644Y-50360436D01*
X105062486Y-50350492D01*
X105009683Y-50304736D01*
X104989999Y-50237698D01*
X104989999Y-49519364D01*
X104776513Y-49576567D01*
X104776507Y-49576570D01*
X104562422Y-49676399D01*
X104562420Y-49676400D01*
X104368926Y-49811886D01*
X104368920Y-49811891D01*
X104201891Y-49978920D01*
X104201890Y-49978922D01*
X104071880Y-50164595D01*
X104017303Y-50208219D01*
X103947804Y-50215412D01*
X103885450Y-50183890D01*
X103868730Y-50164594D01*
X103738494Y-49978597D01*
X103571402Y-49811506D01*
X103571395Y-49811501D01*
X103571032Y-49811247D01*
X103494518Y-49757671D01*
X103377834Y-49675967D01*
X103377830Y-49675965D01*
X103377828Y-49675964D01*
X103163663Y-49576097D01*
X103163659Y-49576096D01*
X103163655Y-49576094D01*
X102935413Y-49514938D01*
X102935403Y-49514936D01*
X102700001Y-49494341D01*
X102699999Y-49494341D01*
X102464596Y-49514936D01*
X102464586Y-49514938D01*
X102236344Y-49576094D01*
X102236335Y-49576098D01*
X102022171Y-49675964D01*
X102022169Y-49675965D01*
X101828600Y-49811503D01*
X101706673Y-49933430D01*
X101645350Y-49966914D01*
X101575658Y-49961930D01*
X101519725Y-49920058D01*
X101502810Y-49889081D01*
X101453797Y-49757671D01*
X101453793Y-49757664D01*
X101367547Y-49642455D01*
X101367544Y-49642452D01*
X101252335Y-49556206D01*
X101252328Y-49556202D01*
X101117482Y-49505908D01*
X101117483Y-49505908D01*
X101057883Y-49499501D01*
X101057881Y-49499500D01*
X101057873Y-49499500D01*
X101057864Y-49499500D01*
X99262129Y-49499500D01*
X99262123Y-49499501D01*
X99202516Y-49505908D01*
X99067671Y-49556202D01*
X99067664Y-49556206D01*
X98952455Y-49642452D01*
X98952452Y-49642455D01*
X98866206Y-49757664D01*
X98866202Y-49757671D01*
X98815908Y-49892517D01*
X98809501Y-49952116D01*
X98809500Y-49952135D01*
X98809500Y-51747870D01*
X92945886Y-51747870D01*
X92973813Y-51668059D01*
X92973813Y-51668058D01*
X92973814Y-51668056D01*
X92992749Y-51500002D01*
X92992749Y-51499997D01*
X92973814Y-51331943D01*
X92925808Y-51194751D01*
X92917956Y-51172310D01*
X92917955Y-51172309D01*
X92917954Y-51172305D01*
X92917952Y-51172302D01*
X92827981Y-51029115D01*
X92827976Y-51029109D01*
X92708390Y-50909523D01*
X92708384Y-50909518D01*
X92565197Y-50819547D01*
X92565194Y-50819545D01*
X92405556Y-50763685D01*
X92237503Y-50744751D01*
X92237497Y-50744751D01*
X92069443Y-50763685D01*
X91909805Y-50819545D01*
X91909802Y-50819547D01*
X91766615Y-50909518D01*
X91766609Y-50909523D01*
X91647023Y-51029109D01*
X91647018Y-51029115D01*
X91557047Y-51172302D01*
X91557045Y-51172305D01*
X91501185Y-51331943D01*
X91482251Y-51499997D01*
X91482251Y-51500002D01*
X90717749Y-51500002D01*
X90717749Y-51499997D01*
X90698814Y-51331943D01*
X90650808Y-51194751D01*
X90642956Y-51172310D01*
X90642955Y-51172309D01*
X90642954Y-51172305D01*
X90642952Y-51172302D01*
X90552981Y-51029115D01*
X90552976Y-51029109D01*
X90433390Y-50909523D01*
X90433384Y-50909518D01*
X90290197Y-50819547D01*
X90290194Y-50819545D01*
X90130556Y-50763685D01*
X89962503Y-50744751D01*
X89962497Y-50744751D01*
X89794443Y-50763685D01*
X89634805Y-50819545D01*
X89634802Y-50819547D01*
X89491615Y-50909518D01*
X89491609Y-50909523D01*
X89372023Y-51029109D01*
X89372018Y-51029115D01*
X89282047Y-51172302D01*
X89282045Y-51172305D01*
X89226185Y-51331943D01*
X89207251Y-51499997D01*
X89207251Y-51500002D01*
X88578605Y-51500002D01*
X88565481Y-51479115D01*
X88565476Y-51479109D01*
X88445890Y-51359523D01*
X88445884Y-51359518D01*
X88302697Y-51269547D01*
X88302694Y-51269545D01*
X88143056Y-51213685D01*
X87975003Y-51194751D01*
X87974997Y-51194751D01*
X87806943Y-51213685D01*
X87647305Y-51269545D01*
X87647302Y-51269547D01*
X87504115Y-51359518D01*
X87504109Y-51359523D01*
X87384523Y-51479109D01*
X87384518Y-51479115D01*
X87294547Y-51622302D01*
X87294545Y-51622305D01*
X87238685Y-51781943D01*
X87219751Y-51949997D01*
X87219751Y-51950002D01*
X85700000Y-51950002D01*
X85700000Y-50562905D01*
X85706959Y-50521950D01*
X85736313Y-50438061D01*
X85736313Y-50438059D01*
X85755249Y-50270002D01*
X85755249Y-50269997D01*
X85736314Y-50101945D01*
X85736313Y-50101941D01*
X85706958Y-50018048D01*
X85700000Y-49977094D01*
X85700000Y-49600000D01*
X85377705Y-49600000D01*
X85334831Y-49590215D01*
X85334262Y-49591844D01*
X85327691Y-49589544D01*
X85327690Y-49589544D01*
X85287664Y-49575538D01*
X85168056Y-49533685D01*
X85000003Y-49514751D01*
X84999997Y-49514751D01*
X84831943Y-49533685D01*
X84709396Y-49576567D01*
X84672310Y-49589544D01*
X84672308Y-49589544D01*
X84665738Y-49591844D01*
X84665168Y-49590215D01*
X84622295Y-49600000D01*
X79900000Y-49600000D01*
X79900000Y-54200000D01*
X67000500Y-54200000D01*
X67000500Y-52950002D01*
X77769751Y-52950002D01*
X77788685Y-53118056D01*
X77844545Y-53277694D01*
X77844547Y-53277697D01*
X77934518Y-53420884D01*
X77934523Y-53420890D01*
X78054109Y-53540476D01*
X78054115Y-53540481D01*
X78197302Y-53630452D01*
X78197305Y-53630454D01*
X78197309Y-53630455D01*
X78197310Y-53630456D01*
X78201560Y-53631943D01*
X78356943Y-53686314D01*
X78524997Y-53705249D01*
X78525000Y-53705249D01*
X78525003Y-53705249D01*
X78693056Y-53686314D01*
X78705548Y-53681943D01*
X78852690Y-53630456D01*
X78852692Y-53630454D01*
X78852694Y-53630454D01*
X78852697Y-53630452D01*
X78995884Y-53540481D01*
X78995885Y-53540480D01*
X78995890Y-53540477D01*
X79115477Y-53420890D01*
X79141726Y-53379115D01*
X79205452Y-53277697D01*
X79205454Y-53277694D01*
X79205454Y-53277692D01*
X79205456Y-53277690D01*
X79261313Y-53118059D01*
X79261313Y-53118058D01*
X79261314Y-53118056D01*
X79280249Y-52950002D01*
X79280249Y-52949997D01*
X79261314Y-52781943D01*
X79208306Y-52630456D01*
X79205456Y-52622310D01*
X79205455Y-52622309D01*
X79205454Y-52622305D01*
X79205452Y-52622302D01*
X79115481Y-52479115D01*
X79115476Y-52479109D01*
X78995890Y-52359523D01*
X78995884Y-52359518D01*
X78852697Y-52269547D01*
X78852689Y-52269543D01*
X78845540Y-52267042D01*
X78788764Y-52226321D01*
X78763015Y-52161369D01*
X78776470Y-52092807D01*
X78824857Y-52042404D01*
X78845540Y-52032958D01*
X78847369Y-52032317D01*
X78852690Y-52030456D01*
X78852693Y-52030453D01*
X78852697Y-52030452D01*
X78995884Y-51940481D01*
X78995885Y-51940480D01*
X78995890Y-51940477D01*
X79115477Y-51820890D01*
X79115481Y-51820884D01*
X79205452Y-51677697D01*
X79205454Y-51677694D01*
X79205454Y-51677692D01*
X79205456Y-51677690D01*
X79261313Y-51518059D01*
X79261313Y-51518058D01*
X79261314Y-51518056D01*
X79280249Y-51350000D01*
X79280249Y-51349997D01*
X79261314Y-51181943D01*
X79205454Y-51022305D01*
X79205452Y-51022302D01*
X79115481Y-50879115D01*
X79115476Y-50879109D01*
X78995890Y-50759523D01*
X78995884Y-50759518D01*
X78852697Y-50669547D01*
X78852694Y-50669545D01*
X78693056Y-50613685D01*
X78525003Y-50594751D01*
X78524997Y-50594751D01*
X78356943Y-50613685D01*
X78197305Y-50669545D01*
X78197302Y-50669547D01*
X78054115Y-50759518D01*
X78054109Y-50759523D01*
X77934523Y-50879109D01*
X77934518Y-50879115D01*
X77844547Y-51022302D01*
X77844545Y-51022305D01*
X77788685Y-51181943D01*
X77769751Y-51349997D01*
X77769751Y-51350000D01*
X77788685Y-51518056D01*
X77844545Y-51677694D01*
X77844547Y-51677697D01*
X77934518Y-51820884D01*
X77934523Y-51820890D01*
X78054109Y-51940476D01*
X78054115Y-51940481D01*
X78197302Y-52030452D01*
X78197307Y-52030454D01*
X78197310Y-52030456D01*
X78197313Y-52030457D01*
X78204461Y-52032959D01*
X78261237Y-52073681D01*
X78286984Y-52138634D01*
X78273527Y-52207195D01*
X78225140Y-52257598D01*
X78204461Y-52267041D01*
X78197313Y-52269542D01*
X78197302Y-52269547D01*
X78054115Y-52359518D01*
X78054109Y-52359523D01*
X77934523Y-52479109D01*
X77934518Y-52479115D01*
X77844547Y-52622302D01*
X77844545Y-52622305D01*
X77788685Y-52781943D01*
X77769751Y-52949997D01*
X77769751Y-52950002D01*
X67000500Y-52950002D01*
X67000500Y-49124500D01*
X67020185Y-49057461D01*
X67072989Y-49011706D01*
X67124500Y-49000500D01*
X108875500Y-49000500D01*
X108942539Y-49020185D01*
G37*
%TD.AperFunction*%
%TD*%
M02*
